<svg xmlns="http://www.w3.org/2000/svg" xmlns:xlink="http://www.w3.org/1999/xlink" width="659" height="647" viewBox="0 0 659 647"><defs><filter id="a" x="3" y="243" width="653" height="104" filterUnits="userSpaceOnUse"><feOffset input="SourceAlpha"/><feGaussianBlur stdDeviation="4" result="b"/><feFlood flood-color="#4fbcc9"/><feComposite operator="in" in2="b"/><feComposite in="SourceGraphic"/></filter><filter id="c" x="160.5" y="209" width="20" height="178.5" filterUnits="userSpaceOnUse"><feOffset dy="3" input="SourceAlpha"/><feGaussianBlur stdDeviation="3" result="d"/><feFlood flood-color="#c94f4f"/><feComposite operator="in" in2="d"/><feComposite in="SourceGraphic"/></filter><filter id="e" x="0" y="0" width="659" height="110" filterUnits="userSpaceOnUse"><feOffset input="SourceAlpha"/><feGaussianBlur stdDeviation="5" result="f"/><feFlood flood-color="#53a4d4"/><feComposite operator="in" in2="f"/><feComposite in="SourceGraphic"/></filter><filter id="g" x="185.5" y="23.759" width="72.763" height="69.001" filterUnits="userSpaceOnUse"><feOffset dy="3" input="SourceAlpha"/><feGaussianBlur stdDeviation="3" result="h"/><feFlood flood-opacity="0.161"/><feComposite operator="in" in2="h"/><feComposite in="SourceGraphic"/></filter><filter id="i" x="322" y="363" width="334" height="104" filterUnits="userSpaceOnUse"><feOffset input="SourceAlpha"/><feGaussianBlur stdDeviation="4" result="j"/><feFlood flood-color="#4fbcc9"/><feComposite operator="in" in2="j"/><feComposite in="SourceGraphic"/></filter><filter id="k" x="3" y="483" width="334" height="164" filterUnits="userSpaceOnUse"><feOffset input="SourceAlpha"/><feGaussianBlur stdDeviation="4" result="l"/><feFlood flood-color="#fff"/><feComposite operator="in" in2="l"/><feComposite in="SourceGraphic"/></filter><filter id="m" x="322" y="483" width="334" height="164" filterUnits="userSpaceOnUse"><feOffset input="SourceAlpha"/><feGaussianBlur stdDeviation="4" result="n"/><feFlood flood-color="#fff"/><feComposite operator="in" in2="n"/><feComposite in="SourceGraphic"/></filter><filter id="o" x="3" y="123" width="653" height="104" filterUnits="userSpaceOnUse"><feOffset input="SourceAlpha"/><feGaussianBlur stdDeviation="4" result="p"/><feFlood flood-color="#53a4d4"/><feComposite operator="in" in2="p"/><feComposite in="SourceGraphic"/></filter></defs><g transform="translate(-342 -125)"><g transform="translate(-1 -40)"><g transform="translate(-10 -6)"><text transform="translate(687 482)" fill="#4fbcc9" font-size="20" font-family="Arial-BoldMT, Arial" font-weight="700"><tspan x="0" y="0">PCIe Bus</tspan></text><g transform="translate(588.5 477.5)"><path d="M34.75-31.5V-8.877H32.072v5.259H25.8v2.282H.5V6.192H25.8V8.5H52.572V6.192H77.919V-1.336H52.572V-3.618H46.379V-8.877H43.653V-31.5Zm1.719,1.443H41.95v21.18H36.469ZM33.775-7.434H44.66v5.259h6.209V7.057H27.5V-2.175h6.271ZM2.219.107H25.8v4.63H2.219Zm50.353,0H76.2v4.63H52.572Z" transform="translate(0 0)" fill="#4fbcc9" stroke="#4fbcc9" stroke-width="1" fill-rule="evenodd"/></g></g><g transform="matrix(1, 0, 0, 1, 343, 165)" filter="url(#a)"><g transform="translate(15 255)" fill="none" stroke="#4fbcc9" stroke-width="2"><rect width="629" height="80" rx="40" stroke="none"/><rect x="1" y="1" width="627" height="78" rx="39" fill="none"/></g></g></g><g transform="translate(-6 -29.5)"><g transform="matrix(1, 0, 0, 1, 348, 154.5)" filter="url(#c)"><line y2="160.5" transform="translate(170.5 215)" fill="none" stroke="#c94f4f" stroke-width="2"/></g></g><g transform="translate(0 29)"><g transform="matrix(1, 0, 0, 1, 342, 96)" filter="url(#e)"><g transform="translate(15 15)" fill="none" stroke="#53a4d4" stroke-width="2"><rect width="629" height="80" rx="40" stroke="none"/><rect x="1" y="1" width="627" height="78" rx="39" fill="none"/></g></g><g transform="translate(-29 -15)"><text transform="translate(640 173)" fill="#53a4d4" font-size="20" font-family="Arial-BoldMT, Arial" font-weight="700"><tspan x="0" y="0">OS and Applications</tspan></text><g transform="translate(218 -339.241)"><g transform="matrix(1, 0, 0, 1, 153, 450.24)" filter="url(#g)"><path d="M282,198.5v41.1h22.452a18.586,18.586,0,0,1-.108,2.161,3.379,3.379,0,0,1-2.387,3.29c-1.688.72-3.1,1.011-4.172,1.516-1.7.7-2.2,1.28-2.29,1.893l26.849.043c-.021-.613-.613-1.161-1.505-1.559-1.237-.559-2.839-1.086-4.387-1.613-2.011-.774-2.452-1.151-2.871-2.645a10.715,10.715,0,0,1-.172-3.086h22.355V198.5Zm1.323,1.323h51.118v34.462H283.323Z" transform="translate(-87 -168.24)" fill="#53a4d4" stroke="#53a4d4" stroke-width="1"/></g><g transform="translate(361.387 491.195)"><path d="M300.412,384.6c-.587-.1-1.258-.206-1.924-.337a.941.941,0,0,0-.609.1,1.467,1.467,0,0,0-.88,1.063,11.018,11.018,0,0,1-.43,1.184,1.14,1.14,0,0,1-1.171.8q-.975.007-1.951,0a1.133,1.133,0,0,1-1.172-.8c-.206-.543-.389-1.094-.61-1.631a1.26,1.26,0,0,0-.334-.392,1.564,1.564,0,0,0-1.554-.233c-.38.089-.768.147-1.153.214a1.171,1.171,0,0,1-1.32-.607c-.322-.546-.649-1.089-.965-1.639a1.093,1.093,0,0,1,.131-1.412c.364-.434.728-.869,1.106-1.292a.944.944,0,0,0,.224-.593,1.4,1.4,0,0,0-.45-1.209c-.323-.321-.6-.687-.893-1.034a1.1,1.1,0,0,1-.126-1.387q.486-.835.982-1.663a1.148,1.148,0,0,1,1.3-.587c.61.1,1.216.219,1.827.307a1.055,1.055,0,0,0,.454-.082,1.562,1.562,0,0,0,1-1.214c.1-.365.25-.717.382-1.074a1.147,1.147,0,0,1,1.171-.8q.96,0,1.92,0a1.151,1.151,0,0,1,1.154.787c.2.534.4,1.069.583,1.608a1.029,1.029,0,0,0,.408.485,1.538,1.538,0,0,0,1.414.213c.439-.1.891-.165,1.338-.236a1.084,1.084,0,0,1,1.165.505c.381.6.743,1.221,1.09,1.845a1.049,1.049,0,0,1-.139,1.259c-.388.467-.8.919-1.175,1.392a.992.992,0,0,0-.178.454,1.454,1.454,0,0,0,.471,1.348,12.275,12.275,0,0,1,.9,1.066,1.089,1.089,0,0,1,.108,1.315c-.32.57-.659,1.13-.994,1.691A1.193,1.193,0,0,1,300.412,384.6Zm-5.686,1.613v.012a3,3,0,0,1,.4,0c.26.036.375-.06.449-.309.176-.594.374-1.183.6-1.76a1.1,1.1,0,0,1,.4-.451c.284-.2.62-.322.9-.524a1.049,1.049,0,0,1,.872-.176c.617.115,1.237.214,1.854.331a.319.319,0,0,0,.408-.2c.21-.433.44-.857.681-1.275a.283.283,0,0,0-.039-.394c-.417-.456-.812-.931-1.231-1.386a.935.935,0,0,1-.27-.761,6.4,6.4,0,0,0,0-1.017.834.834,0,0,1,.224-.656c.434-.495.849-1,1.285-1.5a.283.283,0,0,0,.019-.414c-.282-.417-.548-.845-.8-1.277a.263.263,0,0,0-.343-.143c-.642.143-1.287.283-1.938.381a1.189,1.189,0,0,1-.63-.131c-.314-.146-.59-.369-.9-.513a.939.939,0,0,1-.541-.572c-.219-.623-.456-1.239-.679-1.861-.05-.14-.11-.212-.284-.2-.494.028-.989.046-1.484.044-.219,0-.328.055-.393.27-.185.612-.38,1.223-.612,1.819a1.148,1.148,0,0,1-.426.473c-.31.211-.659.368-.978.568a.856.856,0,0,1-.669.128c-.676-.136-1.358-.24-2.035-.368a.245.245,0,0,0-.308.162c-.227.447-.461.892-.707,1.329a.279.279,0,0,0,.043.391c.446.471.889.946,1.3,1.443a1.052,1.052,0,0,1,.212.564,7.391,7.391,0,0,1,0,1.2,1.155,1.155,0,0,1-.213.595c-.412.524-.857,1.025-1.3,1.525a.269.269,0,0,0-.038.388q.42.628.8,1.278a.285.285,0,0,0,.374.145c.592-.134,1.189-.243,1.783-.367a1,1,0,0,1,.842.17c.279.2.612.332.895.528a1.206,1.206,0,0,1,.431.467c.263.628.486,1.271.713,1.912a.256.256,0,0,0,.314.2C294.046,386.253,294.386,386.239,294.726,386.218Z" transform="translate(-286.14 -370.284)" fill="#53a4d4" stroke="#53a4d4" stroke-width="1"/><path d="M371.916,468.24a3.056,3.056,0,1,1,3.165-2.972A3.082,3.082,0,0,1,371.916,468.24Zm0-1.2A1.855,1.855,0,1,0,370,465.186,1.892,1.892,0,0,0,371.912,467.041Z" transform="translate(-363.64 -456.614)" fill="#53a4d4" stroke="#53a4d4" stroke-width="1"/></g><g transform="translate(378.09 497.574)"><path d="M295.1,379.274c-.368-.063-.79-.129-1.208-.211a.591.591,0,0,0-.382.065.921.921,0,0,0-.552.667,6.9,6.9,0,0,1-.27.743.715.715,0,0,1-.735.5q-.612,0-1.225,0a.711.711,0,0,1-.736-.5c-.13-.341-.245-.687-.383-1.024a.791.791,0,0,0-.209-.246.982.982,0,0,0-.976-.146c-.239.056-.482.092-.724.134a.735.735,0,0,1-.829-.381c-.2-.343-.408-.684-.606-1.029a.686.686,0,0,1,.082-.886c.229-.273.457-.546.694-.811a.593.593,0,0,0,.14-.373.88.88,0,0,0-.283-.759c-.2-.2-.376-.431-.56-.649a.69.69,0,0,1-.079-.871q.305-.524.617-1.044a.72.72,0,0,1,.815-.368c.383.062.763.137,1.147.193a.662.662,0,0,0,.285-.051.981.981,0,0,0,.628-.762c.063-.229.157-.45.24-.674a.72.72,0,0,1,.735-.5q.6,0,1.205,0a.723.723,0,0,1,.724.494c.127.335.25.671.366,1.01a.646.646,0,0,0,.256.3.965.965,0,0,0,.888.134c.276-.066.559-.1.84-.148a.68.68,0,0,1,.731.317c.239.38.466.767.684,1.158a.658.658,0,0,1-.087.791c-.244.293-.5.577-.738.874a.623.623,0,0,0-.112.285.913.913,0,0,0,.3.846,7.7,7.7,0,0,1,.565.669.683.683,0,0,1,.068.826c-.2.358-.414.709-.624,1.062A.749.749,0,0,1,295.1,379.274Zm-3.57,1.013v.008a1.88,1.88,0,0,1,.252,0c.163.022.236-.038.282-.194.11-.373.235-.742.377-1.1a.692.692,0,0,1,.254-.283c.178-.122.389-.2.563-.329a.659.659,0,0,1,.547-.11c.388.072.777.135,1.164.208a.2.2,0,0,0,.256-.126c.132-.272.276-.538.427-.8a.178.178,0,0,0-.025-.247c-.262-.286-.51-.584-.773-.87a.587.587,0,0,1-.17-.478,4.02,4.02,0,0,0,0-.638.524.524,0,0,1,.141-.412c.273-.311.533-.631.807-.94a.178.178,0,0,0,.012-.26c-.177-.262-.344-.53-.505-.8a.165.165,0,0,0-.215-.09c-.4.09-.808.177-1.216.239a.747.747,0,0,1-.4-.082c-.2-.092-.37-.232-.568-.322a.59.59,0,0,1-.34-.359c-.138-.391-.287-.778-.426-1.168-.031-.088-.069-.133-.178-.127-.31.018-.621.029-.932.028-.137,0-.206.034-.247.17-.116.384-.238.768-.384,1.142a.72.72,0,0,1-.267.3c-.195.133-.414.231-.614.357a.537.537,0,0,1-.42.08c-.424-.085-.852-.151-1.278-.231a.154.154,0,0,0-.194.1c-.143.281-.289.56-.444.834a.175.175,0,0,0,.027.245c.28.3.558.594.818.906a.66.66,0,0,1,.133.354,4.639,4.639,0,0,1,0,.751.725.725,0,0,1-.134.373c-.259.329-.538.643-.816.957a.169.169,0,0,0-.024.244q.263.394.5.8a.179.179,0,0,0,.235.091c.371-.084.747-.153,1.12-.23a.625.625,0,0,1,.529.106c.175.126.384.208.562.332a.758.758,0,0,1,.27.293c.165.394.305.8.448,1.2a.161.161,0,0,0,.2.126C291.1,380.309,291.317,380.3,291.53,380.287Z" transform="translate(-286.14 -370.284)" fill="#53a4d4" stroke="#53a4d4" stroke-width="1"/><path d="M370.744,465.966a1.918,1.918,0,1,1,1.987-1.866A1.935,1.935,0,0,1,370.744,465.966Zm0-.753a1.165,1.165,0,1,0-1.2-1.165A1.188,1.188,0,0,0,370.742,465.213Z" transform="translate(-365.549 -458.667)" fill="#53a4d4" stroke="#53a4d4" stroke-width="1"/></g></g></g></g><g transform="translate(-1 -77)"><g transform="translate(357 577)" fill="none" stroke="#c94f4f" stroke-width="2"><rect width="310" height="80" rx="40" stroke="none"/><rect x="1" y="1" width="308" height="78" rx="39" fill="none"/></g><g transform="translate(0 -14)"><text transform="translate(482 638)" fill="#c94f4f" font-size="20" font-family="Arial-BoldMT, Arial" font-weight="700"><tspan x="0" y="0">RAID Controller</tspan></text><g transform="translate(392 639)"><path d="M0-30V9.4H5.054v5.282H22.638V9.4h4.3v5.282H48.818V9.4h4.676v5.282H70V-30H28.49v4.17H10.836V-30Zm1.5,2.125h7.84v4.17h20.65v-4.17H68.5V12.556H54.992V7.274H47.32v5.282H28.434V7.274H21.14v5.282H6.552V7.274H1.5Zm58.254,6.514v6.394H65v-6.394Zm-29.722.377V.78H41.3V-20.984Zm19.964,0v6.315h5.348v-6.315Zm-24.262.834c-.42,0-.756.477-.756,1.053,0,.6.336,1.072.756,1.072h3.024c.406,0,.742-.477.742-1.072,0-.576-.336-1.053-.742-1.053Zm16.814,0c-.42,0-.742.477-.742,1.053,0,.6.322,1.072.742,1.072H45.57c.42,0,.742-.477.742-1.072,0-.576-.322-1.053-.742-1.053ZM5.754-18.721V-.153H16.982V-18.721Zm19.978,2.164a.714.714,0,0,0-.672.516,1.473,1.473,0,0,0,0,1.092.77.77,0,0,0,.672.516h3.024a.768.768,0,0,0,.658-.516,1.472,1.472,0,0,0,0-1.092.711.711,0,0,0-.658-.516Zm16.814,0a.726.726,0,0,0-.672.516,1.624,1.624,0,0,0,0,1.092.785.785,0,0,0,.672.516H45.57a.77.77,0,0,0,.672-.516,1.472,1.472,0,0,0,0-1.092.714.714,0,0,0-.672-.516ZM25.732-12.962a.714.714,0,0,0-.672.516,1.473,1.473,0,0,0,0,1.092.77.77,0,0,0,.672.516h3.024a.768.768,0,0,0,.658-.516,1.472,1.472,0,0,0,0-1.092.711.711,0,0,0-.658-.516Zm16.814,0a.726.726,0,0,0-.672.516,1.624,1.624,0,0,0,0,1.092.785.785,0,0,0,.672.516H45.57a.769.769,0,0,0,.672-.516,1.472,1.472,0,0,0,0-1.092.714.714,0,0,0-.672-.516ZM25.732-9.367a.747.747,0,0,0-.658.536,1.512,1.512,0,0,0,0,1.052.746.746,0,0,0,.658.536h3.024a.745.745,0,0,0,.644-.536,1.512,1.512,0,0,0,0-1.052.746.746,0,0,0-.644-.536Zm16.814,0a.731.731,0,0,0-.644.536,1.372,1.372,0,0,0,0,1.052.731.731,0,0,0,.644.536H45.57a.731.731,0,0,0,.644-.536,1.372,1.372,0,0,0,0-1.052.731.731,0,0,0-.644-.536ZM25.732-5.773c-.42,0-.756.477-.756,1.072,0,.576.336,1.052.756,1.052h3.024c.406,0,.742-.476.742-1.052,0-.6-.336-1.072-.742-1.072Zm16.814,0c-.42,0-.742.477-.742,1.072,0,.576.322,1.052.742,1.052H45.57c.42,0,.742-.476.742-1.052,0-.6-.322-1.072-.742-1.072ZM25.732-2.179c-.42,0-.756.477-.756,1.072,0,.576.336,1.052.756,1.052h3.024c.406,0,.742-.476.742-1.052,0-.6-.336-1.072-.742-1.072Zm16.814,0c-.42,0-.742.477-.742,1.072,0,.576.322,1.052.742,1.052H45.57c.42,0,.742-.476.742-1.052,0-.6-.322-1.072-.742-1.072ZM45.01,5.129h0c-.42,0-.742.476-.742,1.072V10.55c0,.6.336,1.072.756,1.072s.742-.476.742-1.072V6.2a1.3,1.3,0,0,0-.224-.774A.606.606,0,0,0,45.01,5.129Zm-36.176,0c-.406,0-.742.476-.728,1.072V10.55c0,.6.322,1.072.742,1.072s.742-.476.742-1.072V6.2a1.4,1.4,0,0,0-.21-.774A.644.644,0,0,0,8.834,5.129Zm9.772,0c-.406,0-.742.476-.728,1.072V10.55c0,.6.336,1.072.742,1.072s.742-.476.742-1.072V6.2a1.3,1.3,0,0,0-.21-.774A.613.613,0,0,0,18.606,5.129Zm-6.51,0c-.42,0-.742.476-.742,1.072V10.55c0,.6.336,1.072.756,1.072s.742-.476.742-1.072V6.2a1.3,1.3,0,0,0-.224-.774A.606.606,0,0,0,12.1,5.129Zm3.262,0c-.42,0-.742.476-.742,1.072V10.55c0,.6.336,1.072.742,1.072s.756-.476.756-1.072V6.2a1.41,1.41,0,0,0-.224-.774A.606.606,0,0,0,15.358,5.129Zm15.6,0c-.42,0-.742.476-.742,1.072V10.55c0,.6.336,1.072.756,1.072s.742-.476.742-1.072V6.2a1.412,1.412,0,0,0-.224-.774A.607.607,0,0,0,30.954,5.129Zm3.514,0c-.42,0-.742.476-.742,1.072V10.55a1.152,1.152,0,0,0,.378.913.537.537,0,0,0,.742,0,1.152,1.152,0,0,0,.378-.913V6.2A1.3,1.3,0,0,0,35,5.427.606.606,0,0,0,34.468,5.129Zm3.514,0c-.42,0-.742.476-.742,1.072V10.55c0,.6.336,1.072.756,1.072s.742-.476.742-1.072V6.2a1.3,1.3,0,0,0-.224-.774A.606.606,0,0,0,37.982,5.129Zm3.514,0c-.42,0-.742.476-.742,1.072V10.55c0,.6.336,1.072.756,1.072s.742-.476.742-1.072V6.2a1.3,1.3,0,0,0-.224-.774A.606.606,0,0,0,41.5,5.129Zm15.708,0c-.42,0-.742.476-.742,1.072V10.55a1.186,1.186,0,0,0,.364.953.554.554,0,0,0,.756,0,1.24,1.24,0,0,0,.378-.953V6.2a1.462,1.462,0,0,0-.224-.774A.653.653,0,0,0,57.2,5.129Zm3.094,0a.635.635,0,0,0-.518.318,1.344,1.344,0,0,0-.224.755V10.55a1.2,1.2,0,0,0,.378.913.554.554,0,0,0,.756,0,1.191,1.191,0,0,0,.364-.913V6.2a1.452,1.452,0,0,0-.21-.774A.644.644,0,0,0,60.3,5.129Zm3.108,0c-.42,0-.742.476-.742,1.072V10.55a1.233,1.233,0,0,0,.364.953.572.572,0,0,0,.77,0,1.284,1.284,0,0,0,.364-.953V6.2a1.461,1.461,0,0,0-.224-.774A.653.653,0,0,0,63.406,5.129Zm3.094,0c-.406,0-.742.476-.728,1.072V10.55a1.191,1.191,0,0,0,.364.913.554.554,0,0,0,.756,0,1.191,1.191,0,0,0,.364-.913V6.2a1.3,1.3,0,0,0-.21-.774A.628.628,0,0,0,66.5,5.129Z" fill="#c94f4f" fill-rule="evenodd"/></g></g></g><g transform="translate(-21 -80)"><g transform="matrix(1, 0, 0, 1, 363, 205)" filter="url(#i)"><g transform="translate(334 375)" fill="none" stroke="#4fbcc9" stroke-width="2"><rect width="310" height="80" rx="40" stroke="none"/><rect x="1" y="1" width="308" height="78" rx="39" fill="none"/></g></g><g transform="translate(2 -14)"><text transform="translate(805.617 641)" fill="#4fbcc9" font-size="20" font-family="Arial-BoldMT, Arial" font-weight="700"><tspan x="0" y="0">PCIe Switch</tspan></text><g transform="translate(725 618.891)"><g transform="translate(40)"><path d="M18.931,11.257H13.919V12.48l-2.8-2.449,2.8-2.4V8.948h5.011ZM1.178,8.852H6.19V7.629l2.8,2.449-2.8,2.4V11.16H1.178Zm7.67,2.461V16.32H7.629l2.449,2.807,2.4-2.807H11.16V11.313Zm0-2.518V3.789H7.629L10.079.981l2.4,2.807H11.16V8.8ZM10.054,0A10.054,10.054,0,1,0,20.109,10.054,10.058,10.058,0,0,0,10.054,0Zm0,.676A9.379,9.379,0,1,1,.676,10.054,9.373,9.373,0,0,1,10.054.676Z" fill="#4fbcc9"/></g><g transform="translate(0 0.109)"><path d="M27.044-31.5v17.533H24.968v4.076h-4.86v1.769H.5v5.834H20.108V-.5H40.856V-2.289H60.5V-8.123H40.856V-9.891h-4.8v-4.076H33.944V-31.5Zm1.332,1.118h4.248v16.415H28.376ZM26.288-12.849h8.436v4.076h4.812v7.155H21.428V-8.773h4.86ZM1.832-7H20.108v3.588H1.832ZM40.856-7H59.168v3.588H40.856Z" transform="translate(-0.5 31.5)" fill="#4fbcc9" stroke="#4fbcc9" stroke-width="1" fill-rule="evenodd"/><path d="M26.544,0V17.533H24.468v4.076h-4.86v1.769H0v5.834H19.608V31H40.356V29.211H60V23.377H40.356V21.609h-4.8V17.533H33.444V0Zm1.332,1.118h4.248V17.533H27.876ZM25.788,18.651h8.436v4.076h4.812v7.155H20.928V22.727h4.86ZM1.332,24.5H19.608v3.588H1.332Zm39.024,0H58.668v3.588H40.356Z" fill="#4fbcc9" stroke="#4fbcc9" stroke-miterlimit="8" stroke-width="1"/></g></g></g></g><g transform="translate(0 -105)"><g transform="matrix(1, 0, 0, 1, 342, 230)" filter="url(#k)"><g transform="translate(15 495)" fill="none" stroke="#fff" stroke-width="2"><rect width="310" height="140" rx="40" stroke="none"/><rect x="1" y="1" width="308" height="138" rx="39" fill="none"/></g></g><text transform="translate(407 763)" fill="#fff" font-size="20" font-family="Arial-BoldMT, Arial" font-weight="700"><tspan x="0" y="0" xml:space="preserve">SAS and SATA  Drives</tspan></text><g transform="translate(390.5 838.5)"><path d="M.5-51.5v51h36v-51Zm1.872,1.867H34.628V-2.367H2.372ZM4.655-48.5a1.292,1.292,0,0,0-1.286,1.3,1.283,1.283,0,0,0,1.286,1.285,1.285,1.285,0,0,0,1.3-1.285A1.294,1.294,0,0,0,4.655-48.5Zm27.6,0a1.294,1.294,0,0,0-1.3,1.3,1.285,1.285,0,0,0,1.3,1.285,1.292,1.292,0,0,0,1.3-1.285A1.3,1.3,0,0,0,32.252-48.5Zm-13.67.714A14.447,14.447,0,0,0,4.131-33.375a14.436,14.436,0,0,0,9.792,13.648L15.394-21.2a12.693,12.693,0,0,1-9.4-12.179,12.559,12.559,0,0,1,12.59-12.556A12.55,12.55,0,0,1,31.162-33.375,12.559,12.559,0,0,1,19.333-20.839l-.956,1.877a1.39,1.39,0,0,0,.206.01A14.45,14.45,0,0,0,33.034-33.375,14.447,14.447,0,0,0,18.582-47.787Zm0,9.119a5.311,5.311,0,0,0-5.307,5.294,5.311,5.311,0,0,0,5.307,5.294,5.311,5.311,0,0,0,5.307-5.294A5.311,5.311,0,0,0,18.582-38.668Zm0,1.867a3.418,3.418,0,0,1,3.435,3.427,3.418,3.418,0,0,1-3.435,3.427,3.421,3.421,0,0,1-3.446-3.427A3.421,3.421,0,0,1,18.582-36.8Zm0,2.142a1.285,1.285,0,0,0-1.3,1.285,1.294,1.294,0,0,0,1.3,1.3,1.3,1.3,0,0,0,1.3-1.3A1.292,1.292,0,0,0,18.582-34.66Zm2,9.455L4.789-8.9,9.428-5.4ZM4.655-6.273a1.292,1.292,0,0,0-1.286,1.3A1.283,1.283,0,0,0,4.655-3.693a1.285,1.285,0,0,0,1.3-1.285A1.294,1.294,0,0,0,4.655-6.273Zm27.6,0a1.294,1.294,0,0,0-1.3,1.3,1.285,1.285,0,0,0,1.3,1.285,1.292,1.292,0,0,0,1.3-1.285A1.3,1.3,0,0,0,32.252-6.273Z" fill="#fff" fill-rule="evenodd"/><g transform="translate(0.5 -51.5)"><path d="M0,0V51H36V0ZM1.872,1.867H34.128V49.133H1.872ZM4.155,3a1.29,1.29,0,1,0,1.3,1.3A1.292,1.292,0,0,0,4.155,3Zm27.6,0a1.29,1.29,0,1,0,1.3,1.3A1.294,1.294,0,0,0,31.752,3Zm-13.67.714a14.41,14.41,0,0,0-4.659,28.06L14.894,30.3a12.693,12.693,0,0,1-9.4-12.179A12.585,12.585,0,1,1,18.833,30.661l-.956,1.877a1.389,1.389,0,0,0,.206.01,14.418,14.418,0,1,0,0-28.835Zm0,9.119a5.294,5.294,0,1,0,5.307,5.294A5.311,5.311,0,0,0,18.082,12.832Zm0,1.867a3.427,3.427,0,1,1-3.446,3.427A3.418,3.418,0,0,1,18.082,14.7Zm0,2.142a1.29,1.29,0,1,0,0,2.581,1.29,1.29,0,1,0,0-2.581Zm2,9.455L4.289,42.6,8.928,46.1ZM4.155,45.227a1.29,1.29,0,1,0,1.3,1.3A1.292,1.292,0,0,0,4.155,45.227Zm27.6,0a1.29,1.29,0,1,0,1.3,1.3A1.294,1.294,0,0,0,31.752,45.227Z" fill="none" stroke="#fff" stroke-miterlimit="8" stroke-width="0.744"/></g></g><g transform="translate(503 832)"><path d="M0-40V0H56V-23.775H51.027v-4.417H56V-40Zm1.971,1.994H9.61v4.484H13.1v-4.484H37.453v4.5h3.494v-4.5H54.029V-30.2H49.056v8.428h4.973V-1.994H40.97V-6.141H37.475v4.146H13.115V-6.118H9.621v4.124H1.971Zm46.178,1.059a1,1,0,0,0-1,1,1,1,0,0,0,1,1H52.2a1,1,0,0,0,.986-1,1,1,0,0,0-.986-1Zm0,4a1,1,0,0,0-1,1,1,1,0,0,0,1,1H52.2a1,1,0,0,0,.986-1,1,1,0,0,0-.986-1Zm-38.2,2.6a3.428,3.428,0,0,0-3.394,3.437V-12.62A3.428,3.428,0,0,0,9.946-9.183H40.533a3.431,3.431,0,0,0,3.4-3.437V-26.907a3.431,3.431,0,0,0-3.4-3.437Zm0,1.994H40.533a1.41,1.41,0,0,1,1.422,1.442V-12.62a1.4,1.4,0,0,1-1.422,1.442H9.946A1.4,1.4,0,0,1,8.523-12.62V-26.907A1.41,1.41,0,0,1,9.946-28.349ZM25.066-25.6a4.97,4.97,0,0,0-2.632.6A2.972,2.972,0,0,0,21-22.6a2.923,2.923,0,0,0,1.579,2.682,10.488,10.488,0,0,0,2.9.946,3.39,3.39,0,0,1,1.613.71,1.133,1.133,0,0,1,.28.868,1.286,1.286,0,0,1-.6,1,2.9,2.9,0,0,1-1.669.383h-.011a2.258,2.258,0,0,1-1.49-.439,2.322,2.322,0,0,1-.851-1.679l-2.128.248a4.312,4.312,0,0,0,1.546,3.008,4.752,4.752,0,0,0,2.923.789A5.2,5.2,0,0,0,28-14.772a3.267,3.267,0,0,0,1.5-2.715,2.879,2.879,0,0,0-.907-2.377,5.312,5.312,0,0,0-2.576-1.217,9.812,9.812,0,0,1-2.251-.642,1.04,1.04,0,0,1-.638-1.014.789.789,0,0,1,.482-.721,2.216,2.216,0,0,1,1.266-.327,2.466,2.466,0,0,1,1.49.316,1.855,1.855,0,0,1,.65,1.318l2.206-.169a3.375,3.375,0,0,0-1.266-2.513A5.1,5.1,0,0,0,25.066-25.6Zm-10.259.023a5.093,5.093,0,0,0-2.643.6,2.98,2.98,0,0,0-1.422,2.411,2.91,2.91,0,0,0,1.568,2.67,10.921,10.921,0,0,0,2.9.958,3.388,3.388,0,0,1,1.624.71,1.1,1.1,0,0,1,.269.856,1.272,1.272,0,0,1-.594,1,2.9,2.9,0,0,1-1.68.394h0a2.338,2.338,0,0,1-1.5-.451,2.316,2.316,0,0,1-.851-1.679l-2.128.248a4.354,4.354,0,0,0,1.546,3.008,4.838,4.838,0,0,0,2.923.8,5.179,5.179,0,0,0,2.912-.687,3.288,3.288,0,0,0,1.5-2.727,2.921,2.921,0,0,0-.9-2.377,5.5,5.5,0,0,0-2.587-1.217A9.812,9.812,0,0,1,13.5-21.7a1.045,1.045,0,0,1-.638-1.014.807.807,0,0,1,.482-.721,2.27,2.27,0,0,1,1.266-.327,2.527,2.527,0,0,1,1.49.316,1.929,1.929,0,0,1,.661,1.318l2.2-.158A3.346,3.346,0,0,0,17.7-24.8,5.02,5.02,0,0,0,14.806-25.577Zm16.565.169v11.132h4.8a3.921,3.921,0,0,0,3.17-1.465A5.487,5.487,0,0,0,40.6-19.628a6.489,6.489,0,0,0-1.21-4.237c-1.008-1.363-2.106-1.544-3.618-1.544Zm2.24,1.837h2.206a2.776,2.776,0,0,1,1.915.913c.571.789.56,1.4.56,2.918a4.24,4.24,0,0,1-.56,2.772,2.124,2.124,0,0,1-1.613.834H33.611Zm14.538,2.783a.992.992,0,0,0-1,.992,1,1,0,0,0,1,1H52.2a1,1,0,0,0,.986-1,.99.99,0,0,0-.986-.992Zm0,4.011a.992.992,0,0,0-1,.992,1,1,0,0,0,1,1H52.2a1,1,0,0,0,.986-1,.99.99,0,0,0-.986-.992Zm0,4.011a.992.992,0,0,0-1,.991,1,1,0,0,0,1,1H52.2a1,1,0,0,0,.986-1,.99.99,0,0,0-.986-.991Zm0,4.011a.992.992,0,0,0-1,.992,1,1,0,0,0,1,1H52.2a1,1,0,0,0,.986-1,.99.99,0,0,0-.986-.992Zm0,4.011a.992.992,0,0,0-1,.992,1,1,0,0,0,1,1H52.2a1,1,0,0,0,.986-1,.99.99,0,0,0-.986-.992Z" fill="#fff" fill-rule="evenodd"/></g><g transform="translate(579 832)"><path d="M0-40V0H56V-23.775H51.027v-4.417H56V-40Zm1.971,1.994H9.61v4.484H13.1v-4.484H37.453v4.5h3.494v-4.5H54.029V-30.2H49.056v8.428h4.973V-1.994H40.97V-6.141H37.475v4.146H13.115V-6.118H9.621v4.124H1.971Zm46.178,1.059a1,1,0,0,0-1,1,1,1,0,0,0,1,1H52.2a1,1,0,0,0,.986-1,1,1,0,0,0-.986-1Zm0,4a1,1,0,0,0-1,1,1,1,0,0,0,1,1H52.2a1,1,0,0,0,.986-1,1,1,0,0,0-.986-1Zm-38.2,2.6a3.428,3.428,0,0,0-3.394,3.437V-12.62A3.428,3.428,0,0,0,9.946-9.183H40.533a3.431,3.431,0,0,0,3.4-3.437V-26.907a3.431,3.431,0,0,0-3.4-3.437Zm0,1.994H40.533a1.41,1.41,0,0,1,1.422,1.442V-12.62a1.4,1.4,0,0,1-1.422,1.442H9.946A1.4,1.4,0,0,1,8.523-12.62V-26.907A1.41,1.41,0,0,1,9.946-28.349ZM25.066-25.6a4.97,4.97,0,0,0-2.632.6A2.972,2.972,0,0,0,21-22.6a2.923,2.923,0,0,0,1.579,2.682,10.488,10.488,0,0,0,2.9.946,3.39,3.39,0,0,1,1.613.71,1.133,1.133,0,0,1,.28.868,1.286,1.286,0,0,1-.6,1,2.9,2.9,0,0,1-1.669.383h-.011a2.258,2.258,0,0,1-1.49-.439,2.322,2.322,0,0,1-.851-1.679l-2.128.248a4.312,4.312,0,0,0,1.546,3.008,4.752,4.752,0,0,0,2.923.789A5.2,5.2,0,0,0,28-14.772a3.267,3.267,0,0,0,1.5-2.715,2.879,2.879,0,0,0-.907-2.377,5.312,5.312,0,0,0-2.576-1.217,9.812,9.812,0,0,1-2.251-.642,1.04,1.04,0,0,1-.638-1.014.789.789,0,0,1,.482-.721,2.216,2.216,0,0,1,1.266-.327,2.466,2.466,0,0,1,1.49.316,1.855,1.855,0,0,1,.65,1.318l2.206-.169a3.375,3.375,0,0,0-1.266-2.513A5.1,5.1,0,0,0,25.066-25.6Zm-10.259.023a5.093,5.093,0,0,0-2.643.6,2.98,2.98,0,0,0-1.422,2.411,2.91,2.91,0,0,0,1.568,2.67,10.921,10.921,0,0,0,2.9.958,3.388,3.388,0,0,1,1.624.71,1.1,1.1,0,0,1,.269.856,1.272,1.272,0,0,1-.594,1,2.9,2.9,0,0,1-1.68.394h0a2.338,2.338,0,0,1-1.5-.451,2.316,2.316,0,0,1-.851-1.679l-2.128.248a4.354,4.354,0,0,0,1.546,3.008,4.838,4.838,0,0,0,2.923.8,5.179,5.179,0,0,0,2.912-.687,3.288,3.288,0,0,0,1.5-2.727,2.921,2.921,0,0,0-.9-2.377,5.5,5.5,0,0,0-2.587-1.217A9.812,9.812,0,0,1,13.5-21.7a1.045,1.045,0,0,1-.638-1.014.807.807,0,0,1,.482-.721,2.27,2.27,0,0,1,1.266-.327,2.527,2.527,0,0,1,1.49.316,1.929,1.929,0,0,1,.661,1.318l2.2-.158A3.346,3.346,0,0,0,17.7-24.8,5.02,5.02,0,0,0,14.806-25.577Zm16.565.169v11.132h4.8a3.921,3.921,0,0,0,3.17-1.465A5.487,5.487,0,0,0,40.6-19.628a6.489,6.489,0,0,0-1.21-4.237c-1.008-1.363-2.106-1.544-3.618-1.544Zm2.24,1.837h2.206a2.776,2.776,0,0,1,1.915.913c.571.789.56,1.4.56,2.918a4.24,4.24,0,0,1-.56,2.772,2.124,2.124,0,0,1-1.613.834H33.611Zm14.538,2.783a.992.992,0,0,0-1,.992,1,1,0,0,0,1,1H52.2a1,1,0,0,0,.986-1,.99.99,0,0,0-.986-.992Zm0,4.011a.992.992,0,0,0-1,.992,1,1,0,0,0,1,1H52.2a1,1,0,0,0,.986-1,.99.99,0,0,0-.986-.992Zm0,4.011a.992.992,0,0,0-1,.991,1,1,0,0,0,1,1H52.2a1,1,0,0,0,.986-1,.99.99,0,0,0-.986-.991Zm0,4.011a.992.992,0,0,0-1,.992,1,1,0,0,0,1,1H52.2a1,1,0,0,0,.986-1,.99.99,0,0,0-.986-.992Zm0,4.011a.992.992,0,0,0-1,.992,1,1,0,0,0,1,1H52.2a1,1,0,0,0,.986-1,.99.99,0,0,0-.986-.992Z" fill="#fff" fill-rule="evenodd"/></g><g transform="translate(446.5 838.5)"><path d="M.5-51.5v51h36v-51Zm1.872,1.867H34.628V-2.367H2.372ZM4.655-48.5a1.292,1.292,0,0,0-1.286,1.3,1.283,1.283,0,0,0,1.286,1.285,1.285,1.285,0,0,0,1.3-1.285A1.294,1.294,0,0,0,4.655-48.5Zm27.6,0a1.294,1.294,0,0,0-1.3,1.3,1.285,1.285,0,0,0,1.3,1.285,1.292,1.292,0,0,0,1.3-1.285A1.3,1.3,0,0,0,32.252-48.5Zm-13.67.714A14.447,14.447,0,0,0,4.131-33.375a14.436,14.436,0,0,0,9.792,13.648L15.394-21.2a12.693,12.693,0,0,1-9.4-12.179,12.559,12.559,0,0,1,12.59-12.556A12.55,12.55,0,0,1,31.162-33.375,12.559,12.559,0,0,1,19.333-20.839l-.956,1.877a1.39,1.39,0,0,0,.206.01A14.45,14.45,0,0,0,33.034-33.375,14.447,14.447,0,0,0,18.582-47.787Zm0,9.119a5.311,5.311,0,0,0-5.307,5.294,5.311,5.311,0,0,0,5.307,5.294,5.311,5.311,0,0,0,5.307-5.294A5.311,5.311,0,0,0,18.582-38.668Zm0,1.867a3.418,3.418,0,0,1,3.435,3.427,3.418,3.418,0,0,1-3.435,3.427,3.421,3.421,0,0,1-3.446-3.427A3.421,3.421,0,0,1,18.582-36.8Zm0,2.142a1.285,1.285,0,0,0-1.3,1.285,1.294,1.294,0,0,0,1.3,1.3,1.3,1.3,0,0,0,1.3-1.3A1.292,1.292,0,0,0,18.582-34.66Zm2,9.455L4.789-8.9,9.428-5.4ZM4.655-6.273a1.292,1.292,0,0,0-1.286,1.3A1.283,1.283,0,0,0,4.655-3.693a1.285,1.285,0,0,0,1.3-1.285A1.294,1.294,0,0,0,4.655-6.273Zm27.6,0a1.294,1.294,0,0,0-1.3,1.3,1.285,1.285,0,0,0,1.3,1.285,1.292,1.292,0,0,0,1.3-1.285A1.3,1.3,0,0,0,32.252-6.273Z" fill="#fff" fill-rule="evenodd"/><g transform="translate(0.5 -51.5)"><path d="M0,0V51H36V0ZM1.872,1.867H34.128V49.133H1.872ZM4.155,3a1.29,1.29,0,1,0,1.3,1.3A1.292,1.292,0,0,0,4.155,3Zm27.6,0a1.29,1.29,0,1,0,1.3,1.3A1.294,1.294,0,0,0,31.752,3Zm-13.67.714a14.41,14.41,0,0,0-4.659,28.06L14.894,30.3a12.693,12.693,0,0,1-9.4-12.179A12.585,12.585,0,1,1,18.833,30.661l-.956,1.877a1.389,1.389,0,0,0,.206.01,14.418,14.418,0,1,0,0-28.835Zm0,9.119a5.294,5.294,0,1,0,5.307,5.294A5.311,5.311,0,0,0,18.082,12.832Zm0,1.867a3.427,3.427,0,1,1-3.446,3.427A3.418,3.418,0,0,1,18.082,14.7Zm0,2.142a1.29,1.29,0,1,0,0,2.581,1.29,1.29,0,1,0,0-2.581Zm2,9.455L4.289,42.6,8.928,46.1ZM4.155,45.227a1.29,1.29,0,1,0,1.3,1.3A1.292,1.292,0,0,0,4.155,45.227Zm27.6,0a1.29,1.29,0,1,0,1.3,1.3A1.294,1.294,0,0,0,31.752,45.227Z" fill="none" stroke="#fff" stroke-miterlimit="8" stroke-width="0.744"/></g></g></g><g transform="translate(0 -114)"><g transform="matrix(1, 0, 0, 1, 342, 239)" filter="url(#m)"><g transform="translate(334 495)" fill="none" stroke="#fff" stroke-width="2"><rect width="310" height="140" rx="40" stroke="none"/><rect x="1" y="1" width="308" height="138" rx="39" fill="none"/></g></g><text transform="translate(715 771)" fill="#fff" font-size="20" font-family="Arial-BoldMT, Arial" font-weight="700"><tspan x="0" y="0">Local and Remote NVMe</tspan></text><g transform="translate(411 832)"><path d="M0-40V0H56V-23.775H51.027v-4.417H56V-40Zm1.971,1.994H9.61v4.484H13.1v-4.484H37.453v4.5h3.494v-4.5H54.029V-30.2H49.056v8.428h4.973V-1.994H40.97V-6.141H37.475v4.146H13.115V-6.118H9.621v4.124H1.971Zm46.178,1.059a1,1,0,0,0-1,1,1,1,0,0,0,1,1H52.2a1,1,0,0,0,.986-1,1,1,0,0,0-.986-1Zm0,4a1,1,0,0,0-1,1,1,1,0,0,0,1,1H52.2a1,1,0,0,0,.986-1,1,1,0,0,0-.986-1Zm-38.2,2.6a3.428,3.428,0,0,0-3.394,3.437V-12.62A3.428,3.428,0,0,0,9.946-9.183H40.533a3.431,3.431,0,0,0,3.4-3.437V-26.907a3.431,3.431,0,0,0-3.4-3.437Zm0,1.994H40.533a1.41,1.41,0,0,1,1.422,1.442V-12.62a1.4,1.4,0,0,1-1.422,1.442H9.946A1.4,1.4,0,0,1,8.523-12.62V-26.907A1.41,1.41,0,0,1,9.946-28.349ZM25.066-25.6a4.97,4.97,0,0,0-2.632.6A2.972,2.972,0,0,0,21-22.6a2.923,2.923,0,0,0,1.579,2.682,10.488,10.488,0,0,0,2.9.946,3.39,3.39,0,0,1,1.613.71,1.133,1.133,0,0,1,.28.868,1.286,1.286,0,0,1-.6,1,2.9,2.9,0,0,1-1.669.383h-.011a2.258,2.258,0,0,1-1.49-.439,2.322,2.322,0,0,1-.851-1.679l-2.128.248a4.312,4.312,0,0,0,1.546,3.008,4.752,4.752,0,0,0,2.923.789A5.2,5.2,0,0,0,28-14.772a3.267,3.267,0,0,0,1.5-2.715,2.879,2.879,0,0,0-.907-2.377,5.312,5.312,0,0,0-2.576-1.217,9.812,9.812,0,0,1-2.251-.642,1.04,1.04,0,0,1-.638-1.014.789.789,0,0,1,.482-.721,2.216,2.216,0,0,1,1.266-.327,2.466,2.466,0,0,1,1.49.316,1.855,1.855,0,0,1,.65,1.318l2.206-.169a3.375,3.375,0,0,0-1.266-2.513A5.1,5.1,0,0,0,25.066-25.6Zm-10.259.023a5.093,5.093,0,0,0-2.643.6,2.98,2.98,0,0,0-1.422,2.411,2.91,2.91,0,0,0,1.568,2.67,10.921,10.921,0,0,0,2.9.958,3.388,3.388,0,0,1,1.624.71,1.1,1.1,0,0,1,.269.856,1.272,1.272,0,0,1-.594,1,2.9,2.9,0,0,1-1.68.394h0a2.338,2.338,0,0,1-1.5-.451,2.316,2.316,0,0,1-.851-1.679l-2.128.248a4.354,4.354,0,0,0,1.546,3.008,4.838,4.838,0,0,0,2.923.8,5.179,5.179,0,0,0,2.912-.687,3.288,3.288,0,0,0,1.5-2.727,2.921,2.921,0,0,0-.9-2.377,5.5,5.5,0,0,0-2.587-1.217A9.812,9.812,0,0,1,13.5-21.7a1.045,1.045,0,0,1-.638-1.014.807.807,0,0,1,.482-.721,2.27,2.27,0,0,1,1.266-.327,2.527,2.527,0,0,1,1.49.316,1.929,1.929,0,0,1,.661,1.318l2.2-.158A3.346,3.346,0,0,0,17.7-24.8,5.02,5.02,0,0,0,14.806-25.577Zm16.565.169v11.132h4.8a3.921,3.921,0,0,0,3.17-1.465A5.487,5.487,0,0,0,40.6-19.628a6.489,6.489,0,0,0-1.21-4.237c-1.008-1.363-2.106-1.544-3.618-1.544Zm2.24,1.837h2.206a2.776,2.776,0,0,1,1.915.913c.571.789.56,1.4.56,2.918a4.24,4.24,0,0,1-.56,2.772,2.124,2.124,0,0,1-1.613.834H33.611Zm14.538,2.783a.992.992,0,0,0-1,.992,1,1,0,0,0,1,1H52.2a1,1,0,0,0,.986-1,.99.99,0,0,0-.986-.992Zm0,4.011a.992.992,0,0,0-1,.992,1,1,0,0,0,1,1H52.2a1,1,0,0,0,.986-1,.99.99,0,0,0-.986-.992Zm0,4.011a.992.992,0,0,0-1,.991,1,1,0,0,0,1,1H52.2a1,1,0,0,0,.986-1,.99.99,0,0,0-.986-.991Zm0,4.011a.992.992,0,0,0-1,.992,1,1,0,0,0,1,1H52.2a1,1,0,0,0,.986-1,.99.99,0,0,0-.986-.992Zm0,4.011a.992.992,0,0,0-1,.992,1,1,0,0,0,1,1H52.2a1,1,0,0,0,.986-1,.99.99,0,0,0-.986-.992Z" transform="translate(316 7)" fill="#fff" fill-rule="evenodd"/></g><g transform="translate(563 832)"><path d="M0-40V0H56V-23.775H51.027v-4.417H56V-40Zm1.971,1.994H9.61v4.484H13.1v-4.484H37.453v4.5h3.494v-4.5H54.029V-30.2H49.056v8.428h4.973V-1.994H40.97V-6.141H37.475v4.146H13.115V-6.118H9.621v4.124H1.971Zm46.178,1.059a1,1,0,0,0-1,1,1,1,0,0,0,1,1H52.2a1,1,0,0,0,.986-1,1,1,0,0,0-.986-1Zm0,4a1,1,0,0,0-1,1,1,1,0,0,0,1,1H52.2a1,1,0,0,0,.986-1,1,1,0,0,0-.986-1Zm-38.2,2.6a3.428,3.428,0,0,0-3.394,3.437V-12.62A3.428,3.428,0,0,0,9.946-9.183H40.533a3.431,3.431,0,0,0,3.4-3.437V-26.907a3.431,3.431,0,0,0-3.4-3.437Zm0,1.994H40.533a1.41,1.41,0,0,1,1.422,1.442V-12.62a1.4,1.4,0,0,1-1.422,1.442H9.946A1.4,1.4,0,0,1,8.523-12.62V-26.907A1.41,1.41,0,0,1,9.946-28.349ZM25.066-25.6a4.97,4.97,0,0,0-2.632.6A2.972,2.972,0,0,0,21-22.6a2.923,2.923,0,0,0,1.579,2.682,10.488,10.488,0,0,0,2.9.946,3.39,3.39,0,0,1,1.613.71,1.133,1.133,0,0,1,.28.868,1.286,1.286,0,0,1-.6,1,2.9,2.9,0,0,1-1.669.383h-.011a2.258,2.258,0,0,1-1.49-.439,2.322,2.322,0,0,1-.851-1.679l-2.128.248a4.312,4.312,0,0,0,1.546,3.008,4.752,4.752,0,0,0,2.923.789A5.2,5.2,0,0,0,28-14.772a3.267,3.267,0,0,0,1.5-2.715,2.879,2.879,0,0,0-.907-2.377,5.312,5.312,0,0,0-2.576-1.217,9.812,9.812,0,0,1-2.251-.642,1.04,1.04,0,0,1-.638-1.014.789.789,0,0,1,.482-.721,2.216,2.216,0,0,1,1.266-.327,2.466,2.466,0,0,1,1.49.316,1.855,1.855,0,0,1,.65,1.318l2.206-.169a3.375,3.375,0,0,0-1.266-2.513A5.1,5.1,0,0,0,25.066-25.6Zm-10.259.023a5.093,5.093,0,0,0-2.643.6,2.98,2.98,0,0,0-1.422,2.411,2.91,2.91,0,0,0,1.568,2.67,10.921,10.921,0,0,0,2.9.958,3.388,3.388,0,0,1,1.624.71,1.1,1.1,0,0,1,.269.856,1.272,1.272,0,0,1-.594,1,2.9,2.9,0,0,1-1.68.394h0a2.338,2.338,0,0,1-1.5-.451,2.316,2.316,0,0,1-.851-1.679l-2.128.248a4.354,4.354,0,0,0,1.546,3.008,4.838,4.838,0,0,0,2.923.8,5.179,5.179,0,0,0,2.912-.687,3.288,3.288,0,0,0,1.5-2.727,2.921,2.921,0,0,0-.9-2.377,5.5,5.5,0,0,0-2.587-1.217A9.812,9.812,0,0,1,13.5-21.7a1.045,1.045,0,0,1-.638-1.014.807.807,0,0,1,.482-.721,2.27,2.27,0,0,1,1.266-.327,2.527,2.527,0,0,1,1.49.316,1.929,1.929,0,0,1,.661,1.318l2.2-.158A3.346,3.346,0,0,0,17.7-24.8,5.02,5.02,0,0,0,14.806-25.577Zm16.565.169v11.132h4.8a3.921,3.921,0,0,0,3.17-1.465A5.487,5.487,0,0,0,40.6-19.628a6.489,6.489,0,0,0-1.21-4.237c-1.008-1.363-2.106-1.544-3.618-1.544Zm2.24,1.837h2.206a2.776,2.776,0,0,1,1.915.913c.571.789.56,1.4.56,2.918a4.24,4.24,0,0,1-.56,2.772,2.124,2.124,0,0,1-1.613.834H33.611Zm14.538,2.783a.992.992,0,0,0-1,.992,1,1,0,0,0,1,1H52.2a1,1,0,0,0,.986-1,.99.99,0,0,0-.986-.992Zm0,4.011a.992.992,0,0,0-1,.992,1,1,0,0,0,1,1H52.2a1,1,0,0,0,.986-1,.99.99,0,0,0-.986-.992Zm0,4.011a.992.992,0,0,0-1,.991,1,1,0,0,0,1,1H52.2a1,1,0,0,0,.986-1,.99.99,0,0,0-.986-.991Zm0,4.011a.992.992,0,0,0-1,.992,1,1,0,0,0,1,1H52.2a1,1,0,0,0,.986-1,.99.99,0,0,0-.986-.992Zm0,4.011a.992.992,0,0,0-1,.992,1,1,0,0,0,1,1H52.2a1,1,0,0,0,.986-1,.99.99,0,0,0-.986-.992Z" transform="translate(316 7)" fill="#fff" fill-rule="evenodd"/></g><g transform="translate(487 832)"><path d="M0-40V0H56V-23.775H51.027v-4.417H56V-40Zm1.971,1.994H9.61v4.484H13.1v-4.484H37.453v4.5h3.494v-4.5H54.029V-30.2H49.056v8.428h4.973V-1.994H40.97V-6.141H37.475v4.146H13.115V-6.118H9.621v4.124H1.971Zm46.178,1.059a1,1,0,0,0-1,1,1,1,0,0,0,1,1H52.2a1,1,0,0,0,.986-1,1,1,0,0,0-.986-1Zm0,4a1,1,0,0,0-1,1,1,1,0,0,0,1,1H52.2a1,1,0,0,0,.986-1,1,1,0,0,0-.986-1Zm-38.2,2.6a3.428,3.428,0,0,0-3.394,3.437V-12.62A3.428,3.428,0,0,0,9.946-9.183H40.533a3.431,3.431,0,0,0,3.4-3.437V-26.907a3.431,3.431,0,0,0-3.4-3.437Zm0,1.994H40.533a1.41,1.41,0,0,1,1.422,1.442V-12.62a1.4,1.4,0,0,1-1.422,1.442H9.946A1.4,1.4,0,0,1,8.523-12.62V-26.907A1.41,1.41,0,0,1,9.946-28.349ZM25.066-25.6a4.97,4.97,0,0,0-2.632.6A2.972,2.972,0,0,0,21-22.6a2.923,2.923,0,0,0,1.579,2.682,10.488,10.488,0,0,0,2.9.946,3.39,3.39,0,0,1,1.613.71,1.133,1.133,0,0,1,.28.868,1.286,1.286,0,0,1-.6,1,2.9,2.9,0,0,1-1.669.383h-.011a2.258,2.258,0,0,1-1.49-.439,2.322,2.322,0,0,1-.851-1.679l-2.128.248a4.312,4.312,0,0,0,1.546,3.008,4.752,4.752,0,0,0,2.923.789A5.2,5.2,0,0,0,28-14.772a3.267,3.267,0,0,0,1.5-2.715,2.879,2.879,0,0,0-.907-2.377,5.312,5.312,0,0,0-2.576-1.217,9.812,9.812,0,0,1-2.251-.642,1.04,1.04,0,0,1-.638-1.014.789.789,0,0,1,.482-.721,2.216,2.216,0,0,1,1.266-.327,2.466,2.466,0,0,1,1.49.316,1.855,1.855,0,0,1,.65,1.318l2.206-.169a3.375,3.375,0,0,0-1.266-2.513A5.1,5.1,0,0,0,25.066-25.6Zm-10.259.023a5.093,5.093,0,0,0-2.643.6,2.98,2.98,0,0,0-1.422,2.411,2.91,2.91,0,0,0,1.568,2.67,10.921,10.921,0,0,0,2.9.958,3.388,3.388,0,0,1,1.624.71,1.1,1.1,0,0,1,.269.856,1.272,1.272,0,0,1-.594,1,2.9,2.9,0,0,1-1.68.394h0a2.338,2.338,0,0,1-1.5-.451,2.316,2.316,0,0,1-.851-1.679l-2.128.248a4.354,4.354,0,0,0,1.546,3.008,4.838,4.838,0,0,0,2.923.8,5.179,5.179,0,0,0,2.912-.687,3.288,3.288,0,0,0,1.5-2.727,2.921,2.921,0,0,0-.9-2.377,5.5,5.5,0,0,0-2.587-1.217A9.812,9.812,0,0,1,13.5-21.7a1.045,1.045,0,0,1-.638-1.014.807.807,0,0,1,.482-.721,2.27,2.27,0,0,1,1.266-.327,2.527,2.527,0,0,1,1.49.316,1.929,1.929,0,0,1,.661,1.318l2.2-.158A3.346,3.346,0,0,0,17.7-24.8,5.02,5.02,0,0,0,14.806-25.577Zm16.565.169v11.132h4.8a3.921,3.921,0,0,0,3.17-1.465A5.487,5.487,0,0,0,40.6-19.628a6.489,6.489,0,0,0-1.21-4.237c-1.008-1.363-2.106-1.544-3.618-1.544Zm2.24,1.837h2.206a2.776,2.776,0,0,1,1.915.913c.571.789.56,1.4.56,2.918a4.24,4.24,0,0,1-.56,2.772,2.124,2.124,0,0,1-1.613.834H33.611Zm14.538,2.783a.992.992,0,0,0-1,.992,1,1,0,0,0,1,1H52.2a1,1,0,0,0,.986-1,.99.99,0,0,0-.986-.992Zm0,4.011a.992.992,0,0,0-1,.992,1,1,0,0,0,1,1H52.2a1,1,0,0,0,.986-1,.99.99,0,0,0-.986-.992Zm0,4.011a.992.992,0,0,0-1,.991,1,1,0,0,0,1,1H52.2a1,1,0,0,0,.986-1,.99.99,0,0,0-.986-.991Zm0,4.011a.992.992,0,0,0-1,.992,1,1,0,0,0,1,1H52.2a1,1,0,0,0,.986-1,.99.99,0,0,0-.986-.992Zm0,4.011a.992.992,0,0,0-1,.992,1,1,0,0,0,1,1H52.2a1,1,0,0,0,.986-1,.99.99,0,0,0-.986-.992Z" transform="translate(316 7)" fill="#fff" fill-rule="evenodd"/></g></g><g transform="translate(0 -3)"><g transform="translate(-2 -14)"><text transform="translate(638 325)" fill="#53a4d4" font-size="20" font-family="Arial-BoldMT, Arial" font-weight="700"><tspan x="0" y="0">Host CPU and Memory</tspan></text><g transform="translate(492.5 331.742)"><path d="M16.907-39.5a1.036,1.036,0,0,0-1.022,1.041v4.866H9.025a2.562,2.562,0,0,0-2.554,2.543v7.089H1.554a1.028,1.028,0,0,0-.911.5,1.021,1.021,0,0,0,0,1.041,1.037,1.037,0,0,0,.911.511H6.472v3.635H1.554A1.03,1.03,0,0,0,.523-17.241,1.03,1.03,0,0,0,1.554-16.21H6.472v3.635H1.554a1.037,1.037,0,0,0-.911.511,1.021,1.021,0,0,0,0,1.041,1.028,1.028,0,0,0,.911.5H6.472v3.645H1.554a1.014,1.014,0,0,0-.891.511,1.051,1.051,0,0,0,0,1.031,1.014,1.014,0,0,0,.891.511H6.472V1.784A2.562,2.562,0,0,0,9.025,4.327h6.86V9.474a1.032,1.032,0,0,0,2.063,0V4.327h3.666V9.474a1.032,1.032,0,0,0,2.063,0V4.327h3.666V9.474a1.037,1.037,0,0,0,1.552.891,1.06,1.06,0,0,0,.511-.891V4.327h3.665V9.474a1.037,1.037,0,0,0,1.552.891,1.06,1.06,0,0,0,.511-.891V4.327h6.9a2.56,2.56,0,0,0,2.544-2.543V-4.825h4.867a1.014,1.014,0,0,0,.891-.511,1.051,1.051,0,0,0,0-1.031,1.014,1.014,0,0,0-.891-.511H44.579v-3.645h4.867a1.028,1.028,0,0,0,.911-.5,1.021,1.021,0,0,0,0-1.041,1.037,1.037,0,0,0-.911-.511H44.579V-16.21h4.867a1.03,1.03,0,0,0,1.032-1.031,1.03,1.03,0,0,0-1.032-1.031H44.579v-3.635h4.867a1.037,1.037,0,0,0,.911-.511,1.021,1.021,0,0,0,0-1.041,1.028,1.028,0,0,0-.911-.5H44.579v-7.089a2.56,2.56,0,0,0-2.544-2.543h-6.9v-4.866a1.045,1.045,0,0,0-.3-.741,1.1,1.1,0,0,0-.751-.3,1.035,1.035,0,0,0-1.012,1.041v4.866H29.406v-4.866a1,1,0,0,0-.3-.741,1.09,1.09,0,0,0-.741-.3,1.036,1.036,0,0,0-1.021,1.041v4.866H23.677v-4.866a1,1,0,0,0-.3-.741,1.09,1.09,0,0,0-.741-.3,1.036,1.036,0,0,0-1.022,1.041v4.866H17.949v-4.866a1,1,0,0,0-.3-.741A1.072,1.072,0,0,0,16.907-39.5ZM9.025-31.54h33.01a.465.465,0,0,1,.481.491V1.784a.457.457,0,0,1-.481.481H9.025a.46.46,0,0,1-.491-.481V-31.049A.468.468,0,0,1,9.025-31.54Zm21.242,2.223a1.039,1.039,0,0,0-1.042,1.031,1.037,1.037,0,0,0,1.042,1.021h7.581v7.64a1,1,0,0,0,.511.911,1.022,1.022,0,0,0,1.042,0,1.025,1.025,0,0,0,.511-.911v-8.661a1.03,1.03,0,0,0-1.032-1.031Zm-18.257.04a1.036,1.036,0,0,0-1.032,1.031v8.581a1.023,1.023,0,0,0,.521.891,1.052,1.052,0,0,0,1.032,0,1.014,1.014,0,0,0,.511-.891v-7.55h7.672a1.042,1.042,0,0,0,.921-.511,1.021,1.021,0,0,0,0-1.041,1.042,1.042,0,0,0-.921-.511Zm.03,18.484a1.028,1.028,0,0,0-1.012,1.041V-1.08A1.028,1.028,0,0,0,12.06-.059h8.613a1.014,1.014,0,0,0,.891-.511,1,1,0,0,0,0-1.031,1.035,1.035,0,0,0-.891-.511H13.091v-7.64a1.055,1.055,0,0,0-.311-.741A1.053,1.053,0,0,0,12.04-10.793Zm26.87.04A1.039,1.039,0,0,0,37.889-9.7v7.55H30.217A1.028,1.028,0,0,0,29.186-1.13,1.03,1.03,0,0,0,30.217-.1h8.7A1.03,1.03,0,0,0,39.952-1.13V-9.7a1.011,1.011,0,0,0-.3-.751A1.09,1.09,0,0,0,38.91-10.753Z" transform="translate(0 0)" fill="#53a4d4" fill-rule="evenodd"/><g transform="translate(0.5 -39.5)"><path d="M16.407,0a1.036,1.036,0,0,0-1.022,1.041V5.908H8.525A2.562,2.562,0,0,0,5.972,8.451V15.54H1.054a1.022,1.022,0,0,0-.911,1.542,1.037,1.037,0,0,0,.911.511H5.972v3.635H1.054a1.031,1.031,0,1,0,0,2.063H5.972v3.635H1.054a1.037,1.037,0,0,0-.911.511,1.022,1.022,0,0,0,.911,1.542H5.972v3.645H1.054a1.014,1.014,0,0,0-.891.511,1.051,1.051,0,0,0,0,1.031,1.014,1.014,0,0,0,.891.511H5.972v6.609a2.562,2.562,0,0,0,2.554,2.543h6.86v5.147a1.032,1.032,0,0,0,2.063,0V43.827h3.666v5.147a1.032,1.032,0,0,0,2.063,0V43.827h3.666v5.147a1.037,1.037,0,0,0,1.552.891,1.06,1.06,0,0,0,.511-.891V43.827h3.665v5.147a1.037,1.037,0,0,0,1.552.891,1.06,1.06,0,0,0,.511-.891V43.827h6.9a2.56,2.56,0,0,0,2.544-2.543V34.675h4.867a1.014,1.014,0,0,0,.891-.511,1.051,1.051,0,0,0,0-1.031,1.014,1.014,0,0,0-.891-.511H44.079V28.978h4.867a1.027,1.027,0,1,0,0-2.053H44.079V23.29h4.867a1.031,1.031,0,1,0,0-2.063H44.079V17.593h4.867a1.037,1.037,0,0,0,.911-.511,1.022,1.022,0,0,0-.911-1.542H44.079V8.451a2.56,2.56,0,0,0-2.544-2.543h-6.9V1.041a1.045,1.045,0,0,0-.3-.741,1.1,1.1,0,0,0-.751-.3,1.035,1.035,0,0,0-1.012,1.041V5.908H28.906V1.041a1,1,0,0,0-.3-.741,1.09,1.09,0,0,0-.741-.3,1.036,1.036,0,0,0-1.021,1.041V5.908H23.177V1.041a1,1,0,0,0-.3-.741,1.09,1.09,0,0,0-.741-.3,1.036,1.036,0,0,0-1.022,1.041V5.908H17.449V1.041a1,1,0,0,0-.3-.741A1.072,1.072,0,0,0,16.407,0ZM8.525,7.96h33.01a.465.465,0,0,1,.481.491V41.284a.457.457,0,0,1-.481.481H8.525a.46.46,0,0,1-.491-.481V8.451A.468.468,0,0,1,8.525,7.96Zm21.242,2.223a1.026,1.026,0,1,0,0,2.053h7.581v7.64a1,1,0,0,0,.511.911,1.032,1.032,0,0,0,1.552-.911V11.215a1.03,1.03,0,0,0-1.031-1.031Zm-18.257.04a1.036,1.036,0,0,0-1.032,1.031v8.581a1.023,1.023,0,0,0,.521.891,1.052,1.052,0,0,0,1.031,0,1.014,1.014,0,0,0,.511-.891v-7.55h7.672a1.042,1.042,0,0,0,.921-.511,1.021,1.021,0,0,0,0-1.041,1.042,1.042,0,0,0-.921-.511Zm.03,18.484a1.028,1.028,0,0,0-1.012,1.041V38.42a1.028,1.028,0,0,0,1.032,1.021h8.613a1.014,1.014,0,0,0,.891-.511,1,1,0,0,0,0-1.031,1.035,1.035,0,0,0-.891-.511H12.591v-7.64a1.043,1.043,0,0,0-1.052-1.041Zm26.87.04A1.039,1.039,0,0,0,37.389,29.8v7.55H29.717a1.026,1.026,0,1,0,0,2.053h8.7a1.03,1.03,0,0,0,1.031-1.031V29.8a1.011,1.011,0,0,0-.3-.751A1.09,1.09,0,0,0,38.41,28.747Z" fill="#53a4d4" stroke="#53a4d4" stroke-miterlimit="8" stroke-width="0.744"/></g></g><g transform="translate(64)"><g transform="translate(499 292.63)"><path d="M38.956,11.658a.413.413,0,0,0-.41.418v1.852a.414.414,0,0,0,.213.352.407.407,0,0,0,.41,0,.414.414,0,0,0,.213-.352V12.076a.42.42,0,0,0-.426-.418Zm-1.819,0a.407.407,0,0,0-.41.418v1.852a.411.411,0,0,0,.41.41.418.418,0,0,0,.418-.41V12.076a.389.389,0,0,0-.123-.295A.416.416,0,0,0,37.138,11.658Zm-1.827,0a.413.413,0,0,0-.41.418v1.852a.418.418,0,0,0,.418.41.411.411,0,0,0,.41-.41V12.076a.383.383,0,0,0-.115-.295A.421.421,0,0,0,35.311,11.658Zm-1.819,0a.422.422,0,0,0-.295.123.4.4,0,0,0-.115.295v1.852a.406.406,0,0,0,.2.352.414.414,0,0,0,.623-.352V12.076a.389.389,0,0,0-.123-.295A.416.416,0,0,0,33.492,11.658Zm-7.169,0a.417.417,0,0,0-.287.123.4.4,0,0,0-.123.295v1.852a.418.418,0,0,0,.836,0V12.076a.389.389,0,0,0-.123-.295A.421.421,0,0,0,26.323,11.658Zm-1.925,0a.417.417,0,0,0-.287.123.4.4,0,0,0-.123.295v1.852a.418.418,0,0,0,.836,0V12.076a.42.42,0,0,0-.426-.418Zm-1.925,0a.453.453,0,0,0-.295.123.429.429,0,0,0-.115.295v1.852a.418.418,0,0,0,.418.41.411.411,0,0,0,.41-.41V12.076a.383.383,0,0,0-.115-.295A.421.421,0,0,0,22.473,11.658Zm-1.925,0a.437.437,0,0,0-.295.123.429.429,0,0,0-.115.295v1.852a.418.418,0,0,0,.418.41.411.411,0,0,0,.41-.41V12.076a.42.42,0,0,0-.418-.418Zm-1.925,0a.422.422,0,0,0-.295.123.429.429,0,0,0-.115.295v1.852a.411.411,0,0,0,.41.41.418.418,0,0,0,.418-.41V12.076a.389.389,0,0,0-.123-.295A.4.4,0,0,0,18.622,11.658Zm-1.933,0a.417.417,0,0,0-.287.123.4.4,0,0,0-.115.295v1.852a.411.411,0,0,0,.41.41.418.418,0,0,0,.418-.41V12.076a.389.389,0,0,0-.123-.295A.421.421,0,0,0,16.689,11.658Zm-1.925,0a.417.417,0,0,0-.287.123.4.4,0,0,0-.123.295v1.852a.414.414,0,0,0,.213.352.407.407,0,0,0,.41,0,.414.414,0,0,0,.213-.352V12.076a.42.42,0,0,0-.426-.418Zm-1.925,0a.417.417,0,0,0-.287.123.4.4,0,0,0-.123.295v1.852a.414.414,0,0,0,.623.352.406.406,0,0,0,.2-.352V12.076a.383.383,0,0,0-.115-.295A.421.421,0,0,0,12.838,11.658Zm-1.925,0a.437.437,0,0,0-.295.123.429.429,0,0,0-.115.295v1.852a.418.418,0,0,0,.418.41.411.411,0,0,0,.41-.41V12.076a.42.42,0,0,0-.418-.418Zm-1.925,0a.407.407,0,0,0-.41.418v1.852a.411.411,0,0,0,.41.41.418.418,0,0,0,.418-.41V12.076a.389.389,0,0,0-.123-.295A.416.416,0,0,0,8.987,11.658Zm-1.925,0a.422.422,0,0,0-.295.123.4.4,0,0,0-.115.295v1.852a.411.411,0,0,0,.41.41.418.418,0,0,0,.418-.41V12.076a.389.389,0,0,0-.123-.295A.416.416,0,0,0,7.062,11.658Zm-1.933,0a.413.413,0,0,0-.41.418v1.852a.418.418,0,0,0,.836,0V12.076a.42.42,0,0,0-.426-.418ZM38.424,2.2a.438.438,0,0,0-.36.2.407.407,0,0,0,0,.41.427.427,0,0,0,.36.213h.483a.417.417,0,0,0,.36-.213.407.407,0,0,0,0-.41.427.427,0,0,0-.36-.2Zm0,1.475a.414.414,0,0,0,0,.827h.483a.414.414,0,0,0,0-.827Zm0,1.475a.438.438,0,0,0-.36.2.407.407,0,0,0,0,.41.427.427,0,0,0,.36.213h.483a.417.417,0,0,0,.36-.213.407.407,0,0,0,0-.41.427.427,0,0,0-.36-.2Zm0,1.475a.41.41,0,1,0,0,.819h.483a.41.41,0,1,0,0-.819Zm0,1.475a.41.41,0,1,0,0,.819h.483a.41.41,0,1,0,0-.819Zm0,1.475a.41.41,0,1,0,0,.819h.483a.41.41,0,1,0,0-.819ZM31.648,2.2a.416.416,0,0,0-.36.2.418.418,0,0,0,.36.623h.475a.417.417,0,0,0,.36-.213.407.407,0,0,0,0-.41.427.427,0,0,0-.36-.2Zm0,1.475a.414.414,0,1,0,0,.827h.475a.414.414,0,1,0,0-.827Zm0,1.475a.416.416,0,0,0-.36.2.418.418,0,0,0,.36.623h.475a.417.417,0,0,0,.36-.213.407.407,0,0,0,0-.41.427.427,0,0,0-.36-.2Zm0,1.475a.41.41,0,1,0,0,.819h.475a.41.41,0,1,0,0-.819Zm0,1.475a.41.41,0,1,0,0,.819h.475a.41.41,0,1,0,0-.819Zm0,1.475a.41.41,0,1,0,0,.819h.475a.41.41,0,1,0,0-.819Zm1.245-7.742h4.76v8.93h-4.76ZM28.527,2.2a.413.413,0,0,0-.352.2.372.372,0,0,0,0,.41.4.4,0,0,0,.352.213h.483a.417.417,0,0,0,.36-.213.407.407,0,0,0,0-.41.427.427,0,0,0-.36-.2Zm0,1.475a.414.414,0,0,0,0,.827h.483a.414.414,0,1,0,0-.827Zm0,1.475a.413.413,0,0,0-.352.2.372.372,0,0,0,0,.41.4.4,0,0,0,.352.213h.483a.417.417,0,0,0,.36-.213.407.407,0,0,0,0-.41.427.427,0,0,0-.36-.2Zm0,1.475a.41.41,0,1,0,0,.819h.483a.41.41,0,1,0,0-.819Zm0,1.475a.41.41,0,1,0,0,.819h.483a.41.41,0,1,0,0-.819Zm0,1.475a.41.41,0,1,0,0,.819h.483a.41.41,0,1,0,0-.819ZM21.752,2.2a.427.427,0,0,0-.36.2.407.407,0,0,0,0,.41.417.417,0,0,0,.36.213h.475a.417.417,0,0,0,.36-.213.407.407,0,0,0,0-.41.427.427,0,0,0-.36-.2Zm0,1.475a.414.414,0,1,0,0,.827h.475a.414.414,0,1,0,0-.827Zm0,1.475a.427.427,0,0,0-.36.2.407.407,0,0,0,0,.41.417.417,0,0,0,.36.213h.475a.417.417,0,0,0,.36-.213.407.407,0,0,0,0-.41.427.427,0,0,0-.36-.2Zm0,1.475a.41.41,0,1,0,0,.819h.475a.41.41,0,1,0,0-.819Zm0,1.475a.41.41,0,1,0,0,.819h.475a.41.41,0,1,0,0-.819Zm0,1.475a.41.41,0,1,0,0,.819h.475a.41.41,0,1,0,0-.819ZM23,1.827h4.76v8.93H23ZM18.565,2.2a.427.427,0,0,0-.36.2.407.407,0,0,0,0,.41.417.417,0,0,0,.36.213h.475A.418.418,0,0,0,19.4,2.4a.416.416,0,0,0-.36-.2Zm0,1.475a.414.414,0,1,0,0,.827h.475a.414.414,0,1,0,0-.827Zm0,1.475a.427.427,0,0,0-.36.2.407.407,0,0,0,0,.41.417.417,0,0,0,.36.213h.475a.418.418,0,0,0,.36-.623.416.416,0,0,0-.36-.2Zm0,1.475a.41.41,0,1,0,0,.819h.475a.41.41,0,1,0,0-.819Zm0,1.475a.41.41,0,1,0,0,.819h.475a.41.41,0,1,0,0-.819Zm0,1.475a.41.41,0,1,0,0,.819h.475a.41.41,0,1,0,0-.819ZM11.781,2.2a.427.427,0,0,0-.36.2.407.407,0,0,0,0,.41.417.417,0,0,0,.36.213h.475a.418.418,0,0,0,.36-.623.416.416,0,0,0-.36-.2Zm0,1.475a.414.414,0,0,0,0,.827h.475a.414.414,0,1,0,0-.827Zm0,1.475a.427.427,0,0,0-.36.2.407.407,0,0,0,0,.41.417.417,0,0,0,.36.213h.475a.418.418,0,0,0,.36-.623.416.416,0,0,0-.36-.2Zm0,1.475a.41.41,0,0,0,0,.819h.475a.41.41,0,1,0,0-.819Zm0,1.475a.41.41,0,0,0,0,.819h.475a.41.41,0,1,0,0-.819Zm0,1.475a.41.41,0,1,0,0,.819h.475a.41.41,0,1,0,0-.819Zm1.253-7.742h4.76v8.93h-4.76ZM8.651,2.2a.416.416,0,0,0-.36.2.418.418,0,0,0,.36.623h.475a.417.417,0,0,0,.36-.213.407.407,0,0,0,0-.41.427.427,0,0,0-.36-.2Zm0,1.475a.414.414,0,1,0,0,.827h.475a.414.414,0,1,0,0-.827Zm0,1.475a.416.416,0,0,0-.36.2.418.418,0,0,0,.36.623h.475a.417.417,0,0,0,.36-.213.407.407,0,0,0,0-.41.427.427,0,0,0-.36-.2Zm0,1.475a.41.41,0,1,0,0,.819h.475a.41.41,0,1,0,0-.819Zm0,1.475a.41.41,0,1,0,0,.819h.475a.41.41,0,1,0,0-.819Zm0,1.475a.41.41,0,1,0,0,.819h.475a.41.41,0,1,0,0-.819ZM1.868,2.2a.416.416,0,0,0-.36.2.418.418,0,0,0,.36.623h.475A.417.417,0,0,0,2.7,2.81a.407.407,0,0,0,0-.41.427.427,0,0,0-.36-.2Zm0,1.475a.414.414,0,1,0,0,.827h.475a.414.414,0,1,0,0-.827Zm0,1.475a.416.416,0,0,0-.36.2.418.418,0,0,0,.36.623h.475a.417.417,0,0,0,.36-.213.407.407,0,0,0,0-.41.427.427,0,0,0-.36-.2Zm0,1.475a.41.41,0,1,0,0,.819h.475a.41.41,0,1,0,0-.819Zm0,1.475a.41.41,0,1,0,0,.819h.475a.41.41,0,1,0,0-.819Zm0,1.475a.41.41,0,1,0,0,.819h.475a.41.41,0,1,0,0-.819ZM3.113,1.827h4.76v8.93H3.113ZM0,0V13.379H2.949v2.187H28.535V13.379h2.777v2.187h9.651V0ZM.827.819H40.136V14.747H32.148V12.559h-4.44v2.187H3.785V12.559H.827Z" fill="#53a4d4"/></g><g transform="translate(506.089 309.847)"><path d="M38.956,11.658a.413.413,0,0,0-.41.418v1.852a.414.414,0,0,0,.213.352.407.407,0,0,0,.41,0,.414.414,0,0,0,.213-.352V12.076a.42.42,0,0,0-.426-.418Zm-1.819,0a.407.407,0,0,0-.41.418v1.852a.411.411,0,0,0,.41.41.418.418,0,0,0,.418-.41V12.076a.389.389,0,0,0-.123-.295A.416.416,0,0,0,37.138,11.658Zm-1.827,0a.413.413,0,0,0-.41.418v1.852a.418.418,0,0,0,.418.41.411.411,0,0,0,.41-.41V12.076a.383.383,0,0,0-.115-.295A.421.421,0,0,0,35.311,11.658Zm-1.819,0a.422.422,0,0,0-.295.123.4.4,0,0,0-.115.295v1.852a.406.406,0,0,0,.2.352.414.414,0,0,0,.623-.352V12.076a.389.389,0,0,0-.123-.295A.416.416,0,0,0,33.492,11.658Zm-7.169,0a.417.417,0,0,0-.287.123.4.4,0,0,0-.123.295v1.852a.418.418,0,0,0,.836,0V12.076a.389.389,0,0,0-.123-.295A.421.421,0,0,0,26.323,11.658Zm-1.925,0a.417.417,0,0,0-.287.123.4.4,0,0,0-.123.295v1.852a.418.418,0,0,0,.836,0V12.076a.42.42,0,0,0-.426-.418Zm-1.925,0a.453.453,0,0,0-.295.123.429.429,0,0,0-.115.295v1.852a.418.418,0,0,0,.418.41.411.411,0,0,0,.41-.41V12.076a.383.383,0,0,0-.115-.295A.421.421,0,0,0,22.473,11.658Zm-1.925,0a.437.437,0,0,0-.295.123.429.429,0,0,0-.115.295v1.852a.418.418,0,0,0,.418.41.411.411,0,0,0,.41-.41V12.076a.42.42,0,0,0-.418-.418Zm-1.925,0a.422.422,0,0,0-.295.123.429.429,0,0,0-.115.295v1.852a.411.411,0,0,0,.41.41.418.418,0,0,0,.418-.41V12.076a.389.389,0,0,0-.123-.295A.4.4,0,0,0,18.622,11.658Zm-1.933,0a.417.417,0,0,0-.287.123.4.4,0,0,0-.115.295v1.852a.411.411,0,0,0,.41.41.418.418,0,0,0,.418-.41V12.076a.389.389,0,0,0-.123-.295A.421.421,0,0,0,16.689,11.658Zm-1.925,0a.417.417,0,0,0-.287.123.4.4,0,0,0-.123.295v1.852a.414.414,0,0,0,.213.352.407.407,0,0,0,.41,0,.414.414,0,0,0,.213-.352V12.076a.42.42,0,0,0-.426-.418Zm-1.925,0a.417.417,0,0,0-.287.123.4.4,0,0,0-.123.295v1.852a.414.414,0,0,0,.623.352.406.406,0,0,0,.2-.352V12.076a.383.383,0,0,0-.115-.295A.421.421,0,0,0,12.838,11.658Zm-1.925,0a.437.437,0,0,0-.295.123.429.429,0,0,0-.115.295v1.852a.418.418,0,0,0,.418.41.411.411,0,0,0,.41-.41V12.076a.42.42,0,0,0-.418-.418Zm-1.925,0a.407.407,0,0,0-.41.418v1.852a.411.411,0,0,0,.41.41.418.418,0,0,0,.418-.41V12.076a.389.389,0,0,0-.123-.295A.416.416,0,0,0,8.987,11.658Zm-1.925,0a.422.422,0,0,0-.295.123.4.4,0,0,0-.115.295v1.852a.411.411,0,0,0,.41.41.418.418,0,0,0,.418-.41V12.076a.389.389,0,0,0-.123-.295A.416.416,0,0,0,7.062,11.658Zm-1.933,0a.413.413,0,0,0-.41.418v1.852a.418.418,0,0,0,.836,0V12.076a.42.42,0,0,0-.426-.418ZM38.424,2.2a.438.438,0,0,0-.36.2.407.407,0,0,0,0,.41.427.427,0,0,0,.36.213h.483a.417.417,0,0,0,.36-.213.407.407,0,0,0,0-.41.427.427,0,0,0-.36-.2Zm0,1.475a.414.414,0,0,0,0,.827h.483a.414.414,0,0,0,0-.827Zm0,1.475a.438.438,0,0,0-.36.2.407.407,0,0,0,0,.41.427.427,0,0,0,.36.213h.483a.417.417,0,0,0,.36-.213.407.407,0,0,0,0-.41.427.427,0,0,0-.36-.2Zm0,1.475a.41.41,0,1,0,0,.819h.483a.41.41,0,1,0,0-.819Zm0,1.475a.41.41,0,1,0,0,.819h.483a.41.41,0,1,0,0-.819Zm0,1.475a.41.41,0,1,0,0,.819h.483a.41.41,0,1,0,0-.819ZM31.648,2.2a.416.416,0,0,0-.36.2.418.418,0,0,0,.36.623h.475a.417.417,0,0,0,.36-.213.407.407,0,0,0,0-.41.427.427,0,0,0-.36-.2Zm0,1.475a.414.414,0,1,0,0,.827h.475a.414.414,0,1,0,0-.827Zm0,1.475a.416.416,0,0,0-.36.2.418.418,0,0,0,.36.623h.475a.417.417,0,0,0,.36-.213.407.407,0,0,0,0-.41.427.427,0,0,0-.36-.2Zm0,1.475a.41.41,0,1,0,0,.819h.475a.41.41,0,1,0,0-.819Zm0,1.475a.41.41,0,1,0,0,.819h.475a.41.41,0,1,0,0-.819Zm0,1.475a.41.41,0,1,0,0,.819h.475a.41.41,0,1,0,0-.819Zm1.245-7.742h4.76v8.93h-4.76ZM28.527,2.2a.413.413,0,0,0-.352.2.372.372,0,0,0,0,.41.4.4,0,0,0,.352.213h.483a.417.417,0,0,0,.36-.213.407.407,0,0,0,0-.41.427.427,0,0,0-.36-.2Zm0,1.475a.414.414,0,0,0,0,.827h.483a.414.414,0,1,0,0-.827Zm0,1.475a.413.413,0,0,0-.352.2.372.372,0,0,0,0,.41.4.4,0,0,0,.352.213h.483a.417.417,0,0,0,.36-.213.407.407,0,0,0,0-.41.427.427,0,0,0-.36-.2Zm0,1.475a.41.41,0,1,0,0,.819h.483a.41.41,0,1,0,0-.819Zm0,1.475a.41.41,0,1,0,0,.819h.483a.41.41,0,1,0,0-.819Zm0,1.475a.41.41,0,1,0,0,.819h.483a.41.41,0,1,0,0-.819ZM21.752,2.2a.427.427,0,0,0-.36.2.407.407,0,0,0,0,.41.417.417,0,0,0,.36.213h.475a.417.417,0,0,0,.36-.213.407.407,0,0,0,0-.41.427.427,0,0,0-.36-.2Zm0,1.475a.414.414,0,1,0,0,.827h.475a.414.414,0,1,0,0-.827Zm0,1.475a.427.427,0,0,0-.36.2.407.407,0,0,0,0,.41.417.417,0,0,0,.36.213h.475a.417.417,0,0,0,.36-.213.407.407,0,0,0,0-.41.427.427,0,0,0-.36-.2Zm0,1.475a.41.41,0,1,0,0,.819h.475a.41.41,0,1,0,0-.819Zm0,1.475a.41.41,0,1,0,0,.819h.475a.41.41,0,1,0,0-.819Zm0,1.475a.41.41,0,1,0,0,.819h.475a.41.41,0,1,0,0-.819ZM23,1.827h4.76v8.93H23ZM18.565,2.2a.427.427,0,0,0-.36.2.407.407,0,0,0,0,.41.417.417,0,0,0,.36.213h.475A.418.418,0,0,0,19.4,2.4a.416.416,0,0,0-.36-.2Zm0,1.475a.414.414,0,1,0,0,.827h.475a.414.414,0,1,0,0-.827Zm0,1.475a.427.427,0,0,0-.36.2.407.407,0,0,0,0,.41.417.417,0,0,0,.36.213h.475a.418.418,0,0,0,.36-.623.416.416,0,0,0-.36-.2Zm0,1.475a.41.41,0,1,0,0,.819h.475a.41.41,0,1,0,0-.819Zm0,1.475a.41.41,0,1,0,0,.819h.475a.41.41,0,1,0,0-.819Zm0,1.475a.41.41,0,1,0,0,.819h.475a.41.41,0,1,0,0-.819ZM11.781,2.2a.427.427,0,0,0-.36.2.407.407,0,0,0,0,.41.417.417,0,0,0,.36.213h.475a.418.418,0,0,0,.36-.623.416.416,0,0,0-.36-.2Zm0,1.475a.414.414,0,0,0,0,.827h.475a.414.414,0,1,0,0-.827Zm0,1.475a.427.427,0,0,0-.36.2.407.407,0,0,0,0,.41.417.417,0,0,0,.36.213h.475a.418.418,0,0,0,.36-.623.416.416,0,0,0-.36-.2Zm0,1.475a.41.41,0,0,0,0,.819h.475a.41.41,0,1,0,0-.819Zm0,1.475a.41.41,0,0,0,0,.819h.475a.41.41,0,1,0,0-.819Zm0,1.475a.41.41,0,1,0,0,.819h.475a.41.41,0,1,0,0-.819Zm1.253-7.742h4.76v8.93h-4.76ZM8.651,2.2a.416.416,0,0,0-.36.2.418.418,0,0,0,.36.623h.475a.417.417,0,0,0,.36-.213.407.407,0,0,0,0-.41.427.427,0,0,0-.36-.2Zm0,1.475a.414.414,0,1,0,0,.827h.475a.414.414,0,1,0,0-.827Zm0,1.475a.416.416,0,0,0-.36.2.418.418,0,0,0,.36.623h.475a.417.417,0,0,0,.36-.213.407.407,0,0,0,0-.41.427.427,0,0,0-.36-.2Zm0,1.475a.41.41,0,1,0,0,.819h.475a.41.41,0,1,0,0-.819Zm0,1.475a.41.41,0,1,0,0,.819h.475a.41.41,0,1,0,0-.819Zm0,1.475a.41.41,0,1,0,0,.819h.475a.41.41,0,1,0,0-.819ZM1.868,2.2a.416.416,0,0,0-.36.2.418.418,0,0,0,.36.623h.475A.417.417,0,0,0,2.7,2.81a.407.407,0,0,0,0-.41.427.427,0,0,0-.36-.2Zm0,1.475a.414.414,0,1,0,0,.827h.475a.414.414,0,1,0,0-.827Zm0,1.475a.416.416,0,0,0-.36.2.418.418,0,0,0,.36.623h.475a.417.417,0,0,0,.36-.213.407.407,0,0,0,0-.41.427.427,0,0,0-.36-.2Zm0,1.475a.41.41,0,1,0,0,.819h.475a.41.41,0,1,0,0-.819Zm0,1.475a.41.41,0,1,0,0,.819h.475a.41.41,0,1,0,0-.819Zm0,1.475a.41.41,0,1,0,0,.819h.475a.41.41,0,1,0,0-.819ZM3.113,1.827h4.76v8.93H3.113ZM0,0V13.379H2.949v2.187H28.535V13.379h2.777v2.187h9.651V0ZM.827.819H40.136V14.747H32.148V12.559h-4.44v2.187H3.785V12.559H.827Z" fill="#53a4d4"/></g><g transform="translate(513.179 327.064)"><path d="M38.956,11.658a.413.413,0,0,0-.41.418v1.852a.414.414,0,0,0,.213.352.407.407,0,0,0,.41,0,.414.414,0,0,0,.213-.352V12.076a.42.42,0,0,0-.426-.418Zm-1.819,0a.407.407,0,0,0-.41.418v1.852a.411.411,0,0,0,.41.41.418.418,0,0,0,.418-.41V12.076a.389.389,0,0,0-.123-.295A.416.416,0,0,0,37.138,11.658Zm-1.827,0a.413.413,0,0,0-.41.418v1.852a.418.418,0,0,0,.418.41.411.411,0,0,0,.41-.41V12.076a.383.383,0,0,0-.115-.295A.421.421,0,0,0,35.311,11.658Zm-1.819,0a.422.422,0,0,0-.295.123.4.4,0,0,0-.115.295v1.852a.406.406,0,0,0,.2.352.414.414,0,0,0,.623-.352V12.076a.389.389,0,0,0-.123-.295A.416.416,0,0,0,33.492,11.658Zm-7.169,0a.417.417,0,0,0-.287.123.4.4,0,0,0-.123.295v1.852a.418.418,0,0,0,.836,0V12.076a.389.389,0,0,0-.123-.295A.421.421,0,0,0,26.323,11.658Zm-1.925,0a.417.417,0,0,0-.287.123.4.4,0,0,0-.123.295v1.852a.418.418,0,0,0,.836,0V12.076a.42.42,0,0,0-.426-.418Zm-1.925,0a.453.453,0,0,0-.295.123.429.429,0,0,0-.115.295v1.852a.418.418,0,0,0,.418.41.411.411,0,0,0,.41-.41V12.076a.383.383,0,0,0-.115-.295A.421.421,0,0,0,22.473,11.658Zm-1.925,0a.437.437,0,0,0-.295.123.429.429,0,0,0-.115.295v1.852a.418.418,0,0,0,.418.41.411.411,0,0,0,.41-.41V12.076a.42.42,0,0,0-.418-.418Zm-1.925,0a.422.422,0,0,0-.295.123.429.429,0,0,0-.115.295v1.852a.411.411,0,0,0,.41.41.418.418,0,0,0,.418-.41V12.076a.389.389,0,0,0-.123-.295A.4.4,0,0,0,18.622,11.658Zm-1.933,0a.417.417,0,0,0-.287.123.4.4,0,0,0-.115.295v1.852a.411.411,0,0,0,.41.41.418.418,0,0,0,.418-.41V12.076a.389.389,0,0,0-.123-.295A.421.421,0,0,0,16.689,11.658Zm-1.925,0a.417.417,0,0,0-.287.123.4.4,0,0,0-.123.295v1.852a.414.414,0,0,0,.213.352.407.407,0,0,0,.41,0,.414.414,0,0,0,.213-.352V12.076a.42.42,0,0,0-.426-.418Zm-1.925,0a.417.417,0,0,0-.287.123.4.4,0,0,0-.123.295v1.852a.414.414,0,0,0,.623.352.406.406,0,0,0,.2-.352V12.076a.383.383,0,0,0-.115-.295A.421.421,0,0,0,12.838,11.658Zm-1.925,0a.437.437,0,0,0-.295.123.429.429,0,0,0-.115.295v1.852a.418.418,0,0,0,.418.41.411.411,0,0,0,.41-.41V12.076a.42.42,0,0,0-.418-.418Zm-1.925,0a.407.407,0,0,0-.41.418v1.852a.411.411,0,0,0,.41.41.418.418,0,0,0,.418-.41V12.076a.389.389,0,0,0-.123-.295A.416.416,0,0,0,8.987,11.658Zm-1.925,0a.422.422,0,0,0-.295.123.4.4,0,0,0-.115.295v1.852a.411.411,0,0,0,.41.41.418.418,0,0,0,.418-.41V12.076a.389.389,0,0,0-.123-.295A.416.416,0,0,0,7.062,11.658Zm-1.933,0a.413.413,0,0,0-.41.418v1.852a.418.418,0,0,0,.836,0V12.076a.42.42,0,0,0-.426-.418ZM38.424,2.2a.438.438,0,0,0-.36.2.407.407,0,0,0,0,.41.427.427,0,0,0,.36.213h.483a.417.417,0,0,0,.36-.213.407.407,0,0,0,0-.41.427.427,0,0,0-.36-.2Zm0,1.475a.414.414,0,0,0,0,.827h.483a.414.414,0,0,0,0-.827Zm0,1.475a.438.438,0,0,0-.36.2.407.407,0,0,0,0,.41.427.427,0,0,0,.36.213h.483a.417.417,0,0,0,.36-.213.407.407,0,0,0,0-.41.427.427,0,0,0-.36-.2Zm0,1.475a.41.41,0,1,0,0,.819h.483a.41.41,0,1,0,0-.819Zm0,1.475a.41.41,0,1,0,0,.819h.483a.41.41,0,1,0,0-.819Zm0,1.475a.41.41,0,1,0,0,.819h.483a.41.41,0,1,0,0-.819ZM31.648,2.2a.416.416,0,0,0-.36.2.418.418,0,0,0,.36.623h.475a.417.417,0,0,0,.36-.213.407.407,0,0,0,0-.41.427.427,0,0,0-.36-.2Zm0,1.475a.414.414,0,1,0,0,.827h.475a.414.414,0,1,0,0-.827Zm0,1.475a.416.416,0,0,0-.36.2.418.418,0,0,0,.36.623h.475a.417.417,0,0,0,.36-.213.407.407,0,0,0,0-.41.427.427,0,0,0-.36-.2Zm0,1.475a.41.41,0,1,0,0,.819h.475a.41.41,0,1,0,0-.819Zm0,1.475a.41.41,0,1,0,0,.819h.475a.41.41,0,1,0,0-.819Zm0,1.475a.41.41,0,1,0,0,.819h.475a.41.41,0,1,0,0-.819Zm1.245-7.742h4.76v8.93h-4.76ZM28.527,2.2a.413.413,0,0,0-.352.2.372.372,0,0,0,0,.41.4.4,0,0,0,.352.213h.483a.417.417,0,0,0,.36-.213.407.407,0,0,0,0-.41.427.427,0,0,0-.36-.2Zm0,1.475a.414.414,0,0,0,0,.827h.483a.414.414,0,1,0,0-.827Zm0,1.475a.413.413,0,0,0-.352.2.372.372,0,0,0,0,.41.4.4,0,0,0,.352.213h.483a.417.417,0,0,0,.36-.213.407.407,0,0,0,0-.41.427.427,0,0,0-.36-.2Zm0,1.475a.41.41,0,1,0,0,.819h.483a.41.41,0,1,0,0-.819Zm0,1.475a.41.41,0,1,0,0,.819h.483a.41.41,0,1,0,0-.819Zm0,1.475a.41.41,0,1,0,0,.819h.483a.41.41,0,1,0,0-.819ZM21.752,2.2a.427.427,0,0,0-.36.2.407.407,0,0,0,0,.41.417.417,0,0,0,.36.213h.475a.417.417,0,0,0,.36-.213.407.407,0,0,0,0-.41.427.427,0,0,0-.36-.2Zm0,1.475a.414.414,0,1,0,0,.827h.475a.414.414,0,1,0,0-.827Zm0,1.475a.427.427,0,0,0-.36.2.407.407,0,0,0,0,.41.417.417,0,0,0,.36.213h.475a.417.417,0,0,0,.36-.213.407.407,0,0,0,0-.41.427.427,0,0,0-.36-.2Zm0,1.475a.41.41,0,1,0,0,.819h.475a.41.41,0,1,0,0-.819Zm0,1.475a.41.41,0,1,0,0,.819h.475a.41.41,0,1,0,0-.819Zm0,1.475a.41.41,0,1,0,0,.819h.475a.41.41,0,1,0,0-.819ZM23,1.827h4.76v8.93H23ZM18.565,2.2a.427.427,0,0,0-.36.2.407.407,0,0,0,0,.41.417.417,0,0,0,.36.213h.475A.418.418,0,0,0,19.4,2.4a.416.416,0,0,0-.36-.2Zm0,1.475a.414.414,0,1,0,0,.827h.475a.414.414,0,1,0,0-.827Zm0,1.475a.427.427,0,0,0-.36.2.407.407,0,0,0,0,.41.417.417,0,0,0,.36.213h.475a.418.418,0,0,0,.36-.623.416.416,0,0,0-.36-.2Zm0,1.475a.41.41,0,1,0,0,.819h.475a.41.41,0,1,0,0-.819Zm0,1.475a.41.41,0,1,0,0,.819h.475a.41.41,0,1,0,0-.819Zm0,1.475a.41.41,0,1,0,0,.819h.475a.41.41,0,1,0,0-.819ZM11.781,2.2a.427.427,0,0,0-.36.2.407.407,0,0,0,0,.41.417.417,0,0,0,.36.213h.475a.418.418,0,0,0,.36-.623.416.416,0,0,0-.36-.2Zm0,1.475a.414.414,0,0,0,0,.827h.475a.414.414,0,1,0,0-.827Zm0,1.475a.427.427,0,0,0-.36.2.407.407,0,0,0,0,.41.417.417,0,0,0,.36.213h.475a.418.418,0,0,0,.36-.623.416.416,0,0,0-.36-.2Zm0,1.475a.41.41,0,0,0,0,.819h.475a.41.41,0,1,0,0-.819Zm0,1.475a.41.41,0,0,0,0,.819h.475a.41.41,0,1,0,0-.819Zm0,1.475a.41.41,0,1,0,0,.819h.475a.41.41,0,1,0,0-.819Zm1.253-7.742h4.76v8.93h-4.76ZM8.651,2.2a.416.416,0,0,0-.36.2.418.418,0,0,0,.36.623h.475a.417.417,0,0,0,.36-.213.407.407,0,0,0,0-.41.427.427,0,0,0-.36-.2Zm0,1.475a.414.414,0,1,0,0,.827h.475a.414.414,0,1,0,0-.827Zm0,1.475a.416.416,0,0,0-.36.2.418.418,0,0,0,.36.623h.475a.417.417,0,0,0,.36-.213.407.407,0,0,0,0-.41.427.427,0,0,0-.36-.2Zm0,1.475a.41.41,0,1,0,0,.819h.475a.41.41,0,1,0,0-.819Zm0,1.475a.41.41,0,1,0,0,.819h.475a.41.41,0,1,0,0-.819Zm0,1.475a.41.41,0,1,0,0,.819h.475a.41.41,0,1,0,0-.819ZM1.868,2.2a.416.416,0,0,0-.36.2.418.418,0,0,0,.36.623h.475A.417.417,0,0,0,2.7,2.81a.407.407,0,0,0,0-.41.427.427,0,0,0-.36-.2Zm0,1.475a.414.414,0,1,0,0,.827h.475a.414.414,0,1,0,0-.827Zm0,1.475a.416.416,0,0,0-.36.2.418.418,0,0,0,.36.623h.475a.417.417,0,0,0,.36-.213.407.407,0,0,0,0-.41.427.427,0,0,0-.36-.2Zm0,1.475a.41.41,0,1,0,0,.819h.475a.41.41,0,1,0,0-.819Zm0,1.475a.41.41,0,1,0,0,.819h.475a.41.41,0,1,0,0-.819Zm0,1.475a.41.41,0,1,0,0,.819h.475a.41.41,0,1,0,0-.819ZM3.113,1.827h4.76v8.93H3.113ZM0,0V13.379H2.949v2.187H28.535V13.379h2.777v2.187h9.651V0ZM.827.819H40.136V14.747H32.148V12.559h-4.44v2.187H3.785V12.559H.827Z" fill="#53a4d4"/></g></g></g><g transform="matrix(1, 0, 0, 1, 342, 128)" filter="url(#o)"><g transform="translate(15 135)" fill="none" stroke="#53a4d4" stroke-width="2"><rect width="629" height="80" rx="40" stroke="none"/><rect x="1" y="1" width="627" height="78" rx="39" fill="none"/></g></g></g><g transform="translate(319 -29)"><line y2="160" transform="translate(505.5 369.5)" fill="none" stroke="#4fbcc9" stroke-width="2"/><line y2="160" transform="translate(518.5 369.5)" fill="none" stroke="#4fbcc9" stroke-width="2"/></g><g transform="translate(256 210.5)"><line y2="40.5" transform="translate(505.5 369.5)" fill="none" stroke="#fff" stroke-width="2"/><line y2="40.5" transform="translate(518.5 369.5)" fill="none" stroke="#fff" stroke-width="2"/></g><g transform="translate(400 -27.5)"><line y2="278.5" transform="translate(505.5 369.5)" fill="none" stroke="#fff" stroke-width="2"/><line y2="278.5" transform="translate(518.5 369.5)" fill="none" stroke="#fff" stroke-width="2"/></g><g transform="translate(-6 210.5)"><line y2="40.5" transform="translate(518.5 369.5)" fill="none" stroke="#fff" stroke-width="2"/></g><g transform="translate(160 -149.5)"><line y2="40.5" transform="translate(505.5 369.5)" fill="none" stroke="#53a4d4" stroke-width="2"/><line y2="40.5" transform="translate(518.5 369.5)" fill="none" stroke="#53a4d4" stroke-width="2"/></g></g></svg>