<svg xmlns="http://www.w3.org/2000/svg" xmlns:xlink="http://www.w3.org/1999/xlink" width="328" height="393" viewBox="0 0 328 393"><defs><linearGradient id="a" y1="0.5" x2="1" y2="0.5" gradientUnits="objectBoundingBox"><stop offset="0" stop-color="#444b97"/><stop offset="0.02" stop-color="#43519c"/><stop offset="0.14" stop-color="#3d6cb1"/><stop offset="0.25" stop-color="#387fc0"/><stop offset="0.37" stop-color="#368ac9"/><stop offset="0.5" stop-color="#358ecc"/><stop offset="1" stop-color="#6ac6bb"/></linearGradient><filter id="f" x="0" y="84" width="328" height="84" filterUnits="userSpaceOnUse"><feOffset input="SourceAlpha"/><feGaussianBlur stdDeviation="4" result="g"/><feFlood flood-color="#53a4d4"/><feComposite operator="in" in2="g"/><feComposite in="SourceGraphic"/></filter><filter id="h" x="0" y="294" width="328" height="99" filterUnits="userSpaceOnUse"><feOffset input="SourceAlpha"/><feGaussianBlur stdDeviation="4" result="i"/><feFlood flood-color="#fff"/><feComposite operator="in" in2="i"/><feComposite in="SourceGraphic"/></filter><filter id="j" x="44.5" y="38.5" width="28" height="62.5" filterUnits="userSpaceOnUse"><feOffset input="SourceAlpha"/><feGaussianBlur stdDeviation="4" result="k"/><feFlood flood-color="#4fbcc9"/><feComposite operator="in" in2="k"/><feComposite in="SourceGraphic"/></filter><filter id="l" x="37" y="71" width="43" height="37" filterUnits="userSpaceOnUse"><feOffset input="SourceAlpha"/><feGaussianBlur stdDeviation="4" result="m"/><feFlood flood-color="#4fbcc9"/><feComposite operator="in" in2="m"/><feComposite in="SourceGraphic"/></filter><filter id="n" x="90.5" y="38.5" width="28" height="62.5" filterUnits="userSpaceOnUse"><feOffset input="SourceAlpha"/><feGaussianBlur stdDeviation="4" result="o"/><feFlood flood-color="#4fbcc9"/><feComposite operator="in" in2="o"/><feComposite in="SourceGraphic"/></filter><filter id="p" x="83" y="71" width="43" height="37" filterUnits="userSpaceOnUse"><feOffset input="SourceAlpha"/><feGaussianBlur stdDeviation="4" result="q"/><feFlood flood-color="#4fbcc9"/><feComposite operator="in" in2="q"/><feComposite in="SourceGraphic"/></filter><filter id="r" x="136.5" y="38.5" width="28" height="62.5" filterUnits="userSpaceOnUse"><feOffset input="SourceAlpha"/><feGaussianBlur stdDeviation="4" result="s"/><feFlood flood-color="#4fbcc9"/><feComposite operator="in" in2="s"/><feComposite in="SourceGraphic"/></filter><filter id="t" x="129" y="71" width="43" height="37" filterUnits="userSpaceOnUse"><feOffset input="SourceAlpha"/><feGaussianBlur stdDeviation="4" result="u"/><feFlood flood-color="#4fbcc9"/><feComposite operator="in" in2="u"/><feComposite in="SourceGraphic"/></filter><filter id="v" x="44.5" y="142.5" width="28" height="168.5" filterUnits="userSpaceOnUse"><feOffset input="SourceAlpha"/><feGaussianBlur stdDeviation="4" result="w"/><feFlood flood-color="#53a4d4"/><feComposite operator="in" in2="w"/><feComposite in="SourceGraphic"/></filter><filter id="x" x="37" y="281" width="43" height="37" filterUnits="userSpaceOnUse"><feOffset input="SourceAlpha"/><feGaussianBlur stdDeviation="4" result="y"/><feFlood flood-color="#53a4d4"/><feComposite operator="in" in2="y"/><feComposite in="SourceGraphic"/></filter><filter id="z" x="90.5" y="142.5" width="28" height="168.5" filterUnits="userSpaceOnUse"><feOffset input="SourceAlpha"/><feGaussianBlur stdDeviation="4" result="aa"/><feFlood flood-color="#53a4d4"/><feComposite operator="in" in2="aa"/><feComposite in="SourceGraphic"/></filter><filter id="ab" x="83" y="281" width="43" height="37" filterUnits="userSpaceOnUse"><feOffset input="SourceAlpha"/><feGaussianBlur stdDeviation="4" result="ac"/><feFlood flood-color="#53a4d4"/><feComposite operator="in" in2="ac"/><feComposite in="SourceGraphic"/></filter><filter id="ad" x="136.5" y="142.5" width="28" height="168.5" filterUnits="userSpaceOnUse"><feOffset input="SourceAlpha"/><feGaussianBlur stdDeviation="4" result="ae"/><feFlood flood-color="#53a4d4"/><feComposite operator="in" in2="ae"/><feComposite in="SourceGraphic"/></filter><filter id="af" x="129" y="281" width="43" height="37" filterUnits="userSpaceOnUse"><feOffset input="SourceAlpha"/><feGaussianBlur stdDeviation="4" result="ag"/><feFlood flood-color="#53a4d4"/><feComposite operator="in" in2="ag"/><feComposite in="SourceGraphic"/></filter></defs><g transform="translate(-1746 -1111)"><g transform="translate(1418 559)"><g transform="translate(-349 283)"><g transform="translate(708.113 380)"><rect width="16.94" height="10.695" rx="5.347" transform="translate(19.604 30.299) rotate(-90)" fill="url(#a)"/><rect width="29.759" height="10.695" rx="5.347" transform="translate(0.07 30.299) rotate(-90)" fill="url(#a)"/><rect width="17.697" height="10.695" rx="5.347" transform="translate(0 19.986)" fill="url(#a)"/><rect width="30.369" height="10.695" rx="5.347" fill="url(#a)"/><rect width="10.695" height="10.695" rx="5.347" transform="translate(19.675 19.986)" fill="url(#a)"/></g><text transform="translate(749 402)" fill="#53a4d4" font-size="20" font-family="Arial-BoldMT, Arial" font-weight="700"><tspan x="0" y="0">GRAID SupremeRAID™</tspan></text></g><g transform="matrix(1, 0, 0, 1, 328, 552)" filter="url(#f)"><g transform="translate(12 96)" fill="none" stroke="#53a4d4" stroke-width="6"><rect width="304" height="60" stroke="none"/><rect x="3" y="3" width="298" height="54" fill="none"/></g></g></g><g transform="translate(0 103)"><g transform="translate(13 -4)"><g transform="translate(1802 1378)"><path d="M0-40V-4.286H50V-25.513H45.56v-3.944H50V-40Zm1.76,1.781H8.58v4H11.7v-4H33.44v4.014h3.12v-4.014H48.24v6.972H43.8v7.525h4.44V-6.066H36.58v-3.7H33.46v3.7H11.71V-9.748H8.59v3.682H1.76Zm41.23.946a.9.9,0,0,0-.89.9.9.9,0,0,0,.89.9h3.62a.893.893,0,0,0,.88-.9.893.893,0,0,0-.88-.9Zm0,3.571a.9.9,0,0,0-.89.9.9.9,0,0,0,.89.9h3.62a.893.893,0,0,0,.88-.9.893.893,0,0,0-.88-.9ZM8.88-31.378A3.061,3.061,0,0,0,5.85-28.31v12.757a3.061,3.061,0,0,0,3.03,3.068H36.19a3.063,3.063,0,0,0,3.04-3.068V-28.31a3.063,3.063,0,0,0-3.04-3.068Zm0,1.781H36.19a1.259,1.259,0,0,1,1.27,1.288v12.757a1.253,1.253,0,0,1-1.27,1.288H8.88a1.253,1.253,0,0,1-1.27-1.288V-28.31A1.259,1.259,0,0,1,8.88-29.6Zm13.5,2.455a4.437,4.437,0,0,0-2.35.533,2.653,2.653,0,0,0-1.28,2.143,2.61,2.61,0,0,0,1.41,2.394,9.364,9.364,0,0,0,2.59.845,3.027,3.027,0,0,1,1.44.634,1.012,1.012,0,0,1,.25.775,1.148,1.148,0,0,1-.54.9,2.585,2.585,0,0,1-1.49.342H22.4a2.016,2.016,0,0,1-1.33-.392,2.073,2.073,0,0,1-.76-1.5l-1.9.221a3.85,3.85,0,0,0,1.38,2.686,4.243,4.243,0,0,0,2.61.7,4.644,4.644,0,0,0,2.6-.614A2.917,2.917,0,0,0,26.34-19.9a2.57,2.57,0,0,0-.81-2.123,4.743,4.743,0,0,0-2.3-1.087,8.761,8.761,0,0,1-2.01-.573.928.928,0,0,1-.57-.905.7.7,0,0,1,.43-.644,1.978,1.978,0,0,1,1.13-.292,2.2,2.2,0,0,1,1.33.282,1.656,1.656,0,0,1,.58,1.177l1.97-.151a3.013,3.013,0,0,0-1.13-2.243A4.554,4.554,0,0,0,22.38-27.143Zm-9.16.02a4.547,4.547,0,0,0-2.36.533,2.661,2.661,0,0,0-1.27,2.153,2.6,2.6,0,0,0,1.4,2.384,9.751,9.751,0,0,0,2.59.855,3.025,3.025,0,0,1,1.45.634.982.982,0,0,1,.24.764,1.136,1.136,0,0,1-.53.9,2.591,2.591,0,0,1-1.5.352h0a2.087,2.087,0,0,1-1.34-.4,2.067,2.067,0,0,1-.76-1.5l-1.9.221a3.888,3.888,0,0,0,1.38,2.686,4.32,4.32,0,0,0,2.61.714,4.624,4.624,0,0,0,2.6-.614,2.935,2.935,0,0,0,1.34-2.435A2.608,2.608,0,0,0,16.37-22a4.913,4.913,0,0,0-2.31-1.087,8.761,8.761,0,0,1-2.01-.573.933.933,0,0,1-.57-.905.721.721,0,0,1,.43-.644,2.026,2.026,0,0,1,1.13-.292,2.256,2.256,0,0,1,1.33.282,1.722,1.722,0,0,1,.59,1.177l1.96-.141a2.987,2.987,0,0,0-1.12-2.243A4.482,4.482,0,0,0,13.22-27.123Zm14.79.151v9.94H32.3a3.5,3.5,0,0,0,2.83-1.308,4.9,4.9,0,0,0,1.12-3.471,5.793,5.793,0,0,0-1.08-3.783,3.414,3.414,0,0,0-3.23-1.378Zm2,1.64h1.97a2.479,2.479,0,0,1,1.71.815c.51.7.5,1.248.5,2.606a3.785,3.785,0,0,1-.5,2.475,1.9,1.9,0,0,1-1.44.744H30.01Zm12.98,2.485a.886.886,0,0,0-.89.885.9.9,0,0,0,.89.9h3.62a.893.893,0,0,0,.88-.9.884.884,0,0,0-.88-.885Zm0,3.582a.886.886,0,0,0-.89.885.9.9,0,0,0,.89.9h3.62a.893.893,0,0,0,.88-.9.884.884,0,0,0-.88-.885Zm0,3.582a.886.886,0,0,0-.89.885.9.9,0,0,0,.89.9h3.62a.893.893,0,0,0,.88-.9.884.884,0,0,0-.88-.885Zm0,3.581a.886.886,0,0,0-.89.885.9.9,0,0,0,.89.9h3.62a.893.893,0,0,0,.88-.9.884.884,0,0,0-.88-.885Zm0,3.582a.886.886,0,0,0-.89.885.9.9,0,0,0,.89.9h3.62a.893.893,0,0,0,.88-.9.884.884,0,0,0-.88-.885Z" fill="#fff" fill-rule="evenodd"/></g><g transform="translate(1872 1378)"><path d="M0-40V-4.286H50V-25.513H45.56v-3.944H50V-40Zm1.76,1.781H8.58v4H11.7v-4H33.44v4.014h3.12v-4.014H48.24v6.972H43.8v7.525h4.44V-6.066H36.58v-3.7H33.46v3.7H11.71V-9.748H8.59v3.682H1.76Zm41.23.946a.9.9,0,0,0-.89.9.9.9,0,0,0,.89.9h3.62a.893.893,0,0,0,.88-.9.893.893,0,0,0-.88-.9Zm0,3.571a.9.9,0,0,0-.89.9.9.9,0,0,0,.89.9h3.62a.893.893,0,0,0,.88-.9.893.893,0,0,0-.88-.9ZM8.88-31.378A3.061,3.061,0,0,0,5.85-28.31v12.757a3.061,3.061,0,0,0,3.03,3.068H36.19a3.063,3.063,0,0,0,3.04-3.068V-28.31a3.063,3.063,0,0,0-3.04-3.068Zm0,1.781H36.19a1.259,1.259,0,0,1,1.27,1.288v12.757a1.253,1.253,0,0,1-1.27,1.288H8.88a1.253,1.253,0,0,1-1.27-1.288V-28.31A1.259,1.259,0,0,1,8.88-29.6Zm13.5,2.455a4.437,4.437,0,0,0-2.35.533,2.653,2.653,0,0,0-1.28,2.143,2.61,2.61,0,0,0,1.41,2.394,9.364,9.364,0,0,0,2.59.845,3.027,3.027,0,0,1,1.44.634,1.012,1.012,0,0,1,.25.775,1.148,1.148,0,0,1-.54.9,2.585,2.585,0,0,1-1.49.342H22.4a2.016,2.016,0,0,1-1.33-.392,2.073,2.073,0,0,1-.76-1.5l-1.9.221a3.85,3.85,0,0,0,1.38,2.686,4.243,4.243,0,0,0,2.61.7,4.644,4.644,0,0,0,2.6-.614A2.917,2.917,0,0,0,26.34-19.9a2.57,2.57,0,0,0-.81-2.123,4.743,4.743,0,0,0-2.3-1.087,8.761,8.761,0,0,1-2.01-.573.928.928,0,0,1-.57-.905.7.7,0,0,1,.43-.644,1.978,1.978,0,0,1,1.13-.292,2.2,2.2,0,0,1,1.33.282,1.656,1.656,0,0,1,.58,1.177l1.97-.151a3.013,3.013,0,0,0-1.13-2.243A4.554,4.554,0,0,0,22.38-27.143Zm-9.16.02a4.547,4.547,0,0,0-2.36.533,2.661,2.661,0,0,0-1.27,2.153,2.6,2.6,0,0,0,1.4,2.384,9.751,9.751,0,0,0,2.59.855,3.025,3.025,0,0,1,1.45.634.982.982,0,0,1,.24.764,1.136,1.136,0,0,1-.53.9,2.591,2.591,0,0,1-1.5.352h0a2.087,2.087,0,0,1-1.34-.4,2.067,2.067,0,0,1-.76-1.5l-1.9.221a3.888,3.888,0,0,0,1.38,2.686,4.32,4.32,0,0,0,2.61.714,4.624,4.624,0,0,0,2.6-.614,2.935,2.935,0,0,0,1.34-2.435A2.608,2.608,0,0,0,16.37-22a4.913,4.913,0,0,0-2.31-1.087,8.761,8.761,0,0,1-2.01-.573.933.933,0,0,1-.57-.905.721.721,0,0,1,.43-.644,2.026,2.026,0,0,1,1.13-.292,2.256,2.256,0,0,1,1.33.282,1.722,1.722,0,0,1,.59,1.177l1.96-.141a2.987,2.987,0,0,0-1.12-2.243A4.482,4.482,0,0,0,13.22-27.123Zm14.79.151v9.94H32.3a3.5,3.5,0,0,0,2.83-1.308,4.9,4.9,0,0,0,1.12-3.471,5.793,5.793,0,0,0-1.08-3.783,3.414,3.414,0,0,0-3.23-1.378Zm2,1.64h1.97a2.479,2.479,0,0,1,1.71.815c.51.7.5,1.248.5,2.606a3.785,3.785,0,0,1-.5,2.475,1.9,1.9,0,0,1-1.44.744H30.01Zm12.98,2.485a.886.886,0,0,0-.89.885.9.9,0,0,0,.89.9h3.62a.893.893,0,0,0,.88-.9.884.884,0,0,0-.88-.885Zm0,3.582a.886.886,0,0,0-.89.885.9.9,0,0,0,.89.9h3.62a.893.893,0,0,0,.88-.9.884.884,0,0,0-.88-.885Zm0,3.582a.886.886,0,0,0-.89.885.9.9,0,0,0,.89.9h3.62a.893.893,0,0,0,.88-.9.884.884,0,0,0-.88-.885Zm0,3.581a.886.886,0,0,0-.89.885.9.9,0,0,0,.89.9h3.62a.893.893,0,0,0,.88-.9.884.884,0,0,0-.88-.885Zm0,3.582a.886.886,0,0,0-.89.885.9.9,0,0,0,.89.9h3.62a.893.893,0,0,0,.88-.9.884.884,0,0,0-.88-.885Z" fill="#fff" fill-rule="evenodd"/></g><g transform="translate(1942 1378)"><path d="M0-40V-4.286H50V-25.513H45.56v-3.944H50V-40Zm1.76,1.781H8.58v4H11.7v-4H33.44v4.014h3.12v-4.014H48.24v6.972H43.8v7.525h4.44V-6.066H36.58v-3.7H33.46v3.7H11.71V-9.748H8.59v3.682H1.76Zm41.23.946a.9.9,0,0,0-.89.9.9.9,0,0,0,.89.9h3.62a.893.893,0,0,0,.88-.9.893.893,0,0,0-.88-.9Zm0,3.571a.9.9,0,0,0-.89.9.9.9,0,0,0,.89.9h3.62a.893.893,0,0,0,.88-.9.893.893,0,0,0-.88-.9ZM8.88-31.378A3.061,3.061,0,0,0,5.85-28.31v12.757a3.061,3.061,0,0,0,3.03,3.068H36.19a3.063,3.063,0,0,0,3.04-3.068V-28.31a3.063,3.063,0,0,0-3.04-3.068Zm0,1.781H36.19a1.259,1.259,0,0,1,1.27,1.288v12.757a1.253,1.253,0,0,1-1.27,1.288H8.88a1.253,1.253,0,0,1-1.27-1.288V-28.31A1.259,1.259,0,0,1,8.88-29.6Zm13.5,2.455a4.437,4.437,0,0,0-2.35.533,2.653,2.653,0,0,0-1.28,2.143,2.61,2.61,0,0,0,1.41,2.394,9.364,9.364,0,0,0,2.59.845,3.027,3.027,0,0,1,1.44.634,1.012,1.012,0,0,1,.25.775,1.148,1.148,0,0,1-.54.9,2.585,2.585,0,0,1-1.49.342H22.4a2.016,2.016,0,0,1-1.33-.392,2.073,2.073,0,0,1-.76-1.5l-1.9.221a3.85,3.85,0,0,0,1.38,2.686,4.243,4.243,0,0,0,2.61.7,4.644,4.644,0,0,0,2.6-.614A2.917,2.917,0,0,0,26.34-19.9a2.57,2.57,0,0,0-.81-2.123,4.743,4.743,0,0,0-2.3-1.087,8.761,8.761,0,0,1-2.01-.573.928.928,0,0,1-.57-.905.7.7,0,0,1,.43-.644,1.978,1.978,0,0,1,1.13-.292,2.2,2.2,0,0,1,1.33.282,1.656,1.656,0,0,1,.58,1.177l1.97-.151a3.013,3.013,0,0,0-1.13-2.243A4.554,4.554,0,0,0,22.38-27.143Zm-9.16.02a4.547,4.547,0,0,0-2.36.533,2.661,2.661,0,0,0-1.27,2.153,2.6,2.6,0,0,0,1.4,2.384,9.751,9.751,0,0,0,2.59.855,3.025,3.025,0,0,1,1.45.634.982.982,0,0,1,.24.764,1.136,1.136,0,0,1-.53.9,2.591,2.591,0,0,1-1.5.352h0a2.087,2.087,0,0,1-1.34-.4,2.067,2.067,0,0,1-.76-1.5l-1.9.221a3.888,3.888,0,0,0,1.38,2.686,4.32,4.32,0,0,0,2.61.714,4.624,4.624,0,0,0,2.6-.614,2.935,2.935,0,0,0,1.34-2.435A2.608,2.608,0,0,0,16.37-22a4.913,4.913,0,0,0-2.31-1.087,8.761,8.761,0,0,1-2.01-.573.933.933,0,0,1-.57-.905.721.721,0,0,1,.43-.644,2.026,2.026,0,0,1,1.13-.292,2.256,2.256,0,0,1,1.33.282,1.722,1.722,0,0,1,.59,1.177l1.96-.141a2.987,2.987,0,0,0-1.12-2.243A4.482,4.482,0,0,0,13.22-27.123Zm14.79.151v9.94H32.3a3.5,3.5,0,0,0,2.83-1.308,4.9,4.9,0,0,0,1.12-3.471,5.793,5.793,0,0,0-1.08-3.783,3.414,3.414,0,0,0-3.23-1.378Zm2,1.64h1.97a2.479,2.479,0,0,1,1.71.815c.51.7.5,1.248.5,2.606a3.785,3.785,0,0,1-.5,2.475,1.9,1.9,0,0,1-1.44.744H30.01Zm12.98,2.485a.886.886,0,0,0-.89.885.9.9,0,0,0,.89.9h3.62a.893.893,0,0,0,.88-.9.884.884,0,0,0-.88-.885Zm0,3.582a.886.886,0,0,0-.89.885.9.9,0,0,0,.89.9h3.62a.893.893,0,0,0,.88-.9.884.884,0,0,0-.88-.885Zm0,3.582a.886.886,0,0,0-.89.885.9.9,0,0,0,.89.9h3.62a.893.893,0,0,0,.88-.9.884.884,0,0,0-.88-.885Zm0,3.581a.886.886,0,0,0-.89.885.9.9,0,0,0,.89.9h3.62a.893.893,0,0,0,.88-.9.884.884,0,0,0-.88-.885Zm0,3.582a.886.886,0,0,0-.89.885.9.9,0,0,0,.89.9h3.62a.893.893,0,0,0,.88-.9.884.884,0,0,0-.88-.885Z" fill="#fff" fill-rule="evenodd"/></g></g><g transform="matrix(1, 0, 0, 1, 1746, 1008)" filter="url(#h)"><g transform="translate(12 306)" fill="none" stroke="#fff" stroke-width="2"><rect width="304" height="75" rx="37.5" stroke="none"/><rect x="1" y="1" width="302" height="73" rx="36.5" fill="none"/></g></g></g><g transform="translate(18 1)"><g transform="translate(-3 -10)"><g transform="translate(-117.681 237.164)"><g transform="translate(2059.979 1119)" fill="none"><path d="M0,0H51.881V8.459L56.4,9.3V20.136l-4.517,1.12v7.58H0Z" stroke="none"/><path d="M 2.999996185302734 3 L 2.999996185302734 25.836181640625 L 48.88140869140625 25.836181640625 L 48.88140869140625 21.25582122802734 L 48.88140869140625 18.9086799621582 L 51.15959930419922 18.34395217895508 L 53.39873886108398 17.78890037536621 L 53.39873886108398 11.79532623291016 L 51.32966613769531 11.4081916809082 L 48.88140869140625 10.95009994506836 L 48.88140869140625 8.459360122680664 L 48.88140869140625 3 L 2.999996185302734 3 M -3.814697265625e-06 0 L 51.88140869140625 0 L 51.88140869140625 8.459360122680664 L 56.39873886108398 9.304580688476562 L 56.39873886108398 20.13603973388672 L 51.88140869140625 21.25582122802734 L 51.88140869140625 28.836181640625 L -3.814697265625e-06 28.836181640625 L -3.814697265625e-06 0 Z" stroke="none" fill="#646464"/></g><path d="M0,0H7.5V18.949H0Z" transform="translate(2065.02 1123.943)" fill="#646464"/><path d="M0,0H7.5V18.949H0Z" transform="translate(2074.072 1123.943)" fill="#646464"/><path d="M0,0H7.5V18.949H0Z" transform="translate(2083.123 1123.943)" fill="#646464"/><path d="M0,0H7.5V18.949H0Z" transform="translate(2092.175 1123.943)" fill="#646464"/></g><g transform="translate(1281 -158.624)"><path d="M68.24,20.422a.723.723,0,0,0-.718.732V24.4a.725.725,0,0,0,.373.617.713.713,0,0,0,.718,0,.725.725,0,0,0,.373-.617V21.154a.735.735,0,0,0-.746-.732Zm-3.186,0a.714.714,0,0,0-.718.732V24.4a.72.72,0,0,0,.718.718.732.732,0,0,0,.732-.718V21.154a.682.682,0,0,0-.215-.517A.728.728,0,0,0,65.054,20.422Zm-3.2,0a.723.723,0,0,0-.718.732V24.4a.732.732,0,0,0,.732.718.72.72,0,0,0,.718-.718V21.154a.671.671,0,0,0-.2-.517A.737.737,0,0,0,61.854,20.422Zm-3.186,0a.738.738,0,0,0-.517.215.692.692,0,0,0-.2.517V24.4a.711.711,0,0,0,.359.617A.725.725,0,0,0,59.4,24.4V21.154a.682.682,0,0,0-.215-.517A.728.728,0,0,0,58.668,20.422Zm-12.557,0a.731.731,0,0,0-.5.215.7.7,0,0,0-.215.517V24.4a.732.732,0,0,0,1.464,0V21.154a.682.682,0,0,0-.215-.517A.737.737,0,0,0,46.11,20.422Zm-3.373,0a.731.731,0,0,0-.5.215.7.7,0,0,0-.215.517V24.4a.732.732,0,0,0,1.464,0V21.154a.735.735,0,0,0-.746-.732Zm-3.373,0a.794.794,0,0,0-.517.215.752.752,0,0,0-.2.517V24.4a.732.732,0,0,0,.732.718A.72.72,0,0,0,40.1,24.4V21.154a.671.671,0,0,0-.2-.517A.737.737,0,0,0,39.365,20.422Zm-3.373,0a.765.765,0,0,0-.517.215.752.752,0,0,0-.2.517V24.4a.732.732,0,0,0,.732.718.72.72,0,0,0,.718-.718V21.154a.735.735,0,0,0-.732-.732Zm-3.373,0a.738.738,0,0,0-.517.215.752.752,0,0,0-.2.517V24.4a.72.72,0,0,0,.718.718.732.732,0,0,0,.732-.718V21.154a.682.682,0,0,0-.215-.517A.7.7,0,0,0,32.62,20.422Zm-3.387,0a.731.731,0,0,0-.5.215.692.692,0,0,0-.2.517V24.4a.72.72,0,0,0,.718.718.732.732,0,0,0,.732-.718V21.154a.682.682,0,0,0-.215-.517A.737.737,0,0,0,29.233,20.422Zm-3.373,0a.731.731,0,0,0-.5.215.7.7,0,0,0-.215.517V24.4a.725.725,0,0,0,.373.617.713.713,0,0,0,.718,0,.725.725,0,0,0,.373-.617V21.154a.735.735,0,0,0-.746-.732Zm-3.373,0a.731.731,0,0,0-.5.215.7.7,0,0,0-.215.517V24.4a.725.725,0,0,0,1.091.617.711.711,0,0,0,.359-.617V21.154a.671.671,0,0,0-.2-.517A.737.737,0,0,0,22.488,20.422Zm-3.373,0a.765.765,0,0,0-.517.215.752.752,0,0,0-.2.517V24.4a.732.732,0,0,0,.732.718.72.72,0,0,0,.718-.718V21.154a.735.735,0,0,0-.732-.732Zm-3.373,0a.714.714,0,0,0-.718.732V24.4a.72.72,0,0,0,.718.718.732.732,0,0,0,.732-.718V21.154a.682.682,0,0,0-.215-.517A.728.728,0,0,0,15.743,20.422Zm-3.373,0a.738.738,0,0,0-.517.215.692.692,0,0,0-.2.517V24.4a.72.72,0,0,0,.718.718A.732.732,0,0,0,13.1,24.4V21.154a.682.682,0,0,0-.215-.517A.728.728,0,0,0,12.371,20.422Zm-3.387,0a.723.723,0,0,0-.718.732V24.4a.732.732,0,0,0,1.464,0V21.154a.735.735,0,0,0-.746-.732ZM67.307,3.846a.767.767,0,0,0-.631.359.713.713,0,0,0,0,.718.748.748,0,0,0,.631.373h.847a.73.73,0,0,0,.631-.373.713.713,0,0,0,0-.718.748.748,0,0,0-.631-.359Zm0,2.583a.725.725,0,0,0,0,1.449h.847a.725.725,0,0,0,0-1.449Zm0,2.583a.767.767,0,0,0-.631.359.713.713,0,0,0,0,.718.748.748,0,0,0,.631.373h.847a.73.73,0,0,0,.631-.373.713.713,0,0,0,0-.718.748.748,0,0,0-.631-.359Zm0,2.583a.718.718,0,1,0,0,1.435h.847a.718.718,0,0,0,0-1.435Zm0,2.583a.718.718,0,1,0,0,1.435h.847a.718.718,0,0,0,0-1.435Zm0,2.583a.718.718,0,1,0,0,1.435h.847a.718.718,0,0,0,0-1.435ZM55.439,3.846a.729.729,0,0,0-.631.359A.732.732,0,0,0,55.439,5.3h.832a.73.73,0,0,0,.631-.373.713.713,0,0,0,0-.718.748.748,0,0,0-.631-.359Zm0,2.583a.725.725,0,1,0,0,1.449h.832a.725.725,0,1,0,0-1.449Zm0,2.583a.729.729,0,0,0-.631.359.732.732,0,0,0,.631,1.091h.832a.73.73,0,0,0,.631-.373.713.713,0,0,0,0-.718.748.748,0,0,0-.631-.359Zm0,2.583a.718.718,0,1,0,0,1.435h.832a.718.718,0,1,0,0-1.435Zm0,2.583a.718.718,0,1,0,0,1.435h.832a.718.718,0,1,0,0-1.435Zm0,2.583a.718.718,0,1,0,0,1.435h.832a.718.718,0,1,0,0-1.435ZM57.62,3.2h8.338V18.843H57.62Zm-7.649.646a.724.724,0,0,0-.617.359.652.652,0,0,0,0,.718.708.708,0,0,0,.617.373h.847a.73.73,0,0,0,.631-.373.713.713,0,0,0,0-.718.748.748,0,0,0-.631-.359Zm0,2.583a.725.725,0,0,0,0,1.449h.847a.725.725,0,1,0,0-1.449Zm0,2.583a.724.724,0,0,0-.617.359.652.652,0,0,0,0,.718.708.708,0,0,0,.617.373h.847a.73.73,0,0,0,.631-.373.713.713,0,0,0,0-.718.748.748,0,0,0-.631-.359Zm0,2.583a.718.718,0,1,0,0,1.435h.847a.718.718,0,1,0,0-1.435Zm0,2.583a.718.718,0,1,0,0,1.435h.847a.718.718,0,1,0,0-1.435Zm0,2.583a.718.718,0,1,0,0,1.435h.847a.718.718,0,1,0,0-1.435ZM38.1,3.846a.748.748,0,0,0-.631.359.713.713,0,0,0,0,.718A.73.73,0,0,0,38.1,5.3h.832a.73.73,0,0,0,.631-.373.713.713,0,0,0,0-.718.748.748,0,0,0-.631-.359Zm0,2.583a.725.725,0,1,0,0,1.449h.832a.725.725,0,1,0,0-1.449Zm0,2.583a.748.748,0,0,0-.631.359.713.713,0,0,0,0,.718.73.73,0,0,0,.631.373h.832a.73.73,0,0,0,.631-.373.713.713,0,0,0,0-.718.748.748,0,0,0-.631-.359Zm0,2.583a.718.718,0,1,0,0,1.435h.832a.718.718,0,1,0,0-1.435Zm0,2.583a.718.718,0,1,0,0,1.435h.832a.718.718,0,1,0,0-1.435Zm0,2.583a.718.718,0,1,0,0,1.435h.832a.718.718,0,1,0,0-1.435ZM40.284,3.2h8.338V18.843H40.284Zm-7.764.646a.748.748,0,0,0-.631.359.713.713,0,0,0,0,.718.73.73,0,0,0,.631.373h.832A.732.732,0,0,0,33.984,4.2a.729.729,0,0,0-.631-.359Zm0,2.583a.725.725,0,1,0,0,1.449h.832a.725.725,0,1,0,0-1.449Zm0,2.583a.748.748,0,0,0-.631.359.713.713,0,0,0,0,.718.73.73,0,0,0,.631.373h.832a.732.732,0,0,0,.631-1.091.729.729,0,0,0-.631-.359Zm0,2.583a.718.718,0,1,0,0,1.435h.832a.718.718,0,1,0,0-1.435Zm0,2.583a.718.718,0,1,0,0,1.435h.832a.718.718,0,1,0,0-1.435Zm0,2.583a.718.718,0,1,0,0,1.435h.832a.718.718,0,1,0,0-1.435ZM20.637,3.846a.748.748,0,0,0-.631.359.713.713,0,0,0,0,.718.73.73,0,0,0,.631.373h.832A.732.732,0,0,0,22.1,4.2a.729.729,0,0,0-.631-.359Zm0,2.583a.725.725,0,0,0,0,1.449h.832a.725.725,0,1,0,0-1.449Zm0,2.583a.748.748,0,0,0-.631.359.713.713,0,0,0,0,.718.73.73,0,0,0,.631.373h.832A.732.732,0,0,0,22.1,9.371a.729.729,0,0,0-.631-.359Zm0,2.583a.718.718,0,0,0,0,1.435h.832a.718.718,0,1,0,0-1.435Zm0,2.583a.718.718,0,0,0,0,1.435h.832a.718.718,0,1,0,0-1.435Zm0,2.583a.718.718,0,0,0,0,1.435h.832a.718.718,0,1,0,0-1.435ZM22.833,3.2h8.338V18.843H22.833Zm-7.678.646a.729.729,0,0,0-.631.359A.732.732,0,0,0,15.155,5.3h.832a.73.73,0,0,0,.631-.373.713.713,0,0,0,0-.718.748.748,0,0,0-.631-.359Zm0,2.583a.725.725,0,1,0,0,1.449h.832a.725.725,0,1,0,0-1.449Zm0,2.583a.729.729,0,0,0-.631.359.732.732,0,0,0,.631,1.091h.832a.73.73,0,0,0,.631-.373.713.713,0,0,0,0-.718.748.748,0,0,0-.631-.359Zm0,2.583a.718.718,0,1,0,0,1.435h.832a.718.718,0,1,0,0-1.435Zm0,2.583a.718.718,0,1,0,0,1.435h.832a.718.718,0,1,0,0-1.435Zm0,2.583a.718.718,0,1,0,0,1.435h.832a.718.718,0,1,0,0-1.435ZM3.272,3.846a.729.729,0,0,0-.631.359A.732.732,0,0,0,3.272,5.3H4.1a.73.73,0,0,0,.631-.373.713.713,0,0,0,0-.718A.748.748,0,0,0,4.1,3.846Zm0,2.583a.725.725,0,1,0,0,1.449H4.1a.725.725,0,1,0,0-1.449Zm0,2.583a.729.729,0,0,0-.631.359.732.732,0,0,0,.631,1.091H4.1a.73.73,0,0,0,.631-.373.713.713,0,0,0,0-.718A.748.748,0,0,0,4.1,9.013Zm0,2.583a.718.718,0,1,0,0,1.435H4.1a.718.718,0,1,0,0-1.435Zm0,2.583a.718.718,0,1,0,0,1.435H4.1a.718.718,0,1,0,0-1.435Zm0,2.583a.718.718,0,1,0,0,1.435H4.1a.718.718,0,1,0,0-1.435ZM5.453,3.2h8.338V18.843H5.453ZM0,0V23.435H5.166v3.832H49.985V23.435H54.85v3.832H71.756V0ZM1.449,1.435H70.306v24.4H56.314V22H48.536v3.832H6.63V22H1.449Z" transform="translate(654 1475)" fill="#646464"/></g></g><g transform="translate(1912 1286)" fill="none" stroke="#646464" stroke-width="2"><rect width="112" height="110" rx="30" stroke="none"/><rect x="1" y="1" width="110" height="108" rx="29" fill="none"/></g></g><line y1="92" x2="92" transform="translate(1938.5 1295.5)" fill="none" stroke="#646464" stroke-width="2"/><g transform="translate(1125 -414)"><path d="M6.75,50v50h36.5V60.7L31.22,50Zm1.71,1.7H30.04V61.93h11.5V98.3H8.46Zm23.29,1.05,8.41,7.48H31.75ZM10.82,64.34v2.84h2.9V64.34Zm5.22,0v2.84H38.21V64.34Zm-5.22,6.92V74.1h2.9V71.26Zm5.22,0V74.1H38.21V71.26Zm-5.22,6.91v2.84h2.9V78.17Zm5.22,0v2.84H38.21V78.17Zm-5.22,6.92v2.84h2.9V85.09Zm5.22,0v2.84H38.21V85.09Z" transform="translate(654 1475)" fill="#4fbcc9"/></g><g transform="translate(1171 -414)"><path d="M6.75,50v50h36.5V60.7L31.22,50Zm1.71,1.7H30.04V61.93h11.5V98.3H8.46Zm23.29,1.05,8.41,7.48H31.75ZM10.82,64.34v2.84h2.9V64.34Zm5.22,0v2.84H38.21V64.34Zm-5.22,6.92V74.1h2.9V71.26Zm5.22,0V74.1H38.21V71.26Zm-5.22,6.91v2.84h2.9V78.17Zm5.22,0v2.84H38.21V78.17Zm-5.22,6.92v2.84h2.9V85.09Zm5.22,0v2.84H38.21V85.09Z" transform="translate(654 1475)" fill="#4fbcc9"/></g><g transform="translate(1217 -414)"><path d="M6.75,50v50h36.5V60.7L31.22,50Zm1.71,1.7H30.04V61.93h11.5V98.3H8.46Zm23.29,1.05,8.41,7.48H31.75ZM10.82,64.34v2.84h2.9V64.34Zm5.22,0v2.84H38.21V64.34Zm-5.22,6.92V74.1h2.9V71.26Zm5.22,0V74.1H38.21V71.26Zm-5.22,6.91v2.84h2.9V78.17Zm5.22,0v2.84H38.21V78.17Zm-5.22,6.92v2.84h2.9V85.09Zm5.22,0v2.84H38.21V85.09Z" transform="translate(654 1475)" fill="#4fbcc9"/></g><g transform="translate(2326 1391) rotate(180)"><g transform="translate(110 35)"><g transform="matrix(-1, 0, 0, -1, 470, 245)" filter="url(#j)"><line y1="38.5" transform="translate(58.5 89) rotate(180)" fill="none" stroke="#4fbcc9" stroke-width="4"/></g><g transform="matrix(-1, 0, 0, -1, 470, 245)" filter="url(#l)"><path d="M9.5,0,19,13H0Z" transform="translate(68 96) rotate(180)" fill="#4fbcc9"/></g></g></g><g transform="translate(2372 1391) rotate(180)"><g transform="translate(110 35)"><g transform="matrix(-1, 0, 0, -1, 516, 245)" filter="url(#n)"><line y1="38.5" transform="translate(104.5 89) rotate(180)" fill="none" stroke="#4fbcc9" stroke-width="4"/></g><g transform="matrix(-1, 0, 0, -1, 516, 245)" filter="url(#p)"><path d="M9.5,0,19,13H0Z" transform="translate(114 96) rotate(180)" fill="#4fbcc9"/></g></g></g><g transform="translate(2418 1391) rotate(180)"><g transform="translate(110 35)"><g transform="matrix(-1, 0, 0, -1, 562, 245)" filter="url(#r)"><line y1="38.5" transform="translate(150.5 89) rotate(180)" fill="none" stroke="#4fbcc9" stroke-width="4"/></g><g transform="matrix(-1, 0, 0, -1, 562, 245)" filter="url(#t)"><path d="M9.5,0,19,13H0Z" transform="translate(160 96) rotate(180)" fill="#4fbcc9"/></g></g></g><g transform="translate(2326 1601) rotate(180)"><g transform="translate(110 35)"><g transform="matrix(-1, 0, 0, -1, 470, 455)" filter="url(#v)"><line y1="144.5" transform="translate(58.5 299) rotate(180)" fill="none" stroke="#53a4d4" stroke-width="4"/></g><g transform="matrix(-1, 0, 0, -1, 470, 455)" filter="url(#x)"><path d="M9.5,0,19,13H0Z" transform="translate(68 306) rotate(180)" fill="#53a4d4"/></g></g></g><g transform="translate(2372 1601) rotate(180)"><g transform="translate(110 35)"><g transform="matrix(-1, 0, 0, -1, 516, 455)" filter="url(#z)"><line y1="144.5" transform="translate(104.5 299) rotate(180)" fill="none" stroke="#53a4d4" stroke-width="4"/></g><g transform="matrix(-1, 0, 0, -1, 516, 455)" filter="url(#ab)"><path d="M9.5,0,19,13H0Z" transform="translate(114 306) rotate(180)" fill="#53a4d4"/></g></g></g><g transform="translate(2418 1601) rotate(180)"><g transform="translate(110 35)"><g transform="matrix(-1, 0, 0, -1, 562, 455)" filter="url(#ad)"><line y1="144.5" transform="translate(150.5 299) rotate(180)" fill="none" stroke="#53a4d4" stroke-width="4"/></g><g transform="matrix(-1, 0, 0, -1, 562, 455)" filter="url(#af)"><path d="M9.5,0,19,13H0Z" transform="translate(160 306) rotate(180)" fill="#53a4d4"/></g></g></g></g></svg>