<svg xmlns="http://www.w3.org/2000/svg" xmlns:xlink="http://www.w3.org/1999/xlink" width="308" height="190" viewBox="0 0 308 190"><defs><linearGradient id="a" y1="0.5" x2="1" y2="0.5" gradientUnits="objectBoundingBox"><stop offset="0" stop-color="#444b97"/><stop offset="0.02" stop-color="#43519c"/><stop offset="0.14" stop-color="#3d6cb1"/><stop offset="0.25" stop-color="#387fc0"/><stop offset="0.37" stop-color="#368ac9"/><stop offset="0.5" stop-color="#358ecc"/><stop offset="1" stop-color="#6ac6bb"/></linearGradient><filter id="f" x="0" y="106" width="308" height="84" filterUnits="userSpaceOnUse"><feOffset input="SourceAlpha"/><feGaussianBlur stdDeviation="4" result="g"/><feFlood flood-color="#53a4d4"/><feComposite operator="in" in2="g"/><feComposite in="SourceGraphic"/></filter><filter id="h" x="2.5" y="5.954" width="69" height="65.501" filterUnits="userSpaceOnUse"><feOffset dy="3" input="SourceAlpha"/><feGaussianBlur stdDeviation="3" result="i"/><feFlood flood-opacity="0.161"/><feComposite operator="in" in2="i"/><feComposite in="SourceGraphic"/></filter><filter id="j" x="93" y="15" width="94" height="94" filterUnits="userSpaceOnUse"><feOffset input="SourceAlpha"/><feGaussianBlur stdDeviation="4" result="k"/><feFlood flood-color="#4fbcc9"/><feComposite operator="in" in2="k"/><feComposite in="SourceGraphic"/></filter><filter id="l" x="190.5" y="52" width="28" height="57" filterUnits="userSpaceOnUse"><feOffset input="SourceAlpha"/><feGaussianBlur stdDeviation="4" result="m"/><feFlood flood-color="#4fbcc9"/><feComposite operator="in" in2="m"/><feComposite in="SourceGraphic"/></filter><filter id="n" x="183" y="45" width="43" height="37" filterUnits="userSpaceOnUse"><feOffset input="SourceAlpha"/><feGaussianBlur stdDeviation="4" result="o"/><feFlood flood-color="#4fbcc9"/><feComposite operator="in" in2="o"/><feComposite in="SourceGraphic"/></filter><filter id="p" x="216.5" y="24" width="28" height="85.5" filterUnits="userSpaceOnUse"><feOffset input="SourceAlpha"/><feGaussianBlur stdDeviation="4" result="q"/><feFlood flood-color="#4fbcc9"/><feComposite operator="in" in2="q"/><feComposite in="SourceGraphic"/></filter><filter id="r" x="209" y="17" width="43" height="37" filterUnits="userSpaceOnUse"><feOffset input="SourceAlpha"/><feGaussianBlur stdDeviation="4" result="s"/><feFlood flood-color="#4fbcc9"/><feComposite operator="in" in2="s"/><feComposite in="SourceGraphic"/></filter><filter id="t" x="242.5" y="7" width="28" height="102.5" filterUnits="userSpaceOnUse"><feOffset input="SourceAlpha"/><feGaussianBlur stdDeviation="4" result="u"/><feFlood flood-color="#4fbcc9"/><feComposite operator="in" in2="u"/><feComposite in="SourceGraphic"/></filter><filter id="v" x="235" y="0" width="43" height="37" filterUnits="userSpaceOnUse"><feOffset input="SourceAlpha"/><feGaussianBlur stdDeviation="4" result="w"/><feFlood flood-color="#4fbcc9"/><feComposite operator="in" in2="w"/><feComposite in="SourceGraphic"/></filter></defs><g transform="translate(-2009 -1218)"><g transform="translate(1681 688)"><g transform="translate(-349 283)"><g transform="translate(708.113 380)"><rect width="16.94" height="10.695" rx="5.347" transform="translate(19.604 30.299) rotate(-90)" fill="url(#a)"/><rect width="29.759" height="10.695" rx="5.347" transform="translate(0.07 30.299) rotate(-90)" fill="url(#a)"/><rect width="17.697" height="10.695" rx="5.347" transform="translate(0 19.986)" fill="url(#a)"/><rect width="30.369" height="10.695" rx="5.347" fill="url(#a)"/><rect width="10.695" height="10.695" rx="5.347" transform="translate(19.675 19.986)" fill="url(#a)"/></g><text transform="translate(749 402)" fill="#53a4d4" font-size="20" font-family="Arial-BoldMT, Arial" font-weight="700"><tspan x="0" y="0">GRAID SupremeRAID</tspan></text></g><g transform="matrix(1, 0, 0, 1, 328, 530)" filter="url(#f)"><g transform="translate(12 118)" fill="none" stroke="#53a4d4" stroke-width="6"><rect width="284" height="60" stroke="none"/><rect x="3" y="3" width="278" height="54" fill="none"/></g></g></g><g transform="translate(1777 964)"><g transform="translate(-392 33)"><g transform="translate(636 233.454)"><g transform="matrix(1, 0, 0, 1, -12, -12.45)" filter="url(#h)"><path d="M282,198.5v38.22h20.88a17.277,17.277,0,0,1-.1,2.01,3.142,3.142,0,0,1-2.22,3.06c-1.57.67-2.88.94-3.88,1.41-1.58.65-2.05,1.19-2.13,1.76l24.97.04c-.02-.57-.57-1.08-1.4-1.45-1.15-.52-2.64-1.01-4.08-1.5-1.87-.72-2.28-1.07-2.67-2.46a9.965,9.965,0,0,1-.16-2.87H332V198.5Zm1.23,1.23h47.54v32.05H283.23Z" transform="translate(-270 -186.05)" fill="#634fc9" stroke="#634fc9" stroke-width="1"/></g><g transform="translate(12.45 9.946)"><path d="M299.413,383.6c-.546-.094-1.17-.191-1.789-.313a.875.875,0,0,0-.567.1,1.364,1.364,0,0,0-.818.988,10.232,10.232,0,0,1-.4,1.1,1.06,1.06,0,0,1-1.089.745q-.907.007-1.814,0a1.053,1.053,0,0,1-1.09-.744c-.192-.5-.362-1.017-.567-1.517a1.173,1.173,0,0,0-.31-.365,1.455,1.455,0,0,0-1.445-.217c-.353.083-.714.137-1.073.2a1.089,1.089,0,0,1-1.228-.565c-.3-.508-.6-1.013-.9-1.524a1.017,1.017,0,0,1,.122-1.313c.339-.4.677-.808,1.028-1.2a.878.878,0,0,0,.208-.552,1.3,1.3,0,0,0-.418-1.125c-.3-.3-.557-.639-.83-.962a1.023,1.023,0,0,1-.117-1.29q.452-.776.914-1.547a1.067,1.067,0,0,1,1.207-.546c.567.091,1.131.2,1.7.285a.981.981,0,0,0,.422-.076,1.453,1.453,0,0,0,.93-1.129c.094-.339.233-.667.355-1a1.067,1.067,0,0,1,1.089-.748q.893,0,1.786,0a1.07,1.07,0,0,1,1.073.732c.188.5.371.994.542,1.5a.956.956,0,0,0,.38.451,1.43,1.43,0,0,0,1.315.2c.409-.1.828-.153,1.244-.22a1.008,1.008,0,0,1,1.083.47c.354.562.691,1.136,1.014,1.716a.975.975,0,0,1-.129,1.171c-.361.434-.74.855-1.093,1.295a.922.922,0,0,0-.165.422,1.353,1.353,0,0,0,.438,1.253,11.389,11.389,0,0,1,.837.992,1.013,1.013,0,0,1,.1,1.223c-.3.53-.613,1.05-.925,1.573A1.109,1.109,0,0,1,299.413,383.6Zm-5.288,1.5v.011a2.8,2.8,0,0,1,.374,0c.242.033.349-.056.418-.288.164-.552.347-1.1.559-1.636a1.025,1.025,0,0,1,.376-.42c.264-.181.576-.3.834-.487a.976.976,0,0,1,.811-.163c.574.107,1.151.2,1.725.307a.3.3,0,0,0,.38-.187c.195-.4.41-.8.633-1.186a.263.263,0,0,0-.036-.366c-.388-.424-.755-.866-1.144-1.289a.869.869,0,0,1-.251-.708,5.966,5.966,0,0,0,0-.946.776.776,0,0,1,.209-.61c.4-.46.79-.934,1.2-1.393a.263.263,0,0,0,.017-.385c-.262-.388-.509-.786-.748-1.187a.245.245,0,0,0-.319-.133c-.6.133-1.2.263-1.8.354a1.106,1.106,0,0,1-.586-.122c-.292-.136-.549-.343-.841-.477a.873.873,0,0,1-.5-.532c-.2-.579-.424-1.152-.632-1.73-.047-.13-.1-.2-.264-.188-.459.026-.92.043-1.38.041-.2,0-.3.051-.365.251-.172.569-.353,1.137-.569,1.692a1.066,1.066,0,0,1-.4.439c-.288.2-.613.342-.91.528a.8.8,0,0,1-.623.119c-.628-.126-1.263-.223-1.893-.342a.228.228,0,0,0-.287.151c-.211.416-.429.829-.658,1.236a.259.259,0,0,0,.04.364c.415.438.827.88,1.212,1.342a.979.979,0,0,1,.2.525,6.88,6.88,0,0,1,0,1.112,1.074,1.074,0,0,1-.2.553c-.384.487-.8.953-1.209,1.418a.25.25,0,0,0-.035.361q.39.584.748,1.189a.265.265,0,0,0,.348.135c.55-.125,1.106-.226,1.659-.341a.925.925,0,0,1,.783.158c.259.187.569.309.832.491a1.123,1.123,0,0,1,.4.435c.244.584.452,1.182.663,1.778a.238.238,0,0,0,.292.187C293.492,385.135,293.809,385.122,294.125,385.1Z" transform="translate(-286.14 -370.284)" fill="#634fc9"/><path d="M371.7,467.812a2.842,2.842,0,1,1,2.943-2.764A2.866,2.866,0,0,1,371.7,467.812Zm0-1.115a1.725,1.725,0,1,0-1.774-1.725A1.76,1.76,0,0,0,371.692,466.7Z" transform="translate(-363.999 -457)" fill="#634fc9"/></g><g transform="translate(27.984 15.879)"><path d="M294.472,378.645c-.343-.059-.735-.12-1.123-.2a.55.55,0,0,0-.356.06.856.856,0,0,0-.514.62,6.444,6.444,0,0,1-.251.691.665.665,0,0,1-.684.468q-.569,0-1.139,0a.661.661,0,0,1-.684-.467c-.121-.317-.227-.639-.356-.952a.736.736,0,0,0-.195-.229.913.913,0,0,0-.907-.136c-.222.052-.449.086-.673.125a.684.684,0,0,1-.771-.354c-.188-.319-.379-.636-.563-.957a.639.639,0,0,1,.076-.824c.213-.253.425-.508.646-.754a.551.551,0,0,0,.131-.347.819.819,0,0,0-.263-.706c-.189-.187-.349-.4-.521-.6a.642.642,0,0,1-.074-.81q.284-.487.573-.971a.67.67,0,0,1,.758-.343c.356.057.71.128,1.067.179a.616.616,0,0,0,.265-.048.912.912,0,0,0,.584-.709c.059-.213.146-.419.223-.627a.67.67,0,0,1,.684-.469q.56,0,1.121,0a.672.672,0,0,1,.674.46c.118.312.233.624.34.939a.6.6,0,0,0,.238.283.9.9,0,0,0,.825.125c.256-.061.52-.1.781-.138a.633.633,0,0,1,.68.295c.222.353.434.713.636,1.077a.612.612,0,0,1-.081.735c-.227.273-.465.536-.686.813a.581.581,0,0,0-.1.265.849.849,0,0,0,.275.787,7.171,7.171,0,0,1,.526.623.636.636,0,0,1,.063.768c-.187.333-.385.66-.581.987A.7.7,0,0,1,294.472,378.645Zm-3.32.942v.007a1.754,1.754,0,0,1,.235,0c.152.021.219-.035.262-.181.1-.347.218-.691.351-1.027a.643.643,0,0,1,.236-.263c.166-.114.362-.188.524-.306a.613.613,0,0,1,.509-.1c.36.067.723.125,1.083.193a.186.186,0,0,0,.238-.118c.122-.253.257-.5.4-.744a.165.165,0,0,0-.023-.23c-.243-.266-.474-.544-.718-.809a.545.545,0,0,1-.158-.444,3.743,3.743,0,0,0,0-.594.487.487,0,0,1,.131-.383c.254-.289.5-.587.75-.875a.165.165,0,0,0,.011-.242c-.165-.243-.32-.493-.47-.745a.154.154,0,0,0-.2-.084c-.375.083-.751.165-1.131.222a.7.7,0,0,1-.368-.076c-.183-.085-.344-.216-.528-.3a.549.549,0,0,1-.316-.334c-.128-.363-.266-.723-.4-1.086-.029-.082-.064-.124-.166-.118-.288.016-.577.027-.866.026-.128,0-.191.032-.229.158-.108.357-.222.714-.357,1.062a.67.67,0,0,1-.249.276c-.181.123-.385.215-.571.332a.5.5,0,0,1-.391.075c-.395-.079-.793-.14-1.188-.215a.143.143,0,0,0-.18.095c-.133.261-.269.521-.413.776a.163.163,0,0,0,.025.228c.26.275.519.552.761.843a.614.614,0,0,1,.124.329,4.325,4.325,0,0,1,0,.7.673.673,0,0,1-.124.347c-.241.306-.5.6-.759.89a.157.157,0,0,0-.022.227q.245.367.469.746a.167.167,0,0,0,.218.085c.345-.078.694-.142,1.041-.214a.581.581,0,0,1,.492.1c.163.118.357.194.523.308a.7.7,0,0,1,.251.273c.153.366.284.742.416,1.116a.149.149,0,0,0,.183.117C290.756,379.607,290.954,379.6,291.153,379.587Z" transform="translate(-286.14 -370.284)" fill="#634fc9"/><path d="M370.606,465.7a1.784,1.784,0,1,1,1.848-1.735A1.8,1.8,0,0,1,370.606,465.7Zm0-.7a1.083,1.083,0,1,0-1.114-1.083A1.1,1.1,0,0,0,370.6,465Z" transform="translate(-365.775 -458.91)" fill="#634fc9"/></g></g></g></g><g transform="translate(1669 1122.952)"><line y2="58.548" transform="translate(372.5 154.5)" fill="none" stroke="#634fc9" stroke-width="2"/><line y2="58.548" transform="translate(382.5 154.5)" fill="none" stroke="#634fc9" stroke-width="2"/></g><g transform="translate(-33 -11)"><g transform="translate(1501 -342)"><path d="M13.72,140.02a.832.832,0,0,0-.861.781l-.19,2.994a19.769,19.769,0,0,0-2.824,1l-1.923-2.163a.836.836,0,0,0-1.172-.08l-3.175,2.724a.835.835,0,0,0-.29.571.87.87,0,0,0,.21.621l1.963,2.253a14.528,14.528,0,0,0-1.312,2.714l-2.9-.18a.838.838,0,0,0-.891.771l-.33,4.2a.84.84,0,0,0,.791.9l3,.13a14.52,14.52,0,0,0,1.022,2.924l-2.3,1.983a.86.86,0,0,0-.29.591.844.844,0,0,0,.23.621l2.854,3.085a.844.844,0,0,0,1.172.05l2.173-1.953a16.463,16.463,0,0,0,2.764,1.242l-.2,3.055a.844.844,0,0,0,.771.891l4.106.33a.81.81,0,0,0,.611-.2.879.879,0,0,0,.29-.581l.17-3.1a12.473,12.473,0,0,0,2.954-1.021l1.943,2.283a.851.851,0,0,0,.591.3.807.807,0,0,0,.611-.23l3.085-2.874a.848.848,0,0,0,.06-1.182l-1.973-2.183a19.047,19.047,0,0,0,1.312-2.834l2.894.19a.838.838,0,0,0,.881-.791l.25-4.076a.83.83,0,0,0-.781-.881l-2.934-.2a30.687,30.687,0,0,0-1-2.934l2.2-1.813a.814.814,0,0,0,.3-.591.827.827,0,0,0-.21-.621l-2.9-3.175a.815.815,0,0,0-.581-.27.785.785,0,0,0-.6.23l-2.073,1.963a15.679,15.679,0,0,0-2.664-1.262l.07-3.175a.834.834,0,0,0-.8-.851Zm29.734,1.011a.488.488,0,0,0-.12.01,6.09,6.09,0,0,0-4.427,2.664,7,7,0,0,0-.861,5l-.01-.04a6.264,6.264,0,0,1-1.432,4.166l-.03.03L24.216,171.466c-.01.01-.01.03-.02.04a6.931,6.931,0,0,1-3.285,2.794c-1.2.551-2.4.781-3.265,1.682a.138.138,0,0,1-.03.04,5.753,5.753,0,0,0-1.452,4.767,6.746,6.746,0,0,0,1.953,3.505.844.844,0,0,0,.781.23.854.854,0,0,0,.6-.551l1.432-4.366,1.352-.09,1.112,1.032-1.512,4.386a.839.839,0,0,0,.861,1.112,6.248,6.248,0,0,0,5.478-6.77v-.01a6.313,6.313,0,0,1,1.512-5.358c.01,0,.01-.01.02-.02l12.518-18.828h0c1.432-2.173,3.175-2.363,4.767-3.1.01,0,.02-.01.03-.01a5.287,5.287,0,0,0,2.944-4.617,6.356,6.356,0,0,0-1.9-4.747.83.83,0,0,0-1.372.351l-1.4,4.286-1.432.25-1.1-1.052,1.442-4.276a.855.855,0,0,0-.11-.761A.84.84,0,0,0,43.454,141.031Zm-28.983.691,2.454.1-.06,2.934a.85.85,0,0,0,.6.821,14.555,14.555,0,0,1,3.435,1.642.845.845,0,0,0,1.021-.1l1.893-1.8,1.723,1.893-1.993,1.642a.849.849,0,0,0-.24.971,28.2,28.2,0,0,1,1.342,3.876.821.821,0,0,0,.751.621l2.684.18-.15,2.4-2.664-.17a.811.811,0,0,0-.841.581,16.8,16.8,0,0,1-1.7,3.645.86.86,0,0,0,.09,1l1.823,2.013L22.793,165.7l-1.813-2.133a.857.857,0,0,0-1.082-.17,10.673,10.673,0,0,1-3.675,1.312.821.821,0,0,0-.671.771l-.16,2.864-2.434-.2.19-2.854a.846.846,0,0,0-.631-.871,15.7,15.7,0,0,1-3.575-1.6.833.833,0,0,0-.951.11L6,164.706l-1.713-1.833,2.1-1.823a.846.846,0,0,0,.21-1A13.222,13.222,0,0,1,5.278,156.3a.835.835,0,0,0-.791-.7l-2.734-.11.2-2.514,2.694.17a.833.833,0,0,0,.841-.561,12.935,12.935,0,0,1,1.682-3.5.858.858,0,0,0-.06-1.032L5.308,146l1.913-1.642,1.783,2a.825.825,0,0,0,.991.19,16.934,16.934,0,0,1,3.665-1.292.843.843,0,0,0,.641-.771ZM42.162,143.1,41.05,146.4a.833.833,0,0,0,.22.881l1.8,1.692a.822.822,0,0,0,.7.22l2.343-.411a.828.828,0,0,0,.651-.561l1.042-3.2a4.823,4.823,0,0,1,.541,2.253,3.484,3.484,0,0,1-2.033,3.175c-1.2.561-3.675,1.021-5.438,3.685L28.362,172.958l.02-.03a8.443,8.443,0,0,0-1.823,6.51v-.01a4.323,4.323,0,0,1-1.2,3.515,4.724,4.724,0,0,1-1.372,1.011l1.162-3.365a.84.84,0,0,0-.22-.891l-1.773-1.652a.81.81,0,0,0-.621-.22l-2.283.15a.827.827,0,0,0-.731.581L18.4,181.972a4.351,4.351,0,0,1-.591-1.492,3.868,3.868,0,0,1,1.062-3.335,17.362,17.362,0,0,1,2.734-1.322,8.728,8.728,0,0,0,4.026-3.455l-.02.03L37.966,153.79l-.03.04a7.79,7.79,0,0,0,1.763-5.358c0-.02-.01-.03-.01-.05a5.388,5.388,0,0,1,.611-3.816A3.958,3.958,0,0,1,42.162,143.1ZM14.9,147.982a7.075,7.075,0,1,0,7.04,7.08A7.08,7.08,0,0,0,14.9,147.982Zm0,1.682a5.393,5.393,0,1,1-5.378,5.4A5.368,5.368,0,0,1,14.9,149.664Zm.02,1.873a3.485,3.485,0,1,0,3.465,3.485A3.492,3.492,0,0,0,14.922,151.537Zm0,1.672a1.813,1.813,0,1,1-1.813,1.813A1.789,1.789,0,0,1,14.922,153.209Z" transform="translate(656 1470)" fill="#4fbcc9"/></g><g transform="matrix(1, 0, 0, 1, 2042, 1229)" filter="url(#j)"><g transform="translate(105 27)" fill="none" stroke="#4fbcc9" stroke-width="2"><rect width="70" height="70" rx="20" stroke="none"/><rect x="1" y="1" width="68" height="68" rx="19" fill="none"/></g></g></g><g transform="translate(1692 1091)"><g transform="translate(110 35)"><g transform="matrix(1, 0, 0, 1, 207, 92)" filter="url(#l)"><line y1="33" transform="translate(204.5 64)" fill="none" stroke="#4fbcc9" stroke-width="4"/></g><g transform="matrix(1, 0, 0, 1, 207, 92)" filter="url(#n)"><path d="M9.5,0,19,13H0Z" transform="translate(195 57)" fill="#4fbcc9"/></g></g></g><g transform="translate(1718 1063)"><g transform="translate(110 35)"><g transform="matrix(1, 0, 0, 1, 181, 120)" filter="url(#p)"><line y1="61.5" transform="translate(230.5 36)" fill="none" stroke="#4fbcc9" stroke-width="4"/></g><g transform="matrix(1, 0, 0, 1, 181, 120)" filter="url(#r)"><path d="M9.5,0,19,13H0Z" transform="translate(221 29)" fill="#4fbcc9"/></g></g></g><g transform="translate(1744 1046)"><g transform="translate(110 35)"><g transform="matrix(1, 0, 0, 1, 155, 137)" filter="url(#t)"><line y1="78.5" transform="translate(256.5 19)" fill="none" stroke="#4fbcc9" stroke-width="4"/></g><g transform="matrix(1, 0, 0, 1, 155, 137)" filter="url(#v)"><path d="M9.5,0,19,13H0Z" transform="translate(247 12)" fill="#4fbcc9"/></g></g></g></g></svg>