<svg xmlns="http://www.w3.org/2000/svg" xmlns:xlink="http://www.w3.org/1999/xlink" width="429" height="284" viewBox="0 0 429 284"><defs><linearGradient id="a" y1="0.5" x2="1" y2="0.5" gradientUnits="objectBoundingBox"><stop offset="0" stop-color="#444b97"/><stop offset="0.02" stop-color="#43519c"/><stop offset="0.14" stop-color="#3d6cb1"/><stop offset="0.25" stop-color="#387fc0"/><stop offset="0.37" stop-color="#368ac9"/><stop offset="0.5" stop-color="#358ecc"/><stop offset="1" stop-color="#6ac6bb"/></linearGradient><filter id="f" x="101" y="0" width="328" height="84" filterUnits="userSpaceOnUse"><feOffset input="SourceAlpha"/><feGaussianBlur stdDeviation="4" result="g"/><feFlood flood-color="#53a4d4"/><feComposite operator="in" in2="g"/><feComposite in="SourceGraphic"/></filter><filter id="h" x="0" y="115" width="429" height="84" filterUnits="userSpaceOnUse"><feOffset input="SourceAlpha"/><feGaussianBlur stdDeviation="4" result="i"/><feFlood flood-color="#fff"/><feComposite operator="in" in2="i"/><feComposite in="SourceGraphic"/></filter><filter id="j" x="0" y="70" width="85" height="84" filterUnits="userSpaceOnUse"><feOffset input="SourceAlpha"/><feGaussianBlur stdDeviation="4" result="k"/><feFlood flood-color="#4fbcc9"/><feComposite operator="in" in2="k"/><feComposite in="SourceGraphic"/></filter><filter id="l" x="15.732" y="97.732" width="38.536" height="38.536" filterUnits="userSpaceOnUse"><feOffset input="SourceAlpha"/><feGaussianBlur stdDeviation="4" result="m"/><feFlood flood-color="#4fbcc9"/><feComposite operator="in" in2="m"/><feComposite in="SourceGraphic"/></filter><filter id="n" x="23.732" y="89.732" width="46.536" height="46.536" filterUnits="userSpaceOnUse"><feOffset input="SourceAlpha"/><feGaussianBlur stdDeviation="4" result="o"/><feFlood flood-color="#4fbcc9"/><feComposite operator="in" in2="o"/><feComposite in="SourceGraphic"/></filter><filter id="p" x="0" y="230" width="429" height="54" filterUnits="userSpaceOnUse"><feOffset input="SourceAlpha"/><feGaussianBlur stdDeviation="4" result="q"/><feFlood flood-color="#fff"/><feComposite operator="in" in2="q"/><feComposite in="SourceGraphic"/></filter><filter id="r" x="0" y="185" width="85" height="84" filterUnits="userSpaceOnUse"><feOffset input="SourceAlpha"/><feGaussianBlur stdDeviation="4" result="s"/><feFlood flood-color="#4fbcc9"/><feComposite operator="in" in2="s"/><feComposite in="SourceGraphic"/></filter><filter id="t" x="15.732" y="212.732" width="38.536" height="38.536" filterUnits="userSpaceOnUse"><feOffset input="SourceAlpha"/><feGaussianBlur stdDeviation="4" result="u"/><feFlood flood-color="#4fbcc9"/><feComposite operator="in" in2="u"/><feComposite in="SourceGraphic"/></filter><filter id="v" x="23.732" y="204.732" width="46.536" height="46.536" filterUnits="userSpaceOnUse"><feOffset input="SourceAlpha"/><feGaussianBlur stdDeviation="4" result="w"/><feFlood flood-color="#4fbcc9"/><feComposite operator="in" in2="w"/><feComposite in="SourceGraphic"/></filter><filter id="x" x="228.5" y="60" width="28" height="71.694" filterUnits="userSpaceOnUse"><feOffset input="SourceAlpha"/><feGaussianBlur stdDeviation="4" result="y"/><feFlood flood-color="#53a4d4"/><feComposite operator="in" in2="y"/><feComposite in="SourceGraphic"/></filter><filter id="z" x="221" y="101" width="43" height="39" filterUnits="userSpaceOnUse"><feOffset input="SourceAlpha"/><feGaussianBlur stdDeviation="4" result="aa"/><feFlood flood-color="#53a4d4"/><feComposite operator="in" in2="aa"/><feComposite in="SourceGraphic"/></filter><filter id="ab" x="273.5" y="60" width="28" height="187.542" filterUnits="userSpaceOnUse"><feOffset input="SourceAlpha"/><feGaussianBlur stdDeviation="4" result="ac"/><feFlood flood-color="#53a4d4"/><feComposite operator="in" in2="ac"/><feComposite in="SourceGraphic"/></filter><filter id="ad" x="266" y="217" width="43" height="38" filterUnits="userSpaceOnUse"><feOffset input="SourceAlpha"/><feGaussianBlur stdDeviation="4" result="ae"/><feFlood flood-color="#53a4d4"/><feComposite operator="in" in2="ae"/><feComposite in="SourceGraphic"/></filter></defs><g transform="translate(-211 -225)"><g transform="translate(-16 -411)"><g transform="translate(-349 283)"><g transform="translate(708.113 380)"><rect width="16.94" height="10.695" rx="5.347" transform="translate(19.604 30.299) rotate(-90)" fill="url(#a)"/><rect width="29.759" height="10.695" rx="5.347" transform="translate(0.07 30.299) rotate(-90)" fill="url(#a)"/><rect width="17.697" height="10.695" rx="5.347" transform="translate(0 19.986)" fill="url(#a)"/><rect width="30.369" height="10.695" rx="5.347" fill="url(#a)"/><rect width="10.695" height="10.695" rx="5.347" transform="translate(19.675 19.986)" fill="url(#a)"/></g><text transform="translate(749 402)" fill="#53a4d4" font-size="20" font-family="Arial-BoldMT, Arial" font-weight="700"><tspan x="0" y="0">GRAID SupremeRAID™</tspan></text></g><g transform="matrix(1, 0, 0, 1, 227, 636)" filter="url(#f)"><g transform="translate(113 12)" fill="none" stroke="#53a4d4" stroke-width="6"><rect width="304" height="60" stroke="none"/><rect x="3" y="3" width="298" height="54" fill="none"/></g></g></g><g transform="translate(0 5)"><g transform="translate(0 21)"><g transform="matrix(1, 0, 0, 1, 211, 199)" filter="url(#h)"><g transform="translate(12 127)" fill="none" stroke="#fff" stroke-width="2"><rect width="405" height="60" stroke="none"/><rect x="1" y="1" width="403" height="58" fill="none"/></g></g><g transform="translate(-10)"><line y2="40" transform="translate(405.5 336.5)" fill="none" stroke="#fff" stroke-width="5"/><line y2="40" transform="translate(465.5 336.5)" fill="none" stroke="#fff" stroke-width="5"/><line y2="40" transform="translate(445.5 336.5)" fill="none" stroke="#fff" stroke-width="5"/><line y2="40" transform="translate(425.5 336.5)" fill="none" stroke="#fff" stroke-width="5"/></g></g><g transform="translate(0 55)"><g transform="matrix(1, 0, 0, 1, 211, 165)" filter="url(#j)"><g transform="translate(12 82)" fill="none"><path d="M30,0h1A30,30,0,0,1,44.631,56.732,29.557,29.557,0,0,1,31,60H30A30,30,0,0,1,30,0Z" stroke="none"/><path d="M 30 4 C 26.48825836181641 4 23.08369445800781 4.686882019042969 19.880859375 6.04156494140625 C 16.78527069091797 7.350894927978516 14.00430679321289 9.226142883300781 11.6152229309082 11.6152229309082 C 9.226142883300781 14.00430679321289 7.350894927978516 16.78527069091797 6.04156494140625 19.880859375 C 4.686882019042969 23.08369445800781 4 26.48825836181641 4 30 C 4 33.51174163818359 4.686882019042969 36.91630554199219 6.04156494140625 40.119140625 C 7.350894927978516 43.21472930908203 9.226142883300781 45.99569320678711 11.6152229309082 48.3847770690918 C 14.00430679321289 50.77385711669922 16.78527069091797 52.64910507202148 19.880859375 53.95843505859375 C 23.08369445800781 55.31311798095703 26.48825836181641 56 30 56 L 31 56 C 33.12841033935547 56 35.24515533447266 55.74565887451172 37.29142379760742 55.24403381347656 C 39.24164581298828 54.76595306396484 41.08573150634766 54.07474136352539 42.7742919921875 53.18862152099609 C 47.04228210449219 50.95177459716797 50.61691665649414 47.65228271484375 53.11176300048828 43.64685821533203 C 55.65547180175781 39.56298828125 57 34.84398651123047 57 30 C 57 26.48825836181641 56.31311798095703 23.08369445800781 54.95843505859375 19.880859375 C 53.64910507202148 16.78527069091797 51.77385711669922 14.00430679321289 49.3847770690918 11.6152229309082 C 46.99569320678711 9.226142883300781 44.21472930908203 7.350894927978516 41.119140625 6.04156494140625 C 37.91630554199219 4.686882019042969 34.51174163818359 4 31 4 L 30 4 M 30 0 L 31 0 C 47.56854248046875 0 61 13.43145751953125 61 30 C 61 41.54818725585938 54.4749755859375 51.57236480712891 44.63113021850586 56.73152923583984 C 40.75269317626953 58.76682281494141 36.02036285400391 60 31 60 L 30 60 C 13.43145751953125 60 0 46.56854248046875 0 30 C 0 13.43145751953125 13.43145751953125 0 30 0 Z" stroke="none" fill="#4fbcc9"/></g></g><g transform="matrix(1, 0, 0, 1, 211, 165)" filter="url(#l)"><line x2="11" y2="11" transform="translate(29.5 111.5)" fill="none" stroke="#4fbcc9" stroke-width="5"/></g><g transform="matrix(1, 0, 0, 1, 211, 165)" filter="url(#n)"><line x1="19" y2="19" transform="translate(37.5 103.5)" fill="none" stroke="#4fbcc9" stroke-width="5"/></g></g></g><g transform="translate(0 6)"><g transform="translate(1 65)"><g transform="matrix(1, 0, 0, 1, 210, 154)" filter="url(#p)"><g transform="translate(12 242)" fill="none" stroke="#fff" stroke-width="2"><rect width="405" height="30" stroke="none"/><rect x="1" y="1" width="403" height="28" fill="none"/></g></g><g transform="translate(0 4)"><line x2="69" transform="translate(311.5 407.5)" fill="none" stroke="#fff" stroke-width="5"/><line x2="69" transform="translate(390.5 407.5)" fill="none" stroke="#fff" stroke-width="5"/><line x2="69" transform="translate(469.5 407.5)" fill="none" stroke="#fff" stroke-width="5"/><line x2="69" transform="translate(548.5 407.5)" fill="none" stroke="#fff" stroke-width="5"/></g></g><g transform="translate(0 169)"><g transform="matrix(1, 0, 0, 1, 211, 50)" filter="url(#r)"><g transform="translate(12 197)" fill="none"><path d="M30,0h1A30,30,0,0,1,44.631,56.732,29.557,29.557,0,0,1,31,60H30A30,30,0,0,1,30,0Z" stroke="none"/><path d="M 30 4 C 26.48825836181641 4 23.08369445800781 4.686882019042969 19.880859375 6.04156494140625 C 16.78527069091797 7.350894927978516 14.00430679321289 9.226142883300781 11.6152229309082 11.6152229309082 C 9.226142883300781 14.00430679321289 7.350894927978516 16.78527069091797 6.04156494140625 19.880859375 C 4.686882019042969 23.08369445800781 4 26.48825836181641 4 30 C 4 33.51174163818359 4.686882019042969 36.91630554199219 6.04156494140625 40.119140625 C 7.350894927978516 43.21472930908203 9.226142883300781 45.99569320678711 11.6152229309082 48.3847770690918 C 14.00430679321289 50.77385711669922 16.78527069091797 52.64910507202148 19.880859375 53.95843505859375 C 23.08369445800781 55.31311798095703 26.48825836181641 56 30 56 L 31 56 C 33.12841033935547 56 35.24515533447266 55.74565887451172 37.29142379760742 55.24403381347656 C 39.24164581298828 54.76595306396484 41.08573150634766 54.07474136352539 42.7742919921875 53.18862152099609 C 47.04228210449219 50.95177459716797 50.61691665649414 47.65228271484375 53.11176300048828 43.64685821533203 C 55.65547180175781 39.56298828125 57 34.84398651123047 57 30 C 57 26.48825836181641 56.31311798095703 23.08369445800781 54.95843505859375 19.880859375 C 53.64910507202148 16.78527069091797 51.77385711669922 14.00430679321289 49.3847770690918 11.6152229309082 C 46.99569320678711 9.226142883300781 44.21472930908203 7.350894927978516 41.119140625 6.04156494140625 C 37.91630554199219 4.686882019042969 34.51174163818359 4 31 4 L 30 4 M 30 0 L 31 0 C 47.56854248046875 0 61 13.43145751953125 61 30 C 61 41.54818725585938 54.4749755859375 51.57236480712891 44.63113021850586 56.73152923583984 C 40.75269317626953 58.76682281494141 36.02036285400391 60 31 60 L 30 60 C 13.43145751953125 60 0 46.56854248046875 0 30 C 0 13.43145751953125 13.43145751953125 0 30 0 Z" stroke="none" fill="#4fbcc9"/></g></g><g transform="matrix(1, 0, 0, 1, 211, 50)" filter="url(#t)"><line x2="11" y2="11" transform="translate(29.5 226.5)" fill="none" stroke="#4fbcc9" stroke-width="5"/></g><g transform="matrix(1, 0, 0, 1, 211, 50)" filter="url(#v)"><line x1="19" y2="19" transform="translate(37.5 218.5)" fill="none" stroke="#4fbcc9" stroke-width="5"/></g></g></g><g transform="translate(463 345.477) rotate(180)"><g transform="translate(0 -7.812)"><g transform="matrix(-1, 0, 0, -1, 252, 128.29)" filter="url(#x)"><line y1="47.694" transform="translate(242.5 119.69) rotate(180)" fill="none" stroke="#53a4d4" stroke-width="4"/></g><g transform="matrix(-1, 0, 0, -1, 252, 128.29)" filter="url(#z)"><path d="M9.5,0,19,15H0Z" transform="translate(252 128) rotate(180)" fill="#53a4d4"/></g></g></g><g transform="translate(508 468) rotate(180)"><g transform="matrix(-1, 0, 0, -1, 297, 243)" filter="url(#ab)"><line y1="163.542" transform="translate(287.5 235.54) rotate(180)" fill="none" stroke="#53a4d4" stroke-width="4"/></g><g transform="matrix(-1, 0, 0, -1, 297, 243)" filter="url(#ad)"><path d="M9.5,0,19,14H0Z" transform="translate(297 243) rotate(180)" fill="#53a4d4"/></g></g></g></svg>