<svg xmlns="http://www.w3.org/2000/svg" xmlns:xlink="http://www.w3.org/1999/xlink" width="426" height="465" viewBox="0 0 426 465"><defs><filter id="a" x="0" y="0" width="265" height="74" filterUnits="userSpaceOnUse"><feOffset input="SourceAlpha"/><feGaussianBlur stdDeviation="4" result="b"/><feFlood flood-color="#634fc9"/><feComposite operator="in" in2="b"/><feComposite in="SourceGraphic"/></filter><filter id="c" x="42.5" y="15.954" width="51.258" height="49.001" filterUnits="userSpaceOnUse"><feOffset dy="3" input="SourceAlpha"/><feGaussianBlur stdDeviation="3" result="d"/><feFlood flood-opacity="0.161"/><feComposite operator="in" in2="d"/><feComposite in="SourceGraphic"/></filter><filter id="e" x="0" y="70" width="234" height="74" filterUnits="userSpaceOnUse"><feOffset input="SourceAlpha"/><feGaussianBlur stdDeviation="4" result="f"/><feFlood flood-color="#634fc9"/><feComposite operator="in" in2="f"/><feComposite in="SourceGraphic"/></filter><filter id="g" x="0" y="140" width="426" height="160" filterUnits="userSpaceOnUse"><feOffset input="SourceAlpha"/><feGaussianBlur stdDeviation="4" result="h"/><feFlood flood-color="#4fbcc9"/><feComposite operator="in" in2="h"/><feComposite in="SourceGraphic"/></filter><filter id="i" x="0" y="377" width="426" height="88" filterUnits="userSpaceOnUse"><feOffset input="SourceAlpha"/><feGaussianBlur stdDeviation="4" result="j"/><feFlood flood-color="#fff"/><feComposite operator="in" in2="j"/><feComposite in="SourceGraphic"/></filter><linearGradient id="k" y1="0.5" x2="1" y2="0.5" gradientUnits="objectBoundingBox"><stop offset="0" stop-color="#444b97"/><stop offset="0.02" stop-color="#43519c"/><stop offset="0.14" stop-color="#3d6cb1"/><stop offset="0.25" stop-color="#387fc0"/><stop offset="0.37" stop-color="#368ac9"/><stop offset="0.5" stop-color="#358ecc"/><stop offset="1" stop-color="#6ac6bb"/></linearGradient><filter id="p" x="98" y="296" width="328" height="84" filterUnits="userSpaceOnUse"><feOffset input="SourceAlpha"/><feGaussianBlur stdDeviation="4" result="q"/><feFlood flood-color="#53a4d4"/><feComposite operator="in" in2="q"/><feComposite in="SourceGraphic"/></filter></defs><g transform="translate(-202 -112)"><g transform="translate(6 -69)"><g transform="matrix(1, 0, 0, 1, 196, 181)" filter="url(#a)"><g transform="translate(12 12)" fill="none" stroke="#634fc9" stroke-width="2"><rect width="241" height="50" rx="25" stroke="none"/><rect x="1" y="1" width="239" height="48" rx="24" fill="none"/></g></g><g transform="translate(-388 -30)"><g transform="translate(288 -247.046)"><g transform="matrix(1, 0, 0, 1, 296, 458.05)" filter="url(#c)"><path d="M282,198.5v24.658h13.471a11.149,11.149,0,0,1-.065,1.3,2.027,2.027,0,0,1-1.432,1.974c-1.013.432-1.858.606-2.5.91-1.019.419-1.323.768-1.374,1.136l16.11.026c-.013-.368-.368-.7-.9-.936-.742-.335-1.7-.652-2.632-.968-1.206-.465-1.471-.69-1.723-1.587a6.43,6.43,0,0,1-.1-1.852h13.413V198.5Zm.794.794h30.671v20.677H282.793Z" transform="translate(-230 -176.05)" fill="#634fc9" stroke="#634fc9" stroke-width="1"/></g><g transform="translate(356.032 486.917)"><path d="M294.7,378.876c-.352-.061-.755-.124-1.154-.2a.565.565,0,0,0-.366.062.88.88,0,0,0-.528.638,6.6,6.6,0,0,1-.258.71.684.684,0,0,1-.7.481q-.585,0-1.171,0a.68.68,0,0,1-.7-.48c-.124-.326-.234-.656-.366-.979a.756.756,0,0,0-.2-.235.939.939,0,0,0-.932-.14c-.228.054-.461.088-.692.128a.7.7,0,0,1-.792-.364c-.193-.328-.39-.654-.579-.983a.656.656,0,0,1,.079-.847c.219-.26.437-.522.664-.775a.566.566,0,0,0,.134-.356.842.842,0,0,0-.27-.726c-.194-.192-.359-.412-.536-.621a.66.66,0,0,1-.076-.832q.292-.5.589-1a.689.689,0,0,1,.779-.352c.366.059.73.131,1.1.184a.633.633,0,0,0,.272-.049.937.937,0,0,0,.6-.729c.06-.219.15-.43.229-.644a.688.688,0,0,1,.7-.482q.576,0,1.152,0a.691.691,0,0,1,.692.472c.121.32.239.641.35.965a.617.617,0,0,0,.245.291.923.923,0,0,0,.848.128c.264-.063.534-.1.8-.142a.65.65,0,0,1,.7.3c.229.363.446.733.654,1.107a.629.629,0,0,1-.083.756c-.233.28-.477.551-.705.835a.6.6,0,0,0-.107.272.873.873,0,0,0,.282.809,7.352,7.352,0,0,1,.54.64.653.653,0,0,1,.065.789c-.192.342-.4.678-.6,1.015A.716.716,0,0,1,294.7,378.876Zm-3.412.968v.007a1.806,1.806,0,0,1,.241,0c.156.021.225-.036.27-.186.106-.356.224-.71.36-1.056a.661.661,0,0,1,.243-.271c.171-.117.372-.193.538-.314a.63.63,0,0,1,.523-.105c.37.069.742.129,1.113.2a.191.191,0,0,0,.245-.121c.126-.26.264-.514.408-.765a.17.17,0,0,0-.024-.236c-.25-.274-.487-.559-.738-.831a.561.561,0,0,1-.162-.457,3.849,3.849,0,0,0,0-.61.5.5,0,0,1,.135-.394c.26-.3.51-.6.771-.9a.17.17,0,0,0,.011-.248c-.169-.25-.329-.507-.483-.766a.158.158,0,0,0-.206-.086c-.385.086-.772.17-1.163.228a.713.713,0,0,1-.378-.078c-.188-.088-.354-.221-.543-.308a.563.563,0,0,1-.325-.343c-.132-.374-.274-.744-.408-1.116-.03-.084-.066-.127-.17-.121-.3.017-.594.028-.89.027-.131,0-.2.033-.236.162-.111.367-.228.734-.367,1.091a.688.688,0,0,1-.255.284c-.186.127-.4.221-.587.341a.513.513,0,0,1-.4.077c-.405-.081-.815-.144-1.221-.221a.147.147,0,0,0-.185.1c-.136.268-.276.535-.424.8a.167.167,0,0,0,.026.235c.267.283.533.568.782.866a.632.632,0,0,1,.127.339,4.441,4.441,0,0,1,0,.718.693.693,0,0,1-.128.357c-.247.314-.514.615-.78.915a.161.161,0,0,0-.023.233q.252.377.482.767a.171.171,0,0,0,.224.087c.355-.081.714-.146,1.07-.22a.6.6,0,0,1,.505.1c.167.121.367.2.537.317a.724.724,0,0,1,.258.28c.158.377.292.763.428,1.147a.154.154,0,0,0,.188.12C290.883,379.865,291.088,379.857,291.291,379.844Z" transform="translate(-286.14 -370.284)" fill="#634fc9"/><path d="M370.657,465.8a1.833,1.833,0,1,1,1.9-1.783A1.849,1.849,0,0,1,370.657,465.8Zm0-.719a1.113,1.113,0,1,0-1.145-1.113A1.135,1.135,0,0,0,370.655,465.077Z" transform="translate(-365.692 -458.821)" fill="#634fc9"/></g><g transform="translate(366.054 490.744)"><path d="M291.516,375.678c-.221-.038-.474-.078-.725-.127a.355.355,0,0,0-.23.039.552.552,0,0,0-.331.4,4.156,4.156,0,0,1-.162.446.429.429,0,0,1-.441.3q-.367,0-.735,0a.427.427,0,0,1-.441-.3c-.078-.2-.147-.412-.23-.614a.475.475,0,0,0-.126-.148.589.589,0,0,0-.585-.088c-.143.034-.289.055-.434.081a.441.441,0,0,1-.5-.229c-.121-.206-.245-.41-.363-.617a.412.412,0,0,1,.049-.532c.137-.164.274-.328.417-.487a.356.356,0,0,0,.084-.224.529.529,0,0,0-.169-.456c-.122-.121-.225-.259-.336-.39a.414.414,0,0,1-.047-.523q.183-.314.37-.627a.432.432,0,0,1,.489-.221c.23.037.458.082.688.116a.4.4,0,0,0,.171-.031.588.588,0,0,0,.377-.457c.038-.137.094-.27.144-.4a.432.432,0,0,1,.441-.3q.362,0,.723,0a.434.434,0,0,1,.435.3c.076.2.15.4.22.606a.387.387,0,0,0,.154.183.579.579,0,0,0,.533.08c.165-.04.335-.062.5-.089a.408.408,0,0,1,.439.19c.143.228.28.46.411.695a.4.4,0,0,1-.052.474c-.146.176-.3.346-.443.524a.375.375,0,0,0-.067.171.548.548,0,0,0,.177.508,4.629,4.629,0,0,1,.339.4.41.41,0,0,1,.04.5c-.121.215-.248.426-.375.637A.449.449,0,0,1,291.516,375.678Zm-2.142.608v0a1.128,1.128,0,0,1,.151,0c.1.013.141-.023.169-.117.066-.224.141-.446.226-.663a.414.414,0,0,1,.152-.17c.107-.073.233-.121.338-.2a.4.4,0,0,1,.328-.066c.233.043.466.081.7.125a.12.12,0,0,0,.154-.076c.079-.163.166-.323.256-.48a.107.107,0,0,0-.015-.148c-.157-.172-.306-.351-.464-.522a.352.352,0,0,1-.1-.287,2.417,2.417,0,0,0,0-.383.314.314,0,0,1,.085-.247c.164-.186.32-.378.484-.564a.107.107,0,0,0,.007-.156c-.106-.157-.206-.318-.3-.481a.1.1,0,0,0-.129-.054c-.242.054-.485.107-.73.143a.448.448,0,0,1-.237-.049c-.118-.055-.222-.139-.341-.193a.354.354,0,0,1-.2-.216c-.083-.234-.172-.467-.256-.7-.019-.053-.041-.08-.107-.076-.186.011-.373.018-.559.017-.082,0-.123.021-.148.1-.07.23-.143.461-.231.685a.432.432,0,0,1-.16.178c-.117.08-.248.139-.369.214a.323.323,0,0,1-.252.048c-.255-.051-.511-.09-.767-.139a.092.092,0,0,0-.116.061c-.086.168-.174.336-.267.5a.105.105,0,0,0,.016.147c.168.178.335.356.491.544a.4.4,0,0,1,.08.212,2.791,2.791,0,0,1,0,.451.435.435,0,0,1-.08.224c-.155.2-.323.386-.49.574a.1.1,0,0,0-.014.146q.158.237.3.482a.108.108,0,0,0,.141.055c.223-.051.448-.092.672-.138a.375.375,0,0,1,.317.064c.105.076.23.125.337.2a.455.455,0,0,1,.162.176c.1.236.183.479.269.72a.1.1,0,0,0,.118.076C289.118,376.3,289.246,376.294,289.374,376.286Z" transform="translate(-286.14 -370.284)" fill="#634fc9"/><path d="M369.954,464.432a1.151,1.151,0,1,1,1.192-1.12A1.161,1.161,0,0,1,369.954,464.432Zm0-.452a.7.7,0,1,0-.719-.7A.713.713,0,0,0,369.953,463.98Z" transform="translate(-366.837 -460.052)" fill="#634fc9"/></g></g><text transform="translate(688 255)" fill="#634fc9" font-size="20" font-family="Arial-BoldMT, Arial" font-weight="700"><tspan x="0" y="0">Application</tspan></text></g></g><g transform="translate(-223 -57)"><g transform="translate(-47 57)"><g transform="translate(25 -89)"><g transform="translate(499 292.63)"><path d="M23.374,6.995a.248.248,0,0,0-.246.251V8.357a.248.248,0,0,0,.128.211.244.244,0,0,0,.246,0,.248.248,0,0,0,.128-.211V7.246a.252.252,0,0,0-.256-.251Zm-1.091,0a.244.244,0,0,0-.246.251V8.357a.246.246,0,0,0,.246.246.251.251,0,0,0,.251-.246V7.246a.234.234,0,0,0-.074-.177A.249.249,0,0,0,22.283,6.995Zm-1.1,0a.248.248,0,0,0-.246.251V8.357a.251.251,0,0,0,.251.246.246.246,0,0,0,.246-.246V7.246a.23.23,0,0,0-.069-.177A.252.252,0,0,0,21.186,6.995Zm-1.091,0a.253.253,0,0,0-.177.074.237.237,0,0,0-.069.177V8.357a.243.243,0,0,0,.123.211.248.248,0,0,0,.374-.211V7.246a.234.234,0,0,0-.074-.177A.249.249,0,0,0,20.1,6.995Zm-4.3,0a.25.25,0,0,0-.172.074.241.241,0,0,0-.074.177V8.357a.251.251,0,0,0,.5,0V7.246a.234.234,0,0,0-.074-.177A.252.252,0,0,0,15.794,6.995Zm-1.155,0a.25.25,0,0,0-.172.074.241.241,0,0,0-.074.177V8.357a.251.251,0,0,0,.5,0V7.246a.252.252,0,0,0-.256-.251Zm-1.155,0a.272.272,0,0,0-.177.074.258.258,0,0,0-.069.177V8.357a.251.251,0,0,0,.251.246.246.246,0,0,0,.246-.246V7.246a.23.23,0,0,0-.069-.177A.252.252,0,0,0,13.484,6.995Zm-1.155,0a.262.262,0,0,0-.177.074.258.258,0,0,0-.069.177V8.357a.251.251,0,0,0,.251.246.246.246,0,0,0,.246-.246V7.246a.252.252,0,0,0-.251-.251Zm-1.155,0A.253.253,0,0,0,11,7.069a.258.258,0,0,0-.069.177V8.357a.246.246,0,0,0,.246.246.251.251,0,0,0,.251-.246V7.246a.234.234,0,0,0-.074-.177A.241.241,0,0,0,11.173,6.995Zm-1.16,0a.25.25,0,0,0-.172.074.237.237,0,0,0-.069.177V8.357a.246.246,0,0,0,.246.246.251.251,0,0,0,.251-.246V7.246a.234.234,0,0,0-.074-.177A.252.252,0,0,0,10.013,6.995Zm-1.155,0a.25.25,0,0,0-.172.074.241.241,0,0,0-.074.177V8.357a.248.248,0,0,0,.128.211.244.244,0,0,0,.246,0,.248.248,0,0,0,.128-.211V7.246a.252.252,0,0,0-.256-.251Zm-1.155,0a.25.25,0,0,0-.172.074.241.241,0,0,0-.074.177V8.357a.248.248,0,0,0,.374.211.243.243,0,0,0,.123-.211V7.246a.23.23,0,0,0-.069-.177A.252.252,0,0,0,7.7,6.995Zm-1.155,0a.262.262,0,0,0-.177.074.258.258,0,0,0-.069.177V8.357a.251.251,0,0,0,.251.246A.246.246,0,0,0,6.8,8.357V7.246a.252.252,0,0,0-.251-.251Zm-1.155,0a.244.244,0,0,0-.246.251V8.357a.246.246,0,0,0,.246.246.251.251,0,0,0,.251-.246V7.246a.234.234,0,0,0-.074-.177A.249.249,0,0,0,5.392,6.995Zm-1.155,0a.253.253,0,0,0-.177.074.237.237,0,0,0-.069.177V8.357a.246.246,0,0,0,.246.246.251.251,0,0,0,.251-.246V7.246a.234.234,0,0,0-.074-.177A.249.249,0,0,0,4.237,6.995Zm-1.16,0a.248.248,0,0,0-.246.251V8.357a.251.251,0,0,0,.5,0V7.246a.252.252,0,0,0-.256-.251ZM23.054,1.317a.263.263,0,0,0-.216.123.244.244,0,0,0,0,.246.256.256,0,0,0,.216.128h.29a.25.25,0,0,0,.216-.128.244.244,0,0,0,0-.246.256.256,0,0,0-.216-.123Zm0,.885a.248.248,0,0,0,0,.5h.29a.248.248,0,0,0,0-.5Zm0,.885a.263.263,0,0,0-.216.123.244.244,0,0,0,0,.246.256.256,0,0,0,.216.128h.29a.25.25,0,0,0,.216-.128.244.244,0,0,0,0-.246.256.256,0,0,0-.216-.123Zm0,.885a.246.246,0,1,0,0,.492h.29a.246.246,0,1,0,0-.492Zm0,.885a.246.246,0,1,0,0,.492h.29a.246.246,0,1,0,0-.492Zm0,.885a.246.246,0,1,0,0,.492h.29a.246.246,0,1,0,0-.492ZM18.989,1.317a.25.25,0,0,0-.216.123.251.251,0,0,0,.216.374h.285a.25.25,0,0,0,.216-.128.244.244,0,0,0,0-.246.256.256,0,0,0-.216-.123Zm0,.885a.248.248,0,1,0,0,.5h.285a.248.248,0,1,0,0-.5Zm0,.885a.25.25,0,0,0-.216.123.251.251,0,0,0,.216.374h.285a.25.25,0,0,0,.216-.128.244.244,0,0,0,0-.246.256.256,0,0,0-.216-.123Zm0,.885a.246.246,0,1,0,0,.492h.285a.246.246,0,1,0,0-.492Zm0,.885a.246.246,0,1,0,0,.492h.285a.246.246,0,1,0,0-.492Zm0,.885a.246.246,0,1,0,0,.492h.285a.246.246,0,1,0,0-.492ZM19.736,1.1h2.856V6.454H19.736Zm-2.62.221a.248.248,0,0,0-.211.123.223.223,0,0,0,0,.246.242.242,0,0,0,.211.128h.29a.25.25,0,0,0,.216-.128.244.244,0,0,0,0-.246.256.256,0,0,0-.216-.123Zm0,.885a.248.248,0,0,0,0,.5h.29a.248.248,0,1,0,0-.5Zm0,.885a.248.248,0,0,0-.211.123.223.223,0,0,0,0,.246.242.242,0,0,0,.211.128h.29a.25.25,0,0,0,.216-.128.244.244,0,0,0,0-.246.256.256,0,0,0-.216-.123Zm0,.885a.246.246,0,0,0,0,.492h.29a.246.246,0,1,0,0-.492Zm0,.885a.246.246,0,1,0,0,.492h.29a.246.246,0,1,0,0-.492Zm0,.885a.246.246,0,0,0,0,.492h.29a.246.246,0,1,0,0-.492ZM13.051,1.317a.256.256,0,0,0-.216.123.244.244,0,0,0,0,.246.25.25,0,0,0,.216.128h.285a.25.25,0,0,0,.216-.128.244.244,0,0,0,0-.246.256.256,0,0,0-.216-.123Zm0,.885a.248.248,0,1,0,0,.5h.285a.248.248,0,1,0,0-.5Zm0,.885a.256.256,0,0,0-.216.123.244.244,0,0,0,0,.246.25.25,0,0,0,.216.128h.285a.25.25,0,0,0,.216-.128.244.244,0,0,0,0-.246.256.256,0,0,0-.216-.123Zm0,.885a.246.246,0,1,0,0,.492h.285a.246.246,0,1,0,0-.492Zm0,.885a.246.246,0,1,0,0,.492h.285a.246.246,0,1,0,0-.492Zm0,.885a.246.246,0,1,0,0,.492h.285a.246.246,0,1,0,0-.492ZM13.8,1.1h2.856V6.454H13.8Zm-2.659.221a.256.256,0,0,0-.216.123.244.244,0,0,0,0,.246.25.25,0,0,0,.216.128h.285a.251.251,0,0,0,.216-.374.25.25,0,0,0-.216-.123Zm0,.885a.248.248,0,1,0,0,.5h.285a.248.248,0,1,0,0-.5Zm0,.885a.256.256,0,0,0-.216.123.244.244,0,0,0,0,.246.25.25,0,0,0,.216.128h.285a.251.251,0,0,0,.216-.374.25.25,0,0,0-.216-.123Zm0,.885a.246.246,0,1,0,0,.492h.285a.246.246,0,1,0,0-.492Zm0,.885a.246.246,0,1,0,0,.492h.285a.246.246,0,1,0,0-.492Zm0,.885a.246.246,0,1,0,0,.492h.285a.246.246,0,1,0,0-.492ZM7.069,1.317a.256.256,0,0,0-.216.123.244.244,0,0,0,0,.246.25.25,0,0,0,.216.128h.285A.251.251,0,0,0,7.57,1.44a.25.25,0,0,0-.216-.123Zm0,.885a.248.248,0,0,0,0,.5h.285a.248.248,0,1,0,0-.5Zm0,.885a.256.256,0,0,0-.216.123.244.244,0,0,0,0,.246.25.25,0,0,0,.216.128h.285A.251.251,0,0,0,7.57,3.21a.25.25,0,0,0-.216-.123Zm0,.885a.246.246,0,0,0,0,.492h.285a.246.246,0,1,0,0-.492Zm0,.885a.246.246,0,1,0,0,.492h.285a.246.246,0,1,0,0-.492Zm0,.885a.246.246,0,0,0,0,.492h.285a.246.246,0,1,0,0-.492ZM7.821,1.1h2.856V6.454H7.821Zm-2.63.221a.25.25,0,0,0-.216.123.251.251,0,0,0,.216.374h.285a.25.25,0,0,0,.216-.128.244.244,0,0,0,0-.246.256.256,0,0,0-.216-.123Zm0,.885a.248.248,0,1,0,0,.5h.285a.248.248,0,1,0,0-.5Zm0,.885a.25.25,0,0,0-.216.123.251.251,0,0,0,.216.374h.285a.25.25,0,0,0,.216-.128.244.244,0,0,0,0-.246.256.256,0,0,0-.216-.123Zm0,.885a.246.246,0,1,0,0,.492h.285a.246.246,0,1,0,0-.492Zm0,.885a.246.246,0,1,0,0,.492h.285a.246.246,0,1,0,0-.492Zm0,.885a.246.246,0,1,0,0,.492h.285a.246.246,0,1,0,0-.492ZM1.121,1.317A.25.25,0,0,0,.9,1.44a.251.251,0,0,0,.216.374h.285a.25.25,0,0,0,.216-.128.244.244,0,0,0,0-.246.256.256,0,0,0-.216-.123Zm0,.885a.248.248,0,1,0,0,.5h.285a.248.248,0,1,0,0-.5Zm0,.885A.25.25,0,0,0,.9,3.21a.251.251,0,0,0,.216.374h.285a.25.25,0,0,0,.216-.128.244.244,0,0,0,0-.246.256.256,0,0,0-.216-.123Zm0,.885a.246.246,0,1,0,0,.492h.285a.246.246,0,1,0,0-.492Zm0,.885a.246.246,0,1,0,0,.492h.285a.246.246,0,1,0,0-.492Zm0,.885a.246.246,0,1,0,0,.492h.285a.246.246,0,1,0,0-.492ZM1.868,1.1H4.724V6.454H1.868ZM0,0V8.027H1.77V9.34H17.121V8.027h1.666V9.34h5.791V0ZM.5.492H24.082V8.848H19.289V7.536H16.625V8.848H2.271V7.536H.5Z" fill="#634fc9"/></g><g transform="translate(503.254 302.96)"><path d="M23.374,6.995a.248.248,0,0,0-.246.251V8.357a.248.248,0,0,0,.128.211.244.244,0,0,0,.246,0,.248.248,0,0,0,.128-.211V7.246a.252.252,0,0,0-.256-.251Zm-1.091,0a.244.244,0,0,0-.246.251V8.357a.246.246,0,0,0,.246.246.251.251,0,0,0,.251-.246V7.246a.234.234,0,0,0-.074-.177A.249.249,0,0,0,22.283,6.995Zm-1.1,0a.248.248,0,0,0-.246.251V8.357a.251.251,0,0,0,.251.246.246.246,0,0,0,.246-.246V7.246a.23.23,0,0,0-.069-.177A.252.252,0,0,0,21.186,6.995Zm-1.091,0a.253.253,0,0,0-.177.074.237.237,0,0,0-.069.177V8.357a.243.243,0,0,0,.123.211.248.248,0,0,0,.374-.211V7.246a.234.234,0,0,0-.074-.177A.249.249,0,0,0,20.1,6.995Zm-4.3,0a.25.25,0,0,0-.172.074.241.241,0,0,0-.074.177V8.357a.251.251,0,0,0,.5,0V7.246a.234.234,0,0,0-.074-.177A.252.252,0,0,0,15.794,6.995Zm-1.155,0a.25.25,0,0,0-.172.074.241.241,0,0,0-.074.177V8.357a.251.251,0,0,0,.5,0V7.246a.252.252,0,0,0-.256-.251Zm-1.155,0a.272.272,0,0,0-.177.074.258.258,0,0,0-.069.177V8.357a.251.251,0,0,0,.251.246.246.246,0,0,0,.246-.246V7.246a.23.23,0,0,0-.069-.177A.252.252,0,0,0,13.484,6.995Zm-1.155,0a.262.262,0,0,0-.177.074.258.258,0,0,0-.069.177V8.357a.251.251,0,0,0,.251.246.246.246,0,0,0,.246-.246V7.246a.252.252,0,0,0-.251-.251Zm-1.155,0A.253.253,0,0,0,11,7.069a.258.258,0,0,0-.069.177V8.357a.246.246,0,0,0,.246.246.251.251,0,0,0,.251-.246V7.246a.234.234,0,0,0-.074-.177A.241.241,0,0,0,11.173,6.995Zm-1.16,0a.25.25,0,0,0-.172.074.237.237,0,0,0-.069.177V8.357a.246.246,0,0,0,.246.246.251.251,0,0,0,.251-.246V7.246a.234.234,0,0,0-.074-.177A.252.252,0,0,0,10.013,6.995Zm-1.155,0a.25.25,0,0,0-.172.074.241.241,0,0,0-.074.177V8.357a.248.248,0,0,0,.128.211.244.244,0,0,0,.246,0,.248.248,0,0,0,.128-.211V7.246a.252.252,0,0,0-.256-.251Zm-1.155,0a.25.25,0,0,0-.172.074.241.241,0,0,0-.074.177V8.357a.248.248,0,0,0,.374.211.243.243,0,0,0,.123-.211V7.246a.23.23,0,0,0-.069-.177A.252.252,0,0,0,7.7,6.995Zm-1.155,0a.262.262,0,0,0-.177.074.258.258,0,0,0-.069.177V8.357a.251.251,0,0,0,.251.246A.246.246,0,0,0,6.8,8.357V7.246a.252.252,0,0,0-.251-.251Zm-1.155,0a.244.244,0,0,0-.246.251V8.357a.246.246,0,0,0,.246.246.251.251,0,0,0,.251-.246V7.246a.234.234,0,0,0-.074-.177A.249.249,0,0,0,5.392,6.995Zm-1.155,0a.253.253,0,0,0-.177.074.237.237,0,0,0-.069.177V8.357a.246.246,0,0,0,.246.246.251.251,0,0,0,.251-.246V7.246a.234.234,0,0,0-.074-.177A.249.249,0,0,0,4.237,6.995Zm-1.16,0a.248.248,0,0,0-.246.251V8.357a.251.251,0,0,0,.5,0V7.246a.252.252,0,0,0-.256-.251ZM23.054,1.317a.263.263,0,0,0-.216.123.244.244,0,0,0,0,.246.256.256,0,0,0,.216.128h.29a.25.25,0,0,0,.216-.128.244.244,0,0,0,0-.246.256.256,0,0,0-.216-.123Zm0,.885a.248.248,0,0,0,0,.5h.29a.248.248,0,0,0,0-.5Zm0,.885a.263.263,0,0,0-.216.123.244.244,0,0,0,0,.246.256.256,0,0,0,.216.128h.29a.25.25,0,0,0,.216-.128.244.244,0,0,0,0-.246.256.256,0,0,0-.216-.123Zm0,.885a.246.246,0,1,0,0,.492h.29a.246.246,0,1,0,0-.492Zm0,.885a.246.246,0,1,0,0,.492h.29a.246.246,0,1,0,0-.492Zm0,.885a.246.246,0,1,0,0,.492h.29a.246.246,0,1,0,0-.492ZM18.989,1.317a.25.25,0,0,0-.216.123.251.251,0,0,0,.216.374h.285a.25.25,0,0,0,.216-.128.244.244,0,0,0,0-.246.256.256,0,0,0-.216-.123Zm0,.885a.248.248,0,1,0,0,.5h.285a.248.248,0,1,0,0-.5Zm0,.885a.25.25,0,0,0-.216.123.251.251,0,0,0,.216.374h.285a.25.25,0,0,0,.216-.128.244.244,0,0,0,0-.246.256.256,0,0,0-.216-.123Zm0,.885a.246.246,0,1,0,0,.492h.285a.246.246,0,1,0,0-.492Zm0,.885a.246.246,0,1,0,0,.492h.285a.246.246,0,1,0,0-.492Zm0,.885a.246.246,0,1,0,0,.492h.285a.246.246,0,1,0,0-.492ZM19.736,1.1h2.856V6.454H19.736Zm-2.62.221a.248.248,0,0,0-.211.123.223.223,0,0,0,0,.246.242.242,0,0,0,.211.128h.29a.25.25,0,0,0,.216-.128.244.244,0,0,0,0-.246.256.256,0,0,0-.216-.123Zm0,.885a.248.248,0,0,0,0,.5h.29a.248.248,0,1,0,0-.5Zm0,.885a.248.248,0,0,0-.211.123.223.223,0,0,0,0,.246.242.242,0,0,0,.211.128h.29a.25.25,0,0,0,.216-.128.244.244,0,0,0,0-.246.256.256,0,0,0-.216-.123Zm0,.885a.246.246,0,0,0,0,.492h.29a.246.246,0,1,0,0-.492Zm0,.885a.246.246,0,1,0,0,.492h.29a.246.246,0,1,0,0-.492Zm0,.885a.246.246,0,0,0,0,.492h.29a.246.246,0,1,0,0-.492ZM13.051,1.317a.256.256,0,0,0-.216.123.244.244,0,0,0,0,.246.25.25,0,0,0,.216.128h.285a.25.25,0,0,0,.216-.128.244.244,0,0,0,0-.246.256.256,0,0,0-.216-.123Zm0,.885a.248.248,0,1,0,0,.5h.285a.248.248,0,1,0,0-.5Zm0,.885a.256.256,0,0,0-.216.123.244.244,0,0,0,0,.246.25.25,0,0,0,.216.128h.285a.25.25,0,0,0,.216-.128.244.244,0,0,0,0-.246.256.256,0,0,0-.216-.123Zm0,.885a.246.246,0,1,0,0,.492h.285a.246.246,0,1,0,0-.492Zm0,.885a.246.246,0,1,0,0,.492h.285a.246.246,0,1,0,0-.492Zm0,.885a.246.246,0,1,0,0,.492h.285a.246.246,0,1,0,0-.492ZM13.8,1.1h2.856V6.454H13.8Zm-2.659.221a.256.256,0,0,0-.216.123.244.244,0,0,0,0,.246.25.25,0,0,0,.216.128h.285a.251.251,0,0,0,.216-.374.25.25,0,0,0-.216-.123Zm0,.885a.248.248,0,1,0,0,.5h.285a.248.248,0,1,0,0-.5Zm0,.885a.256.256,0,0,0-.216.123.244.244,0,0,0,0,.246.25.25,0,0,0,.216.128h.285a.251.251,0,0,0,.216-.374.25.25,0,0,0-.216-.123Zm0,.885a.246.246,0,1,0,0,.492h.285a.246.246,0,1,0,0-.492Zm0,.885a.246.246,0,1,0,0,.492h.285a.246.246,0,1,0,0-.492Zm0,.885a.246.246,0,1,0,0,.492h.285a.246.246,0,1,0,0-.492ZM7.069,1.317a.256.256,0,0,0-.216.123.244.244,0,0,0,0,.246.25.25,0,0,0,.216.128h.285A.251.251,0,0,0,7.57,1.44a.25.25,0,0,0-.216-.123Zm0,.885a.248.248,0,0,0,0,.5h.285a.248.248,0,1,0,0-.5Zm0,.885a.256.256,0,0,0-.216.123.244.244,0,0,0,0,.246.25.25,0,0,0,.216.128h.285A.251.251,0,0,0,7.57,3.21a.25.25,0,0,0-.216-.123Zm0,.885a.246.246,0,0,0,0,.492h.285a.246.246,0,1,0,0-.492Zm0,.885a.246.246,0,1,0,0,.492h.285a.246.246,0,1,0,0-.492Zm0,.885a.246.246,0,0,0,0,.492h.285a.246.246,0,1,0,0-.492ZM7.821,1.1h2.856V6.454H7.821Zm-2.63.221a.25.25,0,0,0-.216.123.251.251,0,0,0,.216.374h.285a.25.25,0,0,0,.216-.128.244.244,0,0,0,0-.246.256.256,0,0,0-.216-.123Zm0,.885a.248.248,0,1,0,0,.5h.285a.248.248,0,1,0,0-.5Zm0,.885a.25.25,0,0,0-.216.123.251.251,0,0,0,.216.374h.285a.25.25,0,0,0,.216-.128.244.244,0,0,0,0-.246.256.256,0,0,0-.216-.123Zm0,.885a.246.246,0,1,0,0,.492h.285a.246.246,0,1,0,0-.492Zm0,.885a.246.246,0,1,0,0,.492h.285a.246.246,0,1,0,0-.492Zm0,.885a.246.246,0,1,0,0,.492h.285a.246.246,0,1,0,0-.492ZM1.121,1.317A.25.25,0,0,0,.9,1.44a.251.251,0,0,0,.216.374h.285a.25.25,0,0,0,.216-.128.244.244,0,0,0,0-.246.256.256,0,0,0-.216-.123Zm0,.885a.248.248,0,1,0,0,.5h.285a.248.248,0,1,0,0-.5Zm0,.885A.25.25,0,0,0,.9,3.21a.251.251,0,0,0,.216.374h.285a.25.25,0,0,0,.216-.128.244.244,0,0,0,0-.246.256.256,0,0,0-.216-.123Zm0,.885a.246.246,0,1,0,0,.492h.285a.246.246,0,1,0,0-.492Zm0,.885a.246.246,0,1,0,0,.492h.285a.246.246,0,1,0,0-.492Zm0,.885a.246.246,0,1,0,0,.492h.285a.246.246,0,1,0,0-.492ZM1.868,1.1H4.724V6.454H1.868ZM0,0V8.027H1.77V9.34H17.121V8.027h1.666V9.34h5.791V0ZM.5.492H24.082V8.848H19.289V7.536H16.625V8.848H2.271V7.536H.5Z" fill="#634fc9"/></g><g transform="translate(507.507 313.29)"><path d="M23.374,6.995a.248.248,0,0,0-.246.251V8.357a.248.248,0,0,0,.128.211.244.244,0,0,0,.246,0,.248.248,0,0,0,.128-.211V7.246a.252.252,0,0,0-.256-.251Zm-1.091,0a.244.244,0,0,0-.246.251V8.357a.246.246,0,0,0,.246.246.251.251,0,0,0,.251-.246V7.246a.234.234,0,0,0-.074-.177A.249.249,0,0,0,22.283,6.995Zm-1.1,0a.248.248,0,0,0-.246.251V8.357a.251.251,0,0,0,.251.246.246.246,0,0,0,.246-.246V7.246a.23.23,0,0,0-.069-.177A.252.252,0,0,0,21.186,6.995Zm-1.091,0a.253.253,0,0,0-.177.074.237.237,0,0,0-.069.177V8.357a.243.243,0,0,0,.123.211.248.248,0,0,0,.374-.211V7.246a.234.234,0,0,0-.074-.177A.249.249,0,0,0,20.1,6.995Zm-4.3,0a.25.25,0,0,0-.172.074.241.241,0,0,0-.074.177V8.357a.251.251,0,0,0,.5,0V7.246a.234.234,0,0,0-.074-.177A.252.252,0,0,0,15.794,6.995Zm-1.155,0a.25.25,0,0,0-.172.074.241.241,0,0,0-.074.177V8.357a.251.251,0,0,0,.5,0V7.246a.252.252,0,0,0-.256-.251Zm-1.155,0a.272.272,0,0,0-.177.074.258.258,0,0,0-.069.177V8.357a.251.251,0,0,0,.251.246.246.246,0,0,0,.246-.246V7.246a.23.23,0,0,0-.069-.177A.252.252,0,0,0,13.484,6.995Zm-1.155,0a.262.262,0,0,0-.177.074.258.258,0,0,0-.069.177V8.357a.251.251,0,0,0,.251.246.246.246,0,0,0,.246-.246V7.246a.252.252,0,0,0-.251-.251Zm-1.155,0A.253.253,0,0,0,11,7.069a.258.258,0,0,0-.069.177V8.357a.246.246,0,0,0,.246.246.251.251,0,0,0,.251-.246V7.246a.234.234,0,0,0-.074-.177A.241.241,0,0,0,11.173,6.995Zm-1.16,0a.25.25,0,0,0-.172.074.237.237,0,0,0-.069.177V8.357a.246.246,0,0,0,.246.246.251.251,0,0,0,.251-.246V7.246a.234.234,0,0,0-.074-.177A.252.252,0,0,0,10.013,6.995Zm-1.155,0a.25.25,0,0,0-.172.074.241.241,0,0,0-.074.177V8.357a.248.248,0,0,0,.128.211.244.244,0,0,0,.246,0,.248.248,0,0,0,.128-.211V7.246a.252.252,0,0,0-.256-.251Zm-1.155,0a.25.25,0,0,0-.172.074.241.241,0,0,0-.074.177V8.357a.248.248,0,0,0,.374.211.243.243,0,0,0,.123-.211V7.246a.23.23,0,0,0-.069-.177A.252.252,0,0,0,7.7,6.995Zm-1.155,0a.262.262,0,0,0-.177.074.258.258,0,0,0-.069.177V8.357a.251.251,0,0,0,.251.246A.246.246,0,0,0,6.8,8.357V7.246a.252.252,0,0,0-.251-.251Zm-1.155,0a.244.244,0,0,0-.246.251V8.357a.246.246,0,0,0,.246.246.251.251,0,0,0,.251-.246V7.246a.234.234,0,0,0-.074-.177A.249.249,0,0,0,5.392,6.995Zm-1.155,0a.253.253,0,0,0-.177.074.237.237,0,0,0-.069.177V8.357a.246.246,0,0,0,.246.246.251.251,0,0,0,.251-.246V7.246a.234.234,0,0,0-.074-.177A.249.249,0,0,0,4.237,6.995Zm-1.16,0a.248.248,0,0,0-.246.251V8.357a.251.251,0,0,0,.5,0V7.246a.252.252,0,0,0-.256-.251ZM23.054,1.317a.263.263,0,0,0-.216.123.244.244,0,0,0,0,.246.256.256,0,0,0,.216.128h.29a.25.25,0,0,0,.216-.128.244.244,0,0,0,0-.246.256.256,0,0,0-.216-.123Zm0,.885a.248.248,0,0,0,0,.5h.29a.248.248,0,0,0,0-.5Zm0,.885a.263.263,0,0,0-.216.123.244.244,0,0,0,0,.246.256.256,0,0,0,.216.128h.29a.25.25,0,0,0,.216-.128.244.244,0,0,0,0-.246.256.256,0,0,0-.216-.123Zm0,.885a.246.246,0,1,0,0,.492h.29a.246.246,0,1,0,0-.492Zm0,.885a.246.246,0,1,0,0,.492h.29a.246.246,0,1,0,0-.492Zm0,.885a.246.246,0,1,0,0,.492h.29a.246.246,0,1,0,0-.492ZM18.989,1.317a.25.25,0,0,0-.216.123.251.251,0,0,0,.216.374h.285a.25.25,0,0,0,.216-.128.244.244,0,0,0,0-.246.256.256,0,0,0-.216-.123Zm0,.885a.248.248,0,1,0,0,.5h.285a.248.248,0,1,0,0-.5Zm0,.885a.25.25,0,0,0-.216.123.251.251,0,0,0,.216.374h.285a.25.25,0,0,0,.216-.128.244.244,0,0,0,0-.246.256.256,0,0,0-.216-.123Zm0,.885a.246.246,0,1,0,0,.492h.285a.246.246,0,1,0,0-.492Zm0,.885a.246.246,0,1,0,0,.492h.285a.246.246,0,1,0,0-.492Zm0,.885a.246.246,0,1,0,0,.492h.285a.246.246,0,1,0,0-.492ZM19.736,1.1h2.856V6.454H19.736Zm-2.62.221a.248.248,0,0,0-.211.123.223.223,0,0,0,0,.246.242.242,0,0,0,.211.128h.29a.25.25,0,0,0,.216-.128.244.244,0,0,0,0-.246.256.256,0,0,0-.216-.123Zm0,.885a.248.248,0,0,0,0,.5h.29a.248.248,0,1,0,0-.5Zm0,.885a.248.248,0,0,0-.211.123.223.223,0,0,0,0,.246.242.242,0,0,0,.211.128h.29a.25.25,0,0,0,.216-.128.244.244,0,0,0,0-.246.256.256,0,0,0-.216-.123Zm0,.885a.246.246,0,0,0,0,.492h.29a.246.246,0,1,0,0-.492Zm0,.885a.246.246,0,1,0,0,.492h.29a.246.246,0,1,0,0-.492Zm0,.885a.246.246,0,0,0,0,.492h.29a.246.246,0,1,0,0-.492ZM13.051,1.317a.256.256,0,0,0-.216.123.244.244,0,0,0,0,.246.25.25,0,0,0,.216.128h.285a.25.25,0,0,0,.216-.128.244.244,0,0,0,0-.246.256.256,0,0,0-.216-.123Zm0,.885a.248.248,0,1,0,0,.5h.285a.248.248,0,1,0,0-.5Zm0,.885a.256.256,0,0,0-.216.123.244.244,0,0,0,0,.246.25.25,0,0,0,.216.128h.285a.25.25,0,0,0,.216-.128.244.244,0,0,0,0-.246.256.256,0,0,0-.216-.123Zm0,.885a.246.246,0,1,0,0,.492h.285a.246.246,0,1,0,0-.492Zm0,.885a.246.246,0,1,0,0,.492h.285a.246.246,0,1,0,0-.492Zm0,.885a.246.246,0,1,0,0,.492h.285a.246.246,0,1,0,0-.492ZM13.8,1.1h2.856V6.454H13.8Zm-2.659.221a.256.256,0,0,0-.216.123.244.244,0,0,0,0,.246.25.25,0,0,0,.216.128h.285a.251.251,0,0,0,.216-.374.25.25,0,0,0-.216-.123Zm0,.885a.248.248,0,1,0,0,.5h.285a.248.248,0,1,0,0-.5Zm0,.885a.256.256,0,0,0-.216.123.244.244,0,0,0,0,.246.25.25,0,0,0,.216.128h.285a.251.251,0,0,0,.216-.374.25.25,0,0,0-.216-.123Zm0,.885a.246.246,0,1,0,0,.492h.285a.246.246,0,1,0,0-.492Zm0,.885a.246.246,0,1,0,0,.492h.285a.246.246,0,1,0,0-.492Zm0,.885a.246.246,0,1,0,0,.492h.285a.246.246,0,1,0,0-.492ZM7.069,1.317a.256.256,0,0,0-.216.123.244.244,0,0,0,0,.246.25.25,0,0,0,.216.128h.285A.251.251,0,0,0,7.57,1.44a.25.25,0,0,0-.216-.123Zm0,.885a.248.248,0,0,0,0,.5h.285a.248.248,0,1,0,0-.5Zm0,.885a.256.256,0,0,0-.216.123.244.244,0,0,0,0,.246.25.25,0,0,0,.216.128h.285A.251.251,0,0,0,7.57,3.21a.25.25,0,0,0-.216-.123Zm0,.885a.246.246,0,0,0,0,.492h.285a.246.246,0,1,0,0-.492Zm0,.885a.246.246,0,1,0,0,.492h.285a.246.246,0,1,0,0-.492Zm0,.885a.246.246,0,0,0,0,.492h.285a.246.246,0,1,0,0-.492ZM7.821,1.1h2.856V6.454H7.821Zm-2.63.221a.25.25,0,0,0-.216.123.251.251,0,0,0,.216.374h.285a.25.25,0,0,0,.216-.128.244.244,0,0,0,0-.246.256.256,0,0,0-.216-.123Zm0,.885a.248.248,0,1,0,0,.5h.285a.248.248,0,1,0,0-.5Zm0,.885a.25.25,0,0,0-.216.123.251.251,0,0,0,.216.374h.285a.25.25,0,0,0,.216-.128.244.244,0,0,0,0-.246.256.256,0,0,0-.216-.123Zm0,.885a.246.246,0,1,0,0,.492h.285a.246.246,0,1,0,0-.492Zm0,.885a.246.246,0,1,0,0,.492h.285a.246.246,0,1,0,0-.492Zm0,.885a.246.246,0,1,0,0,.492h.285a.246.246,0,1,0,0-.492ZM1.121,1.317A.25.25,0,0,0,.9,1.44a.251.251,0,0,0,.216.374h.285a.25.25,0,0,0,.216-.128.244.244,0,0,0,0-.246.256.256,0,0,0-.216-.123Zm0,.885a.248.248,0,1,0,0,.5h.285a.248.248,0,1,0,0-.5Zm0,.885A.25.25,0,0,0,.9,3.21a.251.251,0,0,0,.216.374h.285a.25.25,0,0,0,.216-.128.244.244,0,0,0,0-.246.256.256,0,0,0-.216-.123Zm0,.885a.246.246,0,1,0,0,.492h.285a.246.246,0,1,0,0-.492Zm0,.885a.246.246,0,1,0,0,.492h.285a.246.246,0,1,0,0-.492Zm0,.885a.246.246,0,1,0,0,.492h.285a.246.246,0,1,0,0-.492ZM1.868,1.1H4.724V6.454H1.868ZM0,0V8.027H1.77V9.34H17.121V8.027h1.666V9.34h5.791V0ZM.5.492H24.082V8.848H19.289V7.536H16.625V8.848H2.271V7.536H.5Z" transform="translate(0 0)" fill="#634fc9"/></g></g><text transform="translate(577 226)" fill="#634fc9" font-size="20" font-family="Arial-BoldMT, Arial" font-weight="700"><tspan x="0" y="0">Memory</tspan></text></g><g transform="matrix(1, 0, 0, 1, 425, 169)" filter="url(#e)"><g transform="translate(12 82)" fill="none"><path d="M25,0H185a25,25,0,0,1,0,50H25A25,25,0,0,1,25,0Z" stroke="none"/><path d="M 25 2 C 21.89413452148438 2 18.88224792480469 2.607833862304688 16.0479736328125 3.806640625 C 13.30938720703125 4.964942932128906 10.84947204589844 6.623611450195312 8.736557006835938 8.736557006835938 C 6.623611450195312 10.84947204589844 4.964950561523438 13.30938720703125 3.806640625 16.0479736328125 C 2.607833862304688 18.88224983215332 2 21.89413833618164 2 25 C 2 28.10586166381836 2.607833862304688 31.11775016784668 3.806640625 33.9520263671875 C 4.964950561523438 36.69061279296875 6.623611450195312 39.15052795410156 8.736557006835938 41.26344299316406 C 10.84947204589844 43.37638854980469 13.30938720703125 45.03505706787109 16.0479736328125 46.193359375 C 18.88224792480469 47.39216613769531 21.89413452148438 48 25 48 L 185 48 C 188.1058654785156 48 191.1177520751953 47.39216613769531 193.9520263671875 46.193359375 C 196.6906127929688 45.03505706787109 199.1505279541016 43.37638854980469 201.2634429931641 41.26344299316406 C 203.3763885498047 39.15052795410156 205.0350494384766 36.69061279296875 206.193359375 33.9520263671875 C 207.3921661376953 31.11775016784668 208 28.10586166381836 208 25 C 208 21.89413833618164 207.3921661376953 18.88224983215332 206.193359375 16.0479736328125 C 205.0350494384766 13.30938720703125 203.3763885498047 10.84947204589844 201.2634429931641 8.736557006835938 C 199.1505279541016 6.623611450195312 196.6906127929688 4.964942932128906 193.9520263671875 3.806640625 C 191.1177520751953 2.607833862304688 188.1058654785156 2 185 2 L 25 2 M 25 0 L 185 0 C 198.8071136474609 0 210 11.19289016723633 210 25 C 210 38.80710983276367 198.8071136474609 50 185 50 L 25 50 C 11.19288635253906 50 0 38.80710983276367 0 25 C 0 11.19289016723633 11.19288635253906 0 25 0 Z" stroke="none" fill="#634fc9"/></g></g></g><g transform="translate(-93 -107)"><g transform="translate(-176 103)"><g transform="translate(752.5 247.742)"><path d="M10.344-39.5a.622.622,0,0,0-.613.625v2.92H5.615a1.537,1.537,0,0,0-1.532,1.526v4.254H1.132a.617.617,0,0,0-.547.3.613.613,0,0,0,0,.625.622.622,0,0,0,.547.306h2.95v2.181H1.132a.618.618,0,0,0-.619.619.618.618,0,0,0,.619.619h2.95v2.181H1.132a.622.622,0,0,0-.547.306.613.613,0,0,0,0,.625.617.617,0,0,0,.547.3h2.95v2.187H1.132A.608.608,0,0,0,.6-19.62.631.631,0,0,0,.6-19a.608.608,0,0,0,.535.306h2.95v3.965A1.537,1.537,0,0,0,5.615-13.2H9.731v3.088a.617.617,0,0,0,.619.613.617.617,0,0,0,.619-.613V-13.2h2.2v3.088a.617.617,0,0,0,.619.613.617.617,0,0,0,.619-.613V-13.2h2.2v3.088a.628.628,0,0,0,.312.535.631.631,0,0,0,.619,0,.636.636,0,0,0,.306-.535V-13.2h2.2v3.088a.628.628,0,0,0,.313.535.631.631,0,0,0,.619,0,.636.636,0,0,0,.306-.535V-13.2h4.14a1.536,1.536,0,0,0,1.526-1.526v-3.965h2.92A.608.608,0,0,0,30.4-19a.631.631,0,0,0,0-.619.608.608,0,0,0-.535-.306h-2.92v-2.187h2.92a.617.617,0,0,0,.547-.3.613.613,0,0,0,0-.625.622.622,0,0,0-.547-.306h-2.92v-2.181h2.92a.618.618,0,0,0,.619-.619.618.618,0,0,0-.619-.619h-2.92v-2.181h2.92a.622.622,0,0,0,.547-.306.613.613,0,0,0,0-.625.617.617,0,0,0-.547-.3h-2.92v-4.254a1.536,1.536,0,0,0-1.526-1.526h-4.14v-2.92a.627.627,0,0,0-.18-.445.657.657,0,0,0-.451-.18.621.621,0,0,0-.607.625v2.92h-2.2v-2.92a.6.6,0,0,0-.18-.445.654.654,0,0,0-.445-.18.622.622,0,0,0-.613.625v2.92h-2.2v-2.92a.6.6,0,0,0-.18-.445.654.654,0,0,0-.445-.18.622.622,0,0,0-.613.625v2.92h-2.2v-2.92a.6.6,0,0,0-.18-.445A.643.643,0,0,0,10.344-39.5ZM5.615-34.724H25.421a.279.279,0,0,1,.288.294v19.7a.274.274,0,0,1-.288.288H5.615a.276.276,0,0,1-.294-.288v-19.7A.281.281,0,0,1,5.615-34.724ZM18.36-33.39a.623.623,0,0,0-.625.619.622.622,0,0,0,.625.613h4.549v4.584a.6.6,0,0,0,.306.547.613.613,0,0,0,.625,0,.615.615,0,0,0,.306-.547v-5.2a.618.618,0,0,0-.619-.619Zm-10.954.024a.622.622,0,0,0-.619.619V-27.6a.614.614,0,0,0,.312.535.631.631,0,0,0,.619,0,.608.608,0,0,0,.306-.535v-4.53h4.6a.625.625,0,0,0,.553-.306.613.613,0,0,0,0-.625.625.625,0,0,0-.553-.306Zm.018,11.09a.617.617,0,0,0-.607.625v5.2a.617.617,0,0,0,.619.613H12.6a.608.608,0,0,0,.535-.306.6.6,0,0,0,0-.619.621.621,0,0,0-.535-.306H8.055v-4.584a.633.633,0,0,0-.186-.445A.632.632,0,0,0,7.424-22.276Zm16.122.024a.623.623,0,0,0-.613.631v4.53h-4.6a.617.617,0,0,0-.619.613.618.618,0,0,0,.619.619h5.222a.618.618,0,0,0,.619-.619v-5.143a.607.607,0,0,0-.18-.451A.654.654,0,0,0,23.546-22.252Z" transform="translate(0 0)" fill="#646464" fill-rule="evenodd"/><g transform="translate(0.5 -39.5)"><path d="M9.844,0a.622.622,0,0,0-.613.625v2.92H5.115A1.537,1.537,0,0,0,3.583,5.071V9.324H.632a.613.613,0,0,0-.547.925.622.622,0,0,0,.547.306h2.95v2.181H.632a.619.619,0,1,0,0,1.238h2.95v2.181H.632a.622.622,0,0,0-.547.306.613.613,0,0,0,.547.925h2.95v2.187H.632A.608.608,0,0,0,.1,19.88a.631.631,0,0,0,0,.619.608.608,0,0,0,.535.306h2.95V24.77A1.537,1.537,0,0,0,5.115,26.3H9.231v3.088a.619.619,0,0,0,1.238,0V26.3h2.2v3.088a.619.619,0,0,0,1.238,0V26.3h2.2v3.088a.622.622,0,0,0,.931.535.636.636,0,0,0,.306-.535V26.3h2.2v3.088a.622.622,0,0,0,.931.535.636.636,0,0,0,.306-.535V26.3h4.14a1.536,1.536,0,0,0,1.526-1.526V20.805h2.92A.608.608,0,0,0,29.9,20.5a.631.631,0,0,0,0-.619.608.608,0,0,0-.535-.306h-2.92V17.387h2.92a.616.616,0,1,0,0-1.232h-2.92V13.974h2.92a.619.619,0,1,0,0-1.238h-2.92V10.556h2.92a.622.622,0,0,0,.547-.306.613.613,0,0,0-.547-.925h-2.92V5.071a1.536,1.536,0,0,0-1.526-1.526h-4.14V.625A.627.627,0,0,0,20.6.18.657.657,0,0,0,20.15,0a.621.621,0,0,0-.607.625v2.92h-2.2V.625a.6.6,0,0,0-.18-.445A.654.654,0,0,0,16.719,0a.622.622,0,0,0-.613.625v2.92h-2.2V.625a.6.6,0,0,0-.18-.445A.654.654,0,0,0,13.281,0a.622.622,0,0,0-.613.625v2.92h-2.2V.625a.6.6,0,0,0-.18-.445A.643.643,0,0,0,9.844,0ZM5.115,4.776H24.921a.279.279,0,0,1,.288.294v19.7a.274.274,0,0,1-.288.288H5.115a.276.276,0,0,1-.294-.288V5.071A.281.281,0,0,1,5.115,4.776ZM17.86,6.11a.616.616,0,1,0,0,1.232h4.549v4.584a.6.6,0,0,0,.306.547.619.619,0,0,0,.931-.547v-5.2a.618.618,0,0,0-.619-.619ZM6.906,6.134a.622.622,0,0,0-.619.619V11.9a.614.614,0,0,0,.312.535.631.631,0,0,0,.619,0,.608.608,0,0,0,.306-.535V7.372h4.6a.625.625,0,0,0,.553-.306.613.613,0,0,0,0-.625.625.625,0,0,0-.553-.306Zm.018,11.09a.617.617,0,0,0-.607.625v5.2a.617.617,0,0,0,.619.613H12.1a.608.608,0,0,0,.535-.306.6.6,0,0,0,0-.619.621.621,0,0,0-.535-.306H7.555V17.849a.626.626,0,0,0-.631-.625Zm16.122.024a.623.623,0,0,0-.613.631v4.53h-4.6a.616.616,0,1,0,0,1.232h5.222a.618.618,0,0,0,.619-.619V17.879a.607.607,0,0,0-.18-.451A.654.654,0,0,0,23.046,17.248Z" fill="#646464" stroke="#646464" stroke-miterlimit="8" stroke-width="0.744"/></g></g><text transform="translate(803 230)" fill="#646464" font-size="20" font-family="Arial-BoldMT, Arial" font-weight="700"><tspan x="0" y="0">CPU</tspan></text></g><g transform="translate(537 301)" fill="none" stroke="#646464" stroke-width="1"><rect width="172" height="50" rx="25" stroke="none"/><rect x="0.5" y="0.5" width="171" height="49" rx="24.5" fill="none"/></g></g><g transform="translate(-43 17.082)"><line y2="22.918" transform="translate(372.5 154.5)" fill="none" stroke="#634fc9" stroke-width="2"/><line y2="22.918" transform="translate(382.5 154.5)" fill="none" stroke="#634fc9" stroke-width="2"/></g><g transform="translate(0 3)"><g transform="translate(-163 -181)"><text transform="translate(667 491)" fill="#4fbcc9" font-size="20" font-family="Arial-BoldMT, Arial" font-weight="700"><tspan x="0" y="0">PCIe Bus</tspan></text><g transform="translate(587.5 496.5)"><path d="M26.188-31.5v16.967H24.179v3.944h-4.7v1.712H.5v5.646H19.475V-1.5H39.554V-3.231h19.01V-8.877H39.554v-1.712H34.909v-3.944H32.865V-31.5Zm1.289,1.082h4.111v15.885H27.477ZM25.456-13.451H33.62v3.944h4.657v6.925H20.753V-9.507h4.7ZM1.789-7.8H19.475v3.472H1.789Zm37.765,0H57.275v3.472H39.554Z" transform="translate(0 0)" fill="#4fbcc9" stroke="#4fbcc9" stroke-width="1" fill-rule="evenodd"/></g></g><g transform="matrix(1, 0, 0, 1, 202, 109)" filter="url(#g)"><g transform="translate(12 152)" fill="none" stroke="#4fbcc9" stroke-width="2"><rect width="402" height="136" rx="40" stroke="none"/><rect x="1" y="1" width="400" height="134" rx="39" fill="none"/></g></g></g><g transform="translate(0 -39)"><g transform="translate(-2 67)"><g transform="translate(458 530)"><path d="M0-40v30H42V-27.831H38.27v-3.313H42V-40Zm1.478,1.5H7.207v3.363H9.828V-38.5H28.09v3.372H30.71V-38.5h9.811v5.856h-3.73v6.321h3.73V-11.5H30.727v-3.11H28.106v3.11H9.836v-3.093H7.216V-11.5H1.478Zm34.633.794a.752.752,0,0,0-.748.752.752.752,0,0,0,.748.752h3.041a.75.75,0,0,0,.739-.752.75.75,0,0,0-.739-.752Zm0,3a.752.752,0,0,0-.748.752.752.752,0,0,0,.748.752h3.041a.75.75,0,0,0,.739-.752.75.75,0,0,0-.739-.752ZM7.459-32.758A2.571,2.571,0,0,0,4.914-30.18v10.715a2.571,2.571,0,0,0,2.545,2.578H30.4a2.573,2.573,0,0,0,2.554-2.578V-30.18A2.573,2.573,0,0,0,30.4-32.758Zm0,1.5H30.4a1.058,1.058,0,0,1,1.067,1.082v10.715A1.053,1.053,0,0,1,30.4-18.383H7.459a1.053,1.053,0,0,1-1.067-1.082V-30.18A1.058,1.058,0,0,1,7.459-31.262ZM18.8-29.2a3.727,3.727,0,0,0-1.974.448,2.229,2.229,0,0,0-1.075,1.8,2.192,2.192,0,0,0,1.184,2.011,7.866,7.866,0,0,0,2.176.71,2.543,2.543,0,0,1,1.21.532.85.85,0,0,1,.21.651.965.965,0,0,1-.454.752,2.171,2.171,0,0,1-1.252.287h-.008a1.694,1.694,0,0,1-1.117-.33A1.742,1.742,0,0,1,17.06-23.6l-1.6.186a3.234,3.234,0,0,0,1.159,2.256,3.564,3.564,0,0,0,2.192.592A3.9,3.9,0,0,0,21-21.079a2.45,2.45,0,0,0,1.126-2.037,2.159,2.159,0,0,0-.68-1.783,3.984,3.984,0,0,0-1.932-.913,7.359,7.359,0,0,1-1.688-.482.78.78,0,0,1-.479-.761.591.591,0,0,1,.361-.541,1.662,1.662,0,0,1,.949-.245,1.849,1.849,0,0,1,1.117.237,1.391,1.391,0,0,1,.487.989l1.655-.127a2.531,2.531,0,0,0-.949-1.885A3.826,3.826,0,0,0,18.8-29.2Zm-7.694.017a3.82,3.82,0,0,0-1.982.448,2.235,2.235,0,0,0-1.067,1.809,2.182,2.182,0,0,0,1.176,2,8.191,8.191,0,0,0,2.176.718,2.541,2.541,0,0,1,1.218.532.825.825,0,0,1,.2.642.954.954,0,0,1-.445.752,2.176,2.176,0,0,1-1.26.3h0A1.753,1.753,0,0,1,10-22.321a1.737,1.737,0,0,1-.638-1.259l-1.6.186a3.266,3.266,0,0,0,1.159,2.256,3.628,3.628,0,0,0,2.192.6,3.884,3.884,0,0,0,2.184-.515A2.466,2.466,0,0,0,14.423-23.1a2.191,2.191,0,0,0-.672-1.783,4.127,4.127,0,0,0-1.94-.913,7.359,7.359,0,0,1-1.688-.482.784.784,0,0,1-.479-.761A.606.606,0,0,1,10-27.577a1.7,1.7,0,0,1,.949-.245,1.9,1.9,0,0,1,1.117.237,1.447,1.447,0,0,1,.5.989l1.646-.118a2.509,2.509,0,0,0-.941-1.885A3.765,3.765,0,0,0,11.1-29.183Zm12.424.127v8.349h3.6a2.941,2.941,0,0,0,2.377-1.1,4.115,4.115,0,0,0,.941-2.915,4.866,4.866,0,0,0-.907-3.177,2.868,2.868,0,0,0-2.713-1.158Zm1.68,1.377h1.655a2.082,2.082,0,0,1,1.436.684c.428.592.42,1.048.42,2.189a3.18,3.18,0,0,1-.42,2.079,1.593,1.593,0,0,1-1.21.625H25.208Zm10.9,2.087a.744.744,0,0,0-.748.744.752.752,0,0,0,.748.752h3.041a.75.75,0,0,0,.739-.752.743.743,0,0,0-.739-.744Zm0,3.008a.744.744,0,0,0-.748.744.752.752,0,0,0,.748.752h3.041a.75.75,0,0,0,.739-.752.743.743,0,0,0-.739-.744Zm0,3.008a.744.744,0,0,0-.748.744.752.752,0,0,0,.748.752h3.041a.75.75,0,0,0,.739-.752.742.742,0,0,0-.739-.744Zm0,3.008a.744.744,0,0,0-.748.744.752.752,0,0,0,.748.752h3.041a.75.75,0,0,0,.739-.752.743.743,0,0,0-.739-.744Zm0,3.008a.744.744,0,0,0-.748.744.752.752,0,0,0,.748.752h3.041a.75.75,0,0,0,.739-.752.743.743,0,0,0-.739-.744Z" fill="#fff" fill-rule="evenodd"/></g><g transform="translate(334 530)"><path d="M0-40v30H42V-27.831H38.27v-3.313H42V-40Zm1.478,1.5H7.207v3.363H9.828V-38.5H28.09v3.372H30.71V-38.5h9.811v5.856h-3.73v6.321h3.73V-11.5H30.727v-3.11H28.106v3.11H9.836v-3.093H7.216V-11.5H1.478Zm34.633.794a.752.752,0,0,0-.748.752.752.752,0,0,0,.748.752h3.041a.75.75,0,0,0,.739-.752.75.75,0,0,0-.739-.752Zm0,3a.752.752,0,0,0-.748.752.752.752,0,0,0,.748.752h3.041a.75.75,0,0,0,.739-.752.75.75,0,0,0-.739-.752ZM7.459-32.758A2.571,2.571,0,0,0,4.914-30.18v10.715a2.571,2.571,0,0,0,2.545,2.578H30.4a2.573,2.573,0,0,0,2.554-2.578V-30.18A2.573,2.573,0,0,0,30.4-32.758Zm0,1.5H30.4a1.058,1.058,0,0,1,1.067,1.082v10.715A1.053,1.053,0,0,1,30.4-18.383H7.459a1.053,1.053,0,0,1-1.067-1.082V-30.18A1.058,1.058,0,0,1,7.459-31.262ZM18.8-29.2a3.727,3.727,0,0,0-1.974.448,2.229,2.229,0,0,0-1.075,1.8,2.192,2.192,0,0,0,1.184,2.011,7.866,7.866,0,0,0,2.176.71,2.543,2.543,0,0,1,1.21.532.85.85,0,0,1,.21.651.965.965,0,0,1-.454.752,2.171,2.171,0,0,1-1.252.287h-.008a1.694,1.694,0,0,1-1.117-.33A1.742,1.742,0,0,1,17.06-23.6l-1.6.186a3.234,3.234,0,0,0,1.159,2.256,3.564,3.564,0,0,0,2.192.592A3.9,3.9,0,0,0,21-21.079a2.45,2.45,0,0,0,1.126-2.037,2.159,2.159,0,0,0-.68-1.783,3.984,3.984,0,0,0-1.932-.913,7.359,7.359,0,0,1-1.688-.482.78.78,0,0,1-.479-.761.591.591,0,0,1,.361-.541,1.662,1.662,0,0,1,.949-.245,1.849,1.849,0,0,1,1.117.237,1.391,1.391,0,0,1,.487.989l1.655-.127a2.531,2.531,0,0,0-.949-1.885A3.826,3.826,0,0,0,18.8-29.2Zm-7.694.017a3.82,3.82,0,0,0-1.982.448,2.235,2.235,0,0,0-1.067,1.809,2.182,2.182,0,0,0,1.176,2,8.191,8.191,0,0,0,2.176.718,2.541,2.541,0,0,1,1.218.532.825.825,0,0,1,.2.642.954.954,0,0,1-.445.752,2.176,2.176,0,0,1-1.26.3h0A1.753,1.753,0,0,1,10-22.321a1.737,1.737,0,0,1-.638-1.259l-1.6.186a3.266,3.266,0,0,0,1.159,2.256,3.628,3.628,0,0,0,2.192.6,3.884,3.884,0,0,0,2.184-.515A2.466,2.466,0,0,0,14.423-23.1a2.191,2.191,0,0,0-.672-1.783,4.127,4.127,0,0,0-1.94-.913,7.359,7.359,0,0,1-1.688-.482.784.784,0,0,1-.479-.761A.606.606,0,0,1,10-27.577a1.7,1.7,0,0,1,.949-.245,1.9,1.9,0,0,1,1.117.237,1.447,1.447,0,0,1,.5.989l1.646-.118a2.509,2.509,0,0,0-.941-1.885A3.765,3.765,0,0,0,11.1-29.183Zm12.424.127v8.349h3.6a2.941,2.941,0,0,0,2.377-1.1,4.115,4.115,0,0,0,.941-2.915,4.866,4.866,0,0,0-.907-3.177,2.868,2.868,0,0,0-2.713-1.158Zm1.68,1.377h1.655a2.082,2.082,0,0,1,1.436.684c.428.592.42,1.048.42,2.189a3.18,3.18,0,0,1-.42,2.079,1.593,1.593,0,0,1-1.21.625H25.208Zm10.9,2.087a.744.744,0,0,0-.748.744.752.752,0,0,0,.748.752h3.041a.75.75,0,0,0,.739-.752.743.743,0,0,0-.739-.744Zm0,3.008a.744.744,0,0,0-.748.744.752.752,0,0,0,.748.752h3.041a.75.75,0,0,0,.739-.752.743.743,0,0,0-.739-.744Zm0,3.008a.744.744,0,0,0-.748.744.752.752,0,0,0,.748.752h3.041a.75.75,0,0,0,.739-.752.742.742,0,0,0-.739-.744Zm0,3.008a.744.744,0,0,0-.748.744.752.752,0,0,0,.748.752h3.041a.75.75,0,0,0,.739-.752.743.743,0,0,0-.739-.744Zm0,3.008a.744.744,0,0,0-.748.744.752.752,0,0,0,.748.752h3.041a.75.75,0,0,0,.739-.752.743.743,0,0,0-.739-.744Z" fill="#fff" fill-rule="evenodd"/></g><g transform="translate(396 530)"><path d="M0-40v30H42V-27.831H38.27v-3.313H42V-40Zm1.478,1.5H7.207v3.363H9.828V-38.5H28.09v3.372H30.71V-38.5h9.811v5.856h-3.73v6.321h3.73V-11.5H30.727v-3.11H28.106v3.11H9.836v-3.093H7.216V-11.5H1.478Zm34.633.794a.752.752,0,0,0-.748.752.752.752,0,0,0,.748.752h3.041a.75.75,0,0,0,.739-.752.75.75,0,0,0-.739-.752Zm0,3a.752.752,0,0,0-.748.752.752.752,0,0,0,.748.752h3.041a.75.75,0,0,0,.739-.752.75.75,0,0,0-.739-.752ZM7.459-32.758A2.571,2.571,0,0,0,4.914-30.18v10.715a2.571,2.571,0,0,0,2.545,2.578H30.4a2.573,2.573,0,0,0,2.554-2.578V-30.18A2.573,2.573,0,0,0,30.4-32.758Zm0,1.5H30.4a1.058,1.058,0,0,1,1.067,1.082v10.715A1.053,1.053,0,0,1,30.4-18.383H7.459a1.053,1.053,0,0,1-1.067-1.082V-30.18A1.058,1.058,0,0,1,7.459-31.262ZM18.8-29.2a3.727,3.727,0,0,0-1.974.448,2.229,2.229,0,0,0-1.075,1.8,2.192,2.192,0,0,0,1.184,2.011,7.866,7.866,0,0,0,2.176.71,2.543,2.543,0,0,1,1.21.532.85.85,0,0,1,.21.651.965.965,0,0,1-.454.752,2.171,2.171,0,0,1-1.252.287h-.008a1.694,1.694,0,0,1-1.117-.33A1.742,1.742,0,0,1,17.06-23.6l-1.6.186a3.234,3.234,0,0,0,1.159,2.256,3.564,3.564,0,0,0,2.192.592A3.9,3.9,0,0,0,21-21.079a2.45,2.45,0,0,0,1.126-2.037,2.159,2.159,0,0,0-.68-1.783,3.984,3.984,0,0,0-1.932-.913,7.359,7.359,0,0,1-1.688-.482.78.78,0,0,1-.479-.761.591.591,0,0,1,.361-.541,1.662,1.662,0,0,1,.949-.245,1.849,1.849,0,0,1,1.117.237,1.391,1.391,0,0,1,.487.989l1.655-.127a2.531,2.531,0,0,0-.949-1.885A3.826,3.826,0,0,0,18.8-29.2Zm-7.694.017a3.82,3.82,0,0,0-1.982.448,2.235,2.235,0,0,0-1.067,1.809,2.182,2.182,0,0,0,1.176,2,8.191,8.191,0,0,0,2.176.718,2.541,2.541,0,0,1,1.218.532.825.825,0,0,1,.2.642.954.954,0,0,1-.445.752,2.176,2.176,0,0,1-1.26.3h0A1.753,1.753,0,0,1,10-22.321a1.737,1.737,0,0,1-.638-1.259l-1.6.186a3.266,3.266,0,0,0,1.159,2.256,3.628,3.628,0,0,0,2.192.6,3.884,3.884,0,0,0,2.184-.515A2.466,2.466,0,0,0,14.423-23.1a2.191,2.191,0,0,0-.672-1.783,4.127,4.127,0,0,0-1.94-.913,7.359,7.359,0,0,1-1.688-.482.784.784,0,0,1-.479-.761A.606.606,0,0,1,10-27.577a1.7,1.7,0,0,1,.949-.245,1.9,1.9,0,0,1,1.117.237,1.447,1.447,0,0,1,.5.989l1.646-.118a2.509,2.509,0,0,0-.941-1.885A3.765,3.765,0,0,0,11.1-29.183Zm12.424.127v8.349h3.6a2.941,2.941,0,0,0,2.377-1.1,4.115,4.115,0,0,0,.941-2.915,4.866,4.866,0,0,0-.907-3.177,2.868,2.868,0,0,0-2.713-1.158Zm1.68,1.377h1.655a2.082,2.082,0,0,1,1.436.684c.428.592.42,1.048.42,2.189a3.18,3.18,0,0,1-.42,2.079,1.593,1.593,0,0,1-1.21.625H25.208Zm10.9,2.087a.744.744,0,0,0-.748.744.752.752,0,0,0,.748.752h3.041a.75.75,0,0,0,.739-.752.743.743,0,0,0-.739-.744Zm0,3.008a.744.744,0,0,0-.748.744.752.752,0,0,0,.748.752h3.041a.75.75,0,0,0,.739-.752.743.743,0,0,0-.739-.744Zm0,3.008a.744.744,0,0,0-.748.744.752.752,0,0,0,.748.752h3.041a.75.75,0,0,0,.739-.752.742.742,0,0,0-.739-.744Zm0,3.008a.744.744,0,0,0-.748.744.752.752,0,0,0,.748.752h3.041a.75.75,0,0,0,.739-.752.743.743,0,0,0-.739-.744Zm0,3.008a.744.744,0,0,0-.748.744.752.752,0,0,0,.748.752h3.041a.75.75,0,0,0,.739-.752.743.743,0,0,0-.739-.744Z" fill="#fff" fill-rule="evenodd"/></g><g transform="translate(272 530)"><path d="M0-40v30H42V-27.831H38.27v-3.313H42V-40Zm1.478,1.5H7.207v3.363H9.828V-38.5H28.09v3.372H30.71V-38.5h9.811v5.856h-3.73v6.321h3.73V-11.5H30.727v-3.11H28.106v3.11H9.836v-3.093H7.216V-11.5H1.478Zm34.633.794a.752.752,0,0,0-.748.752.752.752,0,0,0,.748.752h3.041a.75.75,0,0,0,.739-.752.75.75,0,0,0-.739-.752Zm0,3a.752.752,0,0,0-.748.752.752.752,0,0,0,.748.752h3.041a.75.75,0,0,0,.739-.752.75.75,0,0,0-.739-.752ZM7.459-32.758A2.571,2.571,0,0,0,4.914-30.18v10.715a2.571,2.571,0,0,0,2.545,2.578H30.4a2.573,2.573,0,0,0,2.554-2.578V-30.18A2.573,2.573,0,0,0,30.4-32.758Zm0,1.5H30.4a1.058,1.058,0,0,1,1.067,1.082v10.715A1.053,1.053,0,0,1,30.4-18.383H7.459a1.053,1.053,0,0,1-1.067-1.082V-30.18A1.058,1.058,0,0,1,7.459-31.262ZM18.8-29.2a3.727,3.727,0,0,0-1.974.448,2.229,2.229,0,0,0-1.075,1.8,2.192,2.192,0,0,0,1.184,2.011,7.866,7.866,0,0,0,2.176.71,2.543,2.543,0,0,1,1.21.532.85.85,0,0,1,.21.651.965.965,0,0,1-.454.752,2.171,2.171,0,0,1-1.252.287h-.008a1.694,1.694,0,0,1-1.117-.33A1.742,1.742,0,0,1,17.06-23.6l-1.6.186a3.234,3.234,0,0,0,1.159,2.256,3.564,3.564,0,0,0,2.192.592A3.9,3.9,0,0,0,21-21.079a2.45,2.45,0,0,0,1.126-2.037,2.159,2.159,0,0,0-.68-1.783,3.984,3.984,0,0,0-1.932-.913,7.359,7.359,0,0,1-1.688-.482.78.78,0,0,1-.479-.761.591.591,0,0,1,.361-.541,1.662,1.662,0,0,1,.949-.245,1.849,1.849,0,0,1,1.117.237,1.391,1.391,0,0,1,.487.989l1.655-.127a2.531,2.531,0,0,0-.949-1.885A3.826,3.826,0,0,0,18.8-29.2Zm-7.694.017a3.82,3.82,0,0,0-1.982.448,2.235,2.235,0,0,0-1.067,1.809,2.182,2.182,0,0,0,1.176,2,8.191,8.191,0,0,0,2.176.718,2.541,2.541,0,0,1,1.218.532.825.825,0,0,1,.2.642.954.954,0,0,1-.445.752,2.176,2.176,0,0,1-1.26.3h0A1.753,1.753,0,0,1,10-22.321a1.737,1.737,0,0,1-.638-1.259l-1.6.186a3.266,3.266,0,0,0,1.159,2.256,3.628,3.628,0,0,0,2.192.6,3.884,3.884,0,0,0,2.184-.515A2.466,2.466,0,0,0,14.423-23.1a2.191,2.191,0,0,0-.672-1.783,4.127,4.127,0,0,0-1.94-.913,7.359,7.359,0,0,1-1.688-.482.784.784,0,0,1-.479-.761A.606.606,0,0,1,10-27.577a1.7,1.7,0,0,1,.949-.245,1.9,1.9,0,0,1,1.117.237,1.447,1.447,0,0,1,.5.989l1.646-.118a2.509,2.509,0,0,0-.941-1.885A3.765,3.765,0,0,0,11.1-29.183Zm12.424.127v8.349h3.6a2.941,2.941,0,0,0,2.377-1.1,4.115,4.115,0,0,0,.941-2.915,4.866,4.866,0,0,0-.907-3.177,2.868,2.868,0,0,0-2.713-1.158Zm1.68,1.377h1.655a2.082,2.082,0,0,1,1.436.684c.428.592.42,1.048.42,2.189a3.18,3.18,0,0,1-.42,2.079,1.593,1.593,0,0,1-1.21.625H25.208Zm10.9,2.087a.744.744,0,0,0-.748.744.752.752,0,0,0,.748.752h3.041a.75.75,0,0,0,.739-.752.743.743,0,0,0-.739-.744Zm0,3.008a.744.744,0,0,0-.748.744.752.752,0,0,0,.748.752h3.041a.75.75,0,0,0,.739-.752.743.743,0,0,0-.739-.744Zm0,3.008a.744.744,0,0,0-.748.744.752.752,0,0,0,.748.752h3.041a.75.75,0,0,0,.739-.752.742.742,0,0,0-.739-.744Zm0,3.008a.744.744,0,0,0-.748.744.752.752,0,0,0,.748.752h3.041a.75.75,0,0,0,.739-.752.743.743,0,0,0-.739-.744Zm0,3.008a.744.744,0,0,0-.748.744.752.752,0,0,0,.748.752h3.041a.75.75,0,0,0,.739-.752.743.743,0,0,0-.739-.744Z" fill="#fff" fill-rule="evenodd"/></g><g transform="translate(520 530)"><path d="M0-40v30H42V-27.831H38.27v-3.313H42V-40Zm1.478,1.5H7.207v3.363H9.828V-38.5H28.09v3.372H30.71V-38.5h9.811v5.856h-3.73v6.321h3.73V-11.5H30.727v-3.11H28.106v3.11H9.836v-3.093H7.216V-11.5H1.478Zm34.633.794a.752.752,0,0,0-.748.752.752.752,0,0,0,.748.752h3.041a.75.75,0,0,0,.739-.752.75.75,0,0,0-.739-.752Zm0,3a.752.752,0,0,0-.748.752.752.752,0,0,0,.748.752h3.041a.75.75,0,0,0,.739-.752.75.75,0,0,0-.739-.752ZM7.459-32.758A2.571,2.571,0,0,0,4.914-30.18v10.715a2.571,2.571,0,0,0,2.545,2.578H30.4a2.573,2.573,0,0,0,2.554-2.578V-30.18A2.573,2.573,0,0,0,30.4-32.758Zm0,1.5H30.4a1.058,1.058,0,0,1,1.067,1.082v10.715A1.053,1.053,0,0,1,30.4-18.383H7.459a1.053,1.053,0,0,1-1.067-1.082V-30.18A1.058,1.058,0,0,1,7.459-31.262ZM18.8-29.2a3.727,3.727,0,0,0-1.974.448,2.229,2.229,0,0,0-1.075,1.8,2.192,2.192,0,0,0,1.184,2.011,7.866,7.866,0,0,0,2.176.71,2.543,2.543,0,0,1,1.21.532.85.85,0,0,1,.21.651.965.965,0,0,1-.454.752,2.171,2.171,0,0,1-1.252.287h-.008a1.694,1.694,0,0,1-1.117-.33A1.742,1.742,0,0,1,17.06-23.6l-1.6.186a3.234,3.234,0,0,0,1.159,2.256,3.564,3.564,0,0,0,2.192.592A3.9,3.9,0,0,0,21-21.079a2.45,2.45,0,0,0,1.126-2.037,2.159,2.159,0,0,0-.68-1.783,3.984,3.984,0,0,0-1.932-.913,7.359,7.359,0,0,1-1.688-.482.78.78,0,0,1-.479-.761.591.591,0,0,1,.361-.541,1.662,1.662,0,0,1,.949-.245,1.849,1.849,0,0,1,1.117.237,1.391,1.391,0,0,1,.487.989l1.655-.127a2.531,2.531,0,0,0-.949-1.885A3.826,3.826,0,0,0,18.8-29.2Zm-7.694.017a3.82,3.82,0,0,0-1.982.448,2.235,2.235,0,0,0-1.067,1.809,2.182,2.182,0,0,0,1.176,2,8.191,8.191,0,0,0,2.176.718,2.541,2.541,0,0,1,1.218.532.825.825,0,0,1,.2.642.954.954,0,0,1-.445.752,2.176,2.176,0,0,1-1.26.3h0A1.753,1.753,0,0,1,10-22.321a1.737,1.737,0,0,1-.638-1.259l-1.6.186a3.266,3.266,0,0,0,1.159,2.256,3.628,3.628,0,0,0,2.192.6,3.884,3.884,0,0,0,2.184-.515A2.466,2.466,0,0,0,14.423-23.1a2.191,2.191,0,0,0-.672-1.783,4.127,4.127,0,0,0-1.94-.913,7.359,7.359,0,0,1-1.688-.482.784.784,0,0,1-.479-.761A.606.606,0,0,1,10-27.577a1.7,1.7,0,0,1,.949-.245,1.9,1.9,0,0,1,1.117.237,1.447,1.447,0,0,1,.5.989l1.646-.118a2.509,2.509,0,0,0-.941-1.885A3.765,3.765,0,0,0,11.1-29.183Zm12.424.127v8.349h3.6a2.941,2.941,0,0,0,2.377-1.1,4.115,4.115,0,0,0,.941-2.915,4.866,4.866,0,0,0-.907-3.177,2.868,2.868,0,0,0-2.713-1.158Zm1.68,1.377h1.655a2.082,2.082,0,0,1,1.436.684c.428.592.42,1.048.42,2.189a3.18,3.18,0,0,1-.42,2.079,1.593,1.593,0,0,1-1.21.625H25.208Zm10.9,2.087a.744.744,0,0,0-.748.744.752.752,0,0,0,.748.752h3.041a.75.75,0,0,0,.739-.752.743.743,0,0,0-.739-.744Zm0,3.008a.744.744,0,0,0-.748.744.752.752,0,0,0,.748.752h3.041a.75.75,0,0,0,.739-.752.743.743,0,0,0-.739-.744Zm0,3.008a.744.744,0,0,0-.748.744.752.752,0,0,0,.748.752h3.041a.75.75,0,0,0,.739-.752.742.742,0,0,0-.739-.744Zm0,3.008a.744.744,0,0,0-.748.744.752.752,0,0,0,.748.752h3.041a.75.75,0,0,0,.739-.752.743.743,0,0,0-.739-.744Zm0,3.008a.744.744,0,0,0-.748.744.752.752,0,0,0,.748.752h3.041a.75.75,0,0,0,.739-.752.743.743,0,0,0-.739-.744Z" fill="#fff" fill-rule="evenodd"/></g></g><g transform="matrix(1, 0, 0, 1, 202, 151)" filter="url(#i)"><g transform="translate(12 389)" fill="none" stroke="#fff" stroke-width="2"><rect width="402" height="64" rx="32" stroke="none"/><rect x="1" y="1" width="400" height="62" rx="31" fill="none"/></g></g></g><g transform="translate(85)"><line y2="176.5" transform="translate(284.5 243.5)" fill="none" stroke="#53a4d4" stroke-width="2"/><path d="M0,0V176.5" transform="translate(294.465 243.5)" fill="none" stroke="#53a4d4" stroke-width="2"/></g><g transform="translate(163 236)"><line y2="20" transform="translate(284.5 244.5)" fill="none" stroke="#fff" stroke-width="2"/><line y2="20" transform="translate(294.5 244.5)" fill="none" stroke="#fff" stroke-width="2"/></g><g transform="translate(106 48)"><rect width="70" height="30" rx="15" transform="translate(233 297)" fill="#53a4d4"/><text transform="translate(243 319)" fill="#0f0f0f" font-size="20" font-family="Arial-BoldMT, Arial" font-weight="700"><tspan x="0" y="0">Write</tspan></text></g><g transform="translate(-18)"><line y2="257.713" transform="translate(284.5 244.5)" fill="none" stroke="#fff" stroke-width="2"/><line y2="257.713" transform="translate(294.5 244.5)" fill="none" stroke="#fff" stroke-width="2"/></g><g transform="translate(4 -8)"><rect width="69" height="30" rx="15" transform="translate(233 297)" fill="#fff"/><text transform="translate(243 319)" fill="#0f0f0f" font-size="20" font-family="Arial-BoldMT, Arial" font-weight="700"><tspan x="0" y="0">Read</tspan></text></g><g transform="translate(-28 -228)"><g transform="translate(-349 283)"><g transform="translate(708.113 380)"><rect width="16.94" height="10.695" rx="5.347" transform="translate(19.604 30.299) rotate(-90)" fill="url(#k)"/><rect width="29.759" height="10.695" rx="5.347" transform="translate(0.07 30.299) rotate(-90)" fill="url(#k)"/><rect width="17.697" height="10.695" rx="5.347" transform="translate(0 19.986)" fill="url(#k)"/><rect width="30.369" height="10.695" rx="5.347" fill="url(#k)"/><rect width="10.695" height="10.695" rx="5.347" transform="translate(19.675 19.986)" fill="url(#k)"/></g><text transform="translate(749 402)" fill="#53a4d4" font-size="20" font-family="Arial-BoldMT, Arial" font-weight="700"><tspan x="0" y="0">GRAID SupremeRAID</tspan></text></g><g transform="matrix(1, 0, 0, 1, 230, 340)" filter="url(#p)"><g transform="translate(110 308)" fill="none" stroke="#53a4d4" stroke-width="6"><rect width="304" height="60" stroke="none"/><rect x="3" y="3" width="298" height="54" fill="none"/></g></g></g></g></svg>