<svg xmlns="http://www.w3.org/2000/svg" xmlns:xlink="http://www.w3.org/1999/xlink" width="480" height="209.878" viewBox="0 0 480 209.878"><defs><linearGradient id="a" y1="0.5" x2="1" y2="0.5" gradientUnits="objectBoundingBox"><stop offset="0" stop-color="#444b97"/><stop offset="0.02" stop-color="#43519c"/><stop offset="0.14" stop-color="#3d6cb1"/><stop offset="0.25" stop-color="#387fc0"/><stop offset="0.37" stop-color="#368ac9"/><stop offset="0.5" stop-color="#358ecc"/><stop offset="1" stop-color="#6ac6bb"/></linearGradient><filter id="f" x="76" y="0" width="328" height="84" filterUnits="userSpaceOnUse"><feOffset input="SourceAlpha"/><feGaussianBlur stdDeviation="4" result="g"/><feFlood flood-color="#53a4d4"/><feComposite operator="in" in2="g"/><feComposite in="SourceGraphic"/></filter><filter id="h" x="0" y="99.878" width="480" height="110" filterUnits="userSpaceOnUse"><feOffset input="SourceAlpha"/><feGaussianBlur stdDeviation="4" result="i"/><feFlood flood-color="#fff"/><feComposite operator="in" in2="i"/><feComposite in="SourceGraphic"/></filter><filter id="j" x="167.5" y="67" width="28" height="57" filterUnits="userSpaceOnUse"><feOffset input="SourceAlpha"/><feGaussianBlur stdDeviation="4" result="k"/><feFlood flood-color="#4fbcc9"/><feComposite operator="in" in2="k"/><feComposite in="SourceGraphic"/></filter><filter id="l" x="160" y="60" width="43" height="37" filterUnits="userSpaceOnUse"><feOffset input="SourceAlpha"/><feGaussianBlur stdDeviation="4" result="m"/><feFlood flood-color="#4fbcc9"/><feComposite operator="in" in2="m"/><feComposite in="SourceGraphic"/></filter><filter id="n" x="206.5" y="67" width="28" height="57" filterUnits="userSpaceOnUse"><feOffset input="SourceAlpha"/><feGaussianBlur stdDeviation="4" result="o"/><feFlood flood-color="#4fbcc9"/><feComposite operator="in" in2="o"/><feComposite in="SourceGraphic"/></filter><filter id="p" x="199" y="60" width="43" height="37" filterUnits="userSpaceOnUse"><feOffset input="SourceAlpha"/><feGaussianBlur stdDeviation="4" result="q"/><feFlood flood-color="#4fbcc9"/><feComposite operator="in" in2="q"/><feComposite in="SourceGraphic"/></filter><filter id="r" x="245.5" y="67" width="28" height="57" filterUnits="userSpaceOnUse"><feOffset input="SourceAlpha"/><feGaussianBlur stdDeviation="4" result="s"/><feFlood flood-color="#4fbcc9"/><feComposite operator="in" in2="s"/><feComposite in="SourceGraphic"/></filter><filter id="t" x="238" y="60" width="43" height="37" filterUnits="userSpaceOnUse"><feOffset input="SourceAlpha"/><feGaussianBlur stdDeviation="4" result="u"/><feFlood flood-color="#4fbcc9"/><feComposite operator="in" in2="u"/><feComposite in="SourceGraphic"/></filter><filter id="v" x="284.5" y="67" width="28" height="57" filterUnits="userSpaceOnUse"><feOffset input="SourceAlpha"/><feGaussianBlur stdDeviation="4" result="w"/><feFlood flood-color="#4fbcc9"/><feComposite operator="in" in2="w"/><feComposite in="SourceGraphic"/></filter><filter id="x" x="277" y="60" width="43" height="37" filterUnits="userSpaceOnUse"><feOffset input="SourceAlpha"/><feGaussianBlur stdDeviation="4" result="y"/><feFlood flood-color="#4fbcc9"/><feComposite operator="in" in2="y"/><feComposite in="SourceGraphic"/></filter></defs><g transform="translate(-341 -112)"><g transform="translate(89 -524)"><g transform="translate(-349 283)"><g transform="translate(708.113 380)"><rect width="16.94" height="10.695" rx="5.347" transform="translate(19.604 30.299) rotate(-90)" fill="url(#a)"/><rect width="29.759" height="10.695" rx="5.347" transform="translate(0.07 30.299) rotate(-90)" fill="url(#a)"/><rect width="17.697" height="10.695" rx="5.347" transform="translate(0 19.986)" fill="url(#a)"/><rect width="30.369" height="10.695" rx="5.347" fill="url(#a)"/><rect width="10.695" height="10.695" rx="5.347" transform="translate(19.675 19.986)" fill="url(#a)"/></g><text transform="translate(749 402)" fill="#53a4d4" font-size="20" font-family="Arial-BoldMT, Arial" font-weight="700"><tspan x="0" y="0">GRAID SupremeRAID™</tspan></text></g><g transform="matrix(1, 0, 0, 1, 252, 636)" filter="url(#f)"><g transform="translate(88 12)" fill="none" stroke="#53a4d4" stroke-width="6"><rect width="304" height="60" stroke="none"/><rect x="3" y="3" width="298" height="54" fill="none"/></g></g></g><g transform="translate(74 0.878)"><g transform="translate(319.127 232.878)"><g transform="translate(0 1.913)"><path d="M0-40V22.164H87.029V-14.784H79.3v-6.864h7.728V-40Zm3.063,3.1H14.934v6.969h5.431V-36.9h37.84v6.987h5.431V-36.9h20.33v12.135H76.237v13.1h7.728V19.064H63.67V12.62H58.24v6.444H20.382V12.655H14.952v6.409H3.063ZM15.456-24.993a5.328,5.328,0,0,0-5.274,5.341v22.2a5.328,5.328,0,0,0,5.274,5.341H62.992a5.331,5.331,0,0,0,5.291-5.341v-22.2a5.331,5.331,0,0,0-5.291-5.341Zm0,3.1H62.992A2.192,2.192,0,0,1,65.2-19.652v22.2a2.181,2.181,0,0,1-2.211,2.241H15.456a2.181,2.181,0,0,1-2.21-2.241v-22.2A2.191,2.191,0,0,1,15.456-21.894Z" transform="translate(0 40)" fill="#fff" fill-rule="evenodd"/><g transform="translate(76.382 6.858)"><line x2="5.385" fill="none" stroke="#fff" stroke-width="2"/><line x2="5.385" transform="translate(0 3.766)" fill="none" stroke="#fff" stroke-width="2"/></g><g transform="translate(76.382 32.466)"><line x2="5.385" transform="translate(0 0)" fill="none" stroke="#fff" stroke-width="2"/><line x2="5.385" transform="translate(0 3.766)" fill="none" stroke="#fff" stroke-width="2"/><line x2="5.385" transform="translate(0 7.532)" fill="none" stroke="#fff" stroke-width="2"/><line x2="5.385" transform="translate(0 11.298)" fill="none" stroke="#fff" stroke-width="2"/><line x2="5.385" transform="translate(0 15.064)" fill="none" stroke="#fff" stroke-width="2"/><line x2="5.385" transform="translate(0 18.83)" fill="none" stroke="#fff" stroke-width="2"/><line x2="5.385" transform="translate(0 22.595)" fill="none" stroke="#fff" stroke-width="2"/></g></g><g transform="translate(246.291 12.745)"><g transform="translate(0 0)" fill="none"><path d="M129.906,40.385H0V26.241a6.206,6.206,0,0,0,6.058-6.05A6.206,6.206,0,0,0,0,14.143V0H129.906V7.332h-8.132v5.826h8.132V27.991h-8.132v4.4h8.132v7.988Z" stroke="none"/><path d="M 126.9060134887695 37.38481140136719 L 126.9060134887695 35.39551162719727 L 121.7736129760742 35.39551162719727 L 118.7736129760742 35.39551162719727 L 118.7736129760742 32.39551162719727 L 118.7736129760742 27.99090957641602 L 118.7736129760742 24.99090957641602 L 121.7736129760742 24.99090957641602 L 126.9060134887695 24.99090957641602 L 126.9060134887695 16.15801048278809 L 121.7736129760742 16.15801048278809 L 118.7736129760742 16.15801048278809 L 118.7736129760742 13.15800952911377 L 118.7736129760742 7.332309722900391 L 118.7736129760742 4.332309722900391 L 121.7736129760742 4.332309722900391 L 126.9060134887695 4.332309722900391 L 126.9060134887695 2.999109745025635 L 2.999092817306519 2.999109745025635 L 2.999092817306519 11.72069454193115 C 6.555386543273926 13.01987648010254 9.057012557983398 16.33300018310547 9.057012557983398 20.19149017333984 C 9.057012557983398 24.05039596557617 6.555386543273926 27.36385726928711 2.999092817306519 28.66315841674805 L 2.999092817306519 37.38481140136719 L 126.9060134887695 37.38481140136719 M 129.906005859375 40.38481140136719 L -0.0009072045795619488 40.38481140136719 L -0.0009072045795619488 26.24112892150879 C 3.396472692489624 26.07419013977051 6.057012557983398 23.41731071472168 6.057012557983398 20.19149017333984 C 6.057012557983398 16.96660995483398 3.396052837371826 14.30968952178955 -0.0009072045795619488 14.1427698135376 L -0.0009072045795619488 -0.0008901556138880551 L 129.906005859375 -0.0008901556138880551 L 129.906005859375 7.332309722900391 L 121.7736129760742 7.332309722900391 L 121.7736129760742 13.15800952911377 L 129.906005859375 13.15800952911377 L 129.906005859375 27.99090957641602 L 121.7736129760742 27.99090957641602 L 121.7736129760742 32.39551162719727 L 129.906005859375 32.39551162719727 L 129.906005859375 40.38380813598633 L 129.906005859375 40.38481140136719 Z" stroke="none" fill="#fff"/></g><line x2="5.385" transform="translate(120.819 18.509)" fill="none" stroke="#fff" stroke-width="2"/><line x2="5.385" transform="translate(120.819 21.894)" fill="none" stroke="#fff" stroke-width="2"/><g transform="translate(14.581 8.498)" fill="none" stroke="#fff" stroke-width="3"><rect width="101" height="23" rx="7" stroke="none"/><rect x="1.5" y="1.5" width="98" height="20" rx="5.5" fill="none"/></g><ellipse cx="2" cy="2.5" rx="2" ry="2.5" transform="translate(5.581 6.498)" fill="#fff"/></g><g transform="translate(102.056 0)"><g transform="translate(0)"><line x2="14.507" transform="translate(0 1.382)" fill="none" stroke="#fff" stroke-width="4"/><path d="M0,0V66.419" transform="translate(14.507)" fill="none" stroke="#fff" stroke-width="4"/></g><g transform="translate(18.998 14.162)"><g transform="translate(0 0)" fill="none"><path d="M0,0H110.533V36.17H68.627v9.5H36v-9.5H28.39v9.5H13.767v-9.5H0Z" stroke="none"/><path d="M 3 2.999992370605469 L 3 33.16986083984375 L 13.7666015625 33.16986083984375 L 16.7666015625 33.16986083984375 L 16.7666015625 36.16986083984375 L 16.7666015625 42.67416000366211 L 25.39009857177734 42.67416000366211 L 25.39009857177734 36.16986083984375 L 25.39009857177734 33.16986083984375 L 28.39009857177734 33.16986083984375 L 35.99596405029297 33.16986083984375 L 38.99596405029297 33.16986083984375 L 38.99596405029297 36.16986083984375 L 38.99596405029297 42.67416000366211 L 65.6268310546875 42.67416000366211 L 65.6268310546875 36.16986083984375 L 65.6268310546875 33.16986083984375 L 68.6268310546875 33.16986083984375 L 107.5326309204102 33.16986083984375 L 107.5326309204102 2.999992370605469 L 3 2.999992370605469 M 0 -7.62939453125e-06 L 110.5326309204102 -7.62939453125e-06 L 110.5326309204102 36.16986083984375 L 68.6268310546875 36.16986083984375 L 68.6268310546875 45.67416000366211 L 35.99596405029297 45.67416000366211 L 35.99596405029297 36.16986083984375 L 28.39009857177734 36.16986083984375 L 28.39009857177734 45.67416000366211 L 13.7666015625 45.67416000366211 L 13.7666015625 36.16986083984375 L 0 36.16986083984375 L 0 -7.62939453125e-06 Z" stroke="none" fill="#fff"/></g><g transform="translate(19.379 36.959)"><line y2="4.836" fill="none" stroke="#fff" stroke-width="2"/><line y2="4.836" transform="translate(3.454)" fill="none" stroke="#fff" stroke-width="2"/></g><g transform="translate(41.795 36.959)"><line y2="4.836" fill="none" stroke="#fff" stroke-width="2"/><line y2="4.836" transform="translate(3.454)" fill="none" stroke="#fff" stroke-width="2"/><line y2="4.836" transform="translate(6.908)" fill="none" stroke="#fff" stroke-width="2"/><line y2="4.836" transform="translate(10.362)" fill="none" stroke="#fff" stroke-width="2"/><line y2="4.836" transform="translate(13.817)" fill="none" stroke="#fff" stroke-width="2"/><line y2="4.836" transform="translate(17.271)" fill="none" stroke="#fff" stroke-width="2"/><line y2="4.836" transform="translate(20.725)" fill="none" stroke="#fff" stroke-width="2"/></g><g transform="translate(20.818 10.082)" fill="none" stroke="#fff" stroke-width="3"><rect width="28" height="15" rx="7" stroke="none"/><rect x="1.5" y="1.5" width="25" height="12" rx="5.5" fill="none"/></g><g transform="translate(61.818 10.082)" fill="none" stroke="#fff" stroke-width="3"><rect width="28" height="15" rx="7" stroke="none"/><rect x="1.5" y="1.5" width="25" height="12" rx="5.5" fill="none"/></g></g></g></g><g transform="matrix(1, 0, 0, 1, 267, 111.12)" filter="url(#h)"><g transform="translate(12 111.88)" fill="none" stroke="#fff" stroke-width="2"><rect width="456" height="86" rx="40" stroke="none"/><rect x="1" y="1" width="454" height="84" rx="39" fill="none"/></g></g></g><g transform="translate(1)"><g transform="translate(110 35)"><g transform="matrix(1, 0, 0, 1, 230, 77)" filter="url(#j)"><line y1="33" transform="translate(181.5 79)" fill="none" stroke="#4fbcc9" stroke-width="4"/></g><g transform="matrix(1, 0, 0, 1, 230, 77)" filter="url(#l)"><path d="M9.5,0,19,13H0Z" transform="translate(172 72)" fill="#4fbcc9"/></g></g></g><g transform="translate(40)"><g transform="translate(110 35)"><g transform="matrix(1, 0, 0, 1, 191, 77)" filter="url(#n)"><line y1="33" transform="translate(220.5 79)" fill="none" stroke="#4fbcc9" stroke-width="4"/></g><g transform="matrix(1, 0, 0, 1, 191, 77)" filter="url(#p)"><path d="M9.5,0,19,13H0Z" transform="translate(211 72)" fill="#4fbcc9"/></g></g></g><g transform="translate(79)"><g transform="translate(110 35)"><g transform="matrix(1, 0, 0, 1, 152, 77)" filter="url(#r)"><line y1="33" transform="translate(259.5 79)" fill="none" stroke="#4fbcc9" stroke-width="4"/></g><g transform="matrix(1, 0, 0, 1, 152, 77)" filter="url(#t)"><path d="M9.5,0,19,13H0Z" transform="translate(250 72)" fill="#4fbcc9"/></g></g></g><g transform="translate(118)"><g transform="translate(110 35)"><g transform="matrix(1, 0, 0, 1, 113, 77)" filter="url(#v)"><line y1="33" transform="translate(298.5 79)" fill="none" stroke="#4fbcc9" stroke-width="4"/></g><g transform="matrix(1, 0, 0, 1, 113, 77)" filter="url(#x)"><path d="M9.5,0,19,13H0Z" transform="translate(289 72)" fill="#4fbcc9"/></g></g></g></g></svg>