<svg xmlns="http://www.w3.org/2000/svg" xmlns:xlink="http://www.w3.org/1999/xlink" width="883" height="530" viewBox="0 0 883 530"><defs><filter id="a" x="0" y="0" width="237" height="86" filterUnits="userSpaceOnUse"><feOffset input="SourceAlpha"/><feGaussianBlur stdDeviation="4" result="b"/><feFlood flood-color="#634fc9"/><feComposite operator="in" in2="b"/><feComposite in="SourceGraphic"/></filter><filter id="c" x="0" y="82" width="237" height="86" filterUnits="userSpaceOnUse"><feOffset input="SourceAlpha"/><feGaussianBlur stdDeviation="4" result="d"/><feFlood flood-color="#634fc9"/><feComposite operator="in" in2="d"/><feComposite in="SourceGraphic"/></filter><filter id="e" x="233" y="82" width="237" height="86" filterUnits="userSpaceOnUse"><feOffset input="SourceAlpha"/><feGaussianBlur stdDeviation="4" result="f"/><feFlood flood-color="#634fc9"/><feComposite operator="in" in2="f"/><feComposite in="SourceGraphic"/></filter><filter id="g" x="233" y="0" width="237" height="86" filterUnits="userSpaceOnUse"><feOffset input="SourceAlpha"/><feGaussianBlur stdDeviation="4" result="h"/><feFlood flood-color="#634fc9"/><feComposite operator="in" in2="h"/><feComposite in="SourceGraphic"/></filter><filter id="i" x="0" y="164" width="470" height="226" filterUnits="userSpaceOnUse"><feOffset input="SourceAlpha"/><feGaussianBlur stdDeviation="4" result="j"/><feFlood flood-color="#4fbcc9"/><feComposite operator="in" in2="j"/><feComposite in="SourceGraphic"/></filter><filter id="k" x="0" y="386" width="883" height="144" filterUnits="userSpaceOnUse"><feOffset input="SourceAlpha"/><feGaussianBlur stdDeviation="4" result="l"/><feFlood flood-color="#fff"/><feComposite operator="in" in2="l"/><feComposite in="SourceGraphic"/></filter><filter id="m" x="448.063" y="0" width="434.937" height="390" filterUnits="userSpaceOnUse"><feOffset input="SourceAlpha"/><feGaussianBlur stdDeviation="4" result="n"/><feFlood flood-color="#634fc9"/><feComposite operator="in" in2="n"/><feComposite in="SourceGraphic"/></filter><filter id="o" x="500.5" y="30.954" width="56.425" height="53.806" filterUnits="userSpaceOnUse"><feOffset dy="3" input="SourceAlpha"/><feGaussianBlur stdDeviation="3" result="p"/><feFlood flood-opacity="0.161"/><feComposite operator="in" in2="p"/><feComposite in="SourceGraphic"/></filter><filter id="q" x="665.5" y="30.954" width="56.425" height="53.806" filterUnits="userSpaceOnUse"><feOffset dy="3" input="SourceAlpha"/><feGaussianBlur stdDeviation="3" result="r"/><feFlood flood-opacity="0.161"/><feComposite operator="in" in2="r"/><feComposite in="SourceGraphic"/></filter><filter id="s" x="498" y="228" width="365" height="145" filterUnits="userSpaceOnUse"><feOffset input="SourceAlpha"/><feGaussianBlur stdDeviation="4" result="t"/><feFlood flood-color="#4fbcc9"/><feComposite operator="in" in2="t"/><feComposite in="SourceGraphic"/></filter><filter id="u" x="779.5" y="330.5" width="26" height="120" filterUnits="userSpaceOnUse"><feOffset input="SourceAlpha"/><feGaussianBlur stdDeviation="4" result="v"/><feFlood flood-color="#fff"/><feComposite operator="in" in2="v"/><feComposite in="SourceGraphic"/></filter><filter id="w" x="704.5" y="330.5" width="26" height="121" filterUnits="userSpaceOnUse"><feOffset input="SourceAlpha"/><feGaussianBlur stdDeviation="4" result="x"/><feFlood flood-color="#fff"/><feComposite operator="in" in2="x"/><feComposite in="SourceGraphic"/></filter><filter id="y" x="338.5" y="144.5" width="26" height="266" filterUnits="userSpaceOnUse"><feOffset input="SourceAlpha"/><feGaussianBlur stdDeviation="4" result="z"/><feFlood flood-color="#fff"/><feComposite operator="in" in2="z"/><feComposite in="SourceGraphic"/></filter><filter id="aa" x="408.5" y="400.085" width="26" height="50.415" filterUnits="userSpaceOnUse"><feOffset input="SourceAlpha"/><feGaussianBlur stdDeviation="4" result="ab"/><feFlood flood-color="#fff"/><feComposite operator="in" in2="ab"/><feComposite in="SourceGraphic"/></filter><filter id="ac" x="408.5" y="399.5" width="168.829" height="26" filterUnits="userSpaceOnUse"><feOffset input="SourceAlpha"/><feGaussianBlur stdDeviation="4" result="ad"/><feFlood flood-color="#fff"/><feComposite operator="in" in2="ad"/><feComposite in="SourceGraphic"/></filter><filter id="ae" x="551.5" y="330.085" width="26" height="95.337" filterUnits="userSpaceOnUse"><feOffset input="SourceAlpha"/><feGaussianBlur stdDeviation="4" result="af"/><feFlood flood-color="#fff"/><feComposite operator="in" in2="af"/><feComposite in="SourceGraphic"/></filter><filter id="ag" x="475.5" y="414.5" width="26" height="36" filterUnits="userSpaceOnUse"><feOffset input="SourceAlpha"/><feGaussianBlur stdDeviation="4" result="ah"/><feFlood flood-color="#fff"/><feComposite operator="in" in2="ah"/><feComposite in="SourceGraphic"/></filter><filter id="ai" x="475.5" y="413.643" width="176.216" height="26" filterUnits="userSpaceOnUse"><feOffset input="SourceAlpha"/><feGaussianBlur stdDeviation="4" result="aj"/><feFlood flood-color="#fff"/><feComposite operator="in" in2="aj"/><feComposite in="SourceGraphic"/></filter><filter id="ak" x="626.5" y="331.5" width="26" height="108" filterUnits="userSpaceOnUse"><feOffset input="SourceAlpha"/><feGaussianBlur stdDeviation="4" result="al"/><feFlood flood-color="#fff"/><feComposite operator="in" in2="al"/><feComposite in="SourceGraphic"/></filter><linearGradient id="am" y1="0.5" x2="1" y2="0.5" gradientUnits="objectBoundingBox"><stop offset="0" stop-color="#444b97"/><stop offset="0.02" stop-color="#43519c"/><stop offset="0.14" stop-color="#3d6cb1"/><stop offset="0.25" stop-color="#387fc0"/><stop offset="0.37" stop-color="#368ac9"/><stop offset="0.5" stop-color="#358ecc"/><stop offset="1" stop-color="#6ac6bb"/></linearGradient><filter id="ar" x="498" y="144" width="365" height="84" filterUnits="userSpaceOnUse"><feOffset input="SourceAlpha"/><feGaussianBlur stdDeviation="4" result="as"/><feFlood flood-color="#53a4d4"/><feComposite operator="in" in2="as"/><feComposite in="SourceGraphic"/></filter><filter id="at" x="105.5" y="144.5" width="26" height="266" filterUnits="userSpaceOnUse"><feOffset input="SourceAlpha"/><feGaussianBlur stdDeviation="4" result="au"/><feFlood flood-color="#fff"/><feComposite operator="in" in2="au"/><feComposite in="SourceGraphic"/></filter></defs><g transform="translate(-126 -196)"><g transform="translate(-74 13)"><g transform="matrix(1, 0, 0, 1, 200, 183)" filter="url(#a)"><g transform="translate(12 12)" fill="none" stroke="#634fc9" stroke-width="2"><rect width="213" height="62" rx="31" stroke="none"/><rect x="1" y="1" width="211" height="60" rx="30" fill="none"/></g></g><g transform="translate(12)"><g transform="translate(240 233)"><path d="M0-18V4H56.82V-18Zm1.546,2.285H55.274V1.715H1.546ZM30.524-14.04V-.028H47.933V-14.04Zm-24.33.034V.006H23.546V-14.006Zm25.876,2.251H46.388v3.588H32.069ZM7.739-11.7H22v3.537H7.739Zm19.353.728c-1.466,0-2.671,1.794-2.671,3.96s1.2,3.96,2.671,3.96,2.659-1.794,2.659-3.96S28.546-10.977,27.092-10.977ZM48.74-9.454v6.211h6.068V-9.454Zm-45,.677c-.886,0-1.6,1.066-1.6,2.369A2.978,2.978,0,0,0,2.6-4.732a1.383,1.383,0,0,0,1.136.711,1.381,1.381,0,0,0,1.125-.711,2.983,2.983,0,0,0,.477-1.675C5.341-7.711,4.614-8.777,3.739-8.777Zm23.353.085c.625,0,1.125.745,1.125,1.675s-.5,1.659-1.125,1.659-1.125-.728-1.125-1.659S26.455-8.692,27.092-8.692ZM50.285-7.169h2.977v1.642H50.285ZM7.739-5.883H22V-2.3H7.739Zm24.33,0H46.388v3.554H32.069Z" fill="#634fc9" fill-rule="evenodd"/></g><text transform="translate(317 233)" fill="#634fc9" font-size="20" font-family="Arial-BoldMT, Arial" font-weight="700"><tspan x="0" y="0">Hosts</tspan></text></g></g><g transform="translate(-74 95)"><g transform="matrix(1, 0, 0, 1, 200, 101)" filter="url(#c)"><g transform="translate(12 94)" fill="none" stroke="#634fc9" stroke-width="2"><rect width="213" height="62" rx="31" stroke="none"/><rect x="1" y="1" width="211" height="60" rx="30" fill="none"/></g></g><g transform="translate(12)"><g transform="translate(240 233)"><path d="M0-18V4H56.82V-18Zm1.546,2.285H55.274V1.715H1.546ZM30.524-14.04V-.028H47.933V-14.04Zm-24.33.034V.006H23.546V-14.006Zm25.876,2.251H46.388v3.588H32.069ZM7.739-11.7H22v3.537H7.739Zm19.353.728c-1.466,0-2.671,1.794-2.671,3.96s1.2,3.96,2.671,3.96,2.659-1.794,2.659-3.96S28.546-10.977,27.092-10.977ZM48.74-9.454v6.211h6.068V-9.454Zm-45,.677c-.886,0-1.6,1.066-1.6,2.369A2.978,2.978,0,0,0,2.6-4.732a1.383,1.383,0,0,0,1.136.711,1.381,1.381,0,0,0,1.125-.711,2.983,2.983,0,0,0,.477-1.675C5.341-7.711,4.614-8.777,3.739-8.777Zm23.353.085c.625,0,1.125.745,1.125,1.675s-.5,1.659-1.125,1.659-1.125-.728-1.125-1.659S26.455-8.692,27.092-8.692ZM50.285-7.169h2.977v1.642H50.285ZM7.739-5.883H22V-2.3H7.739Zm24.33,0H46.388v3.554H32.069Z" fill="#634fc9" fill-rule="evenodd"/></g><text transform="translate(317 233)" fill="#634fc9" font-size="20" font-family="Arial-BoldMT, Arial" font-weight="700"><tspan x="0" y="0">Hosts</tspan></text></g></g><g transform="translate(159 95)"><g transform="matrix(1, 0, 0, 1, -33, 101)" filter="url(#e)"><g transform="translate(245 94)" fill="none" stroke="#634fc9" stroke-width="2"><rect width="213" height="62" rx="31" stroke="none"/><rect x="1" y="1" width="211" height="60" rx="30" fill="none"/></g></g><g transform="translate(12)"><g transform="translate(240 233)"><path d="M0-18V4H56.82V-18Zm1.546,2.285H55.274V1.715H1.546ZM30.524-14.04V-.028H47.933V-14.04Zm-24.33.034V.006H23.546V-14.006Zm25.876,2.251H46.388v3.588H32.069ZM7.739-11.7H22v3.537H7.739Zm19.353.728c-1.466,0-2.671,1.794-2.671,3.96s1.2,3.96,2.671,3.96,2.659-1.794,2.659-3.96S28.546-10.977,27.092-10.977ZM48.74-9.454v6.211h6.068V-9.454Zm-45,.677c-.886,0-1.6,1.066-1.6,2.369A2.978,2.978,0,0,0,2.6-4.732a1.383,1.383,0,0,0,1.136.711,1.381,1.381,0,0,0,1.125-.711,2.983,2.983,0,0,0,.477-1.675C5.341-7.711,4.614-8.777,3.739-8.777Zm23.353.085c.625,0,1.125.745,1.125,1.675s-.5,1.659-1.125,1.659-1.125-.728-1.125-1.659S26.455-8.692,27.092-8.692ZM50.285-7.169h2.977v1.642H50.285ZM7.739-5.883H22V-2.3H7.739Zm24.33,0H46.388v3.554H32.069Z" fill="#634fc9" fill-rule="evenodd"/></g><text transform="translate(317 233)" fill="#634fc9" font-size="20" font-family="Arial-BoldMT, Arial" font-weight="700"><tspan x="0" y="0">Hosts</tspan></text></g></g><g transform="translate(159 13)"><g transform="matrix(1, 0, 0, 1, -33, 183)" filter="url(#g)"><g transform="translate(245 12)" fill="none" stroke="#634fc9" stroke-width="2"><rect width="213" height="62" rx="31" stroke="none"/><rect x="1" y="1" width="211" height="60" rx="30" fill="none"/></g></g><g transform="translate(12)"><g transform="translate(240 233)"><path d="M0-18V4H56.82V-18Zm1.546,2.285H55.274V1.715H1.546ZM30.524-14.04V-.028H47.933V-14.04Zm-24.33.034V.006H23.546V-14.006Zm25.876,2.251H46.388v3.588H32.069ZM7.739-11.7H22v3.537H7.739Zm19.353.728c-1.466,0-2.671,1.794-2.671,3.96s1.2,3.96,2.671,3.96,2.659-1.794,2.659-3.96S28.546-10.977,27.092-10.977ZM48.74-9.454v6.211h6.068V-9.454Zm-45,.677c-.886,0-1.6,1.066-1.6,2.369A2.978,2.978,0,0,0,2.6-4.732a1.383,1.383,0,0,0,1.136.711,1.381,1.381,0,0,0,1.125-.711,2.983,2.983,0,0,0,.477-1.675C5.341-7.711,4.614-8.777,3.739-8.777Zm23.353.085c.625,0,1.125.745,1.125,1.675s-.5,1.659-1.125,1.659-1.125-.728-1.125-1.659S26.455-8.692,27.092-8.692ZM50.285-7.169h2.977v1.642H50.285ZM7.739-5.883H22V-2.3H7.739Zm24.33,0H46.388v3.554H32.069Z" fill="#634fc9" fill-rule="evenodd"/></g><text transform="translate(317 233)" fill="#634fc9" font-size="20" font-family="Arial-BoldMT, Arial" font-weight="700"><tspan x="0" y="0">Hosts</tspan></text></g></g><g transform="translate(0 -19)"><g transform="matrix(1, 0, 0, 1, 126, 215)" filter="url(#i)"><g transform="translate(12 176)" fill="none" stroke="#4fbcc9" stroke-width="2"><rect width="446" height="202" rx="40" stroke="none"/><rect x="1" y="1" width="444" height="200" rx="39" fill="none"/></g></g><g transform="translate(108 2)"><g transform="translate(173.5 566.5)"><path d="M27.032-38.5v20.906H24.944v4.862H20.108v2.111H.5v7.033H20.108v2.135h2.4a5.154,5.154,0,0,0,.084.965h0v.012a5.4,5.4,0,0,0,1.7,3.112A5.1,5.1,0,0,0,27.62,3.722H44.492a7.461,7.461,0,0,0,4.152-1.194,7.233,7.233,0,0,0,2.88-4.391v-.048a8.155,8.155,0,0,0,.132-1.677H60.5v-7.033H46.988a6.045,6.045,0,0,0-4.164-4.729l-.024-.012h-.012a8.671,8.671,0,0,0-2.532-.241,6.165,6.165,0,0,0-2.1.495A6.186,6.186,0,0,0,36.092-13.6v-3.993H33.956V-38.5Zm1.392,1.411h4.14v19.495h-4.14ZM26.336-16.195h8.352v2.835a2.784,2.784,0,0,0-1.608.1h-.012l-.024.012a3.325,3.325,0,0,0-1.656,1.267,2.775,2.775,0,0,0-.324.832,5.148,5.148,0,0,0-3.756,1.387l-.012.024-.024.012a5.13,5.13,0,0,0-1.356,3.764,4.866,4.866,0,0,0-3.144,3.1H21.5v-8.468h4.836ZM40.58-14.216A7.734,7.734,0,0,1,42.44-14,4.874,4.874,0,0,1,45.788-9.27l-.012.519.492.157a6.178,6.178,0,0,1,2.964,2.051,5.354,5.354,0,0,1,.924,4.367,5.686,5.686,0,0,1-2.292,3.535,6.024,6.024,0,0,1-3.372.953H27.62a3.6,3.6,0,0,1-2.424-.76A3.9,3.9,0,0,1,23.96-.765,3.452,3.452,0,0,1,26.78-4.77l.66-.133-.108-.664a3.787,3.787,0,0,1,.936-3.173,3.441,3.441,0,0,1,3.276-.989l.708.108.1-.712a2.337,2.337,0,0,1,.228-.917,1.891,1.891,0,0,1,.984-.688c.864-.3,1.152-.036,1.884.35l.528.3.36-.495a5.921,5.921,0,0,1,2.376-2.039A4.842,4.842,0,0,1,40.34-14.2C40.424-14.2,40.5-14.216,40.58-14.216ZM1.892-9.21H20.108v4.222H1.892Zm46.38,0H59.108v4.222H51.464A6.3,6.3,0,0,0,50.336-7.4,6.929,6.929,0,0,0,48.272-9.21Z" transform="translate(0 0)" fill="#4fbcc9" fill-rule="evenodd"/><g transform="translate(0.5 -38.5)"><path d="M26.532,0V20.906H24.444v4.862H19.608v2.111H0v7.033H19.608v2.135h2.4a5.154,5.154,0,0,0,.084.965h0v.012a5.4,5.4,0,0,0,1.7,3.112,5.1,5.1,0,0,0,3.324,1.086H43.992a7.461,7.461,0,0,0,4.152-1.194,7.233,7.233,0,0,0,2.88-4.391v-.048a8.155,8.155,0,0,0,.132-1.677H60V27.879H46.488a6.045,6.045,0,0,0-4.164-4.729l-.024-.012h-.012a8.671,8.671,0,0,0-2.532-.241,5.938,5.938,0,0,0-4.164,2V20.906H33.456V0Zm1.392,1.411h4.14V20.906h-4.14ZM25.836,22.305h8.352V25.14a2.784,2.784,0,0,0-1.608.1h-.012l-.024.012a3.325,3.325,0,0,0-1.656,1.267,2.775,2.775,0,0,0-.324.832,5.148,5.148,0,0,0-3.756,1.387l-.012.024-.024.012a5.13,5.13,0,0,0-1.356,3.764,4.866,4.866,0,0,0-3.144,3.1H21V27.167h4.836ZM40.08,24.284a7.734,7.734,0,0,1,1.86.217,4.874,4.874,0,0,1,3.348,4.729l-.012.519.492.157a6.178,6.178,0,0,1,2.964,2.051,5.354,5.354,0,0,1,.924,4.367,5.686,5.686,0,0,1-2.292,3.535,6.024,6.024,0,0,1-3.372.953H27.12a3.6,3.6,0,0,1-2.424-.76,3.9,3.9,0,0,1-1.236-2.316,3.452,3.452,0,0,1,2.82-4.005l.66-.133-.108-.664a3.787,3.787,0,0,1,.936-3.173,3.441,3.441,0,0,1,3.276-.989l.708.108.1-.712a2.337,2.337,0,0,1,.228-.917,1.891,1.891,0,0,1,.984-.688c.864-.3,1.152-.036,1.884.35l.528.3.36-.495a5.921,5.921,0,0,1,2.376-2.039A4.842,4.842,0,0,1,39.84,24.3C39.924,24.3,40,24.284,40.08,24.284ZM1.392,29.29H19.608v4.222H1.392Zm46.38,0H58.608v4.222H50.964A6.3,6.3,0,0,0,49.836,31.1,6.929,6.929,0,0,0,47.772,29.29Z" fill="#4fbcc9" stroke="#4fbcc9" stroke-miterlimit="8" stroke-width="1"/></g></g><text transform="translate(254 567)" fill="#4fbcc9" font-size="20" font-family="Arial-BoldMT, Arial" font-weight="700"><tspan x="0" y="0">Network</tspan></text></g></g><g transform="translate(0 -19)"><g transform="matrix(1, 0, 0, 1, 126, 215)" filter="url(#k)"><g transform="translate(12 398)" fill="none" stroke="#fff" stroke-width="2"><rect width="859" height="120" rx="40" stroke="none"/><rect x="1" y="1" width="857" height="118" rx="39" fill="none"/></g></g><g transform="translate(9)"><g transform="translate(-1 -48)"><g transform="translate(169.5 741.5)"><path d="M3.624-40.5A3.132,3.132,0,0,0,.5-37.377v3.584A3.132,3.132,0,0,0,3.624-30.67H47.349a3.125,3.125,0,0,0,3.124-3.123v-3.584A3.125,3.125,0,0,0,47.349-40.5Zm0,1.293H47.349a1.816,1.816,0,0,1,1.837,1.83v3.584a1.809,1.809,0,0,1-1.837,1.83H3.624a1.809,1.809,0,0,1-1.837-1.83v-3.584A1.816,1.816,0,0,1,3.624-39.207Zm40.524,2.575a1.006,1.006,0,0,0-.737.307,1.042,1.042,0,0,0-.308.745,1.043,1.043,0,0,0,1.045,1.041,1.043,1.043,0,0,0,.737-.307,1.035,1.035,0,0,0,.308-.734,1.042,1.042,0,0,0-.308-.745A1.043,1.043,0,0,0,44.148-36.632ZM3.624-27.777A3.132,3.132,0,0,0,.5-24.653v3.573a3.135,3.135,0,0,0,3.124,3.134H38.967v2.882H3.624A3.135,3.135,0,0,0,.5-11.93v3.573A3.142,3.142,0,0,0,3.624-5.223H38.967V-.5H55.5V-23.021H50.473v-1.633a3.125,3.125,0,0,0-3.124-3.123Zm0,1.293H47.349a1.809,1.809,0,0,1,1.837,1.83v1.633H38.967v3.781H3.624a1.818,1.818,0,0,1-1.837-1.841v-3.573A1.809,1.809,0,0,1,3.624-26.484Zm36.63,4.756H54.213V-1.793H40.254Zm.8,5.37v1.293h1.221v-1.293Zm2.189,0v1.293h9.966v-1.293ZM3.624-13.771H38.967v7.255H3.624A1.818,1.818,0,0,1,1.787-8.357V-11.93A1.818,1.818,0,0,1,3.624-13.771Zm37.433.449v1.282h1.221v-1.282Zm2.189,0v1.282h9.966v-1.282ZM41.057-10.3V-9h1.221V-10.3Zm2.189,0V-9h9.966V-10.3ZM41.057-7.262v1.293h1.221V-7.262Zm2.189,0v1.293h9.966V-7.262Z" fill="#fff" fill-rule="evenodd"/><g transform="translate(0.5 -40.5)"><path d="M3.124,0A3.132,3.132,0,0,0,0,3.123V6.707A3.132,3.132,0,0,0,3.124,9.83H46.849a3.125,3.125,0,0,0,3.124-3.123V3.123A3.125,3.125,0,0,0,46.849,0Zm0,1.293H46.849a1.816,1.816,0,0,1,1.837,1.83V6.707a1.809,1.809,0,0,1-1.837,1.83H3.124a1.809,1.809,0,0,1-1.837-1.83V3.123A1.816,1.816,0,0,1,3.124,1.293ZM43.648,3.868a1.006,1.006,0,0,0-.737.307,1.038,1.038,0,1,0,.737-.307ZM3.124,12.723A3.132,3.132,0,0,0,0,15.847v3.573a3.135,3.135,0,0,0,3.124,3.134H38.467v2.882H3.124A3.135,3.135,0,0,0,0,28.57v3.573a3.142,3.142,0,0,0,3.124,3.134H38.467V40H55V17.479H49.973V15.847a3.125,3.125,0,0,0-3.124-3.123Zm0,1.293H46.849a1.809,1.809,0,0,1,1.837,1.83v1.633H38.467V21.26H3.124a1.818,1.818,0,0,1-1.837-1.841V15.847A1.809,1.809,0,0,1,3.124,14.016Zm36.63,4.756H53.713V38.707H39.754Zm.8,5.37v1.293h1.221V24.142Zm2.189,0v1.293h9.966V24.142ZM3.124,26.729H38.467v7.255H3.124a1.818,1.818,0,0,1-1.837-1.841V28.57A1.818,1.818,0,0,1,3.124,26.729Zm37.433.449V28.46h1.221V27.178Zm2.189,0V28.46h9.966V27.178ZM40.557,30.2V31.5h1.221V30.2Zm2.189,0V31.5h9.966V30.2Zm-2.189,3.036v1.293h1.221V33.238Zm2.189,0v1.293h9.966V33.238Z" fill="#fff" stroke="#fff" stroke-miterlimit="8" stroke-width="0.744"/></g></g><text transform="translate(245 737)" fill="#fff" font-size="20" font-family="Arial-BoldMT, Arial" font-weight="700"><tspan x="0" y="0">SSD Farm</tspan></text></g><g transform="translate(428 693)"><path d="M0-40V0H56V-23.775H51.027v-4.417H56V-40Zm1.971,1.994H9.61v4.484H13.1v-4.484H37.453v4.5h3.494v-4.5H54.029V-30.2H49.056v8.428h4.973V-1.994H40.97V-6.141H37.475v4.146H13.115V-6.118H9.621v4.124H1.971Zm46.178,1.059a1,1,0,0,0-1,1,1,1,0,0,0,1,1H52.2a1,1,0,0,0,.986-1,1,1,0,0,0-.986-1Zm0,4a1,1,0,0,0-1,1,1,1,0,0,0,1,1H52.2a1,1,0,0,0,.986-1,1,1,0,0,0-.986-1Zm-38.2,2.6a3.428,3.428,0,0,0-3.394,3.437V-12.62A3.428,3.428,0,0,0,9.946-9.183H40.533a3.431,3.431,0,0,0,3.4-3.437V-26.907a3.431,3.431,0,0,0-3.4-3.437Zm0,1.994H40.533a1.41,1.41,0,0,1,1.422,1.442V-12.62a1.4,1.4,0,0,1-1.422,1.442H9.946A1.4,1.4,0,0,1,8.523-12.62V-26.907A1.41,1.41,0,0,1,9.946-28.349ZM25.066-25.6a4.97,4.97,0,0,0-2.632.6A2.972,2.972,0,0,0,21-22.6a2.923,2.923,0,0,0,1.579,2.682,10.488,10.488,0,0,0,2.9.946,3.39,3.39,0,0,1,1.613.71,1.133,1.133,0,0,1,.28.868,1.286,1.286,0,0,1-.6,1,2.9,2.9,0,0,1-1.669.383h-.011a2.258,2.258,0,0,1-1.49-.439,2.322,2.322,0,0,1-.851-1.679l-2.128.248a4.312,4.312,0,0,0,1.546,3.008,4.752,4.752,0,0,0,2.923.789A5.2,5.2,0,0,0,28-14.772a3.267,3.267,0,0,0,1.5-2.715,2.879,2.879,0,0,0-.907-2.377,5.312,5.312,0,0,0-2.576-1.217,9.812,9.812,0,0,1-2.251-.642,1.04,1.04,0,0,1-.638-1.014.789.789,0,0,1,.482-.721,2.216,2.216,0,0,1,1.266-.327,2.466,2.466,0,0,1,1.49.316,1.855,1.855,0,0,1,.65,1.318l2.206-.169a3.375,3.375,0,0,0-1.266-2.513A5.1,5.1,0,0,0,25.066-25.6Zm-10.259.023a5.093,5.093,0,0,0-2.643.6,2.98,2.98,0,0,0-1.422,2.411,2.91,2.91,0,0,0,1.568,2.67,10.921,10.921,0,0,0,2.9.958,3.388,3.388,0,0,1,1.624.71,1.1,1.1,0,0,1,.269.856,1.272,1.272,0,0,1-.594,1,2.9,2.9,0,0,1-1.68.394h0a2.338,2.338,0,0,1-1.5-.451,2.316,2.316,0,0,1-.851-1.679l-2.128.248a4.354,4.354,0,0,0,1.546,3.008,4.838,4.838,0,0,0,2.923.8,5.179,5.179,0,0,0,2.912-.687,3.288,3.288,0,0,0,1.5-2.727,2.921,2.921,0,0,0-.9-2.377,5.5,5.5,0,0,0-2.587-1.217A9.812,9.812,0,0,1,13.5-21.7a1.045,1.045,0,0,1-.638-1.014.807.807,0,0,1,.482-.721,2.27,2.27,0,0,1,1.266-.327,2.527,2.527,0,0,1,1.49.316,1.929,1.929,0,0,1,.661,1.318l2.2-.158A3.346,3.346,0,0,0,17.7-24.8,5.02,5.02,0,0,0,14.806-25.577Zm16.565.169v11.132h4.8a3.921,3.921,0,0,0,3.17-1.465A5.487,5.487,0,0,0,40.6-19.628a6.489,6.489,0,0,0-1.21-4.237c-1.008-1.363-2.106-1.544-3.618-1.544Zm2.24,1.837h2.206a2.776,2.776,0,0,1,1.915.913c.571.789.56,1.4.56,2.918a4.24,4.24,0,0,1-.56,2.772,2.124,2.124,0,0,1-1.613.834H33.611Zm14.538,2.783a.992.992,0,0,0-1,.992,1,1,0,0,0,1,1H52.2a1,1,0,0,0,.986-1,.99.99,0,0,0-.986-.992Zm0,4.011a.992.992,0,0,0-1,.992,1,1,0,0,0,1,1H52.2a1,1,0,0,0,.986-1,.99.99,0,0,0-.986-.992Zm0,4.011a.992.992,0,0,0-1,.991,1,1,0,0,0,1,1H52.2a1,1,0,0,0,.986-1,.99.99,0,0,0-.986-.991Zm0,4.011a.992.992,0,0,0-1,.992,1,1,0,0,0,1,1H52.2a1,1,0,0,0,.986-1,.99.99,0,0,0-.986-.992Zm0,4.011a.992.992,0,0,0-1,.992,1,1,0,0,0,1,1H52.2a1,1,0,0,0,.986-1,.99.99,0,0,0-.986-.992Z" fill="#fff" fill-rule="evenodd"/></g><g transform="translate(504 693)"><path d="M0-40V0H56V-23.775H51.027v-4.417H56V-40Zm1.971,1.994H9.61v4.484H13.1v-4.484H37.453v4.5h3.494v-4.5H54.029V-30.2H49.056v8.428h4.973V-1.994H40.97V-6.141H37.475v4.146H13.115V-6.118H9.621v4.124H1.971Zm46.178,1.059a1,1,0,0,0-1,1,1,1,0,0,0,1,1H52.2a1,1,0,0,0,.986-1,1,1,0,0,0-.986-1Zm0,4a1,1,0,0,0-1,1,1,1,0,0,0,1,1H52.2a1,1,0,0,0,.986-1,1,1,0,0,0-.986-1Zm-38.2,2.6a3.428,3.428,0,0,0-3.394,3.437V-12.62A3.428,3.428,0,0,0,9.946-9.183H40.533a3.431,3.431,0,0,0,3.4-3.437V-26.907a3.431,3.431,0,0,0-3.4-3.437Zm0,1.994H40.533a1.41,1.41,0,0,1,1.422,1.442V-12.62a1.4,1.4,0,0,1-1.422,1.442H9.946A1.4,1.4,0,0,1,8.523-12.62V-26.907A1.41,1.41,0,0,1,9.946-28.349ZM25.066-25.6a4.97,4.97,0,0,0-2.632.6A2.972,2.972,0,0,0,21-22.6a2.923,2.923,0,0,0,1.579,2.682,10.488,10.488,0,0,0,2.9.946,3.39,3.39,0,0,1,1.613.71,1.133,1.133,0,0,1,.28.868,1.286,1.286,0,0,1-.6,1,2.9,2.9,0,0,1-1.669.383h-.011a2.258,2.258,0,0,1-1.49-.439,2.322,2.322,0,0,1-.851-1.679l-2.128.248a4.312,4.312,0,0,0,1.546,3.008,4.752,4.752,0,0,0,2.923.789A5.2,5.2,0,0,0,28-14.772a3.267,3.267,0,0,0,1.5-2.715,2.879,2.879,0,0,0-.907-2.377,5.312,5.312,0,0,0-2.576-1.217,9.812,9.812,0,0,1-2.251-.642,1.04,1.04,0,0,1-.638-1.014.789.789,0,0,1,.482-.721,2.216,2.216,0,0,1,1.266-.327,2.466,2.466,0,0,1,1.49.316,1.855,1.855,0,0,1,.65,1.318l2.206-.169a3.375,3.375,0,0,0-1.266-2.513A5.1,5.1,0,0,0,25.066-25.6Zm-10.259.023a5.093,5.093,0,0,0-2.643.6,2.98,2.98,0,0,0-1.422,2.411,2.91,2.91,0,0,0,1.568,2.67,10.921,10.921,0,0,0,2.9.958,3.388,3.388,0,0,1,1.624.71,1.1,1.1,0,0,1,.269.856,1.272,1.272,0,0,1-.594,1,2.9,2.9,0,0,1-1.68.394h0a2.338,2.338,0,0,1-1.5-.451,2.316,2.316,0,0,1-.851-1.679l-2.128.248a4.354,4.354,0,0,0,1.546,3.008,4.838,4.838,0,0,0,2.923.8,5.179,5.179,0,0,0,2.912-.687,3.288,3.288,0,0,0,1.5-2.727,2.921,2.921,0,0,0-.9-2.377,5.5,5.5,0,0,0-2.587-1.217A9.812,9.812,0,0,1,13.5-21.7a1.045,1.045,0,0,1-.638-1.014.807.807,0,0,1,.482-.721,2.27,2.27,0,0,1,1.266-.327,2.527,2.527,0,0,1,1.49.316,1.929,1.929,0,0,1,.661,1.318l2.2-.158A3.346,3.346,0,0,0,17.7-24.8,5.02,5.02,0,0,0,14.806-25.577Zm16.565.169v11.132h4.8a3.921,3.921,0,0,0,3.17-1.465A5.487,5.487,0,0,0,40.6-19.628a6.489,6.489,0,0,0-1.21-4.237c-1.008-1.363-2.106-1.544-3.618-1.544Zm2.24,1.837h2.206a2.776,2.776,0,0,1,1.915.913c.571.789.56,1.4.56,2.918a4.24,4.24,0,0,1-.56,2.772,2.124,2.124,0,0,1-1.613.834H33.611Zm14.538,2.783a.992.992,0,0,0-1,.992,1,1,0,0,0,1,1H52.2a1,1,0,0,0,.986-1,.99.99,0,0,0-.986-.992Zm0,4.011a.992.992,0,0,0-1,.992,1,1,0,0,0,1,1H52.2a1,1,0,0,0,.986-1,.99.99,0,0,0-.986-.992Zm0,4.011a.992.992,0,0,0-1,.991,1,1,0,0,0,1,1H52.2a1,1,0,0,0,.986-1,.99.99,0,0,0-.986-.991Zm0,4.011a.992.992,0,0,0-1,.992,1,1,0,0,0,1,1H52.2a1,1,0,0,0,.986-1,.99.99,0,0,0-.986-.992Zm0,4.011a.992.992,0,0,0-1,.992,1,1,0,0,0,1,1H52.2a1,1,0,0,0,.986-1,.99.99,0,0,0-.986-.992Z" fill="#fff" fill-rule="evenodd"/></g><g transform="translate(580 693)"><path d="M0-40V0H56V-23.775H51.027v-4.417H56V-40Zm1.971,1.994H9.61v4.484H13.1v-4.484H37.453v4.5h3.494v-4.5H54.029V-30.2H49.056v8.428h4.973V-1.994H40.97V-6.141H37.475v4.146H13.115V-6.118H9.621v4.124H1.971Zm46.178,1.059a1,1,0,0,0-1,1,1,1,0,0,0,1,1H52.2a1,1,0,0,0,.986-1,1,1,0,0,0-.986-1Zm0,4a1,1,0,0,0-1,1,1,1,0,0,0,1,1H52.2a1,1,0,0,0,.986-1,1,1,0,0,0-.986-1Zm-38.2,2.6a3.428,3.428,0,0,0-3.394,3.437V-12.62A3.428,3.428,0,0,0,9.946-9.183H40.533a3.431,3.431,0,0,0,3.4-3.437V-26.907a3.431,3.431,0,0,0-3.4-3.437Zm0,1.994H40.533a1.41,1.41,0,0,1,1.422,1.442V-12.62a1.4,1.4,0,0,1-1.422,1.442H9.946A1.4,1.4,0,0,1,8.523-12.62V-26.907A1.41,1.41,0,0,1,9.946-28.349ZM25.066-25.6a4.97,4.97,0,0,0-2.632.6A2.972,2.972,0,0,0,21-22.6a2.923,2.923,0,0,0,1.579,2.682,10.488,10.488,0,0,0,2.9.946,3.39,3.39,0,0,1,1.613.71,1.133,1.133,0,0,1,.28.868,1.286,1.286,0,0,1-.6,1,2.9,2.9,0,0,1-1.669.383h-.011a2.258,2.258,0,0,1-1.49-.439,2.322,2.322,0,0,1-.851-1.679l-2.128.248a4.312,4.312,0,0,0,1.546,3.008,4.752,4.752,0,0,0,2.923.789A5.2,5.2,0,0,0,28-14.772a3.267,3.267,0,0,0,1.5-2.715,2.879,2.879,0,0,0-.907-2.377,5.312,5.312,0,0,0-2.576-1.217,9.812,9.812,0,0,1-2.251-.642,1.04,1.04,0,0,1-.638-1.014.789.789,0,0,1,.482-.721,2.216,2.216,0,0,1,1.266-.327,2.466,2.466,0,0,1,1.49.316,1.855,1.855,0,0,1,.65,1.318l2.206-.169a3.375,3.375,0,0,0-1.266-2.513A5.1,5.1,0,0,0,25.066-25.6Zm-10.259.023a5.093,5.093,0,0,0-2.643.6,2.98,2.98,0,0,0-1.422,2.411,2.91,2.91,0,0,0,1.568,2.67,10.921,10.921,0,0,0,2.9.958,3.388,3.388,0,0,1,1.624.71,1.1,1.1,0,0,1,.269.856,1.272,1.272,0,0,1-.594,1,2.9,2.9,0,0,1-1.68.394h0a2.338,2.338,0,0,1-1.5-.451,2.316,2.316,0,0,1-.851-1.679l-2.128.248a4.354,4.354,0,0,0,1.546,3.008,4.838,4.838,0,0,0,2.923.8,5.179,5.179,0,0,0,2.912-.687,3.288,3.288,0,0,0,1.5-2.727,2.921,2.921,0,0,0-.9-2.377,5.5,5.5,0,0,0-2.587-1.217A9.812,9.812,0,0,1,13.5-21.7a1.045,1.045,0,0,1-.638-1.014.807.807,0,0,1,.482-.721,2.27,2.27,0,0,1,1.266-.327,2.527,2.527,0,0,1,1.49.316,1.929,1.929,0,0,1,.661,1.318l2.2-.158A3.346,3.346,0,0,0,17.7-24.8,5.02,5.02,0,0,0,14.806-25.577Zm16.565.169v11.132h4.8a3.921,3.921,0,0,0,3.17-1.465A5.487,5.487,0,0,0,40.6-19.628a6.489,6.489,0,0,0-1.21-4.237c-1.008-1.363-2.106-1.544-3.618-1.544Zm2.24,1.837h2.206a2.776,2.776,0,0,1,1.915.913c.571.789.56,1.4.56,2.918a4.24,4.24,0,0,1-.56,2.772,2.124,2.124,0,0,1-1.613.834H33.611Zm14.538,2.783a.992.992,0,0,0-1,.992,1,1,0,0,0,1,1H52.2a1,1,0,0,0,.986-1,.99.99,0,0,0-.986-.992Zm0,4.011a.992.992,0,0,0-1,.992,1,1,0,0,0,1,1H52.2a1,1,0,0,0,.986-1,.99.99,0,0,0-.986-.992Zm0,4.011a.992.992,0,0,0-1,.991,1,1,0,0,0,1,1H52.2a1,1,0,0,0,.986-1,.99.99,0,0,0-.986-.991Zm0,4.011a.992.992,0,0,0-1,.992,1,1,0,0,0,1,1H52.2a1,1,0,0,0,.986-1,.99.99,0,0,0-.986-.992Zm0,4.011a.992.992,0,0,0-1,.992,1,1,0,0,0,1,1H52.2a1,1,0,0,0,.986-1,.99.99,0,0,0-.986-.992Z" fill="#fff" fill-rule="evenodd"/></g><g transform="translate(656 693)"><path d="M0-40V0H56V-23.775H51.027v-4.417H56V-40Zm1.971,1.994H9.61v4.484H13.1v-4.484H37.453v4.5h3.494v-4.5H54.029V-30.2H49.056v8.428h4.973V-1.994H40.97V-6.141H37.475v4.146H13.115V-6.118H9.621v4.124H1.971Zm46.178,1.059a1,1,0,0,0-1,1,1,1,0,0,0,1,1H52.2a1,1,0,0,0,.986-1,1,1,0,0,0-.986-1Zm0,4a1,1,0,0,0-1,1,1,1,0,0,0,1,1H52.2a1,1,0,0,0,.986-1,1,1,0,0,0-.986-1Zm-38.2,2.6a3.428,3.428,0,0,0-3.394,3.437V-12.62A3.428,3.428,0,0,0,9.946-9.183H40.533a3.431,3.431,0,0,0,3.4-3.437V-26.907a3.431,3.431,0,0,0-3.4-3.437Zm0,1.994H40.533a1.41,1.41,0,0,1,1.422,1.442V-12.62a1.4,1.4,0,0,1-1.422,1.442H9.946A1.4,1.4,0,0,1,8.523-12.62V-26.907A1.41,1.41,0,0,1,9.946-28.349ZM25.066-25.6a4.97,4.97,0,0,0-2.632.6A2.972,2.972,0,0,0,21-22.6a2.923,2.923,0,0,0,1.579,2.682,10.488,10.488,0,0,0,2.9.946,3.39,3.39,0,0,1,1.613.71,1.133,1.133,0,0,1,.28.868,1.286,1.286,0,0,1-.6,1,2.9,2.9,0,0,1-1.669.383h-.011a2.258,2.258,0,0,1-1.49-.439,2.322,2.322,0,0,1-.851-1.679l-2.128.248a4.312,4.312,0,0,0,1.546,3.008,4.752,4.752,0,0,0,2.923.789A5.2,5.2,0,0,0,28-14.772a3.267,3.267,0,0,0,1.5-2.715,2.879,2.879,0,0,0-.907-2.377,5.312,5.312,0,0,0-2.576-1.217,9.812,9.812,0,0,1-2.251-.642,1.04,1.04,0,0,1-.638-1.014.789.789,0,0,1,.482-.721,2.216,2.216,0,0,1,1.266-.327,2.466,2.466,0,0,1,1.49.316,1.855,1.855,0,0,1,.65,1.318l2.206-.169a3.375,3.375,0,0,0-1.266-2.513A5.1,5.1,0,0,0,25.066-25.6Zm-10.259.023a5.093,5.093,0,0,0-2.643.6,2.98,2.98,0,0,0-1.422,2.411,2.91,2.91,0,0,0,1.568,2.67,10.921,10.921,0,0,0,2.9.958,3.388,3.388,0,0,1,1.624.71,1.1,1.1,0,0,1,.269.856,1.272,1.272,0,0,1-.594,1,2.9,2.9,0,0,1-1.68.394h0a2.338,2.338,0,0,1-1.5-.451,2.316,2.316,0,0,1-.851-1.679l-2.128.248a4.354,4.354,0,0,0,1.546,3.008,4.838,4.838,0,0,0,2.923.8,5.179,5.179,0,0,0,2.912-.687,3.288,3.288,0,0,0,1.5-2.727,2.921,2.921,0,0,0-.9-2.377,5.5,5.5,0,0,0-2.587-1.217A9.812,9.812,0,0,1,13.5-21.7a1.045,1.045,0,0,1-.638-1.014.807.807,0,0,1,.482-.721,2.27,2.27,0,0,1,1.266-.327,2.527,2.527,0,0,1,1.49.316,1.929,1.929,0,0,1,.661,1.318l2.2-.158A3.346,3.346,0,0,0,17.7-24.8,5.02,5.02,0,0,0,14.806-25.577Zm16.565.169v11.132h4.8a3.921,3.921,0,0,0,3.17-1.465A5.487,5.487,0,0,0,40.6-19.628a6.489,6.489,0,0,0-1.21-4.237c-1.008-1.363-2.106-1.544-3.618-1.544Zm2.24,1.837h2.206a2.776,2.776,0,0,1,1.915.913c.571.789.56,1.4.56,2.918a4.24,4.24,0,0,1-.56,2.772,2.124,2.124,0,0,1-1.613.834H33.611Zm14.538,2.783a.992.992,0,0,0-1,.992,1,1,0,0,0,1,1H52.2a1,1,0,0,0,.986-1,.99.99,0,0,0-.986-.992Zm0,4.011a.992.992,0,0,0-1,.992,1,1,0,0,0,1,1H52.2a1,1,0,0,0,.986-1,.99.99,0,0,0-.986-.992Zm0,4.011a.992.992,0,0,0-1,.991,1,1,0,0,0,1,1H52.2a1,1,0,0,0,.986-1,.99.99,0,0,0-.986-.991Zm0,4.011a.992.992,0,0,0-1,.992,1,1,0,0,0,1,1H52.2a1,1,0,0,0,.986-1,.99.99,0,0,0-.986-.992Zm0,4.011a.992.992,0,0,0-1,.992,1,1,0,0,0,1,1H52.2a1,1,0,0,0,.986-1,.99.99,0,0,0-.986-.992Z" fill="#fff" fill-rule="evenodd"/></g><g transform="translate(732 693)"><path d="M0-40V0H56V-23.775H51.027v-4.417H56V-40Zm1.971,1.994H9.61v4.484H13.1v-4.484H37.453v4.5h3.494v-4.5H54.029V-30.2H49.056v8.428h4.973V-1.994H40.97V-6.141H37.475v4.146H13.115V-6.118H9.621v4.124H1.971Zm46.178,1.059a1,1,0,0,0-1,1,1,1,0,0,0,1,1H52.2a1,1,0,0,0,.986-1,1,1,0,0,0-.986-1Zm0,4a1,1,0,0,0-1,1,1,1,0,0,0,1,1H52.2a1,1,0,0,0,.986-1,1,1,0,0,0-.986-1Zm-38.2,2.6a3.428,3.428,0,0,0-3.394,3.437V-12.62A3.428,3.428,0,0,0,9.946-9.183H40.533a3.431,3.431,0,0,0,3.4-3.437V-26.907a3.431,3.431,0,0,0-3.4-3.437Zm0,1.994H40.533a1.41,1.41,0,0,1,1.422,1.442V-12.62a1.4,1.4,0,0,1-1.422,1.442H9.946A1.4,1.4,0,0,1,8.523-12.62V-26.907A1.41,1.41,0,0,1,9.946-28.349ZM25.066-25.6a4.97,4.97,0,0,0-2.632.6A2.972,2.972,0,0,0,21-22.6a2.923,2.923,0,0,0,1.579,2.682,10.488,10.488,0,0,0,2.9.946,3.39,3.39,0,0,1,1.613.71,1.133,1.133,0,0,1,.28.868,1.286,1.286,0,0,1-.6,1,2.9,2.9,0,0,1-1.669.383h-.011a2.258,2.258,0,0,1-1.49-.439,2.322,2.322,0,0,1-.851-1.679l-2.128.248a4.312,4.312,0,0,0,1.546,3.008,4.752,4.752,0,0,0,2.923.789A5.2,5.2,0,0,0,28-14.772a3.267,3.267,0,0,0,1.5-2.715,2.879,2.879,0,0,0-.907-2.377,5.312,5.312,0,0,0-2.576-1.217,9.812,9.812,0,0,1-2.251-.642,1.04,1.04,0,0,1-.638-1.014.789.789,0,0,1,.482-.721,2.216,2.216,0,0,1,1.266-.327,2.466,2.466,0,0,1,1.49.316,1.855,1.855,0,0,1,.65,1.318l2.206-.169a3.375,3.375,0,0,0-1.266-2.513A5.1,5.1,0,0,0,25.066-25.6Zm-10.259.023a5.093,5.093,0,0,0-2.643.6,2.98,2.98,0,0,0-1.422,2.411,2.91,2.91,0,0,0,1.568,2.67,10.921,10.921,0,0,0,2.9.958,3.388,3.388,0,0,1,1.624.71,1.1,1.1,0,0,1,.269.856,1.272,1.272,0,0,1-.594,1,2.9,2.9,0,0,1-1.68.394h0a2.338,2.338,0,0,1-1.5-.451,2.316,2.316,0,0,1-.851-1.679l-2.128.248a4.354,4.354,0,0,0,1.546,3.008,4.838,4.838,0,0,0,2.923.8,5.179,5.179,0,0,0,2.912-.687,3.288,3.288,0,0,0,1.5-2.727,2.921,2.921,0,0,0-.9-2.377,5.5,5.5,0,0,0-2.587-1.217A9.812,9.812,0,0,1,13.5-21.7a1.045,1.045,0,0,1-.638-1.014.807.807,0,0,1,.482-.721,2.27,2.27,0,0,1,1.266-.327,2.527,2.527,0,0,1,1.49.316,1.929,1.929,0,0,1,.661,1.318l2.2-.158A3.346,3.346,0,0,0,17.7-24.8,5.02,5.02,0,0,0,14.806-25.577Zm16.565.169v11.132h4.8a3.921,3.921,0,0,0,3.17-1.465A5.487,5.487,0,0,0,40.6-19.628a6.489,6.489,0,0,0-1.21-4.237c-1.008-1.363-2.106-1.544-3.618-1.544Zm2.24,1.837h2.206a2.776,2.776,0,0,1,1.915.913c.571.789.56,1.4.56,2.918a4.24,4.24,0,0,1-.56,2.772,2.124,2.124,0,0,1-1.613.834H33.611Zm14.538,2.783a.992.992,0,0,0-1,.992,1,1,0,0,0,1,1H52.2a1,1,0,0,0,.986-1,.99.99,0,0,0-.986-.992Zm0,4.011a.992.992,0,0,0-1,.992,1,1,0,0,0,1,1H52.2a1,1,0,0,0,.986-1,.99.99,0,0,0-.986-.992Zm0,4.011a.992.992,0,0,0-1,.991,1,1,0,0,0,1,1H52.2a1,1,0,0,0,.986-1,.99.99,0,0,0-.986-.991Zm0,4.011a.992.992,0,0,0-1,.992,1,1,0,0,0,1,1H52.2a1,1,0,0,0,.986-1,.99.99,0,0,0-.986-.992Zm0,4.011a.992.992,0,0,0-1,.992,1,1,0,0,0,1,1H52.2a1,1,0,0,0,.986-1,.99.99,0,0,0-.986-.992Z" fill="#fff" fill-rule="evenodd"/></g><g transform="translate(808 693)"><path d="M0-40V0H56V-23.775H51.027v-4.417H56V-40Zm1.971,1.994H9.61v4.484H13.1v-4.484H37.453v4.5h3.494v-4.5H54.029V-30.2H49.056v8.428h4.973V-1.994H40.97V-6.141H37.475v4.146H13.115V-6.118H9.621v4.124H1.971Zm46.178,1.059a1,1,0,0,0-1,1,1,1,0,0,0,1,1H52.2a1,1,0,0,0,.986-1,1,1,0,0,0-.986-1Zm0,4a1,1,0,0,0-1,1,1,1,0,0,0,1,1H52.2a1,1,0,0,0,.986-1,1,1,0,0,0-.986-1Zm-38.2,2.6a3.428,3.428,0,0,0-3.394,3.437V-12.62A3.428,3.428,0,0,0,9.946-9.183H40.533a3.431,3.431,0,0,0,3.4-3.437V-26.907a3.431,3.431,0,0,0-3.4-3.437Zm0,1.994H40.533a1.41,1.41,0,0,1,1.422,1.442V-12.62a1.4,1.4,0,0,1-1.422,1.442H9.946A1.4,1.4,0,0,1,8.523-12.62V-26.907A1.41,1.41,0,0,1,9.946-28.349ZM25.066-25.6a4.97,4.97,0,0,0-2.632.6A2.972,2.972,0,0,0,21-22.6a2.923,2.923,0,0,0,1.579,2.682,10.488,10.488,0,0,0,2.9.946,3.39,3.39,0,0,1,1.613.71,1.133,1.133,0,0,1,.28.868,1.286,1.286,0,0,1-.6,1,2.9,2.9,0,0,1-1.669.383h-.011a2.258,2.258,0,0,1-1.49-.439,2.322,2.322,0,0,1-.851-1.679l-2.128.248a4.312,4.312,0,0,0,1.546,3.008,4.752,4.752,0,0,0,2.923.789A5.2,5.2,0,0,0,28-14.772a3.267,3.267,0,0,0,1.5-2.715,2.879,2.879,0,0,0-.907-2.377,5.312,5.312,0,0,0-2.576-1.217,9.812,9.812,0,0,1-2.251-.642,1.04,1.04,0,0,1-.638-1.014.789.789,0,0,1,.482-.721,2.216,2.216,0,0,1,1.266-.327,2.466,2.466,0,0,1,1.49.316,1.855,1.855,0,0,1,.65,1.318l2.206-.169a3.375,3.375,0,0,0-1.266-2.513A5.1,5.1,0,0,0,25.066-25.6Zm-10.259.023a5.093,5.093,0,0,0-2.643.6,2.98,2.98,0,0,0-1.422,2.411,2.91,2.91,0,0,0,1.568,2.67,10.921,10.921,0,0,0,2.9.958,3.388,3.388,0,0,1,1.624.71,1.1,1.1,0,0,1,.269.856,1.272,1.272,0,0,1-.594,1,2.9,2.9,0,0,1-1.68.394h0a2.338,2.338,0,0,1-1.5-.451,2.316,2.316,0,0,1-.851-1.679l-2.128.248a4.354,4.354,0,0,0,1.546,3.008,4.838,4.838,0,0,0,2.923.8,5.179,5.179,0,0,0,2.912-.687,3.288,3.288,0,0,0,1.5-2.727,2.921,2.921,0,0,0-.9-2.377,5.5,5.5,0,0,0-2.587-1.217A9.812,9.812,0,0,1,13.5-21.7a1.045,1.045,0,0,1-.638-1.014.807.807,0,0,1,.482-.721,2.27,2.27,0,0,1,1.266-.327,2.527,2.527,0,0,1,1.49.316,1.929,1.929,0,0,1,.661,1.318l2.2-.158A3.346,3.346,0,0,0,17.7-24.8,5.02,5.02,0,0,0,14.806-25.577Zm16.565.169v11.132h4.8a3.921,3.921,0,0,0,3.17-1.465A5.487,5.487,0,0,0,40.6-19.628a6.489,6.489,0,0,0-1.21-4.237c-1.008-1.363-2.106-1.544-3.618-1.544Zm2.24,1.837h2.206a2.776,2.776,0,0,1,1.915.913c.571.789.56,1.4.56,2.918a4.24,4.24,0,0,1-.56,2.772,2.124,2.124,0,0,1-1.613.834H33.611Zm14.538,2.783a.992.992,0,0,0-1,.992,1,1,0,0,0,1,1H52.2a1,1,0,0,0,.986-1,.99.99,0,0,0-.986-.992Zm0,4.011a.992.992,0,0,0-1,.992,1,1,0,0,0,1,1H52.2a1,1,0,0,0,.986-1,.99.99,0,0,0-.986-.992Zm0,4.011a.992.992,0,0,0-1,.991,1,1,0,0,0,1,1H52.2a1,1,0,0,0,.986-1,.99.99,0,0,0-.986-.991Zm0,4.011a.992.992,0,0,0-1,.992,1,1,0,0,0,1,1H52.2a1,1,0,0,0,.986-1,.99.99,0,0,0-.986-.992Zm0,4.011a.992.992,0,0,0-1,.992,1,1,0,0,0,1,1H52.2a1,1,0,0,0,.986-1,.99.99,0,0,0-.986-.992Z" fill="#fff" fill-rule="evenodd"/></g><g transform="translate(884 693)"><path d="M0-40V0H56V-23.775H51.027v-4.417H56V-40Zm1.971,1.994H9.61v4.484H13.1v-4.484H37.453v4.5h3.494v-4.5H54.029V-30.2H49.056v8.428h4.973V-1.994H40.97V-6.141H37.475v4.146H13.115V-6.118H9.621v4.124H1.971Zm46.178,1.059a1,1,0,0,0-1,1,1,1,0,0,0,1,1H52.2a1,1,0,0,0,.986-1,1,1,0,0,0-.986-1Zm0,4a1,1,0,0,0-1,1,1,1,0,0,0,1,1H52.2a1,1,0,0,0,.986-1,1,1,0,0,0-.986-1Zm-38.2,2.6a3.428,3.428,0,0,0-3.394,3.437V-12.62A3.428,3.428,0,0,0,9.946-9.183H40.533a3.431,3.431,0,0,0,3.4-3.437V-26.907a3.431,3.431,0,0,0-3.4-3.437Zm0,1.994H40.533a1.41,1.41,0,0,1,1.422,1.442V-12.62a1.4,1.4,0,0,1-1.422,1.442H9.946A1.4,1.4,0,0,1,8.523-12.62V-26.907A1.41,1.41,0,0,1,9.946-28.349ZM25.066-25.6a4.97,4.97,0,0,0-2.632.6A2.972,2.972,0,0,0,21-22.6a2.923,2.923,0,0,0,1.579,2.682,10.488,10.488,0,0,0,2.9.946,3.39,3.39,0,0,1,1.613.71,1.133,1.133,0,0,1,.28.868,1.286,1.286,0,0,1-.6,1,2.9,2.9,0,0,1-1.669.383h-.011a2.258,2.258,0,0,1-1.49-.439,2.322,2.322,0,0,1-.851-1.679l-2.128.248a4.312,4.312,0,0,0,1.546,3.008,4.752,4.752,0,0,0,2.923.789A5.2,5.2,0,0,0,28-14.772a3.267,3.267,0,0,0,1.5-2.715,2.879,2.879,0,0,0-.907-2.377,5.312,5.312,0,0,0-2.576-1.217,9.812,9.812,0,0,1-2.251-.642,1.04,1.04,0,0,1-.638-1.014.789.789,0,0,1,.482-.721,2.216,2.216,0,0,1,1.266-.327,2.466,2.466,0,0,1,1.49.316,1.855,1.855,0,0,1,.65,1.318l2.206-.169a3.375,3.375,0,0,0-1.266-2.513A5.1,5.1,0,0,0,25.066-25.6Zm-10.259.023a5.093,5.093,0,0,0-2.643.6,2.98,2.98,0,0,0-1.422,2.411,2.91,2.91,0,0,0,1.568,2.67,10.921,10.921,0,0,0,2.9.958,3.388,3.388,0,0,1,1.624.71,1.1,1.1,0,0,1,.269.856,1.272,1.272,0,0,1-.594,1,2.9,2.9,0,0,1-1.68.394h0a2.338,2.338,0,0,1-1.5-.451,2.316,2.316,0,0,1-.851-1.679l-2.128.248a4.354,4.354,0,0,0,1.546,3.008,4.838,4.838,0,0,0,2.923.8,5.179,5.179,0,0,0,2.912-.687,3.288,3.288,0,0,0,1.5-2.727,2.921,2.921,0,0,0-.9-2.377,5.5,5.5,0,0,0-2.587-1.217A9.812,9.812,0,0,1,13.5-21.7a1.045,1.045,0,0,1-.638-1.014.807.807,0,0,1,.482-.721,2.27,2.27,0,0,1,1.266-.327,2.527,2.527,0,0,1,1.49.316,1.929,1.929,0,0,1,.661,1.318l2.2-.158A3.346,3.346,0,0,0,17.7-24.8,5.02,5.02,0,0,0,14.806-25.577Zm16.565.169v11.132h4.8a3.921,3.921,0,0,0,3.17-1.465A5.487,5.487,0,0,0,40.6-19.628a6.489,6.489,0,0,0-1.21-4.237c-1.008-1.363-2.106-1.544-3.618-1.544Zm2.24,1.837h2.206a2.776,2.776,0,0,1,1.915.913c.571.789.56,1.4.56,2.918a4.24,4.24,0,0,1-.56,2.772,2.124,2.124,0,0,1-1.613.834H33.611Zm14.538,2.783a.992.992,0,0,0-1,.992,1,1,0,0,0,1,1H52.2a1,1,0,0,0,.986-1,.99.99,0,0,0-.986-.992Zm0,4.011a.992.992,0,0,0-1,.992,1,1,0,0,0,1,1H52.2a1,1,0,0,0,.986-1,.99.99,0,0,0-.986-.992Zm0,4.011a.992.992,0,0,0-1,.991,1,1,0,0,0,1,1H52.2a1,1,0,0,0,.986-1,.99.99,0,0,0-.986-.991Zm0,4.011a.992.992,0,0,0-1,.992,1,1,0,0,0,1,1H52.2a1,1,0,0,0,.986-1,.99.99,0,0,0-.986-.992Zm0,4.011a.992.992,0,0,0-1,.992,1,1,0,0,0,1,1H52.2a1,1,0,0,0,.986-1,.99.99,0,0,0-.986-.992Z" fill="#fff" fill-rule="evenodd"/></g></g></g><g transform="matrix(1, 0, 0, 1, 126, 196)" filter="url(#m)"><g transform="translate(489 12)" fill="none"><path d="M0,0H382V366H0V142.782l-28.937-28.2L0,84.059Z" stroke="none"/><path d="M 2 2 L 2 84.05859375 L 2 84.85589599609375 L 1.451416015625 85.4345703125 L -26.12796020507812 114.5264892578125 L 1.395843505859375 141.3496856689453 L 2 141.9384155273438 L 2 142.7819976806641 L 2 364 L 380 364 L 380 2 L 2 2 M 0 0 L 382 0 L 382 366 L 0 366 L 0 142.7819976806641 L -28.9365234375 114.5820465087891 L 0 84.05859375 L 0 0 Z" stroke="none" fill="#634fc9"/></g></g><g transform="translate(288 -247.046)"><g transform="matrix(1, 0, 0, 1, -162, 443.05)" filter="url(#o)"><path d="M282,198.5v28.608h15.629a12.933,12.933,0,0,1-.075,1.5,2.352,2.352,0,0,1-1.662,2.29c-1.175.5-2.156.7-2.9,1.055-1.183.486-1.534.891-1.594,1.317l18.69.03c-.015-.427-.427-.808-1.048-1.085-.861-.389-1.976-.756-3.054-1.123-1.4-.539-1.707-.8-2-1.841a7.46,7.46,0,0,1-.12-2.148h15.561V198.5Zm.921.921H318.5V223.41H282.921Z" transform="translate(228 -161.05)" fill="#634fc9" stroke="#634fc9" stroke-width="1"/></g><g transform="translate(357.319 487.945)"><path d="M296.074,380.253c-.408-.07-.876-.143-1.339-.234a.655.655,0,0,0-.424.072,1.021,1.021,0,0,0-.613.74,7.657,7.657,0,0,1-.3.824.793.793,0,0,1-.815.558q-.679,0-1.358,0a.789.789,0,0,1-.816-.557c-.144-.378-.271-.761-.424-1.135a.877.877,0,0,0-.232-.273,1.089,1.089,0,0,0-1.082-.162c-.265.062-.535.1-.8.149a.815.815,0,0,1-.919-.423c-.224-.38-.452-.758-.672-1.141a.761.761,0,0,1,.091-.983c.254-.3.507-.605.77-.9a.657.657,0,0,0,.156-.413.976.976,0,0,0-.313-.842c-.225-.223-.417-.478-.621-.72a.765.765,0,0,1-.088-.966q.338-.581.684-1.158a.8.8,0,0,1,.9-.408c.424.068.846.152,1.272.214a.734.734,0,0,0,.316-.057,1.088,1.088,0,0,0,.7-.845c.07-.254.174-.5.266-.748a.8.8,0,0,1,.815-.56q.668,0,1.337,0a.8.8,0,0,1,.8.548c.14.371.278.744.406,1.12a.716.716,0,0,0,.284.338,1.07,1.07,0,0,0,.984.148c.306-.073.62-.115.931-.164a.754.754,0,0,1,.811.352c.265.421.517.85.759,1.284a.73.73,0,0,1-.1.877c-.27.325-.554.64-.818.969a.691.691,0,0,0-.124.316,1.012,1.012,0,0,0,.328.938,8.548,8.548,0,0,1,.627.742.758.758,0,0,1,.075.915c-.223.4-.459.786-.692,1.177A.83.83,0,0,1,296.074,380.253Zm-3.958,1.123v.008a2.1,2.1,0,0,1,.28,0c.181.025.261-.042.313-.215.122-.413.26-.823.418-1.225a.767.767,0,0,1,.281-.314c.2-.136.431-.224.625-.365a.731.731,0,0,1,.607-.122c.43.08.861.149,1.291.23a.222.222,0,0,0,.284-.14c.146-.3.307-.6.474-.887a.2.2,0,0,0-.027-.274c-.29-.318-.565-.648-.857-.965a.651.651,0,0,1-.188-.53,4.456,4.456,0,0,0,0-.708.581.581,0,0,1,.156-.457c.3-.344.591-.7.895-1.043a.2.2,0,0,0,.013-.288c-.2-.29-.381-.588-.56-.889a.183.183,0,0,0-.239-.1c-.447.1-.9.2-1.349.265a.828.828,0,0,1-.439-.091c-.218-.1-.411-.257-.63-.357a.654.654,0,0,1-.377-.4c-.153-.433-.318-.863-.473-1.3-.035-.1-.076-.147-.2-.14-.344.02-.689.032-1.033.031-.152,0-.228.038-.273.188-.129.426-.264.851-.426,1.266a.8.8,0,0,1-.3.329c-.216.147-.459.256-.681.4a.6.6,0,0,1-.466.089c-.47-.094-.945-.167-1.417-.256a.17.17,0,0,0-.215.113c-.158.311-.321.621-.492.925a.194.194,0,0,0,.03.272c.31.328.619.659.907,1a.732.732,0,0,1,.147.393,5.146,5.146,0,0,1,0,.833.8.8,0,0,1-.148.414c-.287.365-.6.713-.9,1.061a.187.187,0,0,0-.026.27q.292.437.56.89a.2.2,0,0,0,.26.1c.412-.093.828-.169,1.241-.255a.692.692,0,0,1,.586.118c.194.14.426.231.623.368a.84.84,0,0,1,.3.325c.183.437.338.885.5,1.331a.178.178,0,0,0,.219.14C291.643,381.4,291.88,381.39,292.116,381.375Z" transform="translate(-286.14 -370.284)" fill="#634fc9"/><path d="M370.959,466.383a2.127,2.127,0,1,1,2.2-2.069A2.145,2.145,0,0,1,370.959,466.383Zm0-.835a1.291,1.291,0,1,0-1.328-1.291A1.317,1.317,0,0,0,370.957,465.548Z" transform="translate(-365.199 -458.29)" fill="#634fc9"/></g><g transform="translate(368.946 492.385)"><path d="M292.377,376.542c-.256-.044-.55-.09-.841-.147a.411.411,0,0,0-.266.045.641.641,0,0,0-.385.464,4.817,4.817,0,0,1-.188.517.5.5,0,0,1-.512.35q-.426,0-.853,0a.5.5,0,0,1-.512-.35c-.09-.237-.17-.478-.266-.713a.551.551,0,0,0-.146-.171.684.684,0,0,0-.679-.1c-.166.039-.336.064-.5.093a.512.512,0,0,1-.577-.265c-.141-.239-.284-.476-.422-.716a.478.478,0,0,1,.057-.617c.159-.19.318-.38.483-.565a.413.413,0,0,0,.1-.259.613.613,0,0,0-.2-.528c-.141-.14-.261-.3-.39-.452a.481.481,0,0,1-.055-.606q.212-.365.429-.727a.5.5,0,0,1,.567-.256c.266.043.531.1.8.134a.461.461,0,0,0,.2-.036.683.683,0,0,0,.437-.531c.044-.16.109-.314.167-.469a.5.5,0,0,1,.512-.351q.419,0,.839,0a.5.5,0,0,1,.5.344c.088.233.174.467.255.7a.449.449,0,0,0,.178.212.672.672,0,0,0,.618.093c.192-.046.389-.072.585-.1a.474.474,0,0,1,.509.221c.167.264.325.534.476.806a.458.458,0,0,1-.061.55c-.17.2-.348.4-.514.608a.434.434,0,0,0-.078.2.635.635,0,0,0,.206.589,5.37,5.37,0,0,1,.393.466.476.476,0,0,1,.047.575c-.14.249-.288.494-.435.739A.521.521,0,0,1,292.377,376.542Zm-2.485.7v.005a1.311,1.311,0,0,1,.176,0c.114.016.164-.026.2-.135.077-.259.163-.517.263-.769a.481.481,0,0,1,.177-.2c.124-.085.271-.141.392-.229a.458.458,0,0,1,.381-.077c.27.05.541.094.81.145a.139.139,0,0,0,.178-.088c.092-.189.192-.375.3-.557a.124.124,0,0,0-.017-.172c-.182-.2-.355-.407-.538-.606a.408.408,0,0,1-.118-.333,2.8,2.8,0,0,0,0-.444.365.365,0,0,1,.1-.287c.19-.216.371-.439.562-.655a.124.124,0,0,0,.008-.181c-.123-.182-.239-.369-.352-.558a.115.115,0,0,0-.15-.063c-.281.062-.562.124-.847.166a.52.52,0,0,1-.275-.057c-.137-.064-.258-.161-.4-.224a.411.411,0,0,1-.237-.25c-.1-.272-.2-.542-.3-.813-.022-.061-.048-.092-.124-.088-.216.012-.432.02-.648.019-.1,0-.143.024-.172.118-.081.267-.166.534-.268.795a.5.5,0,0,1-.186.207c-.135.092-.288.161-.428.248a.374.374,0,0,1-.293.056c-.3-.059-.593-.1-.889-.161a.107.107,0,0,0-.135.071c-.1.2-.2.39-.309.581a.122.122,0,0,0,.019.171c.195.206.389.413.57.631a.459.459,0,0,1,.093.247,3.228,3.228,0,0,1,0,.523.5.5,0,0,1-.093.26c-.18.229-.374.448-.568.666a.117.117,0,0,0-.017.17q.183.275.351.559a.125.125,0,0,0,.163.063c.259-.059.52-.106.779-.16a.435.435,0,0,1,.368.074c.122.088.267.145.391.231a.527.527,0,0,1,.188.2c.115.274.213.555.312.836a.112.112,0,0,0,.137.088C289.595,377.262,289.743,377.256,289.892,377.247Z" transform="translate(-286.14 -370.284)" fill="#634fc9"/><path d="M370.144,464.8a1.335,1.335,0,1,1,1.383-1.3A1.347,1.347,0,0,1,370.144,464.8Zm0-.524a.811.811,0,1,0-.834-.811A.827.827,0,0,0,370.142,464.276Z" transform="translate(-366.528 -459.72)" fill="#634fc9"/></g></g><text transform="translate(683 264)" fill="#634fc9" font-size="20" font-family="Arial-BoldMT, Arial" font-weight="700"><tspan x="0" y="0">App A</tspan></text><g transform="translate(453 -247.046)"><g transform="matrix(1, 0, 0, 1, -327, 443.05)" filter="url(#q)"><path d="M282,198.5v28.608h15.629a12.933,12.933,0,0,1-.075,1.5,2.352,2.352,0,0,1-1.662,2.29c-1.175.5-2.156.7-2.9,1.055-1.183.486-1.534.891-1.594,1.317l18.69.03c-.015-.427-.427-.808-1.048-1.085-.861-.389-1.976-.756-3.054-1.123-1.4-.539-1.707-.8-2-1.841a7.46,7.46,0,0,1-.12-2.148h15.561V198.5Zm.921.921H318.5V223.41H282.921Z" transform="translate(393 -161.05)" fill="#634fc9" stroke="#634fc9" stroke-width="1"/></g><g transform="translate(357.319 487.945)"><path d="M296.074,380.253c-.408-.07-.876-.143-1.339-.234a.655.655,0,0,0-.424.072,1.021,1.021,0,0,0-.613.74,7.657,7.657,0,0,1-.3.824.793.793,0,0,1-.815.558q-.679,0-1.358,0a.789.789,0,0,1-.816-.557c-.144-.378-.271-.761-.424-1.135a.877.877,0,0,0-.232-.273,1.089,1.089,0,0,0-1.082-.162c-.265.062-.535.1-.8.149a.815.815,0,0,1-.919-.423c-.224-.38-.452-.758-.672-1.141a.761.761,0,0,1,.091-.983c.254-.3.507-.605.77-.9a.657.657,0,0,0,.156-.413.976.976,0,0,0-.313-.842c-.225-.223-.417-.478-.621-.72a.765.765,0,0,1-.088-.966q.338-.581.684-1.158a.8.8,0,0,1,.9-.408c.424.068.846.152,1.272.214a.734.734,0,0,0,.316-.057,1.088,1.088,0,0,0,.7-.845c.07-.254.174-.5.266-.748a.8.8,0,0,1,.815-.56q.668,0,1.337,0a.8.8,0,0,1,.8.548c.14.371.278.744.406,1.12a.716.716,0,0,0,.284.338,1.07,1.07,0,0,0,.984.148c.306-.073.62-.115.931-.164a.754.754,0,0,1,.811.352c.265.421.517.85.759,1.284a.73.73,0,0,1-.1.877c-.27.325-.554.64-.818.969a.691.691,0,0,0-.124.316,1.012,1.012,0,0,0,.328.938,8.548,8.548,0,0,1,.627.742.758.758,0,0,1,.075.915c-.223.4-.459.786-.692,1.177A.83.83,0,0,1,296.074,380.253Zm-3.958,1.123v.008a2.1,2.1,0,0,1,.28,0c.181.025.261-.042.313-.215.122-.413.26-.823.418-1.225a.767.767,0,0,1,.281-.314c.2-.136.431-.224.625-.365a.731.731,0,0,1,.607-.122c.43.08.861.149,1.291.23a.222.222,0,0,0,.284-.14c.146-.3.307-.6.474-.887a.2.2,0,0,0-.027-.274c-.29-.318-.565-.648-.857-.965a.651.651,0,0,1-.188-.53,4.456,4.456,0,0,0,0-.708.581.581,0,0,1,.156-.457c.3-.344.591-.7.895-1.043a.2.2,0,0,0,.013-.288c-.2-.29-.381-.588-.56-.889a.183.183,0,0,0-.239-.1c-.447.1-.9.2-1.349.265a.828.828,0,0,1-.439-.091c-.218-.1-.411-.257-.63-.357a.654.654,0,0,1-.377-.4c-.153-.433-.318-.863-.473-1.3-.035-.1-.076-.147-.2-.14-.344.02-.689.032-1.033.031-.152,0-.228.038-.273.188-.129.426-.264.851-.426,1.266a.8.8,0,0,1-.3.329c-.216.147-.459.256-.681.4a.6.6,0,0,1-.466.089c-.47-.094-.945-.167-1.417-.256a.17.17,0,0,0-.215.113c-.158.311-.321.621-.492.925a.194.194,0,0,0,.03.272c.31.328.619.659.907,1a.732.732,0,0,1,.147.393,5.146,5.146,0,0,1,0,.833.8.8,0,0,1-.148.414c-.287.365-.6.713-.9,1.061a.187.187,0,0,0-.026.27q.292.437.56.89a.2.2,0,0,0,.26.1c.412-.093.828-.169,1.241-.255a.692.692,0,0,1,.586.118c.194.14.426.231.623.368a.84.84,0,0,1,.3.325c.183.437.338.885.5,1.331a.178.178,0,0,0,.219.14C291.643,381.4,291.88,381.39,292.116,381.375Z" transform="translate(-286.14 -370.284)" fill="#634fc9"/><path d="M370.959,466.383a2.127,2.127,0,1,1,2.2-2.069A2.145,2.145,0,0,1,370.959,466.383Zm0-.835a1.291,1.291,0,1,0-1.328-1.291A1.317,1.317,0,0,0,370.957,465.548Z" transform="translate(-365.199 -458.29)" fill="#634fc9"/></g><g transform="translate(368.946 492.385)"><path d="M292.377,376.542c-.256-.044-.55-.09-.841-.147a.411.411,0,0,0-.266.045.641.641,0,0,0-.385.464,4.817,4.817,0,0,1-.188.517.5.5,0,0,1-.512.35q-.426,0-.853,0a.5.5,0,0,1-.512-.35c-.09-.237-.17-.478-.266-.713a.551.551,0,0,0-.146-.171.684.684,0,0,0-.679-.1c-.166.039-.336.064-.5.093a.512.512,0,0,1-.577-.265c-.141-.239-.284-.476-.422-.716a.478.478,0,0,1,.057-.617c.159-.19.318-.38.483-.565a.413.413,0,0,0,.1-.259.613.613,0,0,0-.2-.528c-.141-.14-.261-.3-.39-.452a.481.481,0,0,1-.055-.606q.212-.365.429-.727a.5.5,0,0,1,.567-.256c.266.043.531.1.8.134a.461.461,0,0,0,.2-.036.683.683,0,0,0,.437-.531c.044-.16.109-.314.167-.469a.5.5,0,0,1,.512-.351q.419,0,.839,0a.5.5,0,0,1,.5.344c.088.233.174.467.255.7a.449.449,0,0,0,.178.212.672.672,0,0,0,.618.093c.192-.046.389-.072.585-.1a.474.474,0,0,1,.509.221c.167.264.325.534.476.806a.458.458,0,0,1-.061.55c-.17.2-.348.4-.514.608a.434.434,0,0,0-.078.2.635.635,0,0,0,.206.589,5.37,5.37,0,0,1,.393.466.476.476,0,0,1,.047.575c-.14.249-.288.494-.435.739A.521.521,0,0,1,292.377,376.542Zm-2.485.7v.005a1.311,1.311,0,0,1,.176,0c.114.016.164-.026.2-.135.077-.259.163-.517.263-.769a.481.481,0,0,1,.177-.2c.124-.085.271-.141.392-.229a.458.458,0,0,1,.381-.077c.27.05.541.094.81.145a.139.139,0,0,0,.178-.088c.092-.189.192-.375.3-.557a.124.124,0,0,0-.017-.172c-.182-.2-.355-.407-.538-.606a.408.408,0,0,1-.118-.333,2.8,2.8,0,0,0,0-.444.365.365,0,0,1,.1-.287c.19-.216.371-.439.562-.655a.124.124,0,0,0,.008-.181c-.123-.182-.239-.369-.352-.558a.115.115,0,0,0-.15-.063c-.281.062-.562.124-.847.166a.52.52,0,0,1-.275-.057c-.137-.064-.258-.161-.4-.224a.411.411,0,0,1-.237-.25c-.1-.272-.2-.542-.3-.813-.022-.061-.048-.092-.124-.088-.216.012-.432.02-.648.019-.1,0-.143.024-.172.118-.081.267-.166.534-.268.795a.5.5,0,0,1-.186.207c-.135.092-.288.161-.428.248a.374.374,0,0,1-.293.056c-.3-.059-.593-.1-.889-.161a.107.107,0,0,0-.135.071c-.1.2-.2.39-.309.581a.122.122,0,0,0,.019.171c.195.206.389.413.57.631a.459.459,0,0,1,.093.247,3.228,3.228,0,0,1,0,.523.5.5,0,0,1-.093.26c-.18.229-.374.448-.568.666a.117.117,0,0,0-.017.17q.183.275.351.559a.125.125,0,0,0,.163.063c.259-.059.52-.106.779-.16a.435.435,0,0,1,.368.074c.122.088.267.145.391.231a.527.527,0,0,1,.188.2c.115.274.213.555.312.836a.112.112,0,0,0,.137.088C289.595,377.262,289.743,377.256,289.892,377.247Z" transform="translate(-286.14 -370.284)" fill="#634fc9"/><path d="M370.144,464.8a1.335,1.335,0,1,1,1.383-1.3A1.347,1.347,0,0,1,370.144,464.8Zm0-.524a.811.811,0,1,0-.834-.811A.827.827,0,0,0,370.142,464.276Z" transform="translate(-366.528 -459.72)" fill="#634fc9"/></g></g><text transform="translate(848 264)" fill="#634fc9" font-size="20" font-family="Arial-BoldMT, Arial" font-weight="700"><tspan x="0" y="0">App B</tspan></text><g transform="translate(672.5 316.5)"><path d="M12.075-23.5a20.984,20.984,0,0,0-7.917,1.436C2.007-21.157.5-19.832.5-18.211V-2.448C.5-.715,1.989.668,4.164,1.585A21.8,21.8,0,0,0,12.338,3a19.4,19.4,0,0,0,7.653-1.473C22.05.61,23.478-.7,23.478-2.242v-16.08c0-1.373-1.305-2.655-3.339-3.6A19.458,19.458,0,0,0,12.075-23.5Zm0,.662a18.717,18.717,0,0,1,7.708,1.495c1.893.885,2.935,2.025,2.935,3.021a2.8,2.8,0,0,1-.993,2.067,7.928,7.928,0,0,1-2.586,1.521,20.4,20.4,0,0,1-6.869,1.214,20.477,20.477,0,0,1-7.917-1.4c-1.979-.864-3.094-2.025-3.094-3.291S2.479-20.617,4.5-21.47A20.215,20.215,0,0,1,12.075-22.838Zm10.643,6.556V-12.8c0,1.251-1.262,2.4-3.26,3.233A19.713,19.713,0,0,1,12.2-8.231,20.562,20.562,0,0,1,4.52-9.566c-2.028-.864-3.26-2.056-3.26-3.524V-16.26a7.275,7.275,0,0,0,2.751,1.929,21.207,21.207,0,0,0,8.26,1.468,21.11,21.11,0,0,0,7.175-1.267,8.654,8.654,0,0,0,2.843-1.68A4.692,4.692,0,0,0,22.718-16.281ZM1.26-11.034A7.322,7.322,0,0,0,4.183-8.973a21.365,21.365,0,0,0,8.021,1.4,20.377,20.377,0,0,0,7.586-1.4,7.785,7.785,0,0,0,2.929-1.961v3.365c0,1.314-1.219,2.47-3.26,3.318A21.172,21.172,0,0,1,11.7-2.909,20.334,20.334,0,0,1,4.66-4.2,8.329,8.329,0,0,1,2.179-5.639,2.351,2.351,0,0,1,1.26-7.367Zm21.458,5.4v3.4c0,1.177-1.152,2.321-3.076,3.18a18.61,18.61,0,0,1-7.3,1.4A20.958,20.958,0,0,1,4.5.991C2.467.133,1.26-1.044,1.26-2.448V-5.565a4.612,4.612,0,0,0,.368.387A8.891,8.891,0,0,0,4.348-3.6,20.9,20.9,0,0,0,11.7-2.247a21.748,21.748,0,0,0,8.082-1.41A7.486,7.486,0,0,0,22.718-5.639Z" transform="translate(0 0)" fill="#634fc9" fill-rule="evenodd"/><g transform="translate(0.5 -23.5)"><path d="M11.575,0A20.984,20.984,0,0,0,3.658,1.436C1.507,2.343,0,3.668,0,5.289V21.052c0,1.733,1.489,3.116,3.664,4.033A21.8,21.8,0,0,0,11.838,26.5a19.4,19.4,0,0,0,7.653-1.473c2.059-.917,3.486-2.231,3.486-3.768V5.178c0-1.373-1.305-2.655-3.339-3.6A19.458,19.458,0,0,0,11.575,0Zm0,.662a18.717,18.717,0,0,1,7.708,1.495c1.893.885,2.935,2.025,2.935,3.021a2.8,2.8,0,0,1-.993,2.067,7.927,7.927,0,0,1-2.586,1.521A20.4,20.4,0,0,1,11.771,9.98a20.477,20.477,0,0,1-7.917-1.4C1.875,7.717.76,6.556.76,5.289S1.979,2.883,4,2.03A20.215,20.215,0,0,1,11.575.662ZM22.218,7.219V10.7c0,1.251-1.262,2.4-3.26,3.233A19.714,19.714,0,0,1,11.7,15.269,20.562,20.562,0,0,1,4.02,13.934C1.991,13.07.76,11.877.76,10.409V7.24A7.275,7.275,0,0,0,3.511,9.169a21.206,21.206,0,0,0,8.26,1.468A21.109,21.109,0,0,0,18.946,9.37a8.654,8.654,0,0,0,2.843-1.68A4.691,4.691,0,0,0,22.218,7.219ZM.76,12.466a7.322,7.322,0,0,0,2.923,2.062,21.365,21.365,0,0,0,8.021,1.4,20.377,20.377,0,0,0,7.586-1.4,7.785,7.785,0,0,0,2.929-1.961v3.365c0,1.314-1.219,2.47-3.26,3.318A21.172,21.172,0,0,1,11.2,20.591,20.335,20.335,0,0,1,4.16,19.3a8.329,8.329,0,0,1-2.482-1.442A2.351,2.351,0,0,1,.76,16.133Zm21.458,5.4v3.4c0,1.177-1.152,2.321-3.076,3.18a18.61,18.61,0,0,1-7.3,1.4A20.958,20.958,0,0,1,4,24.491C1.967,23.633.76,22.456.76,21.052V17.935a4.611,4.611,0,0,0,.368.387A8.891,8.891,0,0,0,3.848,19.9,20.9,20.9,0,0,0,11.2,21.253a21.748,21.748,0,0,0,8.082-1.41A7.486,7.486,0,0,0,22.218,17.861Z" fill="#634fc9" stroke="#634fc9" stroke-miterlimit="8" stroke-width="1.25"/></g></g><text transform="translate(706 316)" fill="#634fc9" font-size="20" font-family="Arial-BoldMT, Arial" font-weight="700"><tspan x="0" y="0">Volume A</tspan></text><g transform="translate(837.5 316.5)"><path d="M12.075-23.5a20.984,20.984,0,0,0-7.917,1.436C2.007-21.157.5-19.832.5-18.211V-2.448C.5-.715,1.989.668,4.164,1.585A21.8,21.8,0,0,0,12.338,3a19.4,19.4,0,0,0,7.653-1.473C22.05.61,23.478-.7,23.478-2.242v-16.08c0-1.373-1.305-2.655-3.339-3.6A19.458,19.458,0,0,0,12.075-23.5Zm0,.662a18.717,18.717,0,0,1,7.708,1.495c1.893.885,2.935,2.025,2.935,3.021a2.8,2.8,0,0,1-.993,2.067,7.928,7.928,0,0,1-2.586,1.521,20.4,20.4,0,0,1-6.869,1.214,20.477,20.477,0,0,1-7.917-1.4c-1.979-.864-3.094-2.025-3.094-3.291S2.479-20.617,4.5-21.47A20.215,20.215,0,0,1,12.075-22.838Zm10.643,6.556V-12.8c0,1.251-1.262,2.4-3.26,3.233A19.713,19.713,0,0,1,12.2-8.231,20.562,20.562,0,0,1,4.52-9.566c-2.028-.864-3.26-2.056-3.26-3.524V-16.26a7.275,7.275,0,0,0,2.751,1.929,21.207,21.207,0,0,0,8.26,1.468,21.11,21.11,0,0,0,7.175-1.267,8.654,8.654,0,0,0,2.843-1.68A4.692,4.692,0,0,0,22.718-16.281ZM1.26-11.034A7.322,7.322,0,0,0,4.183-8.973a21.365,21.365,0,0,0,8.021,1.4,20.377,20.377,0,0,0,7.586-1.4,7.785,7.785,0,0,0,2.929-1.961v3.365c0,1.314-1.219,2.47-3.26,3.318A21.172,21.172,0,0,1,11.7-2.909,20.334,20.334,0,0,1,4.66-4.2,8.329,8.329,0,0,1,2.179-5.639,2.351,2.351,0,0,1,1.26-7.367Zm21.458,5.4v3.4c0,1.177-1.152,2.321-3.076,3.18a18.61,18.61,0,0,1-7.3,1.4A20.958,20.958,0,0,1,4.5.991C2.467.133,1.26-1.044,1.26-2.448V-5.565a4.612,4.612,0,0,0,.368.387A8.891,8.891,0,0,0,4.348-3.6,20.9,20.9,0,0,0,11.7-2.247a21.748,21.748,0,0,0,8.082-1.41A7.486,7.486,0,0,0,22.718-5.639Z" transform="translate(0 0)" fill="#634fc9" fill-rule="evenodd"/><g transform="translate(0.5 -23.5)"><path d="M11.575,0A20.984,20.984,0,0,0,3.658,1.436C1.507,2.343,0,3.668,0,5.289V21.052c0,1.733,1.489,3.116,3.664,4.033A21.8,21.8,0,0,0,11.838,26.5a19.4,19.4,0,0,0,7.653-1.473c2.059-.917,3.486-2.231,3.486-3.768V5.178c0-1.373-1.305-2.655-3.339-3.6A19.458,19.458,0,0,0,11.575,0Zm0,.662a18.717,18.717,0,0,1,7.708,1.495c1.893.885,2.935,2.025,2.935,3.021a2.8,2.8,0,0,1-.993,2.067,7.927,7.927,0,0,1-2.586,1.521A20.4,20.4,0,0,1,11.771,9.98a20.477,20.477,0,0,1-7.917-1.4C1.875,7.717.76,6.556.76,5.289S1.979,2.883,4,2.03A20.215,20.215,0,0,1,11.575.662ZM22.218,7.219V10.7c0,1.251-1.262,2.4-3.26,3.233A19.714,19.714,0,0,1,11.7,15.269,20.562,20.562,0,0,1,4.02,13.934C1.991,13.07.76,11.877.76,10.409V7.24A7.275,7.275,0,0,0,3.511,9.169a21.206,21.206,0,0,0,8.26,1.468A21.109,21.109,0,0,0,18.946,9.37a8.654,8.654,0,0,0,2.843-1.68A4.691,4.691,0,0,0,22.218,7.219ZM.76,12.466a7.322,7.322,0,0,0,2.923,2.062,21.365,21.365,0,0,0,8.021,1.4,20.377,20.377,0,0,0,7.586-1.4,7.785,7.785,0,0,0,2.929-1.961v3.365c0,1.314-1.219,2.47-3.26,3.318A21.172,21.172,0,0,1,11.2,20.591,20.335,20.335,0,0,1,4.16,19.3a8.329,8.329,0,0,1-2.482-1.442A2.351,2.351,0,0,1,.76,16.133Zm21.458,5.4v3.4c0,1.177-1.152,2.321-3.076,3.18a18.61,18.61,0,0,1-7.3,1.4A20.958,20.958,0,0,1,4,24.491C1.967,23.633.76,22.456.76,21.052V17.935a4.611,4.611,0,0,0,.368.387A8.891,8.891,0,0,0,3.848,19.9,20.9,20.9,0,0,0,11.2,21.253a21.748,21.748,0,0,0,8.082-1.41A7.486,7.486,0,0,0,22.218,17.861Z" fill="#634fc9" stroke="#634fc9" stroke-miterlimit="8" stroke-width="1.25"/></g></g><text transform="translate(871 316)" fill="#634fc9" font-size="20" font-family="Arial-BoldMT, Arial" font-weight="700"><tspan x="0" y="0">Volume B</tspan></text><g transform="matrix(1, 0, 0, 1, 126, 196)" filter="url(#s)"><g transform="translate(510 240)" fill="none" stroke="#4fbcc9" stroke-width="2"><rect width="341" height="121" rx="40" stroke="none"/><rect x="1" y="1" width="339" height="119" rx="39" fill="none"/></g></g><g transform="translate(-66 3)"><g transform="translate(792.5 483.5)"><path d="M27.044-31.5v17.533H24.968v4.076h-4.86v1.769H.5v5.834H20.108V-.5H40.856V-2.289H60.5V-8.123H40.856V-9.891h-4.8v-4.076H33.944V-31.5Zm1.332,1.118h4.248v16.415H28.376ZM26.288-12.849h8.436v4.076h4.812v7.155H21.428V-8.773h4.86ZM1.832-7H20.108v3.588H1.832ZM40.856-7H59.168v3.588H40.856Z" fill="#4fbcc9" fill-rule="evenodd"/><g transform="translate(0.5 -31.5)"><path d="M26.544,0V17.533H24.468v4.076h-4.86v1.769H0v5.834H19.608V31H40.356V29.211H60V23.377H40.356V21.609h-4.8V17.533H33.444V0Zm1.332,1.118h4.248V17.533H27.876ZM25.788,18.651h8.436v4.076h4.812v7.155H20.928V22.727h4.86ZM1.332,24.5H19.608v3.588H1.332Zm39.024,0H58.668v3.588H40.356Z" fill="#4fbcc9" stroke="#4fbcc9" stroke-miterlimit="8" stroke-width="1"/></g></g><text transform="translate(873 479)" fill="#4fbcc9" font-size="20" font-family="Arial-BoldMT, Arial" font-weight="700"><tspan x="0" y="0">NVMeoF</tspan></text></g><g transform="translate(665 540)"><path d="M0-40V0H56V-23.775H51.027v-4.417H56V-40Zm1.971,1.994H9.61v4.484H13.1v-4.484H37.453v4.5h3.494v-4.5H54.029V-30.2H49.056v8.428h4.973V-1.994H40.97V-6.141H37.475v4.146H13.115V-6.118H9.621v4.124H1.971Zm46.178,1.059a1,1,0,0,0-1,1,1,1,0,0,0,1,1H52.2a1,1,0,0,0,.986-1,1,1,0,0,0-.986-1Zm0,4a1,1,0,0,0-1,1,1,1,0,0,0,1,1H52.2a1,1,0,0,0,.986-1,1,1,0,0,0-.986-1Zm-38.2,2.6a3.428,3.428,0,0,0-3.394,3.437V-12.62A3.428,3.428,0,0,0,9.946-9.183H40.533a3.431,3.431,0,0,0,3.4-3.437V-26.907a3.431,3.431,0,0,0-3.4-3.437Zm0,1.994H40.533a1.41,1.41,0,0,1,1.422,1.442V-12.62a1.4,1.4,0,0,1-1.422,1.442H9.946A1.4,1.4,0,0,1,8.523-12.62V-26.907A1.41,1.41,0,0,1,9.946-28.349ZM25.066-25.6a4.97,4.97,0,0,0-2.632.6A2.972,2.972,0,0,0,21-22.6a2.923,2.923,0,0,0,1.579,2.682,10.488,10.488,0,0,0,2.9.946,3.39,3.39,0,0,1,1.613.71,1.133,1.133,0,0,1,.28.868,1.286,1.286,0,0,1-.6,1,2.9,2.9,0,0,1-1.669.383h-.011a2.258,2.258,0,0,1-1.49-.439,2.322,2.322,0,0,1-.851-1.679l-2.128.248a4.312,4.312,0,0,0,1.546,3.008,4.752,4.752,0,0,0,2.923.789A5.2,5.2,0,0,0,28-14.772a3.267,3.267,0,0,0,1.5-2.715,2.879,2.879,0,0,0-.907-2.377,5.312,5.312,0,0,0-2.576-1.217,9.812,9.812,0,0,1-2.251-.642,1.04,1.04,0,0,1-.638-1.014.789.789,0,0,1,.482-.721,2.216,2.216,0,0,1,1.266-.327,2.466,2.466,0,0,1,1.49.316,1.855,1.855,0,0,1,.65,1.318l2.206-.169a3.375,3.375,0,0,0-1.266-2.513A5.1,5.1,0,0,0,25.066-25.6Zm-10.259.023a5.093,5.093,0,0,0-2.643.6,2.98,2.98,0,0,0-1.422,2.411,2.91,2.91,0,0,0,1.568,2.67,10.921,10.921,0,0,0,2.9.958,3.388,3.388,0,0,1,1.624.71,1.1,1.1,0,0,1,.269.856,1.272,1.272,0,0,1-.594,1,2.9,2.9,0,0,1-1.68.394h0a2.338,2.338,0,0,1-1.5-.451,2.316,2.316,0,0,1-.851-1.679l-2.128.248a4.354,4.354,0,0,0,1.546,3.008,4.838,4.838,0,0,0,2.923.8,5.179,5.179,0,0,0,2.912-.687,3.288,3.288,0,0,0,1.5-2.727,2.921,2.921,0,0,0-.9-2.377,5.5,5.5,0,0,0-2.587-1.217A9.812,9.812,0,0,1,13.5-21.7a1.045,1.045,0,0,1-.638-1.014.807.807,0,0,1,.482-.721,2.27,2.27,0,0,1,1.266-.327,2.527,2.527,0,0,1,1.49.316,1.929,1.929,0,0,1,.661,1.318l2.2-.158A3.346,3.346,0,0,0,17.7-24.8,5.02,5.02,0,0,0,14.806-25.577Zm16.565.169v11.132h4.8a3.921,3.921,0,0,0,3.17-1.465A5.487,5.487,0,0,0,40.6-19.628a6.489,6.489,0,0,0-1.21-4.237c-1.008-1.363-2.106-1.544-3.618-1.544Zm2.24,1.837h2.206a2.776,2.776,0,0,1,1.915.913c.571.789.56,1.4.56,2.918a4.24,4.24,0,0,1-.56,2.772,2.124,2.124,0,0,1-1.613.834H33.611Zm14.538,2.783a.992.992,0,0,0-1,.992,1,1,0,0,0,1,1H52.2a1,1,0,0,0,.986-1,.99.99,0,0,0-.986-.992Zm0,4.011a.992.992,0,0,0-1,.992,1,1,0,0,0,1,1H52.2a1,1,0,0,0,.986-1,.99.99,0,0,0-.986-.992Zm0,4.011a.992.992,0,0,0-1,.991,1,1,0,0,0,1,1H52.2a1,1,0,0,0,.986-1,.99.99,0,0,0-.986-.991Zm0,4.011a.992.992,0,0,0-1,.992,1,1,0,0,0,1,1H52.2a1,1,0,0,0,.986-1,.99.99,0,0,0-.986-.992Zm0,4.011a.992.992,0,0,0-1,.992,1,1,0,0,0,1,1H52.2a1,1,0,0,0,.986-1,.99.99,0,0,0-.986-.992Z" fill="#fff" fill-rule="evenodd"/></g><g transform="translate(741 540)"><path d="M0-40V0H56V-23.775H51.027v-4.417H56V-40Zm1.971,1.994H9.61v4.484H13.1v-4.484H37.453v4.5h3.494v-4.5H54.029V-30.2H49.056v8.428h4.973V-1.994H40.97V-6.141H37.475v4.146H13.115V-6.118H9.621v4.124H1.971Zm46.178,1.059a1,1,0,0,0-1,1,1,1,0,0,0,1,1H52.2a1,1,0,0,0,.986-1,1,1,0,0,0-.986-1Zm0,4a1,1,0,0,0-1,1,1,1,0,0,0,1,1H52.2a1,1,0,0,0,.986-1,1,1,0,0,0-.986-1Zm-38.2,2.6a3.428,3.428,0,0,0-3.394,3.437V-12.62A3.428,3.428,0,0,0,9.946-9.183H40.533a3.431,3.431,0,0,0,3.4-3.437V-26.907a3.431,3.431,0,0,0-3.4-3.437Zm0,1.994H40.533a1.41,1.41,0,0,1,1.422,1.442V-12.62a1.4,1.4,0,0,1-1.422,1.442H9.946A1.4,1.4,0,0,1,8.523-12.62V-26.907A1.41,1.41,0,0,1,9.946-28.349ZM25.066-25.6a4.97,4.97,0,0,0-2.632.6A2.972,2.972,0,0,0,21-22.6a2.923,2.923,0,0,0,1.579,2.682,10.488,10.488,0,0,0,2.9.946,3.39,3.39,0,0,1,1.613.71,1.133,1.133,0,0,1,.28.868,1.286,1.286,0,0,1-.6,1,2.9,2.9,0,0,1-1.669.383h-.011a2.258,2.258,0,0,1-1.49-.439,2.322,2.322,0,0,1-.851-1.679l-2.128.248a4.312,4.312,0,0,0,1.546,3.008,4.752,4.752,0,0,0,2.923.789A5.2,5.2,0,0,0,28-14.772a3.267,3.267,0,0,0,1.5-2.715,2.879,2.879,0,0,0-.907-2.377,5.312,5.312,0,0,0-2.576-1.217,9.812,9.812,0,0,1-2.251-.642,1.04,1.04,0,0,1-.638-1.014.789.789,0,0,1,.482-.721,2.216,2.216,0,0,1,1.266-.327,2.466,2.466,0,0,1,1.49.316,1.855,1.855,0,0,1,.65,1.318l2.206-.169a3.375,3.375,0,0,0-1.266-2.513A5.1,5.1,0,0,0,25.066-25.6Zm-10.259.023a5.093,5.093,0,0,0-2.643.6,2.98,2.98,0,0,0-1.422,2.411,2.91,2.91,0,0,0,1.568,2.67,10.921,10.921,0,0,0,2.9.958,3.388,3.388,0,0,1,1.624.71,1.1,1.1,0,0,1,.269.856,1.272,1.272,0,0,1-.594,1,2.9,2.9,0,0,1-1.68.394h0a2.338,2.338,0,0,1-1.5-.451,2.316,2.316,0,0,1-.851-1.679l-2.128.248a4.354,4.354,0,0,0,1.546,3.008,4.838,4.838,0,0,0,2.923.8,5.179,5.179,0,0,0,2.912-.687,3.288,3.288,0,0,0,1.5-2.727,2.921,2.921,0,0,0-.9-2.377,5.5,5.5,0,0,0-2.587-1.217A9.812,9.812,0,0,1,13.5-21.7a1.045,1.045,0,0,1-.638-1.014.807.807,0,0,1,.482-.721,2.27,2.27,0,0,1,1.266-.327,2.527,2.527,0,0,1,1.49.316,1.929,1.929,0,0,1,.661,1.318l2.2-.158A3.346,3.346,0,0,0,17.7-24.8,5.02,5.02,0,0,0,14.806-25.577Zm16.565.169v11.132h4.8a3.921,3.921,0,0,0,3.17-1.465A5.487,5.487,0,0,0,40.6-19.628a6.489,6.489,0,0,0-1.21-4.237c-1.008-1.363-2.106-1.544-3.618-1.544Zm2.24,1.837h2.206a2.776,2.776,0,0,1,1.915.913c.571.789.56,1.4.56,2.918a4.24,4.24,0,0,1-.56,2.772,2.124,2.124,0,0,1-1.613.834H33.611Zm14.538,2.783a.992.992,0,0,0-1,.992,1,1,0,0,0,1,1H52.2a1,1,0,0,0,.986-1,.99.99,0,0,0-.986-.992Zm0,4.011a.992.992,0,0,0-1,.992,1,1,0,0,0,1,1H52.2a1,1,0,0,0,.986-1,.99.99,0,0,0-.986-.992Zm0,4.011a.992.992,0,0,0-1,.991,1,1,0,0,0,1,1H52.2a1,1,0,0,0,.986-1,.99.99,0,0,0-.986-.991Zm0,4.011a.992.992,0,0,0-1,.992,1,1,0,0,0,1,1H52.2a1,1,0,0,0,.986-1,.99.99,0,0,0-.986-.992Zm0,4.011a.992.992,0,0,0-1,.992,1,1,0,0,0,1,1H52.2a1,1,0,0,0,.986-1,.99.99,0,0,0-.986-.992Z" fill="#fff" fill-rule="evenodd"/></g><g transform="translate(893 540)"><path d="M0-40V0H56V-23.775H51.027v-4.417H56V-40Zm1.971,1.994H9.61v4.484H13.1v-4.484H37.453v4.5h3.494v-4.5H54.029V-30.2H49.056v8.428h4.973V-1.994H40.97V-6.141H37.475v4.146H13.115V-6.118H9.621v4.124H1.971Zm46.178,1.059a1,1,0,0,0-1,1,1,1,0,0,0,1,1H52.2a1,1,0,0,0,.986-1,1,1,0,0,0-.986-1Zm0,4a1,1,0,0,0-1,1,1,1,0,0,0,1,1H52.2a1,1,0,0,0,.986-1,1,1,0,0,0-.986-1Zm-38.2,2.6a3.428,3.428,0,0,0-3.394,3.437V-12.62A3.428,3.428,0,0,0,9.946-9.183H40.533a3.431,3.431,0,0,0,3.4-3.437V-26.907a3.431,3.431,0,0,0-3.4-3.437Zm0,1.994H40.533a1.41,1.41,0,0,1,1.422,1.442V-12.62a1.4,1.4,0,0,1-1.422,1.442H9.946A1.4,1.4,0,0,1,8.523-12.62V-26.907A1.41,1.41,0,0,1,9.946-28.349ZM25.066-25.6a4.97,4.97,0,0,0-2.632.6A2.972,2.972,0,0,0,21-22.6a2.923,2.923,0,0,0,1.579,2.682,10.488,10.488,0,0,0,2.9.946,3.39,3.39,0,0,1,1.613.71,1.133,1.133,0,0,1,.28.868,1.286,1.286,0,0,1-.6,1,2.9,2.9,0,0,1-1.669.383h-.011a2.258,2.258,0,0,1-1.49-.439,2.322,2.322,0,0,1-.851-1.679l-2.128.248a4.312,4.312,0,0,0,1.546,3.008,4.752,4.752,0,0,0,2.923.789A5.2,5.2,0,0,0,28-14.772a3.267,3.267,0,0,0,1.5-2.715,2.879,2.879,0,0,0-.907-2.377,5.312,5.312,0,0,0-2.576-1.217,9.812,9.812,0,0,1-2.251-.642,1.04,1.04,0,0,1-.638-1.014.789.789,0,0,1,.482-.721,2.216,2.216,0,0,1,1.266-.327,2.466,2.466,0,0,1,1.49.316,1.855,1.855,0,0,1,.65,1.318l2.206-.169a3.375,3.375,0,0,0-1.266-2.513A5.1,5.1,0,0,0,25.066-25.6Zm-10.259.023a5.093,5.093,0,0,0-2.643.6,2.98,2.98,0,0,0-1.422,2.411,2.91,2.91,0,0,0,1.568,2.67,10.921,10.921,0,0,0,2.9.958,3.388,3.388,0,0,1,1.624.71,1.1,1.1,0,0,1,.269.856,1.272,1.272,0,0,1-.594,1,2.9,2.9,0,0,1-1.68.394h0a2.338,2.338,0,0,1-1.5-.451,2.316,2.316,0,0,1-.851-1.679l-2.128.248a4.354,4.354,0,0,0,1.546,3.008,4.838,4.838,0,0,0,2.923.8,5.179,5.179,0,0,0,2.912-.687,3.288,3.288,0,0,0,1.5-2.727,2.921,2.921,0,0,0-.9-2.377,5.5,5.5,0,0,0-2.587-1.217A9.812,9.812,0,0,1,13.5-21.7a1.045,1.045,0,0,1-.638-1.014.807.807,0,0,1,.482-.721,2.27,2.27,0,0,1,1.266-.327,2.527,2.527,0,0,1,1.49.316,1.929,1.929,0,0,1,.661,1.318l2.2-.158A3.346,3.346,0,0,0,17.7-24.8,5.02,5.02,0,0,0,14.806-25.577Zm16.565.169v11.132h4.8a3.921,3.921,0,0,0,3.17-1.465A5.487,5.487,0,0,0,40.6-19.628a6.489,6.489,0,0,0-1.21-4.237c-1.008-1.363-2.106-1.544-3.618-1.544Zm2.24,1.837h2.206a2.776,2.776,0,0,1,1.915.913c.571.789.56,1.4.56,2.918a4.24,4.24,0,0,1-.56,2.772,2.124,2.124,0,0,1-1.613.834H33.611Zm14.538,2.783a.992.992,0,0,0-1,.992,1,1,0,0,0,1,1H52.2a1,1,0,0,0,.986-1,.99.99,0,0,0-.986-.992Zm0,4.011a.992.992,0,0,0-1,.992,1,1,0,0,0,1,1H52.2a1,1,0,0,0,.986-1,.99.99,0,0,0-.986-.992Zm0,4.011a.992.992,0,0,0-1,.991,1,1,0,0,0,1,1H52.2a1,1,0,0,0,.986-1,.99.99,0,0,0-.986-.991Zm0,4.011a.992.992,0,0,0-1,.992,1,1,0,0,0,1,1H52.2a1,1,0,0,0,.986-1,.99.99,0,0,0-.986-.992Zm0,4.011a.992.992,0,0,0-1,.992,1,1,0,0,0,1,1H52.2a1,1,0,0,0,.986-1,.99.99,0,0,0-.986-.992Z" fill="#fff" fill-rule="evenodd"/></g><g transform="translate(817 540)"><path d="M0-40V0H56V-23.775H51.027v-4.417H56V-40Zm1.971,1.994H9.61v4.484H13.1v-4.484H37.453v4.5h3.494v-4.5H54.029V-30.2H49.056v8.428h4.973V-1.994H40.97V-6.141H37.475v4.146H13.115V-6.118H9.621v4.124H1.971Zm46.178,1.059a1,1,0,0,0-1,1,1,1,0,0,0,1,1H52.2a1,1,0,0,0,.986-1,1,1,0,0,0-.986-1Zm0,4a1,1,0,0,0-1,1,1,1,0,0,0,1,1H52.2a1,1,0,0,0,.986-1,1,1,0,0,0-.986-1Zm-38.2,2.6a3.428,3.428,0,0,0-3.394,3.437V-12.62A3.428,3.428,0,0,0,9.946-9.183H40.533a3.431,3.431,0,0,0,3.4-3.437V-26.907a3.431,3.431,0,0,0-3.4-3.437Zm0,1.994H40.533a1.41,1.41,0,0,1,1.422,1.442V-12.62a1.4,1.4,0,0,1-1.422,1.442H9.946A1.4,1.4,0,0,1,8.523-12.62V-26.907A1.41,1.41,0,0,1,9.946-28.349ZM25.066-25.6a4.97,4.97,0,0,0-2.632.6A2.972,2.972,0,0,0,21-22.6a2.923,2.923,0,0,0,1.579,2.682,10.488,10.488,0,0,0,2.9.946,3.39,3.39,0,0,1,1.613.71,1.133,1.133,0,0,1,.28.868,1.286,1.286,0,0,1-.6,1,2.9,2.9,0,0,1-1.669.383h-.011a2.258,2.258,0,0,1-1.49-.439,2.322,2.322,0,0,1-.851-1.679l-2.128.248a4.312,4.312,0,0,0,1.546,3.008,4.752,4.752,0,0,0,2.923.789A5.2,5.2,0,0,0,28-14.772a3.267,3.267,0,0,0,1.5-2.715,2.879,2.879,0,0,0-.907-2.377,5.312,5.312,0,0,0-2.576-1.217,9.812,9.812,0,0,1-2.251-.642,1.04,1.04,0,0,1-.638-1.014.789.789,0,0,1,.482-.721,2.216,2.216,0,0,1,1.266-.327,2.466,2.466,0,0,1,1.49.316,1.855,1.855,0,0,1,.65,1.318l2.206-.169a3.375,3.375,0,0,0-1.266-2.513A5.1,5.1,0,0,0,25.066-25.6Zm-10.259.023a5.093,5.093,0,0,0-2.643.6,2.98,2.98,0,0,0-1.422,2.411,2.91,2.91,0,0,0,1.568,2.67,10.921,10.921,0,0,0,2.9.958,3.388,3.388,0,0,1,1.624.71,1.1,1.1,0,0,1,.269.856,1.272,1.272,0,0,1-.594,1,2.9,2.9,0,0,1-1.68.394h0a2.338,2.338,0,0,1-1.5-.451,2.316,2.316,0,0,1-.851-1.679l-2.128.248a4.354,4.354,0,0,0,1.546,3.008,4.838,4.838,0,0,0,2.923.8,5.179,5.179,0,0,0,2.912-.687,3.288,3.288,0,0,0,1.5-2.727,2.921,2.921,0,0,0-.9-2.377,5.5,5.5,0,0,0-2.587-1.217A9.812,9.812,0,0,1,13.5-21.7a1.045,1.045,0,0,1-.638-1.014.807.807,0,0,1,.482-.721,2.27,2.27,0,0,1,1.266-.327,2.527,2.527,0,0,1,1.49.316,1.929,1.929,0,0,1,.661,1.318l2.2-.158A3.346,3.346,0,0,0,17.7-24.8,5.02,5.02,0,0,0,14.806-25.577Zm16.565.169v11.132h4.8a3.921,3.921,0,0,0,3.17-1.465A5.487,5.487,0,0,0,40.6-19.628a6.489,6.489,0,0,0-1.21-4.237c-1.008-1.363-2.106-1.544-3.618-1.544Zm2.24,1.837h2.206a2.776,2.776,0,0,1,1.915.913c.571.789.56,1.4.56,2.918a4.24,4.24,0,0,1-.56,2.772,2.124,2.124,0,0,1-1.613.834H33.611Zm14.538,2.783a.992.992,0,0,0-1,.992,1,1,0,0,0,1,1H52.2a1,1,0,0,0,.986-1,.99.99,0,0,0-.986-.992Zm0,4.011a.992.992,0,0,0-1,.992,1,1,0,0,0,1,1H52.2a1,1,0,0,0,.986-1,.99.99,0,0,0-.986-.992Zm0,4.011a.992.992,0,0,0-1,.991,1,1,0,0,0,1,1H52.2a1,1,0,0,0,.986-1,.99.99,0,0,0-.986-.991Zm0,4.011a.992.992,0,0,0-1,.992,1,1,0,0,0,1,1H52.2a1,1,0,0,0,.986-1,.99.99,0,0,0-.986-.992Zm0,4.011a.992.992,0,0,0-1,.992,1,1,0,0,0,1,1H52.2a1,1,0,0,0,.986-1,.99.99,0,0,0-.986-.992Z" fill="#fff" fill-rule="evenodd"/></g><line y2="38" transform="translate(654.5 268.5)" fill="none" stroke="#634fc9" stroke-width="2"/><line x1="19" transform="translate(653.5 306.5)" fill="none" stroke="#634fc9" stroke-width="2"/><g transform="translate(166)"><line y2="38" transform="translate(654.5 268.5)" fill="none" stroke="#634fc9" stroke-width="2"/><line x1="19" transform="translate(653.5 306.5)" fill="none" stroke="#634fc9" stroke-width="2"/></g><g transform="matrix(1, 0, 0, 1, 126, 196)" filter="url(#u)"><line y2="96" transform="translate(792.5 342.5)" fill="none" stroke="#fff" stroke-width="2"/></g><g transform="matrix(1, 0, 0, 1, 126, 196)" filter="url(#w)"><path d="M0,0V97" transform="translate(717.5 342.5)" fill="none" stroke="#fff" stroke-width="2"/></g><g transform="matrix(1, 0, 0, 1, 126, 196)" filter="url(#y)"><line y2="242" transform="translate(351.5 156.5)" fill="none" stroke="#fff" stroke-width="2"/></g><g transform="matrix(1, 0, 0, 1, 126, 196)" filter="url(#aa)"><path d="M0,26.415V0" transform="translate(421.5 412.09)" fill="none" stroke="#fff" stroke-width="2"/></g><g transform="matrix(1, 0, 0, 1, 126, 196)" filter="url(#ac)"><path d="M0,0H144.829" transform="translate(420.5 412.5)" fill="none" stroke="#fff" stroke-width="2"/></g><g transform="matrix(1, 0, 0, 1, 126, 196)" filter="url(#ae)"><path d="M0,71.337V0" transform="translate(564.5 342.09)" fill="none" stroke="#fff" stroke-width="2"/></g><g transform="translate(67 108.143)"><g transform="matrix(1, 0, 0, 1, 59, 87.86)" filter="url(#ag)"><line y1="12" transform="translate(488.5 426.5)" fill="none" stroke="#fff" stroke-width="2"/></g><g transform="matrix(1, 0, 0, 1, 59, 87.86)" filter="url(#ai)"><path d="M0,0H152.216" transform="translate(487.5 426.64)" fill="none" stroke="#fff" stroke-width="2"/></g><g transform="matrix(1, 0, 0, 1, 59, 87.86)" filter="url(#ak)"><line y2="84" transform="translate(639.5 343.5)" fill="none" stroke="#fff" stroke-width="2"/></g></g><g transform="translate(319 -296)"><g transform="translate(-353 283)"><g transform="translate(708.113 380)"><rect width="16.94" height="10.695" rx="5.347" transform="translate(19.604 30.299) rotate(-90)" fill="url(#am)"/><rect width="29.759" height="10.695" rx="5.347" transform="translate(0.07 30.299) rotate(-90)" fill="url(#am)"/><rect width="17.697" height="10.695" rx="5.347" transform="translate(0 19.986)" fill="url(#am)"/><rect width="30.369" height="10.695" rx="5.347" fill="url(#am)"/><rect width="10.695" height="10.695" rx="5.347" transform="translate(19.675 19.986)" fill="url(#am)"/></g><text transform="translate(749 402)" fill="#53a4d4" font-size="20" font-family="Arial-BoldMT, Arial" font-weight="700"><tspan x="0" y="0">GRAID SupremeRAID</tspan></text></g><g transform="matrix(1, 0, 0, 1, -193, 492)" filter="url(#ar)"><g transform="translate(510 156)" fill="none" stroke="#53a4d4" stroke-width="6"><rect width="341" height="60" stroke="none"/><rect x="3" y="3" width="335" height="54" fill="none"/></g></g></g><g transform="matrix(1, 0, 0, 1, 126, 196)" filter="url(#at)"><line y2="242" transform="translate(118.5 156.5)" fill="none" stroke="#fff" stroke-width="2"/></g></g></svg>