<svg xmlns="http://www.w3.org/2000/svg" xmlns:xlink="http://www.w3.org/1999/xlink" viewBox="0 0 194.09 50.26"><defs><style>.cls-1{fill:url(#GRAID_Main_Theme);}.cls-2{fill:url(#GRAID_Main_Theme-2);}.cls-3{fill:url(#GRAID_Main_Theme-3);}.cls-4{fill:url(#GRAID_Main_Theme-4);}.cls-5{fill:url(#GRAID_Main_Theme-5);}.cls-6{fill:url(#GRAID_Main_Theme-6);}.cls-7{fill:url(#GRAID_Main_Theme-7);}.cls-8{fill:url(#GRAID_Main_Theme-8);}.cls-9{fill:url(#GRAID_Main_Theme-9);}.cls-10{fill:url(#GRAID_Main_Theme-10);}</style><linearGradient id="GRAID_Main_Theme" x1="557.87" y1="-48.81" x2="586.86" y2="-48.81" gradientTransform="translate(-531.44 84.32)" gradientUnits="userSpaceOnUse"><stop offset="0" stop-color="#444b97"/><stop offset="0.02" stop-color="#43519c"/><stop offset="0.14" stop-color="#3d6cb1"/><stop offset="0.25" stop-color="#387fc0"/><stop offset="0.37" stop-color="#368ac9"/><stop offset="0.5" stop-color="#358ecc"/><stop offset="1" stop-color="#6ac6bb"/></linearGradient><linearGradient id="GRAID_Main_Theme-2" x1="558.12" y1="-80.97" x2="607.87" y2="-80.97" gradientTransform="translate(-574.24 105.84)" xlink:href="#GRAID_Main_Theme"/><linearGradient id="GRAID_Main_Theme-3" x1="0" y1="41.5" x2="28.99" y2="41.5" gradientTransform="matrix(1, 0, 0, 1, 0, 0)" xlink:href="#GRAID_Main_Theme"/><linearGradient id="GRAID_Main_Theme-4" x1="0" y1="8.76" x2="49.75" y2="8.76" gradientTransform="matrix(1, 0, 0, 1, 0, 0)" xlink:href="#GRAID_Main_Theme"/><linearGradient id="GRAID_Main_Theme-5" x1="32.23" y1="41.5" x2="49.75" y2="41.5" gradientTransform="matrix(1, 0, 0, 1, 0, 0)" xlink:href="#GRAID_Main_Theme"/><linearGradient id="GRAID_Main_Theme-6" x1="339.21" y1="879.87" x2="339.21" y2="879.22" gradientTransform="matrix(44.56, 0, 0, -53.44, -15043.58, 47032.53)" xlink:href="#GRAID_Main_Theme"/><linearGradient id="GRAID_Main_Theme-7" x1="338.54" y1="879.91" x2="338.54" y2="879.26" gradientTransform="matrix(42.83, 0, 0, -51.66, -14394.82, 45467.55)" xlink:href="#GRAID_Main_Theme"/><linearGradient id="GRAID_Main_Theme-8" x1="338.96" y1="879.91" x2="338.96" y2="879.26" gradientTransform="matrix(47.8, 0, 0, -51.66, -16065.09, 45467.55)" xlink:href="#GRAID_Main_Theme"/><linearGradient id="GRAID_Main_Theme-9" x1="311.1" y1="879.91" x2="311.1" y2="879.26" gradientTransform="matrix(9.62, 0, 0, -51.66, -2833.87, 45467.55)" xlink:href="#GRAID_Main_Theme"/><linearGradient id="GRAID_Main_Theme-10" x1="337.07" y1="879.91" x2="337.07" y2="879.26" gradientTransform="matrix(39.95, 0, 0, -51.7, -13284.76, 45500.25)" xlink:href="#GRAID_Main_Theme"/></defs><g id="Layer_2" data-name="Layer 2"><g id="Layer_1-2" data-name="Layer 1"><rect class="cls-1" x="26.43" y="26.75" width="28.99" height="17.52" rx="8.76" transform="translate(5.41 76.43) rotate(-90)"/><rect class="cls-2" x="-16.11" y="16.11" width="49.75" height="17.52" rx="8.76" transform="translate(-16.11 33.64) rotate(-90)"/><rect class="cls-3" y="32.74" width="28.99" height="17.52" rx="8.76"/><rect class="cls-4" width="49.75" height="17.52" rx="8.76"/><rect class="cls-5" x="32.23" y="32.74" width="17.52" height="17.52" rx="8.76"/><path id="Path_221" data-name="Path 221" class="cls-6" d="M71.73,30.06V24.34H85.51V37.85a17,17,0,0,1-5.82,3.66A19.86,19.86,0,0,1,72,43.1a16.42,16.42,0,0,1-8.66-2.23,13.85,13.85,0,0,1-5.55-6.39,21.94,21.94,0,0,1-1.86-9A20.64,20.64,0,0,1,58,16,14.48,14.48,0,0,1,64,9.72,15.45,15.45,0,0,1,71.62,8q5.91,0,9.21,2.65A12.11,12.11,0,0,1,85.1,18l-6.35,1.27a7.17,7.17,0,0,0-2.52-3.94,7.25,7.25,0,0,0-4.61-1.44A8.39,8.39,0,0,0,65,16.73q-2.47,2.85-2.47,8.44,0,6,2.5,9.06a8.12,8.12,0,0,0,6.57,3,10.5,10.5,0,0,0,4-.84,13.57,13.57,0,0,0,3.46-2v-4.3Z"/><path id="Path_222" data-name="Path 222" class="cls-7" d="M91.43,42.52V8.61h13.45a21.92,21.92,0,0,1,7.38.91,7.45,7.45,0,0,1,3.68,3.26,10.22,10.22,0,0,1,1.38,5.34,9.43,9.43,0,0,1-2.09,6.3A9.81,9.81,0,0,1,109,27.55a15.4,15.4,0,0,1,3.43,2.85A38.83,38.83,0,0,1,116,35.91l3.87,6.61h-7.65l-4.62-7.38a46.29,46.29,0,0,0-3.37-5,4.8,4.8,0,0,0-1.92-1.41,9.72,9.72,0,0,0-3.22-.39H97.82V42.52ZM97.82,23h4.73a23.34,23.34,0,0,0,5.74-.41,3.51,3.51,0,0,0,1.8-1.44,4.63,4.63,0,0,0,.64-2.54,4.26,4.26,0,0,0-.85-2.77,3.88,3.88,0,0,0-2.41-1.33c-.51-.07-2.07-.11-4.66-.11h-5Z"/><path id="Path_223" data-name="Path 223" class="cls-8" d="M151.89,42.52h-6.95l-2.77-7.7H129.52l-2.61,7.7h-6.78L132.46,8.61h6.76ZM140.12,29.11l-4.36-12.59-4.28,12.59Z"/><path id="Path_224" data-name="Path 224" class="cls-9" d="M155.09,42.52V8.61h6.39V42.52Z"/><path id="Path_225" data-name="Path 225" class="cls-10" d="M167.55,8.61h11.68a21.39,21.39,0,0,1,6,.65A10.45,10.45,0,0,1,190,12.38a15.21,15.21,0,0,1,3,5.5,26.76,26.76,0,0,1,1,8,23.53,23.53,0,0,1-1,7.22,15.12,15.12,0,0,1-3.38,6,11.06,11.06,0,0,1-4.5,2.71,18,18,0,0,1-5.65.71h-12Zm6.39,5.74V36.81h4.77a15.71,15.71,0,0,0,3.87-.33,5.69,5.69,0,0,0,2.58-1.41,7.3,7.3,0,0,0,1.67-3.27,23.59,23.59,0,0,0,.65-6.21,21.57,21.57,0,0,0-.65-6A7.86,7.86,0,0,0,185,16.27a5.94,5.94,0,0,0-3-1.6,26.37,26.37,0,0,0-5.25-.32Z"/></g></g></svg>