<svg xmlns="http://www.w3.org/2000/svg" xmlns:xlink="http://www.w3.org/1999/xlink" width="200" height="199.9" viewBox="0 0 200 199.9"><defs><filter id="a" x="77.018" y="45.531" width="90.223" height="110.25" filterUnits="userSpaceOnUse"><feOffset input="SourceAlpha"/><feGaussianBlur stdDeviation="4" result="b"/><feFlood flood-color="#53a4d4"/><feComposite operator="in" in2="b"/><feComposite in="SourceGraphic"/></filter></defs><g transform="translate(-784 -363)"><path d="M812.729,455.558c11.839,1.83,12.377,2.475,14.315,19.48,2.8,2.152,6.888,3.982,6.781,5.381-.431,4.735-4.843,2.583-7.749,3.013-1.184.215-2.476.108-4.52.323,0,4.735.323,9.363-.108,13.883-.215,1.83-2.045,3.444-3.229,5.166-1.076-1.722-2.8-3.444-2.906-5.273-.431-4.413-.108-8.825-.108-13.668H803.366c0,4.843.323,9.578-.108,14.314-.108,1.614-2.045,3.013-3.229,4.52-1.076-1.614-2.8-3.013-3.014-4.735-.43-4.628-.108-9.256-.108-14.529-2.8,0-5.166.431-7.319-.108-1.937-.43-3.659-1.83-5.489-2.906,1.722-1.184,3.336-2.368,5.059-3.444a5.666,5.666,0,0,1,1.937-.43c2.153-18.726,2.368-19.157,14.207-20.879,1.292-6.888,2.045-13.883,3.982-20.556,11.409-40.251,49.94-67.695,90.624-64.9,43.482,3.013,77.6,34.87,83.3,77.7A88.7,88.7,0,0,1,932.2,540.15c-35.087,16.251-77.062,7.856-102.893-20.664-.753-.753-1.83-1.507-2.045-2.475a20.016,20.016,0,0,1-.108-4.413,22.814,22.814,0,0,1,4.736.43c.861.215,1.507,1.507,2.26,2.26,24.109,25.722,60.6,33.686,92.669,20.125,31.966-13.453,51.985-45.094,50.693-80.286-1.614-43.479-39.069-78.887-83.09-78.672C850.83,376.779,813.806,412.294,812.729,455.558ZM796.8,476.545h24.647c-1.292-4.843-1.507-11.838-3.875-12.7a26.7,26.7,0,0,0-16.9-.108C798.307,464.706,798.2,471.594,796.8,476.545Z" transform="translate(0 4)" fill="#fff"/><g transform="matrix(1, 0, 0, 1, 784, 363)" filter="url(#a)"><path d="M853.7,406.9c22.129,14.406,43.762,28.532,66.223,43.125-22.3,14.5-44.01,28.719-66.223,43.125Zm4.89,76.614C876,472.2,892.654,461.25,909.977,450.025c-17.405-11.319-34.147-22.264-51.387-33.49Z" transform="translate(-764.68 -349.37)" fill="#53a4d4"/></g><path d="M795.9,469c1.3-4.6,1.4-11.1,3.6-11.9a24.128,24.128,0,0,1,15.7.1c2.2.8,2.3,7.2,3.6,11.8Z" transform="translate(0 7.109)" fill="none"/><path d="M859.6,488.8V417.2c20.8,12,41,23.7,62,35.8C900.7,465.1,880.6,476.7,859.6,488.8Z" transform="translate(8.646 6.336)" fill="none"/><rect width="199.9" height="199.9" transform="translate(784 363)" fill="none"/></g></svg>