<svg xmlns="http://www.w3.org/2000/svg" xmlns:xlink="http://www.w3.org/1999/xlink" width="200" height="200" viewBox="0 0 200 200"><defs><filter id="a" x="91.932" y="32.478" width="76.007" height="76.006" filterUnits="userSpaceOnUse"><feOffset input="SourceAlpha"/><feGaussianBlur stdDeviation="4" result="b"/><feFlood flood-color="#53a4d4"/><feComposite operator="in" in2="b"/><feComposite in="SourceGraphic"/></filter><filter id="c" x="80" y="80" width="39" height="39" filterUnits="userSpaceOnUse"><feOffset input="SourceAlpha"/><feGaussianBlur stdDeviation="4" result="d"/><feFlood flood-color="#53a4d4"/><feComposite operator="in" in2="d"/><feComposite in="SourceGraphic"/></filter></defs><g transform="translate(-1094 -1603)"><g transform="translate(-42.222)"><path d="M100,200a100.738,100.738,0,0,1-20.154-2.032,99.451,99.451,0,0,1-35.757-15.047,100.292,100.292,0,0,1-36.23-44,99.5,99.5,0,0,1-5.827-18.771,100.975,100.975,0,0,1,0-40.307A99.451,99.451,0,0,1,17.078,44.089a100.292,100.292,0,0,1,44-36.23A99.5,99.5,0,0,1,79.846,2.032a100.975,100.975,0,0,1,40.307,0,99.451,99.451,0,0,1,35.757,15.047,100.292,100.292,0,0,1,36.23,44,99.5,99.5,0,0,1,5.827,18.771,100.975,100.975,0,0,1,0,40.307,99.451,99.451,0,0,1-15.047,35.757,100.292,100.292,0,0,1-44,36.23,99.5,99.5,0,0,1-18.771,5.827A100.738,100.738,0,0,1,100,200Zm.136-192.864A93.686,93.686,0,0,0,81.393,9.026,92.49,92.49,0,0,0,48.139,23.019,93.272,93.272,0,0,0,14.445,63.936,92.534,92.534,0,0,0,9.026,81.393a93.907,93.907,0,0,0,0,37.486,92.491,92.491,0,0,0,13.994,33.255,93.271,93.271,0,0,0,40.917,33.695,92.533,92.533,0,0,0,17.457,5.419,93.908,93.908,0,0,0,37.486,0,92.492,92.492,0,0,0,33.255-13.994,93.272,93.272,0,0,0,33.695-40.917,92.534,92.534,0,0,0,5.419-17.457,93.908,93.908,0,0,0,0-37.486,92.491,92.491,0,0,0-13.994-33.254,93.272,93.272,0,0,0-40.917-33.694,92.535,92.535,0,0,0-17.457-5.419A93.689,93.689,0,0,0,100.136,7.136Z" transform="translate(1136.222 1603)" fill="#fff"/><g transform="matrix(1, 0, 0, 1, 1136.22, 1603)" filter="url(#a)"><path d="M8.472,0l6.782,58.169L0,58.294Z" transform="translate(145.15 44.48) rotate(45)" fill="#53a4d4"/></g><g transform="matrix(1, 0, 0, 1, 1136.22, 1603)" filter="url(#c)"><circle cx="7.5" cy="7.5" r="7.5" transform="translate(92 92)" fill="#53a4d4"/></g></g><rect width="200" height="200" transform="translate(1094 1603)" fill="none"/><path d="M3,0,6,60H0Z" transform="translate(1134 1745) rotate(-90)" fill="#fff"/><path d="M3,0,6,80H0Z" transform="translate(1114 1761) rotate(-90)" fill="#fff"/><path d="M3,0,6,100H0Z" transform="translate(1094 1777) rotate(-90)" fill="#fff"/></g></svg>