<svg xmlns="http://www.w3.org/2000/svg" xmlns:xlink="http://www.w3.org/1999/xlink" width="200" height="200" viewBox="0 0 200 200"><defs><filter id="a" x="80.478" y="23.495" width="69.154" height="127.363" filterUnits="userSpaceOnUse"><feOffset input="SourceAlpha"/><feGaussianBlur stdDeviation="4" result="b"/><feFlood flood-color="#53a4d4"/><feComposite operator="in" in2="b"/><feComposite in="SourceGraphic"/></filter></defs><g transform="translate(56.571 45.952)"><g transform="translate(-52.733 -44.248)"><path d="M61.729,44.433c0-4.345,0-8.359,0-12.373q0-7.179-.005-14.359a4.4,4.4,0,0,1,1.924-4.053,3.908,3.908,0,0,1,4.222-.256,4.091,4.091,0,0,1,2.262,3.834q0,17.074,0,34.147v7.745c-.47.026-.891.07-1.31.071q-19.788.005-39.576,0a10.991,10.991,0,0,1-1.681-.115,4.082,4.082,0,0,1-3.558-4.413,4.024,4.024,0,0,1,4.038-3.844c4.906-.053,9.813-.027,14.72-.028q6.033,0,12.066.005c.306,0,.613-.026,1-.043C33.533,27.41-9.281,15.433-47.742,36.429-89.625,59.294-104.5,110.073-84.864,151.537c20.328,42.931,69.8,60.92,112.529,43.768,23.94-9.61,40.621-26.81,49.561-51.02,8.909-24.127,6.908-47.876-3.992-71.151l7.245-3.685C97.091,100.6,97.122,150.882,59.185,185.421c-37,33.683-95.471,32.622-131.411-2.207A96.739,96.739,0,0,1-79.378,51.806,94.648,94.648,0,0,1-36.359,22.334a95.228,95.228,0,0,1,51.937-2.793A95.9,95.9,0,0,1,61.729,44.433Z" transform="translate(101.733 -12.888)" fill="#fff"/><g transform="matrix(1, 0, 0, 1, -3.84, -1.7)" filter="url(#a)"><path d="M308.117,250.324l-6.034,5.946c-.212-.184-.518-.423-.792-.694q-13.49-13.386-26.962-26.789a1.885,1.885,0,0,0-1.793-.6,8.447,8.447,0,0,1-8.953-5.2,8.125,8.125,0,0,1,2.849-9.769,1.839,1.839,0,0,0,.784-1.707q-.02-28.528-.011-57.056v-1.55h8.477c0,3.154,0,6.239,0,9.325q0,24.728.021,49.456a2.11,2.11,0,0,0,.723,1.447,8.668,8.668,0,0,1,3.412,7.956,2.183,2.183,0,0,0,.487,1.543q13.487,13.474,27.037,26.886C307.619,249.774,307.856,250.045,308.117,250.324Z" transform="translate(-170.48 -117.41)" fill="#53a4d4"/></g></g><rect width="200" height="200" transform="translate(-56.571 -45.952)" fill="none"/></g></svg>