<svg xmlns="http://www.w3.org/2000/svg" width="5.669" height="5.669" viewBox="0 0 5.669 5.669">
  <g id="icon-phone" transform="translate(-475 -1374)">
    <path id="Icon_awesome-phone-alt" data-name="Icon awesome-phone-alt" d="M220.4,297.241l-1.24-.531a.266.266,0,0,0-.31.076l-.549.671a4.107,4.107,0,0,1-1.963-1.962l.672-.549a.264.264,0,0,0,.076-.31l-.531-1.24a.268.268,0,0,0-.3-.154l-1.151.266a.265.265,0,0,0-.206.259,5.136,5.136,0,0,0,5.136,5.137h0a.264.264,0,0,0,.259-.206l.266-1.151a.268.268,0,0,0-.155-.306Z" transform="translate(260.106 1080.765)" fill="#fff"/>
  </g>
</svg>
