<svg xmlns="http://www.w3.org/2000/svg" xmlns:xlink="http://www.w3.org/1999/xlink" width="223.011" height="224.5" viewBox="0 0 223.011 224.5"><defs><filter id="a" x="158.011" y="0" width="64" height="29" filterUnits="userSpaceOnUse"><feOffset input="SourceAlpha"/><feGaussianBlur stdDeviation="4" result="b"/><feFlood flood-color="#53a4d4"/><feComposite operator="in" in2="b"/><feComposite in="SourceGraphic"/></filter><filter id="c" x="193.511" y="0.5" width="29" height="64" filterUnits="userSpaceOnUse"><feOffset input="SourceAlpha"/><feGaussianBlur stdDeviation="4" result="d"/><feFlood flood-color="#53a4d4"/><feComposite operator="in" in2="d"/><feComposite in="SourceGraphic"/></filter><filter id="e" x="144.011" y="15" width="64" height="29" filterUnits="userSpaceOnUse"><feOffset input="SourceAlpha"/><feGaussianBlur stdDeviation="4" result="f"/><feFlood flood-color="#53a4d4"/><feComposite operator="in" in2="f"/><feComposite in="SourceGraphic"/></filter><filter id="g" x="179.511" y="15.5" width="29" height="64" filterUnits="userSpaceOnUse"><feOffset input="SourceAlpha"/><feGaussianBlur stdDeviation="4" result="h"/><feFlood flood-color="#53a4d4"/><feComposite operator="in" in2="h"/><feComposite in="SourceGraphic"/></filter><filter id="i" x="194.011" y="158.5" width="29" height="64" filterUnits="userSpaceOnUse"><feOffset input="SourceAlpha"/><feGaussianBlur stdDeviation="4" result="j"/><feFlood flood-color="#53a4d4"/><feComposite operator="in" in2="j"/><feComposite in="SourceGraphic"/></filter><filter id="k" x="158.511" y="194" width="64" height="29" filterUnits="userSpaceOnUse"><feOffset input="SourceAlpha"/><feGaussianBlur stdDeviation="4" result="l"/><feFlood flood-color="#53a4d4"/><feComposite operator="in" in2="l"/><feComposite in="SourceGraphic"/></filter><filter id="m" x="179.011" y="144.5" width="29" height="64" filterUnits="userSpaceOnUse"><feOffset input="SourceAlpha"/><feGaussianBlur stdDeviation="4" result="n"/><feFlood flood-color="#53a4d4"/><feComposite operator="in" in2="n"/><feComposite in="SourceGraphic"/></filter><filter id="o" x="143.511" y="180" width="64" height="29" filterUnits="userSpaceOnUse"><feOffset input="SourceAlpha"/><feGaussianBlur stdDeviation="4" result="p"/><feFlood flood-color="#53a4d4"/><feComposite operator="in" in2="p"/><feComposite in="SourceGraphic"/></filter><filter id="q" x="0.5" y="195.5" width="64" height="29" filterUnits="userSpaceOnUse"><feOffset input="SourceAlpha"/><feGaussianBlur stdDeviation="4" result="r"/><feFlood flood-color="#53a4d4"/><feComposite operator="in" in2="r"/><feComposite in="SourceGraphic"/></filter><filter id="s" x="0" y="160" width="29" height="64" filterUnits="userSpaceOnUse"><feOffset input="SourceAlpha"/><feGaussianBlur stdDeviation="4" result="t"/><feFlood flood-color="#53a4d4"/><feComposite operator="in" in2="t"/><feComposite in="SourceGraphic"/></filter><filter id="u" x="14.5" y="180.5" width="64" height="29" filterUnits="userSpaceOnUse"><feOffset input="SourceAlpha"/><feGaussianBlur stdDeviation="4" result="v"/><feFlood flood-color="#53a4d4"/><feComposite operator="in" in2="v"/><feComposite in="SourceGraphic"/></filter><filter id="w" x="14" y="145" width="29" height="64" filterUnits="userSpaceOnUse"><feOffset input="SourceAlpha"/><feGaussianBlur stdDeviation="4" result="x"/><feFlood flood-color="#53a4d4"/><feComposite operator="in" in2="x"/><feComposite in="SourceGraphic"/></filter><filter id="y" x="0.5" y="1" width="29" height="64" filterUnits="userSpaceOnUse"><feOffset input="SourceAlpha"/><feGaussianBlur stdDeviation="4" result="z"/><feFlood flood-color="#53a4d4"/><feComposite operator="in" in2="z"/><feComposite in="SourceGraphic"/></filter><filter id="aa" x="1" y="0.5" width="64" height="29" filterUnits="userSpaceOnUse"><feOffset input="SourceAlpha"/><feGaussianBlur stdDeviation="4" result="ab"/><feFlood flood-color="#53a4d4"/><feComposite operator="in" in2="ab"/><feComposite in="SourceGraphic"/></filter><filter id="ac" x="15.5" y="15" width="29" height="64" filterUnits="userSpaceOnUse"><feOffset input="SourceAlpha"/><feGaussianBlur stdDeviation="4" result="ad"/><feFlood flood-color="#53a4d4"/><feComposite operator="in" in2="ad"/><feComposite in="SourceGraphic"/></filter><filter id="ae" x="16" y="14.5" width="64" height="29" filterUnits="userSpaceOnUse"><feOffset input="SourceAlpha"/><feGaussianBlur stdDeviation="4" result="af"/><feFlood flood-color="#53a4d4"/><feComposite operator="in" in2="af"/><feComposite in="SourceGraphic"/></filter></defs><g transform="translate(-1067.5 -305.003)"><path d="M1224.217,402.172c-1.332,1.657-2.141,3.1-3.334,4.078q-20.427,16.67-40.956,33.217-1.582,1.282-3.168,2.56c-2.75,2.206-4.315,2.232-7.035.034q-16.015-12.949-32.011-25.921c-4.163-3.37-8.344-6.718-12.482-10.119-2.993-2.46-3.017-5.327-.039-7.745q22.314-18.116,44.668-36.185c2.528-2.044,4.346-1.965,6.877.088q21.971,17.82,43.923,35.664C1221.953,398.9,1222.838,400.467,1224.217,402.172Zm-8.753,0c-13.081-10.594-29.295-22.917-42.238-33.4-12.993,10.526-29.065,22.839-42.1,33.4,13.118,10.624,29.193,23.495,42.1,33.949C1186.2,425.607,1202.38,412.774,1215.464,402.172Z" transform="translate(5.143 1.424)" fill="#fff"/><path d="M1163.186,465.36q9.961-8.3,19.827-16.523,9.553-7.964,19.1-15.932a3.463,3.463,0,0,1,4.143-.506,2.842,2.842,0,0,1,1.634,3.272,6.031,6.031,0,0,1-1.831,2.891c-9.483,8-19.027,15.928-28.557,23.873q-5.773,4.814-11.553,9.618c-2.139,1.777-3.537,1.759-5.7-.044q-20.065-16.732-40.1-33.5a5.93,5.93,0,0,1-1.784-2.908,2.854,2.854,0,0,1,1.712-3.235,3.268,3.268,0,0,1,3.842.374q4.971,4.1,9.911,8.233,14.157,11.8,28.312,23.608C1162.457,464.843,1162.8,465.071,1163.186,465.36Z" transform="translate(15.447 -3.259)" fill="#fff"/><path d="M1213.114,403.011l-38.893,31.515-38.9-31.509,38.9-31.511Z" transform="translate(-3.793 -3.425)" fill="none"/><rect width="198.511" height="198.5" transform="translate(1079.5 317.003)" fill="none"/><g transform="translate(1223.511 317.503)"><g transform="matrix(1, 0, 0, 1, -156.01, -12.5)" filter="url(#a)"><line x2="40" transform="translate(170.01 14.5)" fill="none" stroke="#53a4d4" stroke-width="5"/></g><g transform="matrix(1, 0, 0, 1, -156.01, -12.5)" filter="url(#c)"><line y2="40" transform="translate(208.01 12.5)" fill="none" stroke="#53a4d4" stroke-width="5"/></g><g transform="matrix(1, 0, 0, 1, -156.01, -12.5)" filter="url(#e)"><line x2="40" transform="translate(156.01 29.5)" fill="none" stroke="#53a4d4" stroke-width="5"/></g><g transform="matrix(1, 0, 0, 1, -156.01, -12.5)" filter="url(#g)"><line y2="40" transform="translate(194.01 27.5)" fill="none" stroke="#53a4d4" stroke-width="5"/></g></g><g transform="translate(1278.011 461.503) rotate(90)"><g transform="matrix(0, -1, 1, 0, -156.5, 210.51)" filter="url(#i)"><line x2="40" transform="translate(208.51 170.5) rotate(90)" fill="none" stroke="#53a4d4" stroke-width="5"/></g><g transform="matrix(0, -1, 1, 0, -156.5, 210.51)" filter="url(#k)"><line y2="40" transform="translate(210.51 208.5) rotate(90)" fill="none" stroke="#53a4d4" stroke-width="5"/></g><g transform="matrix(0, -1, 1, 0, -156.5, 210.51)" filter="url(#m)"><line x2="40" transform="translate(193.51 156.5) rotate(90)" fill="none" stroke="#53a4d4" stroke-width="5"/></g><g transform="matrix(0, -1, 1, 0, -156.5, 210.51)" filter="url(#o)"><line y2="40" transform="translate(195.51 194.5) rotate(90)" fill="none" stroke="#53a4d4" stroke-width="5"/></g></g><g transform="translate(1134 517.003) rotate(180)"><g transform="matrix(-1, 0, 0, -1, 66.5, 212)" filter="url(#q)"><line x2="40" transform="translate(52.5 210) rotate(180)" fill="none" stroke="#53a4d4" stroke-width="5"/></g><g transform="matrix(-1, 0, 0, -1, 66.5, 212)" filter="url(#s)"><line y2="40" transform="translate(14.5 212) rotate(180)" fill="none" stroke="#53a4d4" stroke-width="5"/></g><g transform="matrix(-1, 0, 0, -1, 66.5, 212)" filter="url(#u)"><line x2="40" transform="translate(66.5 195) rotate(180)" fill="none" stroke="#53a4d4" stroke-width="5"/></g><g transform="matrix(-1, 0, 0, -1, 66.5, 212)" filter="url(#w)"><line y2="40" transform="translate(28.5 197) rotate(180)" fill="none" stroke="#53a4d4" stroke-width="5"/></g></g><g transform="translate(1080.5 372.003) rotate(-90)"><g transform="matrix(0, 1, -1, 0, 67, -13)" filter="url(#y)"><line x2="40" transform="translate(15 53) rotate(-90)" fill="none" stroke="#53a4d4" stroke-width="5"/></g><g transform="matrix(0, 1, -1, 0, 67, -13)" filter="url(#aa)"><line y2="40" transform="translate(13 15) rotate(-90)" fill="none" stroke="#53a4d4" stroke-width="5"/></g><g transform="matrix(0, 1, -1, 0, 67, -13)" filter="url(#ac)"><line x2="40" transform="translate(30 67) rotate(-90)" fill="none" stroke="#53a4d4" stroke-width="5"/></g><g transform="matrix(0, 1, -1, 0, 67, -13)" filter="url(#ae)"><line y2="40" transform="translate(28 29) rotate(-90)" fill="none" stroke="#53a4d4" stroke-width="5"/></g></g></g></svg>