<svg xmlns="http://www.w3.org/2000/svg" width="200" height="160" viewBox="0 0 200 160">
  <g id="icon-download" transform="translate(-2271.927 -1364.5)">
    <g id="Path_440" data-name="Path 440" transform="translate(2272 1379.136)" fill="#fff">
      <path d="M 184.7868957519531 144.8639831542969 C 183.7281188964844 144.864013671875 182.6298675537109 144.8501129150391 181.4671173095703 144.8354187011719 C 180.2081604003906 144.8194885253906 178.9063415527344 144.8030395507812 177.5474700927734 144.8030395507812 L 26.01724243164062 144.8030395507812 C 24.68861770629883 144.8030395507812 23.36471748352051 144.8189697265625 22.08439254760742 144.8343658447266 C 20.81751823425293 144.849609375 19.62089347839355 144.8639831542969 18.43199348449707 144.8639831542969 C 12.94409275054932 144.8639831542969 8.65449333190918 144.5296936035156 5.557268142700195 142.8981475830078 C 3.899942874908447 142.0250854492188 2.690492868423462 140.8290863037109 1.859792947769165 139.2417602539062 C 0.9408929347991943 137.4859161376953 0.4942179620265961 135.2853393554688 0.4942179620265961 132.5143127441406 L 0.4942179620265961 26.64379119873047 C 0.4942179620265961 25.00506591796875 0.4726179540157318 23.59811592102051 0.453542947769165 22.35676574707031 C 0.3954429626464844 18.5727653503418 0.3634429574012756 16.48834037780762 1.132393002510071 15.70749092102051 C 1.568092942237854 15.26504039764404 2.380017995834351 15.09264087677002 4.028217792510986 15.09264087677002 C 4.75704288482666 15.09264087677002 5.628218173980713 15.12406539916992 6.636942863464355 15.16044044494629 C 7.96453332901001 15.20829296112061 9.591218948364258 15.26695251464844 11.52331829071045 15.27585983276367 L 11.52331829071045 132.5143127441406 L 11.52331829071045 133.0143127441406 L 12.02331829071045 133.0143127441406 L 187.3328704833984 133.0143127441406 L 187.8328704833984 133.0143127441406 L 187.8328704833984 132.5143127441406 L 187.8328704833984 15.27585601806641 C 189.7540435791016 15.26698112487793 191.3903350830078 15.20887660980225 192.7257690429688 15.1614408493042 C 193.7652740478516 15.12454032897949 194.6630249023438 15.09264087677002 195.4218902587891 15.09264087677002 C 197.2255249023438 15.09264087677002 198.0800476074219 15.2778902053833 198.5747985839844 15.77616596221924 C 199.4643859863281 16.67211532592773 199.4481964111328 18.95234107971191 199.4159240722656 23.49511528015137 C 199.4092864990234 24.42946624755859 199.4017639160156 25.48849105834961 199.4017639160156 26.64379119873047 L 199.4017639160156 132.5143127441406 C 199.4017639160156 135.337646484375 199.0751953125 137.5549468994141 198.4033355712891 139.2929382324219 C 197.7864379882812 140.8888397216797 196.8730926513672 142.0769653320312 195.6111450195312 142.9251708984375 C 193.2092132568359 144.5395660400391 189.6886749267578 144.8639373779297 184.7868957519531 144.8639831542969 Z" stroke="none"/>
      <path d="M 4.0281982421875 15.5926513671875 C 2.550125122070312 15.5926513671875 1.814361572265625 15.72756958007812 1.4886474609375 16.05830383300781 C 0.8665618896484375 16.68998718261719 0.8992767333984375 18.82009887695312 0.9534912109375 22.34915161132812 C 0.972564697265625 23.59226989746094 0.99420166015625 25.00125122070312 0.99420166015625 26.64378356933594 L 0.99420166015625 132.5142974853516 C 0.99420166015625 137.5731201171875 2.518203735351562 140.7320709228516 5.790328979492188 142.4557495117188 C 8.796783447265625 144.0394897460938 13.01835632324219 144.3639831542969 18.43203735351562 144.3639831542969 C 19.61790466308594 144.3639831542969 20.81309509277344 144.3496246337891 22.07843017578125 144.3344116210938 C 23.36019897460938 144.3189849853516 24.68562316894531 144.3030395507812 26.01725769042969 144.3030395507812 L 177.5474548339844 144.3030395507812 C 178.9098510742188 144.3030395507812 180.2135925292969 144.3195190429688 181.4743804931641 144.3354644775391 C 182.6351470947266 144.3501129150391 183.7315368652344 144.3639831542969 184.7868499755859 144.3639831542969 C 189.594482421875 144.3639831542969 193.0355377197266 144.0538787841797 195.3321990966797 142.5102233886719 C 196.5061950683594 141.7211151123047 197.3582305908203 140.6097564697266 197.9369659423828 139.1126403808594 C 198.5861663818359 137.4331970214844 198.9017486572266 135.2748565673828 198.9017486572266 132.5142974853516 L 198.9017486572266 26.64378356933594 C 198.9017486572266 25.48672485351562 198.9092712402344 24.42677307128906 198.9159393310547 23.49162292480469 C 198.9452209472656 19.36648559570312 198.9629058837891 16.8765869140625 198.2199401855469 16.12835693359375 C 197.842041015625 15.74777221679688 197.0314025878906 15.59255981445312 195.4219055175781 15.5926513671875 C 194.6721496582031 15.59266662597656 193.7789154052734 15.62440490722656 192.7445983886719 15.66111755371094 C 191.5220184326172 15.70452880859375 190.0480499267578 15.75688171386719 188.3328552246094 15.77244567871094 L 188.3328552246094 132.5142974853516 L 188.3328552246094 133.5142974853516 L 187.3328552246094 133.5142974853516 L 12.02330017089844 133.5142974853516 L 11.02330017089844 133.5142974853516 L 11.02330017089844 132.5142974853516 L 11.02330017089844 15.77244567871094 C 9.30059814453125 15.75680541992188 7.834686279296875 15.70394897460938 6.618911743164062 15.66009521484375 C 5.615020751953125 15.6239013671875 4.748016357421875 15.5926513671875 4.0281982421875 15.5926513671875 M 4.028213500976562 14.5926513671875 C 5.818923950195312 14.5926513671875 8.37689208984375 14.77700805664062 12.02330017089844 14.77700805664062 L 12.02330017089844 132.5142974853516 L 187.3328552246094 132.5142974853516 L 187.3328552246094 14.77700805664062 C 190.9784393310547 14.77700805664062 193.5753631591797 14.59272766113281 195.4218597412109 14.5926513671875 C 200.5333099365234 14.59245300292969 199.9017486572266 16.00387573242188 199.9017486572266 26.64378356933594 L 199.9017486572266 132.5142974853516 C 199.9017486572266 144.2503662109375 194.2421112060547 145.3639984130859 184.786865234375 145.3639984130859 C 182.5733184814453 145.3639984130859 180.1533508300781 145.3030395507812 177.5474548339844 145.3030395507812 L 26.01725769042969 145.3030395507812 C 23.41218566894531 145.3030395507812 20.85882568359375 145.3639984130859 18.43203735351562 145.3639984130859 C 8.061721801757812 145.3639984130859 -0.00579833984375 144.2512512207031 -0.00579833984375 132.5142974853516 L -0.00579833984375 26.64378356933594 C -0.00579833984375 16.0047607421875 -0.9272308349609375 14.5926513671875 4.028213500976562 14.5926513671875 Z" stroke="none" fill="#707070"/>
    </g>
    <path id="Path_441" data-name="Path 441" d="M0,0,23.679,24.965,43.3,45.651" transform="translate(2331.414 1428.605)" fill="none" stroke="#fff" stroke-width="10"/>
    <line id="Line_96" data-name="Line 96" x1="43.298" y2="45.651" transform="translate(2368.263 1428.605)" fill="none" stroke="#fff" stroke-width="10"/>
    <line id="Line_97" data-name="Line 97" y2="107.813" transform="translate(2371.948 1364.5)" fill="none" stroke="#fff" stroke-width="10"/>
  </g>
</svg>
