<svg xmlns="http://www.w3.org/2000/svg" width="125.958" height="107.986" viewBox="0 0 125.958 107.986">
  <g id="icon-online-demos" transform="translate(-1115.013 183.594)">
    <path id="Path_355" data-name="Path 355" d="M1115.013-101.091v-62.345c.023-.4.066-.807.067-1.211.017-5.334.066-10.669.009-16a2.388,2.388,0,0,1,1.281-2.29,3.9,3.9,0,0,1,1.37-.447,11.326,11.326,0,0,1,1.667-.069c7.6-.051,15.21-.143,22.815-.139q46.789.03,93.578.112c.857,0,1.717,0,2.569.068a2.705,2.705,0,0,1,2.519,2.741c.03,12.532.088,25.065.082,37.6q-.011,22.879-.11,45.758a10.987,10.987,0,0,1-.09,1.537,2.135,2.135,0,0,1-1.9,1.889c-1.384.127-2.777.22-4.167.223q-26.447.049-52.9.065h-.868v12.075h.877q19.506.053,39.012.116a30.735,30.735,0,0,1,3.2.263,1.766,1.766,0,0,1,1.529,1.1,3.084,3.084,0,0,1-.841,3.853,2.2,2.2,0,0,1-1.557.585q-22.56-.029-45.119-.015-22.656,0-45.312,0a1.657,1.657,0,0,1-.8-.121,3.836,3.836,0,0,1-1.857-2.582,2.567,2.567,0,0,1,1.91-2.827,8.644,8.644,0,0,1,1.146-.14c2.2-.079,4.409-.2,6.614-.2q17.257-.039,34.514-.029h.822V-93.6h-.8q-23.459-.011-46.918-.028c-3,0-6-.066-9-.135-2.472-.057-3.166-.792-3.21-3.287-.018-1.05-.028-2.1-.053-3.149C1115.088-100.5,1115.041-100.8,1115.013-101.091Zm12.058-4.328h.953q41.708-.021,83.417-.047c4.905,0,9.81-.072,14.715-.1a3.721,3.721,0,0,0,2.323-1.217c.551-.45.46-1.011.46-1.578q0-29.946.026-59.892a3.11,3.11,0,0,0-1.1-2.672,2.323,2.323,0,0,0-1.626-.662q-47.782.026-95.564-.016a3.579,3.579,0,0,0-3.159,1.327,1.687,1.687,0,0,0-.453,1.126q.016,31.488.01,62.977Z" fill="#fff"/>
    <path id="Path_357" data-name="Path 357" d="M1208.656-24.257v-.76q0-31.488-.01-62.977a1.687,1.687,0,0,1,.453-1.126,3.579,3.579,0,0,1,3.159-1.327q47.782.06,95.563.016a2.323,2.323,0,0,1,1.626.662,3.11,3.11,0,0,1,1.1,2.672q-.051,29.946-.026,59.892c0,.567.091,1.128-.46,1.578a3.721,3.721,0,0,1-2.323,1.217c-4.905.032-9.81.1-14.715.1q-41.708.036-83.417.047Zm78.936-22.326c.451.834.875,1.622,1.3,2.408q3.324,6.118,6.652,12.233a2.556,2.556,0,0,0,2.663,1.287,2.933,2.933,0,0,0,2.23-4.1c-1.922-3.531-3.706-7.137-5.53-10.721-.562-1.1-1.074-2.235-1.606-3.355a.67.67,0,0,1,.354-1.035c.558-.268,1.08-.61,1.619-.917,2.6-1.483,5.209-2.955,7.8-4.452a2.392,2.392,0,0,0,1.147-2.642,4.053,4.053,0,0,0-1.77-2.5q-8.187-6.835-16.379-13.665c-3.758-3.117-7.554-6.188-11.323-9.292a3.16,3.16,0,0,0-3.479-.524,2.647,2.647,0,0,0-1.4,3.089c.156,1.145.249,2.3.379,3.447q.8,7.018,1.6,14.036.791,6.792,1.62,13.58c.232,1.912.427,3.832.763,5.726a2.779,2.779,0,0,0,4.151,2.188c1.667-.774,3.291-1.643,4.921-2.494C1284.73-45.022,1286.13-45.8,1287.592-46.583Zm-42.654-1.7v-.055c-4.261,0-8.521-.013-12.782.006-1.9.008-3.809.084-5.714.125a2.564,2.564,0,0,0-2.594,1.721,2.857,2.857,0,0,0,2.528,3.918c1.067.073,2.138.13,3.208.132q13.488.025,26.976.019,3.049,0,6.1-.159a2.812,2.812,0,0,0,2.714-3.583,2.8,2.8,0,0,0-2.642-2.122Q1253.834-48.289,1244.938-48.282Zm-3.355-6.23v.037c3.235,0,6.471.034,9.705-.012,2.053-.029,4.106-.157,6.156-.283a1.759,1.759,0,0,0,1.554-.873c1.278-2.308.011-4.611-2.627-4.645q-9.928-.125-19.857-.159c-3.255-.008-6.511.1-9.767.152a3.181,3.181,0,0,0-2.638,1.335c-.97,1.279-.338,4.185,1.8,4.229,1.09.023,2.177.2,3.267.207C1233.313-54.5,1237.448-54.513,1241.583-54.513ZM1238.636-72.3c-3.961,0-7.924.035-11.884-.024a2.854,2.854,0,0,0-2.355.972,3.305,3.305,0,0,0-.365,3.414,2.936,2.936,0,0,0,2.515,1.438q11.948-.092,23.9-.006a2.874,2.874,0,0,0,2.346-.991,3.33,3.33,0,0,0,.323-3.421,2.923,2.923,0,0,0-2.529-1.417C1246.6-72.244,1242.619-72.3,1238.636-72.3Z" transform="translate(-81.586 -81.163)" fill="none"/>
    <path id="Polygon_1" data-name="Polygon 1" d="M11.74,3.259a2,2,0,0,1,3.52,0L25.407,22.05A2,2,0,0,1,23.647,25H3.353a2,2,0,0,1-1.76-2.95Z" transform="translate(1190.513 -152.508) rotate(90)" fill="#fff"/>
    <g id="Rectangle_134" data-name="Rectangle 134" transform="translate(1146.013 -162.008)" fill="none" stroke="#fff" stroke-width="3">
      <rect width="64" height="46" rx="11" stroke="none"/>
      <rect x="1.5" y="1.5" width="61" height="43" rx="9.5" fill="none"/>
    </g>
  </g>
</svg>
