<svg xmlns="http://www.w3.org/2000/svg" width="113.038" height="123.788" viewBox="0 0 113.038 123.788">
  <g id="icon-contact-sales" transform="translate(-518.863 163.664)">
    <g id="Group_237" data-name="Group 237" transform="translate(518.863 -163.664)">
      <g id="Group_236" data-name="Group 236" transform="translate(0 0)">
        <path id="Path_364" data-name="Path 364" d="M610.245-6.714l7.949,2.739.037.307c-1.73,1.083-3.483,2.133-5.184,3.261a3.931,3.931,0,0,1-3.621.444,54.262,54.262,0,0,0-21.756-1.913C575.1-.467,564.095,4.364,555.213,13.54A39.67,39.67,0,0,0,544.192,35.33c-.231,1.462-.313,2.951-.41,4.432a3.331,3.331,0,0,1-3.417,3.31,3.293,3.293,0,0,1-3.163-3.546,44.738,44.738,0,0,1,8.5-24.778A54.541,54.541,0,0,1,570.221-4.277c1.133-.463,2.287-.878,3.447-1.269s2.338-.722,3.548-1.091c-11.911-7.328-18.237-17.827-17.707-31.91a32.627,32.627,0,0,1,11.972-24.272A34.144,34.144,0,0,1,620.64-57.95a32.947,32.947,0,0,1,6.65,28.022C625.2-19.637,619.279-12.017,610.245-6.714ZM565.991-36.819A27.7,27.7,0,0,0,593.568-9.108a27.678,27.678,0,0,0,27.848-27.643A27.7,27.7,0,0,0,593.778-64.47,27.718,27.718,0,0,0,565.991-36.819Z" transform="translate(-537.2 80.711)" fill="#fff"/>
        <path id="Path_365" data-name="Path 365" d="M629.765-135.942a41.892,41.892,0,0,0-40.931,33.255,40.775,40.775,0,0,0,.386,18.7,1.277,1.277,0,0,1-.46,1.516,4.617,4.617,0,0,1-6.689-.542A10.989,10.989,0,0,1,579.424-89a13.86,13.86,0,0,1,1.492-9.1,6.1,6.1,0,0,1,3.977-3.265c.183-.042.388-.371.428-.594A41.188,41.188,0,0,1,588.6-112.6c7.192-14.926,18.914-23.937,35.379-26.194A44.669,44.669,0,0,1,669-116.507a42.574,42.574,0,0,1,5.18,14.276,1.448,1.448,0,0,0,.978,1.267,6.049,6.049,0,0,1,3.019,3.062,13.93,13.93,0,0,1-.14,13.3,5.6,5.6,0,0,1-4.619,3.316c-.183.015-.412.383-.49.629A43.15,43.15,0,0,1,669.158-72,45.085,45.085,0,0,1,645.1-51.683a1.515,1.515,0,0,0-1.015.938,3.236,3.236,0,0,1-4.372,1.682,3.247,3.247,0,0,1-1.559-4.361,3.211,3.211,0,0,1,4.426-1.5,1.488,1.488,0,0,0,1.377.082c12.351-4.715,20.9-13.239,25.342-25.69a41.633,41.633,0,0,0-19.975-50.566A41.983,41.983,0,0,0,629.765-135.942Z" transform="translate(-573.284 139.217)" fill="#fff"/>
        <path id="Path_366" data-name="Path 366" d="M1115.84,432.771l4.065-3.035c.076-.056.151-.114.224-.173,1.437-1.17,1.437-1.169,2.972-.2a52.136,52.136,0,0,1,18.218,18.861,44.786,44.786,0,0,1,5.694,20.284,3.286,3.286,0,0,1-3.023,3.592,3.252,3.252,0,0,1-3.514-3.183,39.726,39.726,0,0,0-3.3-14.232,43.779,43.779,0,0,0-15.374-18.258c-1.716-1.2-3.567-2.2-5.356-3.288Z" transform="translate(-1033.98 -348.322)" fill="#fff"/>
        <path id="Path_367" data-name="Path 367" d="M740.713,3.236a27.712,27.712,0,0,1,55.425.067,27.713,27.713,0,0,1-55.425-.067Z" transform="translate(-711.921 40.656)" fill="none"/>
      </g>
    </g>
  </g>
</svg>
