<svg xmlns="http://www.w3.org/2000/svg" xmlns:xlink="http://www.w3.org/1999/xlink" width="207.905" height="211.588" viewBox="0 0 207.905 211.588"><defs><filter id="a" x="108.752" y="102.126" width="99.153" height="109.462" filterUnits="userSpaceOnUse"><feOffset input="SourceAlpha"/><feGaussianBlur stdDeviation="4" result="b"/><feFlood flood-color="#53a4d4"/><feComposite operator="in" in2="b"/><feComposite in="SourceGraphic"/></filter><filter id="c" x="132.06" y="129.633" width="52.688" height="54.464" filterUnits="userSpaceOnUse"><feOffset input="SourceAlpha"/><feGaussianBlur stdDeviation="4" result="d"/><feFlood flood-color="#53a4d4"/><feComposite operator="in" in2="d"/><feComposite in="SourceGraphic"/></filter></defs><g transform="translate(-25.429 -177.136)"><path d="M41.429,193.323c.139-.285.312.393.412.1,1.6-4.752,4.94-7.195,10.217-7.242,7.4-.066,14.805-.032,22.207-.033q47.016,0,94.031,0c16.872,0,33.745-.041,50.616.074a13.784,13.784,0,0,1,6.076,1.446c3.49,1.833,4.889,5,4.882,8.783q-.04,23.613-.018,47.227c0,6.659.018,55.594.018,62.421h-6.154V231.228H47.521c0,34.594-.006,73.51,0,108.1a6.169,6.169,0,0,0,1.42,3.576c.861.845,2.882.633,4.234.633,25.41,0,73.654,0,99.063,0,.717,0,.769,6.335,0,6.336-25.275.016-73.789-.1-99.063,0-6.02.024-9.779-2.555-11.746-7.814ZM223.717,225.06c.076-.528.04-19.409,0-28.613-.008-1.973-1.566-5.076-3.911-5.076-55.286,0-111.346,0-166.632,0-2.728,0-5.65,3.509-5.654,6.078-.012,8.633-.012,18.978,0,27.611C47.522,225.8,47.477,224.509,223.717,225.06Z" transform="translate(-16 -9)" fill="#fff"/><path d="M87.494,237.08a4.99,4.99,0,0,1-.12-9.979,4.99,4.99,0,1,1,.12,9.979Z" transform="translate(-36.003 -32.557)" fill="#fff"/><path d="M87.494,237.08a4.99,4.99,0,0,1-.12-9.979,4.99,4.99,0,1,1,.12,9.979Z" transform="translate(-16.003 -32.557)" fill="#fff"/><path d="M87.494,237.08a4.99,4.99,0,0,1-.12-9.979,4.99,4.99,0,1,1,.12,9.979Z" transform="translate(3.997 -32.557)" fill="#fff"/><g transform="translate(146.181 291.262)"><g transform="matrix(1, 0, 0, 1, -120.75, -114.13)" filter="url(#a)"><path d="M351,441.693c-2.666-.5-5.718-1.027-8.745-1.679a3.954,3.954,0,0,0-2.769.515,7.191,7.191,0,0,0-4,5.3,58.5,58.5,0,0,1-1.956,5.9c-.938,2.7-2.628,3.975-5.323,4q-4.433.035-8.866,0c-2.711-.023-4.384-1.273-5.325-3.989s-1.77-5.454-2.771-8.132a6.171,6.171,0,0,0-1.516-1.955c-2.089-2.121-4.534-1.813-7.062-1.161-1.727.445-3.491.733-5.242,1.066-2.666.507-4.638-.5-6-3.027-1.465-2.722-2.951-5.431-4.384-8.171a5.85,5.85,0,0,1,.595-7.04c1.655-2.165,3.307-4.335,5.026-6.443a4.982,4.982,0,0,0,1.016-2.959,7.38,7.38,0,0,0-2.045-6.029c-1.469-1.6-2.72-3.424-4.057-5.158a5.89,5.89,0,0,1-.573-6.917q2.208-4.161,4.464-8.294c1.35-2.472,3.2-3.4,5.9-2.925,2.771.49,5.526,1.091,8.3,1.53a4.421,4.421,0,0,0,2.064-.407c2.706-.994,3.853-3.3,4.547-6.054.458-1.82,1.138-3.577,1.736-5.356a5.258,5.258,0,0,1,5.322-4.008q4.363-.025,8.726-.008a5.27,5.27,0,0,1,5.243,3.924c.916,2.661,1.813,5.331,2.65,8.02a5.042,5.042,0,0,0,1.856,2.419c2.021,1.714,4.105,1.67,6.425,1.063,2-.523,4.047-.822,6.081-1.178a4.767,4.767,0,0,1,5.293,2.52c1.732,3.015,3.376,6.09,4.955,9.2a5.624,5.624,0,0,1-.63,6.279c-1.763,2.329-3.617,4.582-5.342,6.941a5.235,5.235,0,0,0-.808,2.262,7.67,7.67,0,0,0,2.14,6.719,60.2,60.2,0,0,1,4.092,5.317,5.844,5.844,0,0,1,.489,6.557c-1.455,2.841-2.995,5.633-4.519,8.433A5.332,5.332,0,0,1,351,441.693Zm-25.842,8.042,0,.06a12.434,12.434,0,0,1,1.827.016c1.18.177,1.706-.3,2.042-1.542.8-2.96,1.7-5.9,2.73-8.774a5.36,5.36,0,0,1,1.838-2.25c1.292-.973,2.817-1.6,4.078-2.611a4.438,4.438,0,0,1,3.961-.875c2.805.572,5.624,1.069,8.428,1.649a1.424,1.424,0,0,0,1.855-1c.952-2.159,2-4.273,3.094-6.357a1.508,1.508,0,0,0-.179-1.964c-1.895-2.275-3.691-4.642-5.592-6.91a4.935,4.935,0,0,1-1.228-3.8,35.01,35.01,0,0,0-.005-5.07,4.415,4.415,0,0,1,1.02-3.272c1.973-2.467,3.861-5.01,5.841-7.469a1.507,1.507,0,0,0,.085-2.064c-1.282-2.079-2.488-4.213-3.658-6.366a1.163,1.163,0,0,0-1.558-.715c-2.92.712-5.849,1.409-8.806,1.9a5,5,0,0,1-2.864-.652c-1.426-.73-2.681-1.84-4.111-2.559a4.532,4.532,0,0,1-2.46-2.854c-1-3.1-2.074-6.179-3.087-9.278-.228-.7-.5-1.055-1.291-1.005-2.245.14-4.5.232-6.744.221a1.54,1.54,0,0,0-1.785,1.347c-.842,3.051-1.726,6.1-2.782,9.07a5.576,5.576,0,0,1-1.935,2.357c-1.409,1.054-3,1.835-4.447,2.833a3.609,3.609,0,0,1-3.042.639c-3.07-.676-6.171-1.2-9.249-1.835-.758-.157-1.086.127-1.4.809-1.033,2.229-2.094,4.446-3.215,6.627a1.485,1.485,0,0,0,.2,1.949c2.026,2.351,4.041,4.718,5.924,7.2a5.556,5.556,0,0,1,.962,2.813,40.406,40.406,0,0,1-.008,5.965,6.121,6.121,0,0,1-.967,2.966c-1.874,2.612-3.893,5.109-5.907,7.6a1.428,1.428,0,0,0-.172,1.937q1.907,3.132,3.654,6.373a1.255,1.255,0,0,0,1.7.723c2.689-.669,5.4-1.212,8.105-1.829a4.207,4.207,0,0,1,3.827.845c1.266,1,2.781,1.654,4.067,2.635a5.844,5.844,0,0,1,1.957,2.331c1.194,3.129,2.21,6.337,3.24,9.534.259.8.627,1.088,1.427,1C322.072,449.909,323.618,449.843,325.161,449.735Z" transform="translate(-165.39 -256.16)" fill="#53a4d4"/></g><g transform="matrix(1, 0, 0, 1, -120.75, -114.13)" filter="url(#c)"><path d="M383.071,492.593c-8.082-.084-14.373-6.828-14.3-15.33.073-8.648,6.487-15.215,14.779-15.132,7.733.078,14.012,7.139,13.907,15.642C397.354,485.957,390.834,492.675,383.071,492.593Zm-.016-5.979a9.259,9.259,0,0,0,.008-18.49c-4.7-.037-8.717,4.242-8.678,9.24C374.425,482.46,378.345,486.642,383.055,486.615Z" transform="translate(-224.71 -320.5)" fill="#53a4d4"/></g></g><rect width="200" height="199.588" transform="translate(25.429 177.548)" fill="none"/></g></svg>