<svg xmlns="http://www.w3.org/2000/svg" xmlns:xlink="http://www.w3.org/1999/xlink" width="200.39" height="211.037" viewBox="0 0 200.39 211.037"><defs><filter id="a" x="2.461" y="40" width="68.413" height="88.243" filterUnits="userSpaceOnUse"><feOffset input="SourceAlpha"/><feGaussianBlur stdDeviation="4" result="b"/><feFlood flood-color="#53a4d4"/><feComposite operator="in" in2="b"/><feComposite in="SourceGraphic"/></filter><filter id="c" x="63.461" y="18" width="68.413" height="88.243" filterUnits="userSpaceOnUse"><feOffset input="SourceAlpha"/><feGaussianBlur stdDeviation="4" result="d"/><feFlood flood-color="#53a4d4"/><feComposite operator="in" in2="d"/><feComposite in="SourceGraphic"/></filter><filter id="e" x="122.461" y="0" width="68.413" height="88.243" filterUnits="userSpaceOnUse"><feOffset input="SourceAlpha"/><feGaussianBlur stdDeviation="4" result="f"/><feFlood flood-color="#53a4d4"/><feComposite operator="in" in2="f"/><feComposite in="SourceGraphic"/></filter></defs><g transform="translate(-262 -420.494)"><g transform="matrix(1, 0, 0, 1, 262, 420.49)" filter="url(#a)"><path d="M492.7,636.8s-.056,55.358,0,55.947c.178,1.837-5.481,1.552-5.477,0,.01-4.341,0-45.356,0-56.051-2.933,2.06-5.39,3.713-7.753,5.463-2.4,1.781-4.562,3.844-7.137,5.4-1.1.668-2.988.374-4.517.518.272-1.2.051-2.879.894-3.539q9.523-7.456,19.489-14.479c.788-.554,3.243-.242,4.195.438,6.515,4.649,12.886,9.454,19.147,14.356.719.564.482,2.042.688,3.094-1.356.062-3.126.63-3.995.1-3.2-1.967-6.116-4.291-9.126-6.493C497.15,640.124,495.212,638.669,492.7,636.8Z" transform="translate(-453.36 -577.78)" fill="#53a4d4"/></g><rect width="200" height="199.531" transform="translate(262 432)" fill="none"/><g transform="translate(372.39 514.531)"><circle cx="3" cy="3" r="3" transform="translate(14 15.633)" fill="#fff"/><circle cx="3" cy="3" r="3" transform="translate(70 70.154)" fill="#fff"/><path d="M484.253,477.948c-4.312,0-8.624.018-12.936-.006a5.506,5.506,0,0,1-5.624-4.749,10.258,10.258,0,0,1-.16-2.084c-.01-9.248,0-18.5-.015-27.745a6.773,6.773,0,0,1,2.119-5.505,5.776,5.776,0,0,1,3.89-1.325c8.5,0,17.008-.024,25.513.008,3.125.011,5.075,1.624,6.051,4.93a7.649,7.649,0,0,1,.134,2.086c.008,9.108-.017,18.217.015,27.325.015,4.216-2.566,7.128-6.05,7.08C492.877,477.9,488.565,477.948,484.253,477.948Zm-.028-4.134q6.514,0,13.027,0c1.378,0,2.1-.832,2.1-2.454q.008-14.084,0-28.168c0-1.634-.693-2.514-2.069-2.517q-12.982-.025-25.964,0c-1.385,0-2.107.858-2.109,2.484q-.016,14.084,0,28.168c0,1.693.726,2.49,2.169,2.491Q477.8,473.818,484.225,473.815Z" transform="translate(-439.614 -412.179)" fill="#fff"/><g fill="none" stroke="#fff" stroke-width="5"><rect width="90" height="90" stroke="none"/><rect x="2.5" y="2.5" width="85" height="85" fill="none"/></g></g><g transform="translate(262.315 541.531)"><circle cx="3" cy="3" r="3" transform="translate(14 15.633)" fill="#fff"/><circle cx="3" cy="3" r="3" transform="translate(70 70.154)" fill="#fff"/><path d="M484.253,477.948c-4.312,0-8.624.018-12.936-.006a5.506,5.506,0,0,1-5.624-4.749,10.258,10.258,0,0,1-.16-2.084c-.01-9.248,0-18.5-.015-27.745a6.773,6.773,0,0,1,2.119-5.505,5.776,5.776,0,0,1,3.89-1.325c8.5,0,17.008-.024,25.513.008,3.125.011,5.075,1.624,6.051,4.93a7.649,7.649,0,0,1,.134,2.086c.008,9.108-.017,18.217.015,27.325.015,4.216-2.566,7.128-6.05,7.08C492.877,477.9,488.565,477.948,484.253,477.948Zm-.028-4.134q6.514,0,13.027,0c1.378,0,2.1-.832,2.1-2.454q.008-14.084,0-28.168c0-1.634-.693-2.514-2.069-2.517q-12.982-.025-25.964,0c-1.385,0-2.107.858-2.109,2.484q-.016,14.084,0,28.168c0,1.693.726,2.49,2.169,2.491Q477.8,473.818,484.225,473.815Z" transform="translate(-439.614 -412.179)" fill="#fff"/><g fill="none" stroke="#fff" stroke-width="5"><rect width="90" height="90" stroke="none"/><rect x="2.5" y="2.5" width="85" height="85" fill="none"/></g></g><g transform="matrix(1, 0, 0, 1, 262, 420.49)" filter="url(#c)"><path d="M492.7,636.8s-.056,55.358,0,55.947c.178,1.837-5.481,1.552-5.477,0,.01-4.341,0-45.356,0-56.051-2.933,2.06-5.39,3.713-7.753,5.463-2.4,1.781-4.562,3.844-7.137,5.4-1.1.668-2.988.374-4.517.518.272-1.2.051-2.879.894-3.539q9.523-7.456,19.489-14.479c.788-.554,3.243-.242,4.195.438,6.515,4.649,12.886,9.454,19.147,14.356.719.564.482,2.042.688,3.094-1.356.062-3.126.63-3.995.1-3.2-1.967-6.116-4.291-9.126-6.493C497.15,640.124,495.212,638.669,492.7,636.8Z" transform="translate(-392.36 -599.78)" fill="#53a4d4"/></g><g transform="matrix(1, 0, 0, 1, 262, 420.49)" filter="url(#e)"><path d="M492.7,636.8s-.056,55.358,0,55.947c.178,1.837-5.481,1.552-5.477,0,.01-4.341,0-45.356,0-56.051-2.933,2.06-5.39,3.713-7.753,5.463-2.4,1.781-4.562,3.844-7.137,5.4-1.1.668-2.988.374-4.517.518.272-1.2.051-2.879.894-3.539q9.523-7.456,19.489-14.479c.788-.554,3.243-.242,4.195.438,6.515,4.649,12.886,9.454,19.147,14.356.719.564.482,2.042.688,3.094-1.356.062-3.126.63-3.995.1-3.2-1.967-6.116-4.291-9.126-6.493C497.15,640.124,495.212,638.669,492.7,636.8Z" transform="translate(-333.36 -617.78)" fill="#53a4d4"/></g></g></svg>