<svg xmlns="http://www.w3.org/2000/svg" xmlns:xlink="http://www.w3.org/1999/xlink" width="1282.5" height="868" viewBox="0 0 1282.5 868">
  <defs>
    <linearGradient id="linear-gradient" x1="0.5" x2="0.5" y2="1" gradientUnits="objectBoundingBox">
      <stop offset="0" stop-color="#358ccc"/>
      <stop offset="1" stop-color="#0f0f0f"/>
    </linearGradient>
  </defs>
  <g id="Group_45" data-name="Group 45" transform="translate(-489 -106)">
    <g id="Group_5" data-name="Group 5" transform="translate(-691 -521)">
      <path id="Path_102" data-name="Path 102" d="M0,0H195.477V195.477H0Z" transform="translate(1180 688)" fill="#358ccc"/>
      <path id="Path_101" data-name="Path 101" d="M0,0H187.695V187.695H0Z" transform="translate(1183.884 691.884)" fill="#080404"/>
      <g id="Group_44" data-name="Group 44" transform="translate(1232.881 738.879)">
        <path id="Path_100" data-name="Path 100" d="M7.352-3.3l124.836.821V44.295H57.037V85.813H7.352Z" transform="translate(-7.352 3.3)" fill="#358ccc"/>
        <path id="Path_99" data-name="Path 99" d="M9.255-.652h120.4V41.537l-75.236.07V82.839l-45.16-.02Z" transform="translate(-6.766 3.562)" fill="#0f0f0f"/>
      </g>
      <path id="Path_12" data-name="Path 12" d="M102,432.25v22.875h12.505a11.075,11.075,0,0,1-.065,1.2,1.9,1.9,0,0,1-1.333,1.838c-.932.4-1.722.557-2.317.841-.945.388-1.23.712-1.282,1.049l14.952.026c-.013-.349-.337-.647-.841-.867-.686-.311-1.579-.608-2.447-.893-1.113-.44-1.359-.647-1.592-1.476a6.473,6.473,0,0,1-.1-1.722H131.93V432.25Zm.738.738h28.454v19.185H102.738Zm20.26,1.8a.5.5,0,0,0-.479.647,9.949,9.949,0,0,1,.272,1.023l-3.573.7a1.164,1.164,0,0,0-2.1,1.01l-2.02,2.007a1.156,1.156,0,0,0-.725-.259,1.177,1.177,0,0,0-.829.349l-2.809-1.825a.763.763,0,0,0,.026-.181,1.165,1.165,0,1,0-1.165,1.152,1.156,1.156,0,0,0,.725-.259l2.887,1.864v.065a1.165,1.165,0,0,0,2.33,0c0-.065-.013-.117-.013-.168l2.175-2.162a1.276,1.276,0,0,0,.479.1,1.163,1.163,0,0,0,1.126-.88l3.625-.7c.039.285.065.583.078.88a.487.487,0,0,0,.867.285l1.424-1.709a.488.488,0,0,0-.129-.725l-1.942-1.139A.455.455,0,0,0,123,434.787Zm-.712,5.295V450.4h3.159V440.082Zm-4.622,1.774V450.4h3.159v-8.544Zm-9.269,1.113V450.4h3.159v-7.431Zm4.622,2.693V450.4H116.2v-4.738Z" transform="translate(1098.713 271.608)" fill="#fff"/>
      <path id="Path_13" data-name="Path 13" d="M171.636,455.06a.77.77,0,1,1-1.54,0,.724.724,0,0,1,.233-.544.775.775,0,0,1,.544-.233.8.8,0,0,1,.544.233A.763.763,0,0,1,171.636,455.06Zm-31.056-3.7a2.34,2.34,0,0,0-2.33,2.343v2.744a2.348,2.348,0,0,0,2.33,2.343h32.713a2.348,2.348,0,0,0,2.33-2.343V453.7a2.34,2.34,0,0,0-2.33-2.343Zm0,1.023h32.713a1.291,1.291,0,0,1,1.307,1.32v2.744a1.3,1.3,0,0,1-1.307,1.32H140.58a1.3,1.3,0,0,1-1.307-1.32V453.7A1.291,1.291,0,0,1,140.58,452.38Zm31.056-6.861a.77.77,0,0,1-1.54,0,.753.753,0,0,1,.233-.557.763.763,0,0,1,.544-.22.786.786,0,0,1,.544.22A.794.794,0,0,1,171.636,445.519ZM140.58,441.8a2.34,2.34,0,0,0-2.33,2.343v2.744a2.34,2.34,0,0,0,2.33,2.343h32.713a2.34,2.34,0,0,0,2.33-2.343v-2.744a2.34,2.34,0,0,0-2.33-2.343Zm0,1.023h32.713a1.3,1.3,0,0,1,1.307,1.32v2.744a1.3,1.3,0,0,1-1.307,1.32H140.58a1.3,1.3,0,0,1-1.307-1.32v-2.744A1.3,1.3,0,0,1,140.58,442.826Zm31.056-6.861a.77.77,0,1,1-1.307-.557.763.763,0,0,1,.544-.22.786.786,0,0,1,.544.22A.817.817,0,0,1,171.636,435.965ZM140.58,432.25a2.348,2.348,0,0,0-2.33,2.343v2.744a2.34,2.34,0,0,0,2.33,2.343h32.713a2.34,2.34,0,0,0,2.33-2.343v-2.744a2.348,2.348,0,0,0-2.33-2.343Zm0,1.023h32.713a1.3,1.3,0,0,1,1.307,1.32v2.744a1.291,1.291,0,0,1-1.307,1.32H140.58a1.291,1.291,0,0,1-1.307-1.32v-2.744A1.3,1.3,0,0,1,140.58,433.273Z" transform="translate(1100.328 271.608)" fill="#fff"/>
      <path id="Path_14" data-name="Path 14" d="M170.834,489.5a.822.822,0,0,1-.22.544.751.751,0,0,1-1.282-.544.8.8,0,0,1,.207-.531.763.763,0,0,1,.544-.22.756.756,0,0,1,.531.22A.816.816,0,0,1,170.834,489.5Zm-30.305-3.612a2.282,2.282,0,0,0-2.278,2.278v2.68a2.293,2.293,0,0,0,2.278,2.291h31.911a2.293,2.293,0,0,0,2.278-2.291v-2.68a2.282,2.282,0,0,0-2.278-2.278Zm0,1h31.911a1.26,1.26,0,0,1,1.282,1.282v2.68a1.271,1.271,0,0,1-1.282,1.295H140.528a1.271,1.271,0,0,1-1.282-1.295v-2.68A1.26,1.26,0,0,1,140.528,486.888Zm30.305-6.693a.815.815,0,0,1-.22.531.751.751,0,0,1-1.282-.531.81.81,0,0,1,.207-.544.763.763,0,0,1,.544-.22.755.755,0,0,1,.531.22A.822.822,0,0,1,170.834,480.2Zm-30.305-3.625a2.285,2.285,0,0,0-2.278,2.291v2.667a2.285,2.285,0,0,0,2.278,2.291h31.911a2.285,2.285,0,0,0,2.278-2.291v-2.667a2.285,2.285,0,0,0-2.278-2.291Zm0,1h31.911a1.271,1.271,0,0,1,1.282,1.295v2.667a1.271,1.271,0,0,1-1.282,1.295H140.528a1.271,1.271,0,0,1-1.282-1.295v-2.667A1.271,1.271,0,0,1,140.528,477.568Zm30.305-6.693a.815.815,0,0,1-.22.531.755.755,0,0,1-.531.22.712.712,0,0,1-.531-.22.766.766,0,0,1-.013-1.062.736.736,0,0,1,1.074,0A.764.764,0,0,1,170.834,470.875Zm-30.305-3.625a2.293,2.293,0,0,0-2.278,2.291v2.68a2.282,2.282,0,0,0,2.278,2.278h31.911a2.282,2.282,0,0,0,2.278-2.278v-2.68a2.293,2.293,0,0,0-2.278-2.291Zm0,1h31.911a1.271,1.271,0,0,1,1.282,1.295v2.68a1.26,1.26,0,0,1-1.282,1.282H140.528a1.26,1.26,0,0,1-1.282-1.282v-2.68A1.271,1.271,0,0,1,140.528,468.247Z" transform="translate(1101.623 281.918)" fill="#fff"/>
      <path id="Path_15" data-name="Path 15" d="M171.636,525.06a.77.77,0,1,1-1.54,0,.725.725,0,0,1,.233-.544.775.775,0,0,1,.544-.233.8.8,0,0,1,.544.233A.763.763,0,0,1,171.636,525.06Zm-31.056-3.7a2.34,2.34,0,0,0-2.33,2.343v2.745a2.348,2.348,0,0,0,2.33,2.343h32.713a2.348,2.348,0,0,0,2.33-2.343V523.7a2.34,2.34,0,0,0-2.33-2.343Zm0,1.023h32.713a1.291,1.291,0,0,1,1.307,1.32v2.745a1.3,1.3,0,0,1-1.307,1.32H140.58a1.3,1.3,0,0,1-1.307-1.32V523.7A1.291,1.291,0,0,1,140.58,522.38Zm31.056-6.861a.77.77,0,0,1-1.54,0,.753.753,0,0,1,.233-.557.763.763,0,0,1,.544-.22.785.785,0,0,1,.544.22A.793.793,0,0,1,171.636,515.519ZM140.58,511.8a2.34,2.34,0,0,0-2.33,2.343v2.745a2.34,2.34,0,0,0,2.33,2.343h32.713a2.34,2.34,0,0,0,2.33-2.343v-2.745a2.34,2.34,0,0,0-2.33-2.343Zm0,1.023h32.713a1.3,1.3,0,0,1,1.307,1.32v2.745a1.3,1.3,0,0,1-1.307,1.32H140.58a1.3,1.3,0,0,1-1.307-1.32v-2.745A1.3,1.3,0,0,1,140.58,512.827Zm31.056-6.861a.77.77,0,1,1-1.307-.557.763.763,0,0,1,.544-.22.785.785,0,0,1,.544.22A.817.817,0,0,1,171.636,505.965ZM140.58,502.25a2.348,2.348,0,0,0-2.33,2.343v2.744a2.34,2.34,0,0,0,2.33,2.343h32.713a2.34,2.34,0,0,0,2.33-2.343v-2.744a2.348,2.348,0,0,0-2.33-2.343Zm0,1.023h32.713a1.3,1.3,0,0,1,1.307,1.32v2.744a1.291,1.291,0,0,1-1.307,1.32H140.58a1.291,1.291,0,0,1-1.307-1.32v-2.744A1.3,1.3,0,0,1,140.58,503.273Z" transform="translate(1101.623 292.227)" fill="#fff"/>
      <path id="Path_16" data-name="Path 16" d="M171.636,560.06a.77.77,0,1,1-1.54,0,.725.725,0,0,1,.233-.544.775.775,0,0,1,.544-.233.8.8,0,0,1,.544.233A.763.763,0,0,1,171.636,560.06Zm-31.056-3.7a2.34,2.34,0,0,0-2.33,2.343v2.744a2.348,2.348,0,0,0,2.33,2.343h32.713a2.348,2.348,0,0,0,2.33-2.343V558.7a2.34,2.34,0,0,0-2.33-2.343Zm0,1.023h32.713a1.291,1.291,0,0,1,1.307,1.32v2.744a1.3,1.3,0,0,1-1.307,1.32H140.58a1.3,1.3,0,0,1-1.307-1.32V558.7A1.291,1.291,0,0,1,140.58,557.38Zm31.056-6.861a.77.77,0,0,1-1.54,0,.753.753,0,0,1,.233-.557.763.763,0,0,1,.544-.22.786.786,0,0,1,.544.22A.794.794,0,0,1,171.636,550.519ZM140.58,546.8a2.34,2.34,0,0,0-2.33,2.343v2.744a2.34,2.34,0,0,0,2.33,2.343h32.713a2.34,2.34,0,0,0,2.33-2.343v-2.744a2.34,2.34,0,0,0-2.33-2.343Zm0,1.023h32.713a1.3,1.3,0,0,1,1.307,1.32v2.744a1.3,1.3,0,0,1-1.307,1.32H140.58a1.3,1.3,0,0,1-1.307-1.32v-2.744A1.3,1.3,0,0,1,140.58,547.826Zm31.056-6.861a.77.77,0,1,1-1.307-.557.763.763,0,0,1,.544-.22.786.786,0,0,1,.544.22A.817.817,0,0,1,171.636,540.965ZM140.58,537.25a2.348,2.348,0,0,0-2.33,2.343v2.744a2.34,2.34,0,0,0,2.33,2.343h32.713a2.34,2.34,0,0,0,2.33-2.343v-2.744a2.348,2.348,0,0,0-2.33-2.343Zm0,1.023h32.713a1.3,1.3,0,0,1,1.307,1.32v2.744a1.291,1.291,0,0,1-1.307,1.32H140.58a1.291,1.291,0,0,1-1.307-1.32v-2.744A1.3,1.3,0,0,1,140.58,538.273Z" transform="translate(1101.623 303.831)" fill="#fff"/>
      <path id="Path_17" data-name="Path 17" d="M206.343,447.474h-6.771v1.644L195.78,445.8l3.793-3.236v1.773h6.771Zm-24-3.262h6.771v-1.644l3.793,3.314-3.793,3.236v-1.774h-6.771Zm10.369,3.34v6.758h-1.644l3.314,3.793,3.236-3.793h-1.774v-6.758Zm0-3.418v-6.758h-1.644l3.314-3.793,3.236,3.793h-1.774v6.758Zm1.631-11.884a13.593,13.593,0,1,0,13.593,13.593A13.6,13.6,0,0,0,194.343,432.25Zm0,.919a12.674,12.674,0,1,1-12.674,12.674A12.668,12.668,0,0,1,194.343,433.169Z" transform="translate(1103.785 271.608)" fill="#fff"/>
      <path id="Path_18" data-name="Path 18" d="M206.343,482.224h-6.771v1.644l-3.793-3.314,3.793-3.236v1.773h6.771Zm-24-3.262h6.771v-1.644l3.793,3.314-3.793,3.236v-1.774h-6.771Zm10.369,3.34v6.758h-1.644l3.314,3.793,3.236-3.793h-1.774V482.3Zm0-3.418v-6.758h-1.644l3.314-3.793,3.236,3.793h-1.774v6.758ZM194.343,467a13.593,13.593,0,1,0,13.593,13.593A13.6,13.6,0,0,0,194.343,467Zm0,.919a12.674,12.674,0,1,1-12.674,12.674A12.668,12.668,0,0,1,194.343,467.919Z" transform="translate(1103.785 281.844)" fill="#fff"/>
      <path id="Path_19" data-name="Path 19" d="M206.343,517.224h-6.771v1.644l-3.793-3.314,3.793-3.236v1.773h6.771Zm-24-3.262h6.771v-1.644l3.793,3.314-3.793,3.236v-1.774h-6.771Zm10.369,3.34v6.758h-1.644l3.314,3.793,3.236-3.793h-1.774V517.3Zm0-3.418v-6.758h-1.644l3.314-3.793,3.236,3.793h-1.774v6.758ZM194.343,502a13.593,13.593,0,1,0,13.593,13.593A13.6,13.6,0,0,0,194.343,502Zm0,.919a12.674,12.674,0,1,1-12.674,12.674A12.668,12.668,0,0,1,194.343,502.919Z" transform="translate(1103.785 292.153)" fill="#fff"/>
      <path id="Path_20" data-name="Path 20" d="M206.343,552.224h-6.771v1.644l-3.793-3.314,3.793-3.236v1.774h6.771Zm-24-3.262h6.771v-1.644l3.793,3.314-3.793,3.236v-1.774h-6.771Zm10.369,3.34v6.758h-1.644l3.314,3.793,3.236-3.793h-1.774V552.3Zm0-3.418v-6.758h-1.644l3.314-3.793,3.236,3.793h-1.774v6.758ZM194.343,537a13.593,13.593,0,1,0,13.593,13.593A13.6,13.6,0,0,0,194.343,537Zm0,.919a12.674,12.674,0,1,1-12.674,12.674A12.668,12.668,0,0,1,194.343,537.919Z" transform="translate(1103.785 302.462)" fill="#fff"/>
      <path id="Path_21" data-name="Path 21" d="M235.144,429.338l-15.276,8.8v17.528l.233.142,15.043,8.7,15.263-8.842V438.141Zm-.466,1.333v8.3c-2.977.117-5.269,1.4-5.269,2.939,0,1.631,2.563,2.952,5.735,2.952s5.735-1.32,5.735-2.952c0-1.541-2.291-2.822-5.269-2.939v-8.3l13.373,7.716-8.1,4.66-.026.531c-.285.945-2.278,2.421-5.722,2.421-3.275,0-5.554-1.385-5.722-2.68l-.013-.259-8.143-4.66Zm14.8,8.492v15.444l-8.583-4.919-.026.453c-.194.932-2.2,2.5-5.735,2.5-3.262,0-5.541-1.372-5.722-2.654l-.013-.117h0v0l-.013-.207-8.6,4.945V439.2l8.622,4.945.026,1.1c0,1.709,2.732,2.913,5.709,2.913,3.508,0,5.748-1.528,5.748-2.887v-1.165ZM229.4,446.5l.039,2.071c0,1.722,2.732,2.926,5.709,2.926,3.508,0,5.748-1.528,5.748-2.887V446.7c0,.906-2.045,2.641-5.761,2.641C231.726,449.339,229.4,447.837,229.4,446.5Zm.013,4.207.026,1.165c0,1.631,2.447,2.8,5.243,2.913v8.389l-13.424-7.767Zm11.483.026,8.13,4.673-13.412,7.767v-8.389c3.236-.116,5.282-1.579,5.282-2.874ZM234.963,427.6l-.647.375.35.608.466-.272.414.246.362-.621-.6-.337-.181-.1Zm1.2,1.307,1.23.712.362-.621-1.243-.7Zm-3.7.129.35.608,1.243-.7-.362-.621Zm5.554.932,1.23.712.35-.608-1.23-.712Zm-7.4.129.362.621,1.23-.712-.362-.608Zm9.256.945,1.23.7.35-.608-1.23-.712Zm-11.107.129.362.608,1.23-.712-.362-.608Zm12.958.932,1.23.712.35-.621-1.23-.712Zm-14.81.129.362.621,1.23-.712-.362-.621Zm16.648.932,1.243.712.35-.608-1.23-.712Zm-18.5.129.362.621,1.23-.712-.35-.608Zm20.35.945,1.243.7.35-.608-1.23-.712Zm-22.2.129.362.608,1.23-.712-.35-.608Zm24.053.932,1.243.712.35-.621-1.23-.712Zm-25.9.13.362.621,1.23-.712-.35-.621Zm27.755.932,1.243.712.35-.608-1.23-.712Zm-29.593.142.35.608,1.23-.712-.35-.608Zm31.445.919.362.207v.608h.712v-1.01l-.181-.1-.531-.311Zm-32.532-.3-.181.1v1.087h.712v-.686l.285-.168-.35-.608Zm32.895,3.236h.712v-1.424h-.712Zm-33.076.078h.712v-1.424h-.712Zm33.076,2.045h.712V441.08h-.712Zm-33.076.091h.712v-1.424h-.712Zm33.076,2.045h.712V443.2h-.712Zm-33.076.078h.712v-1.424h-.712Zm33.076,2.045h.712v-1.411h-.712Zm-33.076.091h.712v-1.424h-.712Zm33.076,2.045h.712v-1.424h-.712Zm-33.076.078h.712V447.54h-.712Zm33.076,2.045h.712V449.6h-.712Zm-33.076.078h.712v-1.411h-.712Zm33.076,2.058h.712v-1.424h-.712Zm-33.076.078h.712V451.8h-.712Zm33.076,2.045h.712v-1.411h-.712Zm-33.076.078h.712v-1.411h-.712Zm33.076.867-.673.388.35.608.854-.492.181-.1v-.634h-.712Zm-33.076.207h.362l-.181.3.129.078.22-.375h.181v-.362h-.712Zm.932.738,1.23.712.362-.621-1.243-.712Zm29.619.5.35.621,1.23-.712-.35-.621Zm-27.768.557,1.23.712.362-.621-1.243-.7Zm25.917.5.35.621,1.23-.712-.35-.608Zm-24.066.557,1.23.712.362-.608-1.243-.712Zm22.215.5.35.621,1.23-.712-.35-.608Zm-20.363.57,1.23.7.362-.608-1.243-.712Zm18.512.5.35.608,1.23-.712-.35-.608Zm-16.661.557,1.23.712.362-.621-1.243-.712Zm14.81.5.35.608,1.23-.7-.35-.621Zm-12.958.557,1.23.712.35-.608-1.23-.712Zm11.107.5.35.621,1.23-.712-.35-.621Zm-9.256.557,1.23.712.35-.608-1.23-.712Zm7.4.5.35.621,1.23-.712-.35-.621Zm-5.554.57,1.23.712.35-.621-1.23-.712Zm3.7.492.35.621,1.23-.712-.35-.608Zm-1.851.57.958.557.181.1.181-.1.259-.155-.259-.453h0v-.013l-.091-.142-.091.052-.79-.453Z" transform="translate(1101.885 271.504)" fill="#fff"/>
      <path id="Path_22" data-name="Path 22" d="M235.144,464.088l-15.276,8.8v17.528l.233.142,15.043,8.7,15.263-8.842V472.891Zm-.466,1.333v8.3c-2.977.117-5.269,1.4-5.269,2.939,0,1.631,2.563,2.952,5.735,2.952s5.735-1.32,5.735-2.952c0-1.541-2.291-2.822-5.269-2.939v-8.3l13.373,7.716-8.1,4.66-.026.531c-.285.945-2.278,2.421-5.722,2.421-3.275,0-5.554-1.385-5.722-2.68l-.013-.259-8.143-4.66Zm14.8,8.492v15.444l-8.583-4.919-.026.453c-.194.932-2.2,2.5-5.735,2.5-3.262,0-5.541-1.372-5.722-2.654l-.013-.117h0v0l-.013-.207-8.6,4.945V473.953l8.622,4.945.026,1.1c0,1.709,2.732,2.913,5.709,2.913,3.508,0,5.748-1.528,5.748-2.887v-1.165Zm-20.078,7.34.039,2.071c0,1.722,2.732,2.926,5.709,2.926,3.508,0,5.748-1.528,5.748-2.887v-1.916c0,.906-2.045,2.641-5.761,2.641C231.726,484.089,229.4,482.587,229.4,481.254Zm.013,4.207.026,1.165c0,1.631,2.447,2.8,5.243,2.913v8.389l-13.424-7.767Zm11.483.026,8.13,4.673-13.412,7.767v-8.389c3.236-.117,5.282-1.579,5.282-2.874Zm-5.929-23.134-.647.375.35.608.466-.272.414.246.362-.621-.6-.337-.181-.1Zm1.2,1.307,1.23.712.362-.621-1.243-.7Zm-3.7.129.35.608,1.243-.7-.362-.621Zm5.554.932,1.23.712.35-.608-1.23-.712Zm-7.4.13.362.621,1.23-.712-.362-.608Zm9.256.945,1.23.7.35-.608-1.23-.712Zm-11.107.129.362.608,1.23-.712-.362-.608Zm12.958.932,1.23.712.35-.621-1.23-.712Zm-14.81.129.362.621,1.23-.712-.362-.621Zm16.648.932,1.243.712.35-.608-1.23-.712Zm-18.5.129.362.621,1.23-.712-.35-.608Zm20.35.945,1.243.7.35-.608-1.23-.712Zm-22.2.129.362.608,1.23-.712-.35-.608Zm24.053.932,1.243.712.35-.621-1.23-.712Zm-25.9.129.362.621,1.23-.712-.35-.621Zm27.755.932,1.243.712.35-.608-1.23-.712Zm-29.593.142.35.608,1.23-.712-.35-.608Zm31.445.919.362.207v.608h.712v-1.01l-.181-.1-.531-.311Zm-32.532-.3-.181.1v1.087h.712v-.686l.285-.168-.35-.608Zm32.895,3.236h.712v-1.424h-.712Zm-33.076.078h.712v-1.424h-.712Zm33.076,2.045h.712V475.83h-.712Zm-33.076.091h.712v-1.424h-.712Zm33.076,2.045h.712v-1.424h-.712Zm-33.076.078h.712v-1.424h-.712Zm33.076,2.045h.712v-1.411h-.712Zm-33.076.091h.712v-1.424h-.712Zm33.076,2.045h.712v-1.424h-.712Zm-33.076.078h.712V482.29h-.712Zm33.076,2.045h.712v-1.411h-.712Zm-33.076.078h.712v-1.411h-.712Zm33.076,2.058h.712v-1.424h-.712Zm-33.076.078h.712v-1.424h-.712Zm33.076,2.045h.712v-1.411h-.712Zm-33.076.078h.712v-1.411h-.712Zm33.076.867-.673.388.35.608.854-.492.181-.1v-.634h-.712Zm-33.076.207h.362l-.181.3.129.078.22-.375h.181v-.362h-.712Zm.932.738,1.23.712.362-.621-1.243-.712Zm29.619.5.35.621,1.23-.712-.35-.621Zm-27.768.557,1.23.712.362-.621-1.243-.7Zm25.917.5.35.621,1.23-.712-.35-.608Zm-24.066.557,1.23.712.362-.608-1.243-.712Zm22.215.5.35.621,1.23-.712-.35-.608Zm-20.363.57,1.23.7.362-.608-1.243-.712Zm18.512.5.35.608,1.23-.712-.35-.608Zm-16.661.557,1.23.712.362-.621-1.243-.712Zm14.81.5.35.608,1.23-.7-.35-.621Zm-12.958.557,1.23.712.35-.608-1.23-.712Zm11.107.5.35.621,1.23-.712-.35-.621Zm-9.256.557,1.23.712.35-.608-1.23-.712Zm7.4.5.35.621,1.23-.712-.35-.621Zm-5.554.57,1.23.712.35-.621-1.23-.712Zm3.7.492.35.621,1.23-.712-.35-.608Zm-1.851.57.958.557.181.1.181-.1.259-.155-.259-.453h0v-.013l-.091-.142-.091.052-.79-.453Z" transform="translate(1101.885 280.445)" fill="#fff"/>
      <path id="Path_23" data-name="Path 23" d="M235.144,499.338l-15.276,8.8v17.528l.233.142,15.043,8.7,15.263-8.842V508.141Zm-.466,1.333v8.3c-2.977.117-5.269,1.4-5.269,2.939,0,1.631,2.563,2.952,5.735,2.952s5.735-1.32,5.735-2.952c0-1.541-2.291-2.822-5.269-2.939v-8.3l13.373,7.716-8.1,4.66-.026.531c-.285.945-2.278,2.421-5.722,2.421-3.275,0-5.554-1.385-5.722-2.68l-.013-.259-8.143-4.66Zm14.8,8.492v15.444l-8.583-4.919-.026.453c-.194.932-2.2,2.5-5.735,2.5-3.262,0-5.541-1.372-5.722-2.654l-.013-.116h0v0l-.013-.207-8.6,4.945V509.2l8.622,4.945.026,1.1c0,1.709,2.732,2.913,5.709,2.913,3.508,0,5.748-1.528,5.748-2.887v-1.165ZM229.4,516.5l.039,2.071c0,1.722,2.732,2.926,5.709,2.926,3.508,0,5.748-1.528,5.748-2.887V516.7c0,.906-2.045,2.641-5.761,2.641C231.726,519.339,229.4,517.837,229.4,516.5Zm.013,4.207.026,1.165c0,1.631,2.447,2.8,5.243,2.913v8.389l-13.424-7.767Zm11.483.026,8.13,4.673-13.412,7.767v-8.389c3.236-.117,5.282-1.579,5.282-2.874ZM234.963,497.6l-.647.375.35.608.466-.272.414.246.362-.621-.6-.337-.181-.1Zm1.2,1.307,1.23.712.362-.621-1.243-.7Zm-3.7.129.35.608,1.243-.7-.362-.621Zm5.554.932,1.23.712.35-.608-1.23-.712Zm-7.4.129.362.621,1.23-.712-.362-.608Zm9.256.945,1.23.7.35-.608-1.23-.712Zm-11.107.129.362.608,1.23-.712-.362-.608Zm12.958.932,1.23.712.35-.621-1.23-.712Zm-14.81.13.362.621,1.23-.712-.362-.621Zm16.648.932,1.243.712.35-.608-1.23-.712Zm-18.5.129.362.621,1.23-.712-.35-.608Zm20.35.945,1.243.7.35-.608-1.23-.712Zm-22.2.129.362.608,1.23-.712-.35-.608Zm24.053.932,1.243.712.35-.621-1.23-.712Zm-25.9.129.362.621,1.23-.712-.35-.621Zm27.755.932,1.243.712.35-.608-1.23-.712Zm-29.593.142.35.608,1.23-.712-.35-.608Zm31.445.919.362.207v.608h.712v-1.01l-.181-.1-.531-.311Zm-32.532-.3-.181.1v1.087h.712v-.686l.285-.168-.35-.608Zm32.895,3.236h.712v-1.424h-.712Zm-33.076.078h.712v-1.424h-.712Zm33.076,2.045h.712V511.08h-.712Zm-33.076.091h.712v-1.424h-.712Zm33.076,2.045h.712V513.2h-.712Zm-33.076.078h.712v-1.424h-.712Zm33.076,2.045h.712v-1.411h-.712Zm-33.076.091h.712v-1.424h-.712Zm33.076,2.045h.712v-1.424h-.712Zm-33.076.078h.712V517.54h-.712Zm33.076,2.045h.712V519.6h-.712Zm-33.076.078h.712v-1.411h-.712Zm33.076,2.058h.712v-1.424h-.712Zm-33.076.078h.712V521.8h-.712Zm33.076,2.045h.712v-1.411h-.712Zm-33.076.078h.712v-1.411h-.712Zm33.076.867-.673.388.35.608.854-.492.181-.1v-.634h-.712Zm-33.076.207h.362l-.181.3.129.078.22-.375h.181v-.362h-.712Zm.932.738,1.23.712.362-.621-1.243-.712Zm29.619.5.35.621,1.23-.712-.35-.621Zm-27.768.557,1.23.712.362-.621-1.243-.7Zm25.917.5.35.621,1.23-.712-.35-.608Zm-24.066.557,1.23.712.362-.608-1.243-.712Zm22.215.5.35.621,1.23-.712-.35-.608Zm-20.363.57,1.23.7.362-.608-1.243-.712Zm18.512.5.35.608,1.23-.712-.35-.608Zm-16.661.557,1.23.712.362-.621-1.243-.712Zm14.81.5.35.608,1.23-.7-.35-.621Zm-12.958.557,1.23.712.35-.609-1.23-.712Zm11.107.5.35.621,1.23-.712-.35-.621Zm-9.256.557,1.23.712.35-.608-1.23-.712Zm7.4.5.35.621,1.23-.712-.35-.621Zm-5.554.57,1.23.712.35-.621-1.23-.712Zm3.7.492.35.621,1.23-.712-.35-.608Zm-1.851.57.958.557.181.1.181-.1.259-.155-.259-.453h0v-.013l-.091-.142-.091.052-.79-.453Z" transform="translate(1101.885 290.828)" fill="#fff"/>
      <path id="Path_24" data-name="Path 24" d="M235.144,534.338l-15.276,8.8v17.528l.233.142,15.043,8.7,15.263-8.842V543.141Zm-.466,1.333v8.3c-2.977.116-5.269,1.4-5.269,2.939,0,1.631,2.563,2.952,5.735,2.952s5.735-1.32,5.735-2.952c0-1.541-2.291-2.822-5.269-2.939v-8.3l13.373,7.715-8.1,4.661-.026.531c-.285.945-2.278,2.421-5.722,2.421-3.275,0-5.554-1.385-5.722-2.68l-.013-.259-8.143-4.66Zm14.8,8.492v15.444l-8.583-4.919-.026.453c-.194.932-2.2,2.5-5.735,2.5-3.262,0-5.541-1.372-5.722-2.654l-.013-.116h0v0l-.013-.207-8.6,4.945V544.2l8.622,4.945.026,1.1c0,1.709,2.732,2.913,5.709,2.913,3.508,0,5.748-1.527,5.748-2.887v-1.165ZM229.4,551.5l.039,2.071c0,1.722,2.732,2.926,5.709,2.926,3.508,0,5.748-1.528,5.748-2.887V551.7c0,.906-2.045,2.641-5.761,2.641C231.726,554.339,229.4,552.837,229.4,551.5Zm.013,4.207.026,1.165c0,1.631,2.447,2.8,5.243,2.913v8.389l-13.424-7.767Zm11.483.026,8.13,4.673-13.412,7.767v-8.389c3.236-.117,5.282-1.579,5.282-2.874ZM234.963,532.6l-.647.375.35.608.466-.272.414.246.362-.621-.6-.337-.181-.1Zm1.2,1.307,1.23.712.362-.621-1.243-.7Zm-3.7.129.35.608,1.243-.7-.362-.621Zm5.554.932,1.23.712.35-.608-1.23-.712Zm-7.4.13.362.621,1.23-.712-.362-.609Zm9.256.945,1.23.7.35-.609-1.23-.712Zm-11.107.13.362.608,1.23-.712-.362-.609Zm12.958.932,1.23.712.35-.621-1.23-.712Zm-14.81.129.362.621,1.23-.712-.362-.621Zm16.648.932,1.243.712.35-.608-1.23-.712Zm-18.5.129.362.621,1.23-.712-.35-.608Zm20.35.945,1.243.7.35-.608-1.23-.712Zm-22.2.129.362.609,1.23-.712-.35-.608Zm24.053.932,1.243.712.35-.621-1.23-.712Zm-25.9.129.362.621,1.23-.712-.35-.621Zm27.755.932,1.243.712.35-.609-1.23-.712Zm-29.593.142.35.608,1.23-.712-.35-.609Zm31.445.919.362.207v.608h.712v-1.01l-.181-.1-.531-.311Zm-32.532-.3-.181.1v1.087h.712v-.686l.285-.168-.35-.608Zm32.895,3.236h.712v-1.424h-.712Zm-33.076.078h.712v-1.424h-.712Zm33.076,2.045h.712V546.08h-.712Zm-33.076.091h.712v-1.424h-.712Zm33.076,2.045h.712V548.2h-.712Zm-33.076.078h.712v-1.424h-.712Zm33.076,2.045h.712v-1.411h-.712Zm-33.076.091h.712v-1.424h-.712Zm33.076,2.045h.712v-1.424h-.712Zm-33.076.078h.712V552.54h-.712Zm33.076,2.045h.712V554.6h-.712Zm-33.076.078h.712v-1.411h-.712Zm33.076,2.058h.712v-1.424h-.712Zm-33.076.078h.712V556.8h-.712Zm33.076,2.045h.712v-1.411h-.712Zm-33.076.078h.712v-1.411h-.712Zm33.076.867-.673.388.35.609.854-.492.181-.1v-.634h-.712Zm-33.076.207h.362l-.181.3.129.078.22-.375h.181v-.363h-.712Zm.932.738,1.23.712.362-.621-1.243-.712Zm29.619.5.35.621,1.23-.712-.35-.621Zm-27.768.557,1.23.712.362-.621-1.243-.7Zm25.917.505.35.621,1.23-.712-.35-.608Zm-24.066.557,1.23.712.362-.608-1.243-.712Zm22.215.5.35.621,1.23-.712-.35-.608Zm-20.363.57,1.23.7.362-.608-1.243-.712Zm18.512.5.35.608,1.23-.712-.35-.608Zm-16.661.557,1.23.712.362-.621-1.243-.712Zm14.81.5.35.608,1.23-.7-.35-.621Zm-12.958.557,1.23.712.35-.609-1.23-.712Zm11.107.5.35.621,1.23-.712-.35-.621Zm-9.256.557,1.23.712.35-.609-1.23-.712Zm7.4.5.35.621,1.23-.712-.35-.621Zm-5.554.57,1.23.712.35-.621-1.23-.712Zm3.7.492.35.621,1.23-.712-.35-.609Zm-1.851.57.958.557.181.1.181-.1.259-.155-.259-.453h0v-.013l-.091-.142-.091.052-.79-.453Z" transform="translate(1101.885 301.137)" fill="#fff"/>
    </g>
    <g id="Group_6" data-name="Group 6" transform="translate(-551 -204)">
      <g id="Rectangle_22" data-name="Rectangle 22" transform="translate(1040 783.981)" fill="none" stroke="#fff" stroke-width="4">
        <rect width="186.899" height="131.73" stroke="none"/>
        <rect x="2" y="2" width="182.899" height="127.73" fill="none"/>
      </g>
      <line id="Line_1" data-name="Line 1" x2="181.269" transform="translate(1042.815 810.44)" fill="none" stroke="#fff" stroke-width="4"/>
      <g id="Rectangle_23" data-name="Rectangle 23" transform="translate(1052.385 822.262)" fill="none" stroke="#fff" stroke-width="4">
        <rect width="162.129" height="81.065" stroke="none"/>
        <rect x="2" y="2" width="158.129" height="77.065" fill="none"/>
      </g>
      <line id="Line_2" data-name="Line 2" y2="23.644" transform="translate(1077.718 863.357)" fill="none" stroke="#358ccc" stroke-width="10"/>
      <line id="Line_3" data-name="Line 3" y2="47.288" transform="translate(1122.753 839.713)" fill="none" stroke="#358ccc" stroke-width="10"/>
      <line id="Line_4" data-name="Line 4" y2="33.777" transform="translate(1100.235 853.224)" fill="none" stroke="#358ccc" stroke-width="10"/>
      <line id="Line_5" data-name="Line 5" y2="23.644" transform="translate(1145.271 863.357)" fill="none" stroke="#358ccc" stroke-width="10"/>
      <line id="Line_6" data-name="Line 6" y2="40.532" transform="translate(1167.789 846.468)" fill="none" stroke="#358ccc" stroke-width="10"/>
      <line id="Line_7" data-name="Line 7" y2="23.644" transform="translate(1190.307 863.357)" fill="none" stroke="#358ccc" stroke-width="10"/>
      <path id="Icon_material-lightbulb-outline" data-name="Icon material-lightbulb-outline" d="M19.82,61.519A3.089,3.089,0,0,0,22.9,64.6H35.22a3.089,3.089,0,0,0,3.08-3.08V58.44H19.82ZM29.06,3A21.551,21.551,0,0,0,16.74,42.239V49.2a3.089,3.089,0,0,0,3.08,3.08H38.3a3.089,3.089,0,0,0,3.08-3.08V42.239A21.551,21.551,0,0,0,29.06,3Zm8.778,34.188L35.22,39.036V46.12H22.9V39.036l-2.618-1.848a15.4,15.4,0,1,1,17.556,0Z" transform="translate(1182.858 715.289)" fill="#358ccc"/>
    </g>
    <g id="Group_11" data-name="Group 11" transform="translate(-796 76)">
      <path id="Icon_ionic-ios-cloud-outline" data-name="Icon ionic-ios-cloud-outline" d="M102.355,12.608c10.769,0,21.075,2.343,29.072,6.591,7.925,4.205,12.9,9.959,14.038,16.173l.426,2.322c.213,1.214,1.777,2.2,3.8,2.406l3.909.418a27.844,27.844,0,0,1,13.043,4.624c3.483,2.511,5.4,5.628,5.4,8.808,0,3.557-2.452,7.135-6.717,9.792a30.483,30.483,0,0,1-15.673,4.1H32.306a29.848,29.848,0,0,1-15.6-4.122c-4.265-2.657-6.717-6.214-6.717-9.792,0-3.013,1.635-6.047,4.656-8.557a25.888,25.888,0,0,1,11.977-5.252l3.661-.69c1.884-.356,3.2-1.381,3.234-2.553l.071-2.26c.071-2.469,1.813-4.938,4.8-6.779a20.438,20.438,0,0,1,10.626-2.8,25.117,25.117,0,0,1,5.793.67l3.945.942a6.73,6.73,0,0,0,5.58-.983l2.417-2.05c8.032-6.883,21.4-11.005,35.611-11.005m0-5.858c-18.2,0-34.225,5.356-43.856,13.537a40.967,40.967,0,0,0-9.56-1.109c-13.9,0-25.162,7.2-25.376,15.357C9.383,37.192,0,45.352,0,53.93,0,64.433,14.465,73.7,32.306,73.7H149.694C167.535,73.7,182,64.433,182,53.93c0-9.352-11.479-17.6-26.619-19.186C152.466,19.011,129.863,6.75,102.355,6.75Z" transform="translate(1285 730.25)" fill="#fff"/>
      <path id="Path_51" data-name="Path 51" d="M344.621,290v25.122h13.557l-.032,23.549-60.625-.049a3.37,3.37,0,0,0-2.091.664,2.07,2.07,0,0,0-.855,1.6l.063,43.14H282v25.122h32.5V384.023H300.466l-.032-40.878,57.68.049-.032,30.677H344.557v25.122h32.5V373.871H363.911l.063-30.677,57.584.049-.285,40.854h-13.4v25.122h32.5V384.1h-13.24l.253-43.115a1.946,1.946,0,0,0-.823-1.6,3.371,3.371,0,0,0-2.091-.664l-60.5-.049.032-23.549h13.113V290Z" transform="translate(1018.416 488.11)" fill="#fff"/>
      <rect id="Rectangle_51" data-name="Rectangle 51" width="35.971" height="25.694" transform="translate(1362.081 778.11)" fill="#358ccc"/>
    </g>
    <g id="Group_21" data-name="Group 21" transform="translate(517 -170.202)">
      <circle id="Ellipse_9" data-name="Ellipse 9" cx="118.5" cy="118.5" r="118.5" transform="translate(940 300.202)" fill="#358ccc"/>
      <circle id="Ellipse_17" data-name="Ellipse 17" cx="107.5" cy="107.5" r="107.5" transform="translate(951 311.202)" fill="#0f0f0f"/>
      <g id="Group_13" data-name="Group 13" transform="translate(947.482 312.629)">
        <circle id="Ellipse_2" data-name="Ellipse 2" cx="31.5" cy="31.5" r="31.5" transform="translate(-0.482 -0.427)" fill="#53a4cc"/>
        <g id="Icon_feather-shopping-cart" data-name="Icon feather-shopping-cart" transform="translate(11.512 15.096)">
          <path id="Path_60" data-name="Path 60" d="M15.754,31.877A1.877,1.877,0,1,1,13.877,30,1.877,1.877,0,0,1,15.754,31.877Z" transform="translate(-0.382 1.515)" fill="none" stroke="#fff" stroke-linecap="round" stroke-linejoin="round" stroke-width="3"/>
          <path id="Path_61" data-name="Path 61" d="M32.254,31.877A1.877,1.877,0,1,1,30.377,30,1.877,1.877,0,0,1,32.254,31.877Z" transform="translate(0.94 1.515)" fill="none" stroke="#fff" stroke-linecap="round" stroke-linejoin="round" stroke-width="3"/>
          <path id="Path_62" data-name="Path 62" d="M1.5,1.5H8.218l4.5,21.43a3.326,3.326,0,0,0,3.359,2.577H32.4a3.326,3.326,0,0,0,3.359-2.577L38.448,9.5H9.9" transform="translate(-1.5 -1.5)" fill="none" stroke="#fff" stroke-linecap="round" stroke-linejoin="round" stroke-width="3"/>
        </g>
      </g>
      <g id="Group_14" data-name="Group 14" transform="translate(1026.993 496.665)">
        <circle id="Ellipse_3" data-name="Ellipse 3" cx="31.5" cy="31.5" r="31.5" transform="translate(0.007 -0.463)" fill="#53a4cc"/>
        <g id="Group_12" data-name="Group 12" transform="translate(13.758 12.124)">
          <path id="Path_52" data-name="Path 52" d="M81.707,111.689c-6.41,0-11.869,3.755-13.686,8.93h2.028a10.222,10.222,0,0,1,.754-1.477h3.9a13.889,13.889,0,0,0-.426,1.477h1.977a12.97,12.97,0,0,1,.5-1.477h3.767v1.477h1.909v-1.477H86.5a12.177,12.177,0,0,1,.558,1.477h1.977a13.542,13.542,0,0,0-.477-1.477H92.61a10.22,10.22,0,0,1,.754,1.477h2.024C93.572,115.444,88.117,111.689,81.707,111.689Zm2.88,2.043a12.7,12.7,0,0,1,6.694,3.674H87.74A12.42,12.42,0,0,0,84.587,113.731Zm-6.319.128a11.636,11.636,0,0,0-2.812,3.546H72.133A12.621,12.621,0,0,1,78.268,113.859Zm4.163.558a10.466,10.466,0,0,1,3.081,2.988H82.431Zm-1.909.012v2.977H77.646A9.529,9.529,0,0,1,80.522,114.429ZM68.592,122.3a.876.876,0,0,0-.477.12.352.352,0,0,0-.192.3,1.058,1.058,0,0,0,.089.364l1.014,2.651c.031.079.066.169.107.264a.892.892,0,0,0,.162.252.67.67,0,0,0,.268.171,1.232,1.232,0,0,0,.426.062,1.054,1.054,0,0,0,.507-.1.672.672,0,0,0,.268-.229,3.978,3.978,0,0,0,.187-.391l.908-2.325.9,2.337a4.045,4.045,0,0,0,.183.384.651.651,0,0,0,.264.229,1.084,1.084,0,0,0,.511.1,1.068,1.068,0,0,0,.524-.1.656.656,0,0,0,.26-.24,3.649,3.649,0,0,0,.175-.4l1.014-2.651a1.178,1.178,0,0,0,.094-.364.35.35,0,0,0-.2-.3.882.882,0,0,0-.473-.12.81.81,0,0,0-.43.093.552.552,0,0,0-.2.205,2.042,2.042,0,0,0-.115.291l-.716,2.256-.8-2.112a3.775,3.775,0,0,0-.183-.388.7.7,0,0,0-.268-.236,1.1,1.1,0,0,0-.541-.109,1.163,1.163,0,0,0-.541.1.715.715,0,0,0-.285.244,2.686,2.686,0,0,0-.183.384l-.8,2.112-.72-2.271a1.243,1.243,0,0,0-.217-.415A.667.667,0,0,0,68.592,122.3Zm9.813,0a.876.876,0,0,0-.477.12.352.352,0,0,0-.192.3,1.086,1.086,0,0,0,.094.364l1.014,2.651c.031.079.066.169.107.264a.88.88,0,0,0,.158.252.67.67,0,0,0,.268.171,1.232,1.232,0,0,0,.426.062,1.072,1.072,0,0,0,.511-.1.656.656,0,0,0,.264-.229,3.98,3.98,0,0,0,.187-.391l.908-2.325.9,2.337a4.044,4.044,0,0,0,.183.384.651.651,0,0,0,.264.229,1.084,1.084,0,0,0,.511.1,1.068,1.068,0,0,0,.524-.1.656.656,0,0,0,.26-.24,3.644,3.644,0,0,0,.175-.4l1.014-2.651a1.178,1.178,0,0,0,.094-.364.35.35,0,0,0-.2-.3.882.882,0,0,0-.473-.12.81.81,0,0,0-.43.093.552.552,0,0,0-.2.205,2.042,2.042,0,0,0-.115.291l-.716,2.256-.8-2.112a3.775,3.775,0,0,0-.183-.388.687.687,0,0,0-.264-.236,1.1,1.1,0,0,0-.541-.109,1.182,1.182,0,0,0-.545.1.715.715,0,0,0-.285.244,2.687,2.687,0,0,0-.183.384l-.8,2.112-.72-2.271a1.24,1.24,0,0,0-.213-.415.678.678,0,0,0-.528-.159Zm9.813,0a.876.876,0,0,0-.477.12.352.352,0,0,0-.192.3,1.086,1.086,0,0,0,.094.364l1.014,2.651c.031.079.066.169.107.264a.88.88,0,0,0,.158.252.67.67,0,0,0,.268.171,1.232,1.232,0,0,0,.426.062,1.072,1.072,0,0,0,.511-.1.656.656,0,0,0,.264-.229,3.8,3.8,0,0,0,.192-.391l.9-2.325.9,2.337a4.041,4.041,0,0,0,.183.384.651.651,0,0,0,.264.229,1.084,1.084,0,0,0,.511.1,1.068,1.068,0,0,0,.524-.1.656.656,0,0,0,.26-.24,3.646,3.646,0,0,0,.175-.4l1.014-2.651a1.177,1.177,0,0,0,.094-.364.345.345,0,0,0-.192-.3.9.9,0,0,0-.477-.12.81.81,0,0,0-.43.093.552.552,0,0,0-.2.205,2.043,2.043,0,0,0-.115.291l-.712,2.256-.805-2.112a3.777,3.777,0,0,0-.183-.388.687.687,0,0,0-.264-.236,1.1,1.1,0,0,0-.541-.109,1.182,1.182,0,0,0-.545.1.715.715,0,0,0-.285.244,2.688,2.688,0,0,0-.183.384l-.8,2.112-.716-2.271a1.243,1.243,0,0,0-.217-.415A.678.678,0,0,0,88.217,122.3Zm-20.269,5.632c1.734,5.292,7.254,9.159,13.758,9.159s12.024-3.867,13.758-9.159H93.449a10.216,10.216,0,0,1-.69,1.446h-4.09a13.736,13.736,0,0,0,.439-1.446H87.161a11.354,11.354,0,0,1-.5,1.446H82.431v-1.446H80.522v1.446H76.658a13.678,13.678,0,0,1-.452-1.446h-1.96c.11.489.244.973.4,1.446H70.654a10.241,10.241,0,0,1-.695-1.446Zm3.958,3.182h3.421a11.044,11.044,0,0,0,2.816,3.779A12.525,12.525,0,0,1,71.907,131.11Zm5.548,0h3.068v3.244A8.558,8.558,0,0,1,77.454,131.11Zm4.977,0h3.281a9.955,9.955,0,0,1-3.281,3.163Zm5.475,0h3.6a12.641,12.641,0,0,1-7.013,3.957A11.929,11.929,0,0,0,87.906,131.11Z" transform="translate(-64.196 -111.689)" fill="#fff"/>
          <path id="Path_63" data-name="Path 63" d="M295.643,293.953H298.6l-.007,3.706-13.208-.008a.937.937,0,0,0-.455.1.313.313,0,0,0-.186.251l.014,6.789H282v3.953h7.08V304.8h-3.057l-.007-6.433,12.566.008-.007,4.828h-2.947v3.953h7.08V303.2h-2.864l.014-4.828,12.546.008-.062,6.429h-2.919v3.953h7.08v-3.953h-2.885l.055-6.785a.291.291,0,0,0-.179-.251.938.938,0,0,0-.455-.1l-13.18-.008.007-3.706h-4.223Z" transform="translate(-282 -269.605)" fill="#fff"/>
        </g>
      </g>
      <g id="Group_15" data-name="Group 15" transform="translate(1104.717 313.522)">
        <ellipse id="Ellipse_4" data-name="Ellipse 4" cx="31" cy="31.5" rx="31" ry="31.5" transform="translate(0.283 -0.32)" fill="#53a4cc"/>
        <path id="Icon_material-mail-outline" data-name="Icon material-mail-outline" d="M36.77,6H6.752A3.747,3.747,0,0,0,3.019,9.752L3,32.265a3.763,3.763,0,0,0,3.752,3.752H36.77a3.763,3.763,0,0,0,3.752-3.752V9.752A3.763,3.763,0,0,0,36.77,6Zm0,26.265H6.752V13.5l15.009,9.381L36.77,13.5ZM21.761,19.133,6.752,9.752H36.77Z" transform="translate(9.916 10.315)" fill="#fff"/>
      </g>
      <g id="Group_17" data-name="Group 17" transform="translate(1135.985 396.607)">
        <circle id="Ellipse_6" data-name="Ellipse 6" cx="31.5" cy="31.5" r="31.5" transform="translate(0.015 -0.404)" fill="#53a4cc"/>
        <g id="Icon_feather-music" data-name="Icon feather-music" transform="translate(11.257 15.009)">
          <path id="Path_53" data-name="Path 53" d="M13.5,32.642V8.252L36.013,4.5V28.889" transform="translate(-2.243 -4.5)" fill="none" stroke="#fff" stroke-linecap="round" stroke-linejoin="round" stroke-width="3"/>
          <path id="Path_54" data-name="Path 54" d="M15.757,28.128A5.628,5.628,0,1,1,10.128,22.5,5.628,5.628,0,0,1,15.757,28.128Z" transform="translate(-4.5 0.013)" fill="none" stroke="#fff" stroke-linecap="round" stroke-linejoin="round" stroke-width="3"/>
          <path id="Path_55" data-name="Path 55" d="M33.757,25.128A5.628,5.628,0,1,1,28.128,19.5,5.628,5.628,0,0,1,33.757,25.128Z" transform="translate(0.013 -0.739)" fill="none" stroke="#fff" stroke-linecap="round" stroke-linejoin="round" stroke-width="3"/>
        </g>
      </g>
      <g id="Group_19" data-name="Group 19" transform="translate(1104.717 471.651)">
        <ellipse id="Ellipse_8" data-name="Ellipse 8" cx="31" cy="31.5" rx="31" ry="31.5" transform="translate(0.283 -0.449)" fill="#53a4cc"/>
        <path id="Icon_feather-phone-call" data-name="Icon feather-phone-call" d="M25.148,8.3a8.494,8.494,0,0,1,6.71,6.71M25.148,1.5A15.29,15.29,0,0,1,38.654,14.989m-1.7,13.557v5.1a3.4,3.4,0,0,1-3.7,3.4A33.62,33.62,0,0,1,18.59,31.825,33.128,33.128,0,0,1,8.4,21.631,33.62,33.62,0,0,1,3.182,6.9,3.4,3.4,0,0,1,6.562,3.2h5.1a3.4,3.4,0,0,1,3.4,2.922,21.813,21.813,0,0,0,1.189,4.774,3.4,3.4,0,0,1-.764,3.585l-2.158,2.158A27.182,27.182,0,0,0,23.517,26.83l2.158-2.158a3.4,3.4,0,0,1,3.585-.764A21.813,21.813,0,0,0,34.033,25.1,3.4,3.4,0,0,1,36.955,28.546Z" transform="translate(10.59 12.215)" fill="none" stroke="#fff" stroke-linecap="round" stroke-linejoin="round" stroke-width="2"/>
      </g>
      <g id="Group_18" data-name="Group 18" transform="translate(1026.993 276)">
        <ellipse id="Ellipse_7" data-name="Ellipse 7" cx="31.5" cy="31" rx="31.5" ry="31" transform="translate(0.007 0.202)" fill="#53a4cc"/>
        <g id="Icon_feather-home" data-name="Icon feather-home" transform="translate(15.009 12.507)">
          <path id="Path_56" data-name="Path 56" d="M4.5,16.133,21.385,3,38.27,16.133V36.77a3.752,3.752,0,0,1-3.752,3.752H8.252A3.752,3.752,0,0,1,4.5,36.77Z" transform="translate(-4.5 -3)" fill="none" stroke="#fff" stroke-linecap="round" stroke-linejoin="round" stroke-width="3"/>
          <path id="Path_57" data-name="Path 57" d="M13.5,36.761V18H24.757V36.761" transform="translate(-2.243 0.761)" fill="none" stroke="#fff" stroke-linecap="round" stroke-linejoin="round" stroke-width="3"/>
        </g>
      </g>
      <g id="Group_20" data-name="Group 20" transform="translate(949.268 471.651)">
        <circle id="Ellipse_1" data-name="Ellipse 1" cx="31.5" cy="31.5" r="31.5" transform="translate(-0.268 -0.449)" fill="#53a4cc"/>
        <g id="Icon_feather-camera" data-name="Icon feather-camera" transform="translate(11.257 15.009)">
          <path id="Path_58" data-name="Path 58" d="M42.774,34.518a3.752,3.752,0,0,1-3.752,3.752H5.252A3.752,3.752,0,0,1,1.5,34.518V13.881a3.752,3.752,0,0,1,3.752-3.752h7.5L16.509,4.5H27.765l3.752,5.628h7.5a3.752,3.752,0,0,1,3.752,3.752Z" transform="translate(-1.5 -4.5)" fill="none" stroke="#fff" stroke-linecap="round" stroke-linejoin="round" stroke-width="3"/>
          <path id="Path_59" data-name="Path 59" d="M27.009,21a7.5,7.5,0,1,1-7.5-7.5,7.5,7.5,0,0,1,7.5,7.5Z" transform="translate(1.133 -2.243)" fill="none" stroke="#fff" stroke-linecap="round" stroke-linejoin="round" stroke-width="3"/>
        </g>
      </g>
      <g id="Group_16" data-name="Group 16" transform="translate(918 396.607)">
        <circle id="Ellipse_5" data-name="Ellipse 5" cx="31.5" cy="31.5" r="31.5" transform="translate(0 -0.404)" fill="#53a4cc"/>
        <path id="Icon_metro-airplane" data-name="Icon metro-airplane" d="M31.508,26.041,24.62,19.153l16.534-12.4L36.331,1.928,15.663,10.2,9.156,3.689c-1.876-1.876-4.5-2.325-5.821-1s-.877,3.946,1,5.821l6.507,6.507L2.571,35.688l4.823,4.823L19.8,23.975l6.889,6.889v9.645h4.823l2.411-7.234,7.234-2.411V26.041H31.508Z" transform="translate(9.243 9.669)" fill="none" stroke="#fff" stroke-width="3"/>
      </g>
      <path id="Icon_open-person" data-name="Icon open-person" d="M46.9,0C34,0,23.451,13.133,23.451,29.314S34,58.628,46.9,58.628,70.354,45.5,70.354,29.314,59.8,0,46.9,0ZM22.4,58.628A23.475,23.475,0,0,0,0,82.079V93.805H93.805V82.079a23.393,23.393,0,0,0-22.4-23.451C65.077,65.781,56.4,70.354,46.9,70.354S28.728,65.781,22.4,58.628Z" transform="translate(1010.912 365.338)" fill="#fff"/>
    </g>
    <g id="Group_25" data-name="Group 25" transform="translate(-1 -220.39)">
      <g id="Group_22" data-name="Group 22" transform="translate(943.002 425.125)">
        <rect id="Rectangle_52" data-name="Rectangle 52" width="30" height="66" transform="translate(66.998 94.265)" fill="#358ccc"/>
        <g id="Icon_ionic-ios-man" data-name="Icon ionic-ios-man">
          <path id="Path_64" data-name="Path 64" d="M30.042,31.41h-.067A15.143,15.143,0,1,1,45.185,16.268,15.179,15.179,0,0,1,30.042,31.41Z" transform="translate(7.965 -1.125)" fill="none" stroke="#fff" stroke-width="4"/>
          <path id="Path_65" data-name="Path 65" d="M36.459,135.444c-4.814,0-9.025-3.51-9.025-10.162l.334-92.794H24.425v35.1c0,3.109-1,5.048-2.139,6.117a7.1,7.1,0,0,1-10.162,0c-1.137-1.07-2.139-2.975-2.139-6.117V26.939A19.308,19.308,0,0,1,14.6,14.1,17.071,17.071,0,0,1,27.634,8.086H68.516a16.993,16.993,0,0,1,13.037,6.05,19.222,19.222,0,0,1,4.613,12.8V67.587c0,2.44-.568,4.613-2.206,6.117a7.513,7.513,0,0,1-10.362,0c-1.638-1.5-2.206-3.677-2.206-6.117v-35.1H68.382v92.794c0,6.585-4.479,10.162-9.293,10.162-4.479,0-8.791-3.109-9.159-9.961v-47.2H45.919v47.1C45.685,131.968,41.306,135.444,36.459,135.444Z" transform="translate(-9.984 25.007)" fill="none" stroke="#fff" stroke-width="4"/>
        </g>
        <line id="Line_8" data-name="Line 8" x2="19.467" transform="translate(68.133 112.653)" fill="none" stroke="#fff" stroke-width="4"/>
        <line id="Line_9" data-name="Line 9" x2="19.467" transform="translate(68.133 125.249)" fill="none" stroke="#fff" stroke-width="4"/>
      </g>
      <g id="Group_23" data-name="Group 23" transform="translate(1039.194 425.125)">
        <rect id="Rectangle_52-2" data-name="Rectangle 52" width="28" height="66" transform="translate(67.806 94.265)" fill="#358ccc"/>
        <g id="Icon_ionic-ios-man-2" data-name="Icon ionic-ios-man">
          <path id="Path_64-2" data-name="Path 64" d="M30.042,31.41h-.067A15.143,15.143,0,1,1,45.185,16.268,15.179,15.179,0,0,1,30.042,31.41Z" transform="translate(7.965 -1.125)" fill="none" stroke="#fff" stroke-width="4"/>
          <path id="Path_65-2" data-name="Path 65" d="M36.459,135.444c-4.814,0-9.025-3.51-9.025-10.162l.334-92.794H24.425v35.1c0,3.109-1,5.048-2.139,6.117a7.1,7.1,0,0,1-10.162,0c-1.137-1.07-2.139-2.975-2.139-6.117V26.939A19.308,19.308,0,0,1,14.6,14.1,17.071,17.071,0,0,1,27.634,8.086H68.516a16.993,16.993,0,0,1,13.037,6.05,19.222,19.222,0,0,1,4.613,12.8V67.587c0,2.44-.568,4.613-2.206,6.117a7.513,7.513,0,0,1-10.362,0c-1.638-1.5-2.206-3.677-2.206-6.117v-35.1H68.382v92.794c0,6.585-4.479,10.162-9.293,10.162-4.479,0-8.791-3.109-9.159-9.961v-47.2H45.919v47.1C45.685,131.968,41.306,135.444,36.459,135.444Z" transform="translate(-9.984 25.007)" fill="none" stroke="#fff" stroke-width="4"/>
        </g>
        <line id="Line_8-2" data-name="Line 8" x2="19.467" transform="translate(68.133 112.653)" fill="none" stroke="#fff" stroke-width="4"/>
        <line id="Line_9-2" data-name="Line 9" x2="19.467" transform="translate(68.133 125.249)" fill="none" stroke="#fff" stroke-width="4"/>
      </g>
      <g id="Group_24" data-name="Group 24" transform="translate(1135.385 425.125)">
        <rect id="Rectangle_52-3" data-name="Rectangle 52" width="29" height="66" transform="translate(67.615 94.265)" fill="#358ccc"/>
        <g id="Icon_ionic-ios-man-3" data-name="Icon ionic-ios-man">
          <path id="Path_64-3" data-name="Path 64" d="M30.042,31.41h-.067A15.143,15.143,0,1,1,45.185,16.268,15.179,15.179,0,0,1,30.042,31.41Z" transform="translate(7.965 -1.125)" fill="none" stroke="#fff" stroke-width="4"/>
          <path id="Path_65-3" data-name="Path 65" d="M36.459,135.444c-4.814,0-9.025-3.51-9.025-10.162l.334-92.794H24.425v35.1c0,3.109-1,5.048-2.139,6.117a7.1,7.1,0,0,1-10.162,0c-1.137-1.07-2.139-2.975-2.139-6.117V26.939A19.308,19.308,0,0,1,14.6,14.1,17.071,17.071,0,0,1,27.634,8.086H68.516a16.993,16.993,0,0,1,13.037,6.05,19.222,19.222,0,0,1,4.613,12.8V67.587c0,2.44-.568,4.613-2.206,6.117a7.513,7.513,0,0,1-10.362,0c-1.638-1.5-2.206-3.677-2.206-6.117v-35.1H68.382v92.794c0,6.585-4.479,10.162-9.293,10.162-4.479,0-8.791-3.109-9.159-9.961v-47.2H45.919v47.1C45.685,131.968,41.306,135.444,36.459,135.444Z" transform="translate(-9.984 25.007)" fill="none" stroke="#fff" stroke-width="4"/>
        </g>
        <line id="Line_8-3" data-name="Line 8" x2="19.467" transform="translate(68.133 112.653)" fill="none" stroke="#fff" stroke-width="4"/>
        <line id="Line_9-3" data-name="Line 9" x2="19.467" transform="translate(68.133 125.249)" fill="none" stroke="#fff" stroke-width="4"/>
      </g>
    </g>
    <g id="Group_33" data-name="Group 33" transform="translate(347 -31)">
      <rect id="Rectangle_85" data-name="Rectangle 85" width="882" height="469" rx="114" transform="translate(542 536)" fill="url(#linear-gradient)"/>
      <g id="Group_37" data-name="Group 37" transform="translate(30 -75)">
        <rect id="Rectangle_86" data-name="Rectangle 86" width="448" height="205" rx="52" transform="translate(847 800)" fill="#0f0f0f"/>
        <g id="Group_34" data-name="Group 34" transform="translate(979 669.972)">
          <g id="Ellipse_10" data-name="Ellipse 10" transform="translate(189.953 196)" fill="none" stroke="#fff" stroke-width="6">
            <circle cx="38.869" cy="38.869" r="38.869" stroke="none"/>
            <circle cx="38.869" cy="38.869" r="35.869" fill="none"/>
          </g>
          <g id="Ellipse_11" data-name="Ellipse 11" transform="translate(214.269 195.335) rotate(45)" fill="none" stroke="#fff" stroke-width="4">
            <ellipse cx="38.584" cy="17.984" rx="38.584" ry="17.984" stroke="none"/>
            <ellipse cx="38.584" cy="17.984" rx="36.584" ry="15.984" fill="none"/>
          </g>
          <g id="Ellipse_12" data-name="Ellipse 12" transform="translate(268.835 220.769) rotate(135)" fill="none" stroke="#fff" stroke-width="4">
            <ellipse cx="38.584" cy="17.984" rx="38.584" ry="17.984" stroke="none"/>
            <ellipse cx="38.584" cy="17.984" rx="36.584" ry="15.984" fill="none"/>
          </g>
          <circle id="Ellipse_13" data-name="Ellipse 13" cx="4.319" cy="4.319" r="4.319" transform="translate(224.503 209.436)" fill="#71c5bb"/>
          <circle id="Ellipse_14" data-name="Ellipse 14" cx="4.319" cy="4.319" r="4.319" transform="translate(224.503 252.624)" fill="#71c5bb"/>
          <ellipse id="Ellipse_15" data-name="Ellipse 15" cx="4.319" cy="3.839" rx="4.319" ry="3.839" transform="translate(203.389 231.51)" fill="#71c5bb"/>
          <ellipse id="Ellipse_16" data-name="Ellipse 16" cx="4.319" cy="3.839" rx="4.319" ry="3.839" transform="translate(245.617 231.51)" fill="#71c5bb"/>
        </g>
        <path id="Path_95" data-name="Path 95" d="M210.789,80a1.658,1.658,0,0,0-1.634,1.666v7.788H198.178a4.1,4.1,0,0,0-4.086,4.07v11.345h-7.868a1.643,1.643,0,1,0,0,3.285h7.868v5.817h-7.868a1.65,1.65,0,1,0,0,3.3h7.868v5.817h-7.868a1.659,1.659,0,0,0-1.458.817,1.635,1.635,0,0,0,1.458,2.468h7.868v5.833h-7.868a1.622,1.622,0,0,0-1.426.817,1.682,1.682,0,0,0,0,1.65,1.622,1.622,0,0,0,1.426.817h7.868v10.576a4.1,4.1,0,0,0,4.086,4.07h10.976v8.236a1.65,1.65,0,1,0,3.3,0v-8.236h5.865v8.236a1.65,1.65,0,1,0,3.3,0v-8.236h5.865v8.236a1.651,1.651,0,0,0,3.3,0v-8.236h5.865v8.236a1.651,1.651,0,0,0,3.3,0v-8.236h11.041a4.1,4.1,0,0,0,4.07-4.07V135.491h7.788a1.622,1.622,0,0,0,1.426-.817,1.682,1.682,0,0,0,0-1.65,1.622,1.622,0,0,0-1.426-.817h-7.788v-5.833h7.788a1.643,1.643,0,1,0,0-3.285h-7.788v-5.817h7.788a1.65,1.65,0,1,0,0-3.3h-7.788v-5.817h7.788a1.659,1.659,0,0,0,1.458-.817,1.635,1.635,0,0,0-1.458-2.468h-7.788V93.524a4.1,4.1,0,0,0-4.07-4.07H239.953V81.666a1.673,1.673,0,0,0-.481-1.186,1.753,1.753,0,0,0-1.2-.481,1.655,1.655,0,0,0-1.618,1.666v7.788h-5.865V81.666a1.608,1.608,0,0,0-.481-1.186A1.744,1.744,0,0,0,229.12,80a1.658,1.658,0,0,0-1.634,1.666v7.788h-5.865V81.666a1.608,1.608,0,0,0-.481-1.186A1.743,1.743,0,0,0,219.955,80a1.658,1.658,0,0,0-1.634,1.666v7.788h-5.865V81.666a1.608,1.608,0,0,0-.481-1.186A1.714,1.714,0,0,0,210.789,80ZM198.178,92.739h52.815a.745.745,0,0,1,.769.785v52.543a.732.732,0,0,1-.769.769H198.178a.736.736,0,0,1-.785-.769V93.524A.749.749,0,0,1,198.178,92.739ZM232.165,96.3a1.643,1.643,0,1,0,0,3.285H244.3v12.226a1.609,1.609,0,0,0,.817,1.458,1.651,1.651,0,0,0,2.484-1.458V97.947a1.676,1.676,0,0,0-.481-1.17,1.7,1.7,0,0,0-1.17-.481Zm-29.212.064a1.658,1.658,0,0,0-1.65,1.65v13.733a1.65,1.65,0,0,0,3.3,0V99.661h12.274a1.667,1.667,0,0,0,1.474-.817,1.635,1.635,0,0,0,0-1.666,1.667,1.667,0,0,0-1.474-.817Zm.048,29.58a1.645,1.645,0,0,0-1.618,1.667v13.877a1.645,1.645,0,0,0,1.65,1.634h13.781a1.622,1.622,0,0,0,1.426-.817,1.605,1.605,0,0,0,0-1.65,1.656,1.656,0,0,0-1.426-.817h-12.13V127.607A1.669,1.669,0,0,0,203,125.941Zm42.992.064a1.662,1.662,0,0,0-1.634,1.683V139.77H232.085a1.642,1.642,0,1,0,0,3.285H246.01a1.648,1.648,0,0,0,1.65-1.65V127.688a1.619,1.619,0,0,0-.481-1.2A1.744,1.744,0,0,0,245.994,126.005Z" transform="translate(710 785)" fill="#fff"/>
        <g id="Group_35" data-name="Group 35" transform="translate(634 354)">
          <g id="Rectangle_82" data-name="Rectangle 82" transform="translate(397 511)" fill="none" stroke="#fff" stroke-width="6">
            <rect width="80" height="80" stroke="none"/>
            <rect x="3" y="3" width="74" height="74" fill="none"/>
          </g>
          <g id="Path_95-2" data-name="Path 95" transform="translate(409.658 522.139)" fill="none">
            <path d="M0,0H55.19V55.19H0Z" stroke="none"/>
            <path d="M 6.000003814697266 6.000003814697266 L 6.000003814697266 49.18986892700195 L 49.18986892700195 49.18986892700195 L 49.18986892700195 6.000003814697266 L 6.000003814697266 6.000003814697266 M 3.814697265625e-06 3.814697265625e-06 L 55.18986892700195 3.814697265625e-06 L 55.18986892700195 55.18986892700195 L 3.814697265625e-06 55.18986892700195 L 3.814697265625e-06 3.814697265625e-06 Z" stroke="none" fill="#fff"/>
          </g>
          <g id="Rectangle_84" data-name="Rectangle 84" transform="translate(422.316 534.291)" fill="none" stroke="#358ccc" stroke-width="6">
            <rect width="30.38" height="30.38" stroke="none"/>
            <rect x="3" y="3" width="24.38" height="24.38" fill="none"/>
          </g>
        </g>
      </g>
      <g id="Group_36" data-name="Group 36" transform="translate(295 274.624)">
        <path id="Path_93" data-name="Path 93" d="M282,198.5V317.428h64.972a53.789,53.789,0,0,1-.311,6.254c-.622,4.917-1.774,7.313-6.908,9.522-4.885,2.085-8.962,2.925-12.073,4.388-4.916,2.023-6.379,3.7-6.628,5.477l77.7.124c-.062-1.774-1.773-3.361-4.356-4.512-3.578-1.618-8.215-3.143-12.7-4.667-5.819-2.24-7.095-3.33-8.308-7.655a31.012,31.012,0,0,1-.5-8.93h64.692V198.5Zm3.827,3.827H433.756v99.729H285.827Z" transform="translate(66 282)" fill="#fff"/>
        <path id="Path_94" data-name="Path 94" d="M28.448,0V23.464h6.159l-.014,21.994L7.051,45.412a1.136,1.136,0,0,0-.95.62,2.906,2.906,0,0,0-.388,1.492l.029,40.292H0V111.28H14.764V87.816H8.389l-.014-38.18,26.2.046-.014,28.652H28.419V101.8H43.183V78.334H37.211l.029-28.652,26.16.046-.129,38.157H57.184v23.464H71.948V87.885H65.933l.115-40.269a2.766,2.766,0,0,0-.374-1.492,1.136,1.136,0,0,0-.95-.62L37.24,45.458l.014-21.994h5.957V0Z" transform="translate(369.004 575.007) rotate(-90)" fill="#fff"/>
      </g>
      <line id="Line_10" data-name="Line 10" x2="882" transform="translate(542.5 628.5)" fill="none" stroke="#0f0f0f" stroke-width="4"/>
      <text id="Composable_Infrastructure" data-name="Composable Infrastructure" transform="translate(700 995)" fill="#358ccc" font-size="48" font-family="ArialMT, Arial"><tspan x="0" y="0">Composable Infrastructure</tspan></text>
      <text id="Unified_API" data-name="Unified API" transform="translate(849 597)" fill="#fff" font-size="48" font-family="ArialMT, Arial"><tspan x="0" y="0">Unified API</tspan></text>
      <text id="Software_Defined_Intelligence" data-name="Software Defined Intelligence" transform="translate(656 693)" fill="#fff" font-size="48" font-family="ArialMT, Arial"><tspan x="0" y="0">Software Defined Intelligence</tspan></text>
    </g>
    <g id="Group_38" data-name="Group 38" transform="translate(1064 396.333)">
      <path id="Path_96" data-name="Path 96" d="M16.443-7.393V41.289H517V17.682h-9.443V36.568l4.721-4.721H21.164l4.721,4.721V-7.393ZM35.328-2.671,21.164-31,7-2.671ZM526.444,22.4,512.279-5.925,498.115,22.4Z" transform="translate(0 0)" fill="#358ccc"/>
    </g>
    <g id="Group_39" data-name="Group 39" transform="translate(1308 484)">
      <path id="Path_97" data-name="Path 97" d="M28.364-46V.716H17.682V-46ZM39.046-3.339,23.023,20.99,7-3.339Z" transform="translate(0 0)" fill="#358ccc"/>
    </g>
    <g id="Group_40" data-name="Group 40" transform="translate(173 43)">
      <text id="Fluid_Resource_Pools" data-name="Fluid Resource Pools" transform="translate(316 96)" fill="#fff" font-size="36" font-family="Arial-BoldMT, Arial" font-weight="700" text-decoration="underline"><tspan x="0" y="0">Fluid Resource Pools</tspan></text>
    </g>
    <g id="Group_41" data-name="Group 41" transform="translate(173 27)">
      <text id="Software-Defined_Intelligence" data-name="Software-Defined 
Intelligence" transform="translate(316 409)" fill="#fff" font-size="36" font-family="Arial-BoldMT, Arial" font-weight="700" text-decoration="underline"><tspan x="0" y="0" xml:space="preserve">Software-Defined </tspan><tspan x="0" y="50">Intelligence</tspan></text>
    </g>
    <g id="Group_42" data-name="Group 42" transform="translate(175 63)">
      <text id="Unified_API-2" data-name="Unified API" transform="translate(316 722)" fill="#fff" font-size="36" font-family="Arial-BoldMT, Arial" font-weight="700" text-decoration="underline"><tspan x="0" y="0">Unified API</tspan></text>
    </g>
  </g>
</svg>
